<svg width="942" height="129" viewBox="0 0 942 129" fill="none" xmlns="http://www.w3.org/2000/svg">
<path d="M138.102 28.1203C137.798 28.1203 137.477 28.1684 137.173 28.2485L133.616 29.2259L129.931 20.2532C128.889 17.7056 125.797 15.6387 123.057 15.6387H88.5604C85.8045 15.6387 82.7281 17.7056 81.6867 20.2532L78.0014 29.2259L74.4925 28.2645C74.172 28.1844 73.8676 28.1363 73.5632 28.1363C71.8808 28.1363 70.6631 29.4181 70.6631 31.1806V33.2796C70.6631 35.3465 72.3455 37.0129 74.3964 37.0129H74.7969L74.2041 38.4549C73.2267 40.8102 72.4416 44.8159 72.4416 47.3795V65.2127C72.4416 67.2796 74.124 68.9459 76.1749 68.9459H81.0618C83.1287 68.9459 84.795 67.2636 84.795 65.2127V60.7584H126.806V65.2127C126.806 67.2796 128.489 68.9459 130.54 68.9459H135.427C137.493 68.9459 139.16 67.2636 139.16 65.2127V47.3795C139.16 44.8319 138.375 40.8262 137.397 38.4549L136.804 37.0129H137.253C139.32 37.0129 140.986 35.3305 140.986 33.2796V31.1806C140.986 29.4181 139.769 28.1363 138.086 28.1363L138.102 28.1203ZM80.6612 34.962L86.2371 21.3748C86.862 19.8526 88.7206 18.6029 90.3709 18.6029H121.23C122.881 18.6029 124.739 19.8526 125.364 21.3748L130.94 34.962C131.565 36.4841 130.732 37.7339 129.082 37.7339H82.5198C80.8695 37.7339 80.0363 36.4841 80.6612 34.962ZM93.1108 52.1542C93.1108 52.9714 92.4378 53.6443 91.6207 53.6443H81.0297C80.2126 53.6443 79.5396 52.9714 79.5396 52.1542V47.0751C79.5396 46.2579 80.2126 45.585 81.0297 45.585H91.6207C92.4378 45.585 93.1108 46.2579 93.1108 47.0751V52.1542ZM131.966 52.1542C131.966 52.9714 131.293 53.6443 130.476 53.6443H119.885C119.067 53.6443 118.394 52.9714 118.394 52.1542V47.0751C118.394 46.2579 119.067 45.585 119.885 45.585H130.476C131.293 45.585 131.966 46.2579 131.966 47.0751V52.1542Z" fill="#725054"/>
<path d="M161.094 0H143.389C140.809 0 138.71 2.09896 138.71 4.67861V22.3836C138.71 24.9633 140.809 27.0622 143.389 27.0622H150.503V66.7983C150.503 67.7597 151.288 68.5448 152.249 68.5448C153.21 68.5448 153.996 67.7597 153.996 66.7983V27.0622H161.11C163.689 27.0622 165.788 24.9633 165.788 22.3836V4.67861C165.788 2.09896 163.689 0 161.11 0H161.094ZM157.072 14.6767C156.046 15.59 154.556 16.0547 152.618 16.0547H150.054C149.75 16.0547 149.493 16.311 149.493 16.6155V20.9416C149.493 21.4062 149.109 21.7908 148.644 21.7908H146.705C146.241 21.7908 145.856 21.4062 145.856 20.9416V6.10462C145.856 5.63996 146.241 5.25542 146.705 5.25542H151.592C154.829 5.25542 156.046 5.7361 157.04 6.5853C158.081 7.48257 158.626 8.84449 158.626 10.639C158.626 12.4015 158.113 13.7474 157.088 14.6767H157.072Z" fill="#725054"/>
<path d="M154.301 8.84457C153.82 8.49208 152.987 8.2998 151.817 8.2998H150.055C149.751 8.2998 149.494 8.55617 149.494 8.8606V12.4176C149.494 12.7221 149.751 12.9784 150.055 12.9784H151.112C151.497 12.9784 152.122 12.9464 152.506 12.9143C152.875 12.8823 153.916 12.7221 154.301 12.4336C154.766 12.0811 154.99 11.4883 154.99 10.6391C154.99 9.78991 154.75 9.18105 154.301 8.84457Z" fill="#725054"/>
<path d="M5.96042 106.761C5.0247 106.761 4.1787 106.6 3.42243 106.28C2.67898 105.959 2.08935 105.498 1.65354 104.896C1.21772 104.293 0.993403 103.582 0.980585 102.761H3.86466C3.90311 103.312 4.09538 103.748 4.44147 104.069C4.80038 104.389 5.28747 104.549 5.90274 104.549C6.53082 104.549 7.02432 104.402 7.38323 104.107C7.74213 103.8 7.92159 103.402 7.92159 102.915C7.92159 102.518 7.79982 102.191 7.55627 101.935C7.31273 101.678 7.00509 101.48 6.63337 101.339C6.27446 101.185 5.77455 101.018 5.13365 100.839C4.26202 100.582 3.55061 100.332 2.99944 100.089C2.46108 99.8324 1.99321 99.4542 1.59585 98.9543C1.21131 98.4416 1.01904 97.7623 1.01904 96.9163C1.01904 96.1215 1.21772 95.4294 1.61508 94.8397C2.01244 94.2501 2.57003 93.8015 3.28784 93.4938C4.00566 93.1734 4.82602 93.0132 5.74892 93.0132C7.13327 93.0132 8.25486 93.3528 9.11367 94.0322C9.9853 94.6987 10.466 95.6345 10.5557 96.8394H7.59473C7.56909 96.3779 7.37041 95.9998 6.99868 95.705C6.63978 95.3973 6.1591 95.2435 5.55665 95.2435C5.0311 95.2435 4.60811 95.3781 4.28765 95.6473C3.98002 95.9165 3.8262 96.3074 3.8262 96.8201C3.8262 97.179 3.94157 97.4803 4.17229 97.7238C4.41584 97.9545 4.71065 98.1468 5.05674 98.3006C5.41565 98.4416 5.91555 98.6083 6.55646 98.8005C7.42809 99.0569 8.13949 99.3132 8.69067 99.5696C9.24185 99.826 9.71612 100.211 10.1135 100.723C10.5108 101.236 10.7095 101.909 10.7095 102.742C10.7095 103.46 10.5237 104.126 10.1519 104.742C9.78021 105.357 9.23544 105.85 8.51763 106.222C7.79982 106.581 6.94741 106.761 5.96042 106.761ZM15.735 97.5123C16.0811 97.0252 16.5554 96.6214 17.1578 96.301C17.7731 95.9677 18.4717 95.8011 19.2536 95.8011C20.1637 95.8011 20.984 96.0254 21.7147 96.474C22.4581 96.9227 23.0413 97.5636 23.4643 98.3968C23.9002 99.2171 24.1181 100.172 24.1181 101.262C24.1181 102.351 23.9002 103.319 23.4643 104.165C23.0413 104.998 22.4581 105.645 21.7147 106.107C20.984 106.568 20.1637 106.799 19.2536 106.799C18.4717 106.799 17.7795 106.639 17.1771 106.318C16.5874 105.998 16.1067 105.594 15.735 105.107V111.702H13.0432V95.9741H15.735V97.5123ZM21.3686 101.262C21.3686 100.621 21.234 100.07 20.9648 99.6081C20.7084 99.1338 20.3624 98.7749 19.9265 98.5313C19.5035 98.2878 19.0421 98.166 18.5422 98.166C18.0551 98.166 17.5936 98.2942 17.1578 98.5506C16.7348 98.7941 16.3887 99.153 16.1196 99.6273C15.8632 100.102 15.735 100.659 15.735 101.3C15.735 101.941 15.8632 102.499 16.1196 102.973C16.3887 103.447 16.7348 103.812 17.1578 104.069C17.5936 104.312 18.0551 104.434 18.5422 104.434C19.0421 104.434 19.5035 104.306 19.9265 104.05C20.3624 103.793 20.7084 103.428 20.9648 102.954C21.234 102.479 21.3686 101.915 21.3686 101.262ZM25.3819 101.262C25.3819 100.185 25.5934 99.2299 26.0164 98.3968C26.4523 97.5636 27.0355 96.9227 27.7661 96.474C28.5096 96.0254 29.3363 95.8011 30.2464 95.8011C31.0411 95.8011 31.7333 95.9613 32.3229 96.2818C32.9254 96.6022 33.4061 97.006 33.765 97.4931V95.9741H36.476V106.626H33.765V105.069C33.4189 105.568 32.9382 105.985 32.3229 106.318C31.7205 106.639 31.0219 106.799 30.2272 106.799C29.3299 106.799 28.5096 106.568 27.7661 106.107C27.0355 105.645 26.4523 104.998 26.0164 104.165C25.5934 103.319 25.3819 102.351 25.3819 101.262ZM33.765 101.3C33.765 100.646 33.6368 100.089 33.3804 99.6273C33.1241 99.153 32.778 98.7941 32.3422 98.5506C31.9064 98.2942 31.4385 98.166 30.9386 98.166C30.4387 98.166 29.9772 98.2878 29.5542 98.5313C29.1312 98.7749 28.7852 99.1338 28.516 99.6081C28.2596 100.07 28.1314 100.621 28.1314 101.262C28.1314 101.903 28.2596 102.467 28.516 102.954C28.7852 103.428 29.1312 103.793 29.5542 104.05C29.9901 104.306 30.4515 104.434 30.9386 104.434C31.4385 104.434 31.9064 104.312 32.3422 104.069C32.778 103.812 33.1241 103.453 33.3804 102.992C33.6368 102.518 33.765 101.954 33.765 101.3ZM38.4128 101.3C38.4128 100.198 38.6372 99.2363 39.0858 98.416C39.5344 97.5828 40.1561 96.9419 40.9508 96.4933C41.7456 96.0318 42.6556 95.8011 43.6811 95.8011C45.0014 95.8011 46.0909 96.1344 46.9497 96.8009C47.8213 97.4546 48.4046 98.3775 48.6994 99.5696H45.7961C45.6423 99.1082 45.3795 98.7493 45.0078 98.4929C44.6489 98.2237 44.2002 98.0891 43.6619 98.0891C42.8928 98.0891 42.2839 98.3711 41.8353 98.9351C41.3866 99.4863 41.1623 100.275 41.1623 101.3C41.1623 102.313 41.3866 103.101 41.8353 103.665C42.2839 104.216 42.8928 104.492 43.6619 104.492C44.7514 104.492 45.4628 104.005 45.7961 103.03H48.6994C48.4046 104.184 47.8213 105.101 46.9497 105.78C46.0781 106.459 44.9885 106.799 43.6811 106.799C42.6556 106.799 41.7456 106.575 40.9508 106.126C40.1561 105.665 39.5344 105.024 39.0858 104.203C38.6372 103.37 38.4128 102.402 38.4128 101.3ZM52.0365 94.7051C51.5622 94.7051 51.1649 94.5577 50.8444 94.2629C50.5368 93.9553 50.383 93.5771 50.383 93.1285C50.383 92.6799 50.5368 92.3082 50.8444 92.0133C51.1649 91.7057 51.5622 91.5519 52.0365 91.5519C52.5108 91.5519 52.9017 91.7057 53.2093 92.0133C53.5298 92.3082 53.69 92.6799 53.69 93.1285C53.69 93.5771 53.5298 93.9553 53.2093 94.2629C52.9017 94.5577 52.5108 94.7051 52.0365 94.7051ZM53.3632 95.9741V106.626H50.6714V95.9741H53.3632ZM60.7525 106.799C59.7271 106.799 58.8042 106.575 57.9838 106.126C57.1635 105.665 56.5162 105.017 56.0419 104.184C55.5804 103.351 55.3497 102.39 55.3497 101.3C55.3497 100.211 55.5868 99.2492 56.0611 98.416C56.5482 97.5828 57.2083 96.9419 58.0415 96.4933C58.8747 96.0318 59.804 95.8011 60.8295 95.8011C61.8549 95.8011 62.7842 96.0318 63.6174 96.4933C64.4506 96.9419 65.1043 97.5828 65.5786 98.416C66.0656 99.2492 66.3092 100.211 66.3092 101.3C66.3092 102.39 66.0592 103.351 65.5593 104.184C65.0722 105.017 64.4057 105.665 63.5597 106.126C62.7265 106.575 61.7908 106.799 60.7525 106.799ZM60.7525 104.453C61.2396 104.453 61.6947 104.338 62.1177 104.107C62.5535 103.864 62.8996 103.505 63.1559 103.03C63.4123 102.556 63.5405 101.979 63.5405 101.3C63.5405 100.287 63.2713 99.5119 62.7329 98.9736C62.2074 98.4224 61.5601 98.1468 60.791 98.1468C60.0219 98.1468 59.3746 98.4224 58.8491 98.9736C58.3363 99.5119 58.08 100.287 58.08 101.3C58.08 102.313 58.3299 103.095 58.8298 103.646C59.3426 104.184 59.9835 104.453 60.7525 104.453ZM78.3395 95.9741V106.626H75.6285V105.28C75.2824 105.742 74.8274 106.107 74.2634 106.376C73.7122 106.632 73.1097 106.761 72.456 106.761C71.6228 106.761 70.8858 106.588 70.2449 106.241C69.604 105.883 69.0977 105.363 68.726 104.684C68.367 103.992 68.1876 103.171 68.1876 102.223V95.9741H70.8794V101.838C70.8794 102.684 71.0909 103.338 71.5139 103.8C71.9369 104.248 72.5137 104.473 73.2443 104.473C73.9878 104.473 74.571 104.248 74.994 103.8C75.417 103.338 75.6285 102.684 75.6285 101.838V95.9741H78.3395ZM85.0716 106.799C84.2 106.799 83.418 106.645 82.7259 106.338C82.0337 106.017 81.4825 105.588 81.0723 105.049C80.675 104.511 80.4571 103.915 80.4186 103.261H83.1296C83.1809 103.671 83.3796 104.011 83.7257 104.28C84.0846 104.549 84.5268 104.684 85.0524 104.684C85.5651 104.684 85.9624 104.581 86.2444 104.376C86.5393 104.171 86.6867 103.909 86.6867 103.588C86.6867 103.242 86.5072 102.986 86.1483 102.819C85.8022 102.64 85.2446 102.447 84.4755 102.242C83.6808 102.05 83.0271 101.851 82.5144 101.646C82.0145 101.441 81.5787 101.127 81.2069 100.704C80.848 100.281 80.6686 99.7106 80.6686 98.9928C80.6686 98.4032 80.8352 97.8648 81.1685 97.3777C81.5146 96.8906 82.0016 96.5061 82.6297 96.2241C83.2706 95.9421 84.0205 95.8011 84.8793 95.8011C86.1483 95.8011 87.1609 96.1215 87.9172 96.7624C88.6735 97.3905 89.0901 98.2429 89.167 99.3197H86.5905C86.5521 98.8967 86.3726 98.5634 86.0522 98.3198C85.7445 98.0635 85.3279 97.9353 84.8024 97.9353C84.3153 97.9353 83.9372 98.025 83.668 98.2045C83.4116 98.3839 83.2835 98.6339 83.2835 98.9543C83.2835 99.3132 83.4629 99.5888 83.8218 99.7811C84.1807 99.9606 84.7383 100.146 85.4946 100.339C86.2637 100.531 86.8982 100.73 87.3981 100.935C87.898 101.14 88.3274 101.46 88.6863 101.896C89.058 102.319 89.2503 102.883 89.2631 103.588C89.2631 104.203 89.0901 104.755 88.744 105.242C88.4107 105.729 87.9236 106.113 87.2827 106.395C86.6546 106.664 85.9176 106.799 85.0716 106.799ZM95.362 101.3C95.362 100.198 95.5863 99.2363 96.035 98.416C96.4836 97.5828 97.1053 96.9419 97.9 96.4933C98.6947 96.0318 99.6048 95.8011 100.63 95.8011C101.951 95.8011 103.04 96.1344 103.899 96.8009C104.771 97.4546 105.354 98.3775 105.649 99.5696H102.745C102.591 99.1082 102.329 98.7493 101.957 98.4929C101.598 98.2237 101.149 98.0891 100.611 98.0891C99.8419 98.0891 99.2331 98.3711 98.7845 98.9351C98.3358 99.4863 98.1115 100.275 98.1115 101.3C98.1115 102.313 98.3358 103.101 98.7845 103.665C99.2331 104.216 99.8419 104.492 100.611 104.492C101.701 104.492 102.412 104.005 102.745 103.03H105.649C105.354 104.184 104.771 105.101 103.899 105.78C103.027 106.459 101.938 106.799 100.63 106.799C99.6048 106.799 98.6947 106.575 97.9 106.126C97.1053 105.665 96.4836 105.024 96.035 104.203C95.5863 103.37 95.362 102.402 95.362 101.3ZM106.928 101.262C106.928 100.185 107.14 99.2299 107.563 98.3968C107.999 97.5636 108.582 96.9227 109.313 96.474C110.056 96.0254 110.883 95.8011 111.793 95.8011C112.588 95.8011 113.28 95.9613 113.869 96.2818C114.472 96.6022 114.952 97.006 115.311 97.4931V95.9741H118.022V106.626H115.311V105.069C114.965 105.568 114.485 105.985 113.869 106.318C113.267 106.639 112.568 106.799 111.774 106.799C110.876 106.799 110.056 106.568 109.313 106.107C108.582 105.645 107.999 104.998 107.563 104.165C107.14 103.319 106.928 102.351 106.928 101.262ZM115.311 101.3C115.311 100.646 115.183 100.089 114.927 99.6273C114.67 99.153 114.324 98.7941 113.889 98.5506C113.453 98.2942 112.985 98.166 112.485 98.166C111.985 98.166 111.524 98.2878 111.101 98.5313C110.678 98.7749 110.332 99.1338 110.062 99.6081C109.806 100.07 109.678 100.621 109.678 101.262C109.678 101.903 109.806 102.467 110.062 102.954C110.332 103.428 110.678 103.793 111.101 104.05C111.536 104.306 111.998 104.434 112.485 104.434C112.985 104.434 113.453 104.312 113.889 104.069C114.324 103.812 114.67 103.453 114.927 102.992C115.183 102.518 115.311 101.954 115.311 101.3ZM123.343 97.6277C123.689 97.0637 124.138 96.6214 124.689 96.301C125.253 95.9805 125.894 95.8203 126.612 95.8203V98.6467H125.9C125.054 98.6467 124.414 98.8454 123.978 99.2428C123.555 99.6401 123.343 100.332 123.343 101.319V106.626H120.651V95.9741H123.343V97.6277ZM135.698 97.5123C136.044 97.0252 136.519 96.6214 137.121 96.301C137.736 95.9677 138.435 95.8011 139.217 95.8011C140.127 95.8011 140.947 96.0254 141.678 96.474C142.421 96.9227 143.004 97.5636 143.427 98.3968C143.863 99.2171 144.081 100.172 144.081 101.262C144.081 102.351 143.863 103.319 143.427 104.165C143.004 104.998 142.421 105.645 141.678 106.107C140.947 106.568 140.127 106.799 139.217 106.799C138.435 106.799 137.743 106.639 137.14 106.318C136.551 105.998 136.07 105.594 135.698 105.107V111.702H133.006V95.9741H135.698V97.5123ZM141.332 101.262C141.332 100.621 141.197 100.07 140.928 99.6081C140.672 99.1338 140.326 98.7749 139.89 98.5313C139.467 98.2878 139.005 98.166 138.505 98.166C138.018 98.166 137.557 98.2942 137.121 98.5506C136.698 98.7941 136.352 99.153 136.083 99.6273C135.826 100.102 135.698 100.659 135.698 101.3C135.698 101.941 135.826 102.499 136.083 102.973C136.352 103.447 136.698 103.812 137.121 104.069C137.557 104.312 138.018 104.434 138.505 104.434C139.005 104.434 139.467 104.306 139.89 104.05C140.326 103.793 140.672 103.428 140.928 102.954C141.197 102.479 141.332 101.915 141.332 101.262ZM145.345 101.262C145.345 100.185 145.557 99.2299 145.98 98.3968C146.415 97.5636 146.999 96.9227 147.729 96.474C148.473 96.0254 149.299 95.8011 150.21 95.8011C151.004 95.8011 151.696 95.9613 152.286 96.2818C152.889 96.6022 153.369 97.006 153.728 97.4931V95.9741H156.439V106.626H153.728V105.069C153.382 105.568 152.901 105.985 152.286 106.318C151.684 106.639 150.985 106.799 150.19 106.799C149.293 106.799 148.473 106.568 147.729 106.107C146.999 105.645 146.415 104.998 145.98 104.165C145.557 103.319 145.345 102.351 145.345 101.262ZM153.728 101.3C153.728 100.646 153.6 100.089 153.344 99.6273C153.087 99.153 152.741 98.7941 152.305 98.5506C151.87 98.2942 151.402 98.166 150.902 98.166C150.402 98.166 149.94 98.2878 149.517 98.5313C149.094 98.7749 148.748 99.1338 148.479 99.6081C148.223 100.07 148.095 100.621 148.095 101.262C148.095 101.903 148.223 102.467 148.479 102.954C148.748 103.428 149.094 103.793 149.517 104.05C149.953 104.306 150.415 104.434 150.902 104.434C151.402 104.434 151.87 104.312 152.305 104.069C152.741 103.812 153.087 103.453 153.344 102.992C153.6 102.518 153.728 101.954 153.728 101.3ZM161.76 97.6277C162.106 97.0637 162.555 96.6214 163.106 96.301C163.67 95.9805 164.311 95.8203 165.029 95.8203V98.6467H164.317C163.471 98.6467 162.83 98.8454 162.394 99.2428C161.971 99.6401 161.76 100.332 161.76 101.319V106.626H159.068V95.9741H161.76V97.6277ZM173.148 106.626L169.533 102.088V106.626H166.842V92.3979H169.533V100.493L173.11 95.9741H176.609L171.918 101.319L176.648 106.626H173.148ZM179.435 94.7051C178.961 94.7051 178.564 94.5577 178.243 94.2629C177.935 93.9553 177.782 93.5771 177.782 93.1285C177.782 92.6799 177.935 92.3082 178.243 92.0133C178.564 91.7057 178.961 91.5519 179.435 91.5519C179.909 91.5519 180.3 91.7057 180.608 92.0133C180.928 92.3082 181.089 92.6799 181.089 93.1285C181.089 93.5771 180.928 93.9553 180.608 94.2629C180.3 94.5577 179.909 94.7051 179.435 94.7051ZM180.762 95.9741V106.626H178.07V95.9741H180.762ZM189.324 95.8203C190.593 95.8203 191.618 96.2241 192.4 97.0316C193.182 97.8263 193.573 98.9415 193.573 100.377V106.626H190.881V100.742C190.881 99.8965 190.67 99.2492 190.247 98.8005C189.824 98.3391 189.247 98.1083 188.517 98.1083C187.773 98.1083 187.183 98.3391 186.748 98.8005C186.325 99.2492 186.113 99.8965 186.113 100.742V106.626H183.421V95.9741H186.113V97.3008C186.472 96.8394 186.927 96.4804 187.478 96.2241C188.042 95.9549 188.658 95.8203 189.324 95.8203ZM200.305 95.8011C201.1 95.8011 201.799 95.9613 202.401 96.2818C203.004 96.5894 203.478 96.9932 203.824 97.4931V95.9741H206.535V106.703C206.535 107.69 206.336 108.568 205.939 109.337C205.542 110.119 204.945 110.734 204.151 111.183C203.356 111.644 202.395 111.875 201.267 111.875C199.754 111.875 198.511 111.522 197.537 110.817C196.575 110.113 196.03 109.151 195.902 107.933H198.575C198.716 108.421 199.017 108.805 199.479 109.087C199.953 109.382 200.523 109.529 201.19 109.529C201.972 109.529 202.606 109.292 203.093 108.818C203.58 108.356 203.824 107.651 203.824 106.703V105.049C203.478 105.549 202.997 105.966 202.382 106.299C201.779 106.632 201.087 106.799 200.305 106.799C199.408 106.799 198.588 106.568 197.844 106.107C197.101 105.645 196.511 104.998 196.075 104.165C195.652 103.319 195.441 102.351 195.441 101.262C195.441 100.185 195.652 99.2299 196.075 98.3968C196.511 97.5636 197.094 96.9227 197.825 96.474C198.568 96.0254 199.395 95.8011 200.305 95.8011ZM203.824 101.3C203.824 100.646 203.696 100.089 203.439 99.6273C203.183 99.153 202.837 98.7941 202.401 98.5506C201.965 98.2942 201.497 98.166 200.997 98.166C200.498 98.166 200.036 98.2878 199.613 98.5313C199.19 98.7749 198.844 99.1338 198.575 99.6081C198.319 100.07 198.19 100.621 198.19 101.262C198.19 101.903 198.319 102.467 198.575 102.954C198.844 103.428 199.19 103.793 199.613 104.05C200.049 104.306 200.51 104.434 200.997 104.434C201.497 104.434 201.965 104.312 202.401 104.069C202.837 103.812 203.183 103.453 203.439 102.992C203.696 102.518 203.824 101.954 203.824 101.3Z" fill="#725054"/>
<path d="M414.798 38.7303L411.161 32.866C414.975 37.6087 422.041 37.849 426.158 33.4588C429.924 29.4532 429.731 23.1723 425.726 19.407C421.72 15.6417 415.439 15.834 411.674 19.8396C408.79 22.916 408.261 27.2901 409.879 30.8151L401.083 16.6351L414.141 12.8698C418.195 11.7001 420.118 7.05355 418.051 3.36835C416.561 0.692567 413.452 -0.589243 410.504 0.259956L390.748 5.96401C385.621 7.43809 383.33 13.3985 386.15 17.9329L392.126 27.5625L381.647 34.0677C394.241 34.3561 403.358 38.2015 414.798 38.7303Z" fill="#725054"/>
<path d="M364.151 45.2689C392.8 37.1294 403.615 53.5686 435.34 45.2689C436.526 44.9645 437.231 43.7468 436.926 42.5611C436.622 41.3754 435.404 40.6704 434.218 40.9749C403.727 48.9381 392.896 32.4668 362.934 40.9749C361.764 41.3113 361.075 42.5291 361.412 43.7147C361.748 44.9004 362.966 45.5734 364.151 45.2369V45.2689Z" fill="#725054"/>
<path d="M434.218 51.3242C403.679 59.3035 392.96 42.8002 362.934 51.3242C361.764 51.6607 361.075 52.8784 361.412 54.0641C361.748 55.2498 362.966 55.9227 364.151 55.5862C392.8 47.4467 403.615 63.8859 435.34 55.5862C436.526 55.2818 437.231 54.0641 436.926 52.8784C436.622 51.6927 435.404 50.9877 434.218 51.2922V51.3242Z" fill="#725054"/>
<path d="M307.96 96.1561C307.025 96.1561 306.179 95.9958 305.422 95.6754C304.679 95.3549 304.089 94.8935 303.654 94.291C303.218 93.6886 302.993 92.9772 302.981 92.1568H305.865C305.903 92.708 306.095 93.1438 306.441 93.4643C306.8 93.7847 307.287 93.945 307.903 93.945C308.531 93.945 309.024 93.7975 309.383 93.5027C309.742 93.1951 309.922 92.7977 309.922 92.3106C309.922 91.9133 309.8 91.5864 309.556 91.3301C309.313 91.0737 309.005 90.875 308.633 90.734C308.274 90.5802 307.775 90.4136 307.134 90.2341C306.262 89.9777 305.551 89.7278 304.999 89.4843C304.461 89.2279 303.993 88.8498 303.596 88.3499C303.211 87.8371 303.019 87.1578 303.019 86.3118C303.019 85.5171 303.218 84.8249 303.615 84.2352C304.012 83.6456 304.57 83.197 305.288 82.8893C306.006 82.5689 306.826 82.4087 307.749 82.4087C309.133 82.4087 310.255 82.7483 311.114 83.4277C311.985 84.0942 312.466 85.03 312.556 86.2349H309.595C309.569 85.7734 309.37 85.3953 308.999 85.1005C308.64 84.7928 308.159 84.639 307.557 84.639C307.031 84.639 306.608 84.7736 306.288 85.0428C305.98 85.312 305.826 85.7029 305.826 86.2156C305.826 86.5745 305.942 86.8758 306.172 87.1193C306.416 87.35 306.711 87.5423 307.057 87.6961C307.416 87.8371 307.916 88.0038 308.556 88.196C309.428 88.4524 310.139 88.7088 310.691 88.9651C311.242 89.2215 311.716 89.606 312.113 90.1187C312.511 90.6315 312.71 91.3044 312.71 92.1376C312.71 92.8554 312.524 93.522 312.152 94.1372C311.78 94.7525 311.235 95.246 310.518 95.6177C309.8 95.9766 308.947 96.1561 307.96 96.1561ZM329.81 85.3696L326.695 96.0215H323.792L321.85 88.5806L319.908 96.0215H316.985L313.851 85.3696H316.581L318.466 93.4835L320.504 85.3696H323.349L325.349 93.4643L327.233 85.3696H329.81ZM332.631 84.1007C332.157 84.1007 331.76 83.9532 331.439 83.6584C331.132 83.3508 330.978 82.9727 330.978 82.524C330.978 82.0754 331.132 81.7037 331.439 81.4088C331.76 81.1012 332.157 80.9474 332.631 80.9474C333.106 80.9474 333.496 81.1012 333.804 81.4088C334.125 81.7037 334.285 82.0754 334.285 82.524C334.285 82.9727 334.125 83.3508 333.804 83.6584C333.496 83.9532 333.106 84.1007 332.631 84.1007ZM333.958 85.3696V96.0215H331.266V85.3696H333.958ZM349.846 85.2158C351.153 85.2158 352.204 85.6196 352.999 86.4271C353.807 87.2219 354.21 88.337 354.21 89.7727V96.0215H351.518V90.138C351.518 89.3048 351.307 88.6703 350.884 88.2345C350.461 87.7859 349.884 87.5615 349.154 87.5615C348.423 87.5615 347.84 87.7859 347.404 88.2345C346.981 88.6703 346.769 89.3048 346.769 90.138V96.0215H344.078V90.138C344.078 89.3048 343.866 88.6703 343.443 88.2345C343.02 87.7859 342.443 87.5615 341.713 87.5615C340.969 87.5615 340.38 87.7859 339.944 88.2345C339.521 88.6703 339.309 89.3048 339.309 90.138V96.0215H336.617V85.3696H339.309V86.6579C339.655 86.2092 340.098 85.8567 340.636 85.6004C341.187 85.344 341.79 85.2158 342.443 85.2158C343.276 85.2158 344.02 85.3953 344.674 85.7542C345.327 86.1003 345.834 86.6002 346.193 87.2539C346.539 86.6386 347.039 86.1451 347.692 85.7734C348.359 85.4017 349.077 85.2158 349.846 85.2158ZM369.993 85.2158C371.3 85.2158 372.351 85.6196 373.146 86.4271C373.954 87.2219 374.357 88.337 374.357 89.7727V96.0215H371.666V90.138C371.666 89.3048 371.454 88.6703 371.031 88.2345C370.608 87.7859 370.031 87.5615 369.301 87.5615C368.57 87.5615 367.987 87.7859 367.551 88.2345C367.128 88.6703 366.917 89.3048 366.917 90.138V96.0215H364.225V90.138C364.225 89.3048 364.013 88.6703 363.59 88.2345C363.167 87.7859 362.59 87.5615 361.86 87.5615C361.116 87.5615 360.527 87.7859 360.091 88.2345C359.668 88.6703 359.456 89.3048 359.456 90.138V96.0215H356.765V85.3696H359.456V86.6579C359.803 86.2092 360.245 85.8567 360.783 85.6004C361.334 85.344 361.937 85.2158 362.59 85.2158C363.424 85.2158 364.167 85.3953 364.821 85.7542C365.475 86.1003 365.981 86.6002 366.34 87.2539C366.686 86.6386 367.186 86.1451 367.839 85.7734C368.506 85.4017 369.224 85.2158 369.993 85.2158ZM378.277 84.1007C377.803 84.1007 377.405 83.9532 377.085 83.6584C376.777 83.3508 376.623 82.9727 376.623 82.524C376.623 82.0754 376.777 81.7037 377.085 81.4088C377.405 81.1012 377.803 80.9474 378.277 80.9474C378.751 80.9474 379.142 81.1012 379.45 81.4088C379.77 81.7037 379.931 82.0754 379.931 82.524C379.931 82.9727 379.77 83.3508 379.45 83.6584C379.142 83.9532 378.751 84.1007 378.277 84.1007ZM379.604 85.3696V96.0215H376.912V85.3696H379.604ZM388.166 85.2158C389.435 85.2158 390.46 85.6196 391.242 86.4271C392.024 87.2219 392.415 88.337 392.415 89.7727V96.0215H389.723V90.138C389.723 89.292 389.512 88.6447 389.089 88.196C388.666 87.7346 388.089 87.5039 387.358 87.5039C386.615 87.5039 386.025 87.7346 385.589 88.196C385.166 88.6447 384.955 89.292 384.955 90.138V96.0215H382.263V85.3696H384.955V86.6963C385.314 86.2349 385.769 85.876 386.32 85.6196C386.884 85.3504 387.499 85.2158 388.166 85.2158ZM399.147 85.1966C399.942 85.1966 400.64 85.3568 401.243 85.6773C401.845 85.9849 402.32 86.3887 402.666 86.8886V85.3696H405.377V96.0984C405.377 97.0854 405.178 97.9634 404.781 98.7325C404.383 99.5144 403.787 100.13 402.993 100.578C402.198 101.04 401.236 101.27 400.109 101.27C398.596 101.27 397.353 100.918 396.378 100.213C395.417 99.508 394.872 98.5467 394.744 97.3289H397.417C397.558 97.816 397.859 98.2006 398.32 98.4826C398.795 98.7774 399.365 98.9248 400.032 98.9248C400.813 98.9248 401.448 98.6876 401.935 98.2134C402.422 97.7519 402.666 97.0469 402.666 96.0984V94.4449C402.32 94.9448 401.839 95.3614 401.224 95.6946C400.621 96.0279 399.929 96.1945 399.147 96.1945C398.25 96.1945 397.43 95.9638 396.686 95.5024C395.943 95.0409 395.353 94.3936 394.917 93.5604C394.494 92.7144 394.283 91.7466 394.283 90.6571C394.283 89.5804 394.494 88.6254 394.917 87.7923C395.353 86.9591 395.936 86.3182 396.667 85.8695C397.41 85.4209 398.237 85.1966 399.147 85.1966ZM402.666 90.6956C402.666 90.0418 402.538 89.4843 402.281 89.0228C402.025 88.5485 401.679 88.1896 401.243 87.9461C400.807 87.6897 400.339 87.5615 399.839 87.5615C399.339 87.5615 398.878 87.6833 398.455 87.9269C398.032 88.1704 397.686 88.5293 397.417 89.0036C397.16 89.465 397.032 90.0162 397.032 90.6571C397.032 91.298 397.16 91.862 397.417 92.3491C397.686 92.8234 398.032 93.1887 398.455 93.445C398.891 93.7014 399.352 93.8296 399.839 93.8296C400.339 93.8296 400.807 93.7078 401.243 93.4643C401.679 93.2079 402.025 92.849 402.281 92.3876C402.538 91.9133 402.666 91.3493 402.666 90.6956ZM415.279 86.9078C415.625 86.4207 416.099 86.017 416.702 85.6965C417.317 85.3632 418.016 85.1966 418.798 85.1966C419.708 85.1966 420.528 85.4209 421.259 85.8695C422.002 86.3182 422.585 86.9591 423.008 87.7923C423.444 88.6126 423.662 89.5676 423.662 90.6571C423.662 91.7466 423.444 92.7144 423.008 93.5604C422.585 94.3936 422.002 95.0409 421.259 95.5024C420.528 95.9638 419.708 96.1945 418.798 96.1945C418.016 96.1945 417.324 96.0343 416.721 95.7138C416.131 95.3934 415.651 94.9896 415.279 94.5025V101.097H412.587V85.3696H415.279V86.9078ZM420.913 90.6571C420.913 90.0162 420.778 89.465 420.509 89.0036C420.252 88.5293 419.906 88.1704 419.471 87.9269C419.048 87.6833 418.586 87.5615 418.086 87.5615C417.599 87.5615 417.138 87.6897 416.702 87.9461C416.279 88.1896 415.933 88.5485 415.664 89.0228C415.407 89.4971 415.279 90.0547 415.279 90.6956C415.279 91.3365 415.407 91.8941 415.664 92.3683C415.933 92.8426 416.279 93.2079 416.702 93.4643C417.138 93.7078 417.599 93.8296 418.086 93.8296C418.586 93.8296 419.048 93.7014 419.471 93.445C419.906 93.1887 420.252 92.8234 420.509 92.3491C420.778 91.8748 420.913 91.3108 420.913 90.6571ZM430.348 96.1945C429.323 96.1945 428.4 95.9702 427.579 95.5216C426.759 95.0601 426.112 94.4128 425.637 93.5796C425.176 92.7465 424.945 91.7851 424.945 90.6956C424.945 89.606 425.182 88.6447 425.657 87.8115C426.144 86.9783 426.804 86.3374 427.637 85.8888C428.47 85.4273 429.399 85.1966 430.425 85.1966C431.45 85.1966 432.38 85.4273 433.213 85.8888C434.046 86.3374 434.7 86.9783 435.174 87.8115C435.661 88.6447 435.905 89.606 435.905 90.6956C435.905 91.7851 435.655 92.7465 435.155 93.5796C434.668 94.4128 434.001 95.0601 433.155 95.5216C432.322 95.9702 431.386 96.1945 430.348 96.1945ZM430.348 93.8488C430.835 93.8488 431.29 93.7335 431.713 93.5027C432.149 93.2592 432.495 92.9003 432.751 92.426C433.008 91.9517 433.136 91.3749 433.136 90.6956C433.136 89.6829 432.867 88.9074 432.328 88.3691C431.803 87.8179 431.156 87.5423 430.386 87.5423C429.617 87.5423 428.97 87.8179 428.445 88.3691C427.932 88.9074 427.675 89.6829 427.675 90.6956C427.675 91.7082 427.925 92.4901 428.425 93.0413C428.938 93.5796 429.579 93.8488 430.348 93.8488ZM442.609 96.1945C441.584 96.1945 440.661 95.9702 439.84 95.5216C439.02 95.0601 438.373 94.4128 437.898 93.5796C437.437 92.7465 437.206 91.7851 437.206 90.6956C437.206 89.606 437.443 88.6447 437.918 87.8115C438.405 86.9783 439.065 86.3374 439.898 85.8888C440.731 85.4273 441.661 85.1966 442.686 85.1966C443.711 85.1966 444.641 85.4273 445.474 85.8888C446.307 86.3374 446.961 86.9783 447.435 87.8115C447.922 88.6447 448.166 89.606 448.166 90.6956C448.166 91.7851 447.916 92.7465 447.416 93.5796C446.929 94.4128 446.262 95.0601 445.416 95.5216C444.583 95.9702 443.647 96.1945 442.609 96.1945ZM442.609 93.8488C443.096 93.8488 443.551 93.7335 443.974 93.5027C444.41 93.2592 444.756 92.9003 445.012 92.426C445.269 91.9517 445.397 91.3749 445.397 90.6956C445.397 89.6829 445.128 88.9074 444.589 88.3691C444.064 87.8179 443.417 87.5423 442.648 87.5423C441.878 87.5423 441.231 87.8179 440.706 88.3691C440.193 88.9074 439.936 89.6829 439.936 90.6956C439.936 91.7082 440.186 92.4901 440.686 93.0413C441.199 93.5796 441.84 93.8488 442.609 93.8488ZM452.832 81.7934V96.0215H450.14V81.7934H452.832ZM474.839 85.3696L471.725 96.0215H468.821L466.879 88.5806L464.937 96.0215H462.015L458.881 85.3696H461.611L463.495 93.4835L465.534 85.3696H468.379L470.379 93.4643L472.263 85.3696H474.839ZM477.661 84.1007C477.187 84.1007 476.789 83.9532 476.469 83.6584C476.161 83.3508 476.008 82.9727 476.008 82.524C476.008 82.0754 476.161 81.7037 476.469 81.4088C476.789 81.1012 477.187 80.9474 477.661 80.9474C478.135 80.9474 478.526 81.1012 478.834 81.4088C479.154 81.7037 479.315 82.0754 479.315 82.524C479.315 82.9727 479.154 83.3508 478.834 83.6584C478.526 83.9532 478.135 84.1007 477.661 84.1007ZM478.988 85.3696V96.0215H476.296V85.3696H478.988ZM484.781 87.5808V92.7336C484.781 93.0925 484.865 93.3553 485.031 93.522C485.211 93.6758 485.505 93.7527 485.916 93.7527H487.165V96.0215H485.473C483.205 96.0215 482.07 94.9191 482.07 92.7144V87.5808H480.801V85.3696H482.07V82.7355H484.781V85.3696H487.165V87.5808H484.781ZM495.1 85.2158C495.908 85.2158 496.626 85.3953 497.254 85.7542C497.882 86.1003 498.369 86.6194 498.715 87.3116C499.074 87.9909 499.253 88.8113 499.253 89.7727V96.0215H496.562V90.138C496.562 89.292 496.35 88.6447 495.927 88.196C495.504 87.7346 494.927 87.5039 494.197 87.5039C493.453 87.5039 492.864 87.7346 492.428 88.196C492.005 88.6447 491.793 89.292 491.793 90.138V96.0215H489.102V81.7934H491.793V86.6963C492.139 86.2349 492.601 85.876 493.178 85.6196C493.754 85.3504 494.395 85.2158 495.1 85.2158Z" fill="#725054"/>
<path d="M352.914 114.69C352.914 113.614 353.125 112.659 353.548 111.825C353.984 110.992 354.574 110.351 355.317 109.903C356.061 109.454 356.887 109.23 357.797 109.23C358.49 109.23 359.15 109.384 359.778 109.691C360.406 109.986 360.906 110.383 361.278 110.883V105.827H364.008V120.055H361.278V118.478C360.944 119.004 360.476 119.427 359.874 119.747C359.272 120.068 358.573 120.228 357.778 120.228C356.881 120.228 356.061 119.997 355.317 119.536C354.574 119.074 353.984 118.427 353.548 117.594C353.125 116.748 352.914 115.78 352.914 114.69ZM361.297 114.729C361.297 114.075 361.169 113.517 360.912 113.056C360.656 112.582 360.31 112.223 359.874 111.979C359.438 111.723 358.97 111.595 358.47 111.595C357.971 111.595 357.509 111.717 357.086 111.96C356.663 112.204 356.317 112.563 356.048 113.037C355.791 113.498 355.663 114.049 355.663 114.69C355.663 115.331 355.791 115.895 356.048 116.382C356.317 116.857 356.663 117.222 357.086 117.478C357.522 117.735 357.983 117.863 358.47 117.863C358.97 117.863 359.438 117.741 359.874 117.497C360.31 117.241 360.656 116.882 360.912 116.421C361.169 115.946 361.297 115.382 361.297 114.729ZM376.539 114.498C376.539 114.883 376.513 115.229 376.462 115.536H368.675C368.739 116.305 369.008 116.908 369.482 117.344C369.957 117.779 370.54 117.997 371.232 117.997C372.232 117.997 372.943 117.568 373.366 116.709H376.27C375.962 117.735 375.372 118.581 374.501 119.247C373.629 119.901 372.559 120.228 371.29 120.228C370.264 120.228 369.341 120.003 368.521 119.555C367.714 119.093 367.079 118.446 366.618 117.613C366.169 116.78 365.945 115.818 365.945 114.729C365.945 113.626 366.169 112.659 366.618 111.825C367.066 110.992 367.694 110.351 368.502 109.903C369.309 109.454 370.239 109.23 371.29 109.23C372.302 109.23 373.206 109.448 374.001 109.884C374.808 110.319 375.43 110.941 375.866 111.749C376.315 112.543 376.539 113.46 376.539 114.498ZM373.751 113.729C373.738 113.037 373.488 112.486 373.001 112.075C372.514 111.652 371.918 111.441 371.213 111.441C370.546 111.441 369.982 111.646 369.521 112.056C369.072 112.454 368.797 113.011 368.694 113.729H373.751ZM377.811 114.729C377.811 113.626 378.036 112.665 378.484 111.845C378.933 111.012 379.555 110.371 380.349 109.922C381.144 109.461 382.054 109.23 383.08 109.23C384.4 109.23 385.489 109.563 386.348 110.23C387.22 110.883 387.803 111.806 388.098 112.998H385.195C385.041 112.537 384.778 112.178 384.406 111.922C384.047 111.652 383.599 111.518 383.06 111.518C382.291 111.518 381.683 111.8 381.234 112.364C380.785 112.915 380.561 113.703 380.561 114.729C380.561 115.741 380.785 116.53 381.234 117.094C381.683 117.645 382.291 117.92 383.06 117.92C384.15 117.92 384.861 117.433 385.195 116.459H388.098C387.803 117.613 387.22 118.529 386.348 119.209C385.477 119.888 384.387 120.228 383.08 120.228C382.054 120.228 381.144 120.003 380.349 119.555C379.555 119.093 378.933 118.452 378.484 117.632C378.036 116.799 377.811 115.831 377.811 114.729ZM396.376 120.055L392.762 115.517V120.055H390.07V105.827H392.762V113.921L396.338 109.403H399.837L395.146 114.748L399.876 120.055H396.376ZM405.188 114.69C405.188 113.614 405.399 112.659 405.822 111.825C406.258 110.992 406.841 110.351 407.572 109.903C408.315 109.454 409.142 109.23 410.052 109.23C410.847 109.23 411.539 109.39 412.129 109.71C412.731 110.031 413.212 110.435 413.571 110.922V109.403H416.282V120.055H413.571V118.497C413.225 118.997 412.744 119.414 412.129 119.747C411.526 120.068 410.828 120.228 410.033 120.228C409.136 120.228 408.315 119.997 407.572 119.536C406.841 119.074 406.258 118.427 405.822 117.594C405.399 116.748 405.188 115.78 405.188 114.69ZM413.571 114.729C413.571 114.075 413.442 113.517 413.186 113.056C412.93 112.582 412.584 112.223 412.148 111.979C411.712 111.723 411.244 111.595 410.744 111.595C410.244 111.595 409.783 111.717 409.36 111.96C408.937 112.204 408.591 112.563 408.322 113.037C408.065 113.498 407.937 114.049 407.937 114.69C407.937 115.331 408.065 115.895 408.322 116.382C408.591 116.857 408.937 117.222 409.36 117.478C409.796 117.735 410.257 117.863 410.744 117.863C411.244 117.863 411.712 117.741 412.148 117.497C412.584 117.241 412.93 116.882 413.186 116.421C413.442 115.946 413.571 115.382 413.571 114.729ZM421.602 111.056C421.949 110.492 422.397 110.05 422.948 109.73C423.512 109.409 424.153 109.249 424.871 109.249V112.075H424.16C423.314 112.075 422.673 112.274 422.237 112.671C421.814 113.069 421.602 113.761 421.602 114.748V120.055H418.911V109.403H421.602V111.056ZM436.586 114.498C436.586 114.883 436.561 115.229 436.509 115.536H428.722C428.786 116.305 429.056 116.908 429.53 117.344C430.004 117.779 430.587 117.997 431.279 117.997C432.279 117.997 432.991 117.568 433.414 116.709H436.317C436.009 117.735 435.42 118.581 434.548 119.247C433.676 119.901 432.606 120.228 431.337 120.228C430.312 120.228 429.389 120.003 428.568 119.555C427.761 119.093 427.126 118.446 426.665 117.613C426.216 116.78 425.992 115.818 425.992 114.729C425.992 113.626 426.216 112.659 426.665 111.825C427.114 110.992 427.742 110.351 428.549 109.903C429.357 109.454 430.286 109.23 431.337 109.23C432.35 109.23 433.253 109.448 434.048 109.884C434.856 110.319 435.477 110.941 435.913 111.749C436.362 112.543 436.586 113.46 436.586 114.498ZM433.798 113.729C433.785 113.037 433.535 112.486 433.048 112.075C432.561 111.652 431.965 111.441 431.26 111.441C430.594 111.441 430.03 111.646 429.568 112.056C429.12 112.454 428.844 113.011 428.741 113.729H433.798ZM437.859 114.69C437.859 113.614 438.07 112.659 438.493 111.825C438.929 110.992 439.512 110.351 440.243 109.903C440.986 109.454 441.813 109.23 442.723 109.23C443.518 109.23 444.21 109.39 444.8 109.71C445.402 110.031 445.883 110.435 446.242 110.922V109.403H448.953V120.055H446.242V118.497C445.896 118.997 445.415 119.414 444.8 119.747C444.197 120.068 443.499 120.228 442.704 120.228C441.807 120.228 440.986 119.997 440.243 119.536C439.512 119.074 438.929 118.427 438.493 117.594C438.07 116.748 437.859 115.78 437.859 114.69ZM446.242 114.729C446.242 114.075 446.114 113.517 445.857 113.056C445.601 112.582 445.255 112.223 444.819 111.979C444.383 111.723 443.915 111.595 443.415 111.595C442.915 111.595 442.454 111.717 442.031 111.96C441.608 112.204 441.262 112.563 440.993 113.037C440.736 113.498 440.608 114.049 440.608 114.69C440.608 115.331 440.736 115.895 440.993 116.382C441.262 116.857 441.608 117.222 442.031 117.478C442.467 117.735 442.928 117.863 443.415 117.863C443.915 117.863 444.383 117.741 444.819 117.497C445.255 117.241 445.601 116.882 445.857 116.421C446.114 115.946 446.242 115.382 446.242 114.729Z" fill="#725054"/>
<path d="M690.142 25.7408H687.979V20.9661C687.979 18.5787 686.056 16.64 683.7 16.64H681.105V15.3261C681.105 12.9387 679.182 11 676.827 11H673.975C671.603 11 669.697 12.9387 669.697 15.3261V25.7248H639.847V15.3261C639.847 12.9387 637.924 11 635.569 11H632.716C630.345 11 628.438 12.9387 628.438 15.3261V16.64H625.843C623.471 16.64 621.565 18.5787 621.565 20.9661V25.7408H619.402C617.287 25.7408 615.572 27.4713 615.572 29.6023C615.572 31.7333 617.287 33.4637 619.402 33.4637H621.565V38.3666C621.565 40.754 623.487 42.6928 625.843 42.6928H628.438V43.8784C628.438 46.2658 630.361 48.2045 632.716 48.2045H635.569C637.94 48.2045 639.847 46.2658 639.847 43.8784V33.4797H669.697V43.8784C669.697 46.2658 671.619 48.2045 673.975 48.2045H676.827C679.198 48.2045 681.105 46.2658 681.105 43.8784V42.6928H683.7C686.072 42.6928 687.979 40.754 687.979 38.3666V33.4637H690.142C692.257 33.4637 693.971 31.7333 693.971 29.6023C693.971 27.4713 692.257 25.7408 690.142 25.7408Z" fill="#725054"/>
<path d="M600.96 89.2703C600.025 89.2703 599.179 89.1101 598.422 88.7897C597.679 88.4692 597.089 88.0077 596.654 87.4053C596.218 86.8028 595.993 86.0914 595.981 85.2711H598.865C598.903 85.8223 599.095 86.2581 599.441 86.5785C599.8 86.899 600.287 87.0592 600.903 87.0592C601.531 87.0592 602.024 86.9118 602.383 86.617C602.742 86.3094 602.922 85.912 602.922 85.4249C602.922 85.0275 602.8 84.7007 602.556 84.4443C602.313 84.188 602.005 83.9893 601.633 83.8483C601.274 83.6945 600.775 83.5278 600.134 83.3484C599.262 83.092 598.551 82.8421 597.999 82.5985C597.461 82.3421 596.993 81.964 596.596 81.4641C596.211 80.9514 596.019 80.272 596.019 79.426C596.019 78.6313 596.218 77.9391 596.615 77.3495C597.012 76.7599 597.57 76.3112 598.288 76.0036C599.006 75.6831 599.826 75.5229 600.749 75.5229C602.133 75.5229 603.255 75.8626 604.114 76.542C604.985 77.2085 605.466 78.1442 605.556 79.3491H602.595C602.569 78.8877 602.37 78.5095 601.999 78.2147C601.64 77.9071 601.159 77.7533 600.557 77.7533C600.031 77.7533 599.608 77.8879 599.288 78.157C598.98 78.4262 598.826 78.8172 598.826 79.3299C598.826 79.6888 598.942 79.99 599.172 80.2336C599.416 80.4643 599.711 80.6566 600.057 80.8104C600.416 80.9514 600.916 81.118 601.556 81.3103C602.428 81.5667 603.139 81.823 603.691 82.0794C604.242 82.3357 604.716 82.7203 605.113 83.233C605.511 83.7457 605.71 84.4187 605.71 85.2519C605.71 85.9697 605.524 86.6362 605.152 87.2515C604.78 87.8668 604.235 88.3602 603.518 88.732C602.8 89.0909 601.947 89.2703 600.96 89.2703ZM611.177 80.695V85.8479C611.177 86.2068 611.261 86.4696 611.427 86.6362C611.607 86.79 611.901 86.8669 612.312 86.8669H613.561V89.1357H611.869C609.601 89.1357 608.466 88.0334 608.466 85.8287V80.695H607.197V78.4839H608.466V75.8498H611.177V78.4839H613.561V80.695H611.177ZM614.805 83.7714C614.805 82.6946 615.017 81.7397 615.44 80.9065C615.876 80.0733 616.459 79.4324 617.189 78.9838C617.933 78.5352 618.76 78.3109 619.67 78.3109C620.465 78.3109 621.157 78.4711 621.746 78.7915C622.349 79.112 622.829 79.5158 623.188 80.0028V78.4839H625.899V89.1357H623.188V87.5783C622.842 88.0782 622.362 88.4948 621.746 88.8281C621.144 89.1486 620.445 89.3088 619.651 89.3088C618.753 89.3088 617.933 89.0781 617.189 88.6166C616.459 88.1552 615.876 87.5078 615.44 86.6747C615.017 85.8287 614.805 84.8609 614.805 83.7714ZM623.188 83.8098C623.188 83.1561 623.06 82.5985 622.804 82.1371C622.547 81.6628 622.201 81.3039 621.766 81.0603C621.33 80.804 620.862 80.6758 620.362 80.6758C619.862 80.6758 619.401 80.7976 618.978 81.0411C618.555 81.2847 618.209 81.6436 617.939 82.1178C617.683 82.5793 617.555 83.1305 617.555 83.7714C617.555 84.4123 617.683 84.9763 617.939 85.4634C618.209 85.9376 618.555 86.3029 618.978 86.5593C619.413 86.8157 619.875 86.9438 620.362 86.9438C620.862 86.9438 621.33 86.8221 621.766 86.5785C622.201 86.3222 622.547 85.9633 622.804 85.5018C623.06 85.0275 623.188 84.4635 623.188 83.8098ZM631.662 80.695V85.8479C631.662 86.2068 631.746 86.4696 631.912 86.6362C632.092 86.79 632.387 86.8669 632.797 86.8669H634.047V89.1357H632.355C630.086 89.1357 628.951 88.0334 628.951 85.8287V80.695H627.682V78.4839H628.951V75.8498H631.662V78.4839H634.047V80.695H631.662ZM645.885 83.5791C645.885 83.9636 645.859 84.3097 645.808 84.6174H638.021C638.085 85.3864 638.354 85.9889 638.828 86.4247C639.303 86.8605 639.886 87.0784 640.578 87.0784C641.578 87.0784 642.289 86.649 642.712 85.7902H645.615C645.308 86.8157 644.718 87.6617 643.847 88.3282C642.975 88.9819 641.905 89.3088 640.636 89.3088C639.61 89.3088 638.687 89.0845 637.867 88.6358C637.059 88.1744 636.425 87.5271 635.963 86.6939C635.515 85.8607 635.29 84.8994 635.29 83.8098C635.29 82.7075 635.515 81.7397 635.963 80.9065C636.412 80.0733 637.04 79.4324 637.848 78.9838C638.655 78.5352 639.585 78.3109 640.636 78.3109C641.648 78.3109 642.552 78.5288 643.347 78.9646C644.154 79.4004 644.776 80.0221 645.212 80.8296C645.66 81.6243 645.885 82.5408 645.885 83.5791ZM643.097 82.81C643.084 82.1178 642.834 81.5667 642.347 81.1565C641.86 80.7335 641.264 80.522 640.559 80.522C639.892 80.522 639.328 80.7271 638.867 81.1372C638.418 81.5346 638.143 82.0922 638.04 82.81H643.097ZM656.04 81.1372V83.4061H647.888V81.1372H656.04ZM663.789 89.3088C662.763 89.3088 661.841 89.0845 661.02 88.6358C660.2 88.1744 659.553 87.5271 659.078 86.6939C658.617 85.8607 658.386 84.8994 658.386 83.8098C658.386 82.7203 658.623 81.7589 659.097 80.9257C659.585 80.0926 660.245 79.4517 661.078 79.003C661.911 78.5416 662.84 78.3109 663.866 78.3109C664.891 78.3109 665.821 78.5416 666.654 79.003C667.487 79.4517 668.141 80.0926 668.615 80.9257C669.102 81.7589 669.346 82.7203 669.346 83.8098C669.346 84.8994 669.096 85.8607 668.596 86.6939C668.109 87.5271 667.442 88.1744 666.596 88.6358C665.763 89.0845 664.827 89.3088 663.789 89.3088ZM663.789 86.9631C664.276 86.9631 664.731 86.8477 665.154 86.617C665.59 86.3734 665.936 86.0145 666.192 85.5403C666.449 85.066 666.577 84.4892 666.577 83.8098C666.577 82.7972 666.308 82.0217 665.769 81.4833C665.244 80.9322 664.596 80.6566 663.827 80.6566C663.058 80.6566 662.411 80.9322 661.885 81.4833C661.373 82.0217 661.116 82.7972 661.116 83.8098C661.116 84.8225 661.366 85.6044 661.866 86.1555C662.379 86.6939 663.02 86.9631 663.789 86.9631ZM676.204 80.695H674.339V89.1357H671.608V80.695H670.397V78.4839H671.608V77.9455C671.608 76.6381 671.98 75.6767 672.724 75.0615C673.467 74.4462 674.589 74.1578 676.088 74.1962V76.465C675.435 76.4522 674.98 76.5612 674.723 76.7919C674.467 77.0226 674.339 77.4392 674.339 78.0417V78.4839H676.204V80.695ZM686.139 81.1372V83.4061H677.987V81.1372H686.139ZM692.292 80.695V85.8479C692.292 86.2068 692.375 86.4696 692.542 86.6362C692.721 86.79 693.016 86.8669 693.426 86.8669H694.676V89.1357H692.984C690.715 89.1357 689.581 88.0334 689.581 85.8287V80.695H688.312V78.4839H689.581V75.8498H692.292V78.4839H694.676V80.695H692.292ZM702.611 78.3301C703.418 78.3301 704.136 78.5095 704.764 78.8684C705.392 79.2145 705.88 79.7337 706.226 80.4258C706.585 81.1052 706.764 81.9256 706.764 82.8869V89.1357H704.072V83.2522C704.072 82.4062 703.861 81.7589 703.438 81.3103C703.015 80.8488 702.438 80.6181 701.707 80.6181C700.964 80.6181 700.374 80.8488 699.938 81.3103C699.515 81.7589 699.304 82.4062 699.304 83.2522V89.1357H696.612V74.9076H699.304V79.8106C699.65 79.3491 700.111 78.9902 700.688 78.7339C701.265 78.4647 701.906 78.3301 702.611 78.3301ZM719.226 83.5791C719.226 83.9636 719.2 84.3097 719.149 84.6174H711.362C711.426 85.3864 711.695 85.9889 712.169 86.4247C712.644 86.8605 713.227 87.0784 713.919 87.0784C714.919 87.0784 715.63 86.649 716.053 85.7902H718.957C718.649 86.8157 718.059 87.6617 717.188 88.3282C716.316 88.9819 715.246 89.3088 713.977 89.3088C712.951 89.3088 712.028 89.0845 711.208 88.6358C710.4 88.1744 709.766 87.5271 709.305 86.6939C708.856 85.8607 708.632 84.8994 708.632 83.8098C708.632 82.7075 708.856 81.7397 709.305 80.9065C709.753 80.0733 710.381 79.4324 711.189 78.9838C711.996 78.5352 712.926 78.3109 713.977 78.3109C714.989 78.3109 715.893 78.5288 716.688 78.9646C717.495 79.4004 718.117 80.0221 718.553 80.8296C719.001 81.6243 719.226 82.5408 719.226 83.5791ZM716.438 82.81C716.425 82.1178 716.175 81.5667 715.688 81.1565C715.201 80.7335 714.605 80.522 713.9 80.522C713.233 80.522 712.669 80.7271 712.208 81.1372C711.759 81.5346 711.484 82.0922 711.381 82.81H716.438Z" fill="#725054"/>
<path d="M618.224 107.807C618.224 106.73 618.436 105.775 618.859 104.942C619.295 104.109 619.878 103.468 620.609 103.019C621.352 102.57 622.179 102.346 623.089 102.346C623.884 102.346 624.576 102.506 625.165 102.827C625.768 103.147 626.248 103.551 626.607 104.038V102.519H629.318V113.171H626.607V111.613C626.261 112.113 625.781 112.53 625.165 112.863C624.563 113.184 623.864 113.344 623.07 113.344C622.172 113.344 621.352 113.113 620.609 112.652C619.878 112.19 619.295 111.543 618.859 110.71C618.436 109.864 618.224 108.896 618.224 107.807ZM626.607 107.845C626.607 107.191 626.479 106.634 626.223 106.172C625.966 105.698 625.62 105.339 625.185 105.095C624.749 104.839 624.281 104.711 623.781 104.711C623.281 104.711 622.82 104.833 622.397 105.076C621.974 105.32 621.628 105.679 621.358 106.153C621.102 106.614 620.974 107.166 620.974 107.807C620.974 108.447 621.102 109.011 621.358 109.499C621.628 109.973 621.974 110.338 622.397 110.594C622.832 110.851 623.294 110.979 623.781 110.979C624.281 110.979 624.749 110.857 625.185 110.614C625.62 110.357 625.966 109.998 626.223 109.537C626.479 109.063 626.607 108.499 626.607 107.845ZM634.639 104.173C634.985 103.609 635.434 103.166 635.985 102.846C636.549 102.525 637.19 102.365 637.908 102.365V105.192H637.196C636.35 105.192 635.71 105.39 635.274 105.788C634.851 106.185 634.639 106.877 634.639 107.864V113.171H631.947V102.519H634.639V104.173ZM642.855 104.73V109.883C642.855 110.242 642.938 110.505 643.105 110.671C643.284 110.825 643.579 110.902 643.989 110.902H645.239V113.171H643.547C641.278 113.171 640.144 112.069 640.144 109.864V104.73H638.875V102.519H640.144V99.8849H642.855V102.519H645.239V104.73H642.855ZM655.929 102.346C656.724 102.346 657.422 102.506 658.025 102.827C658.627 103.134 659.101 103.538 659.448 104.038V102.519H662.159V113.248C662.159 114.235 661.96 115.113 661.562 115.882C661.165 116.664 660.569 117.279 659.774 117.728C658.98 118.189 658.018 118.42 656.89 118.42C655.378 118.42 654.134 118.067 653.16 117.362C652.199 116.657 651.654 115.696 651.526 114.478H654.198C654.339 114.965 654.641 115.35 655.102 115.632C655.576 115.927 656.147 116.074 656.813 116.074C657.595 116.074 658.23 115.837 658.717 115.363C659.204 114.901 659.448 114.196 659.448 113.248V111.594C659.101 112.094 658.621 112.511 658.005 112.844C657.403 113.177 656.711 113.344 655.929 113.344C655.032 113.344 654.211 113.113 653.468 112.652C652.724 112.19 652.135 111.543 651.699 110.71C651.276 109.864 651.064 108.896 651.064 107.807C651.064 106.73 651.276 105.775 651.699 104.942C652.135 104.109 652.718 103.468 653.449 103.019C654.192 102.57 655.019 102.346 655.929 102.346ZM659.448 107.845C659.448 107.191 659.319 106.634 659.063 106.172C658.807 105.698 658.461 105.339 658.025 105.095C657.589 104.839 657.121 104.711 656.621 104.711C656.121 104.711 655.66 104.833 655.237 105.076C654.814 105.32 654.468 105.679 654.198 106.153C653.942 106.614 653.814 107.166 653.814 107.807C653.814 108.447 653.942 109.011 654.198 109.499C654.468 109.973 654.814 110.338 655.237 110.594C655.673 110.851 656.134 110.979 656.621 110.979C657.121 110.979 657.589 110.857 658.025 110.614C658.461 110.357 658.807 109.998 659.063 109.537C659.319 109.063 659.448 108.499 659.448 107.845ZM674.978 102.519L668.383 118.208H665.518L667.825 112.902L663.557 102.519H666.576L669.325 109.96L672.113 102.519H674.978ZM689.657 102.365C690.965 102.365 692.016 102.769 692.811 103.577C693.618 104.371 694.022 105.486 694.022 106.922V113.171H691.33V107.287C691.33 106.454 691.119 105.82 690.696 105.384C690.273 104.935 689.696 104.711 688.965 104.711C688.234 104.711 687.651 104.935 687.215 105.384C686.792 105.82 686.581 106.454 686.581 107.287V113.171H683.889V107.287C683.889 106.454 683.678 105.82 683.255 105.384C682.832 104.935 682.255 104.711 681.524 104.711C680.781 104.711 680.191 104.935 679.755 105.384C679.332 105.82 679.121 106.454 679.121 107.287V113.171H676.429V102.519H679.121V103.807C679.467 103.359 679.909 103.006 680.447 102.75C680.999 102.493 681.601 102.365 682.255 102.365C683.088 102.365 683.831 102.545 684.485 102.904C685.139 103.25 685.645 103.75 686.004 104.403C686.35 103.788 686.85 103.295 687.504 102.923C688.17 102.551 688.888 102.365 689.657 102.365Z" fill="#725054"/>
<path d="M891.502 25.7644C892.063 25.7644 892.623 25.8605 893.152 26.0368L893.248 26.0688C893.152 25.8445 893.088 25.6042 893.088 25.3638C893.088 24.4025 893.873 23.6174 894.835 23.6174H896.116C895.732 17.9133 893.457 12.738 889.916 8.66824L889.018 9.56551C888.682 9.90198 888.233 10.0782 887.785 10.0782C887.336 10.0782 886.887 9.90198 886.551 9.56551C885.878 8.89256 885.878 7.787 886.551 7.09802L887.448 6.20076C883.394 2.65976 878.203 0.384543 872.499 0V1.28181C872.499 2.24317 871.714 3.02828 870.752 3.02828C869.791 3.02828 869.006 2.24317 869.006 1.28181V0C863.302 0.384543 858.127 2.65976 854.057 6.20076L854.954 7.09802C855.627 7.77097 855.627 8.87653 854.954 9.56551C854.618 9.90198 854.169 10.0782 853.72 10.0782C853.272 10.0782 852.823 9.90198 852.487 9.56551L851.589 8.66824C848.048 12.722 845.773 17.9133 845.389 23.6174H846.67C847.632 23.6174 848.417 24.4025 848.417 25.3638C848.417 26.3252 847.632 27.1103 846.67 27.1103H845.389C845.773 32.8143 848.048 37.9896 851.589 42.0594L852.487 41.1621C853.16 40.4892 854.265 40.4892 854.954 41.1621C855.627 41.8351 855.627 42.9406 854.954 43.6296L854.057 44.5269C858.111 48.0679 863.302 50.3431 869.006 50.7276V49.4458C869.006 48.4845 869.791 47.6994 870.752 47.6994C871.714 47.6994 872.499 48.4845 872.499 49.4458V50.7276C874.117 50.6155 875.687 50.3591 877.21 49.9585C876.024 47.2988 875.367 44.3667 875.367 41.3063V34.6409C875.367 32.3817 876.809 30.3949 878.94 29.6739L880.654 29.0971V26.3252H874.646C873.685 26.3252 872.9 25.5401 872.9 24.5787V16.8238C872.9 15.8624 873.685 15.0773 874.646 15.0773C875.607 15.0773 876.392 15.8624 876.392 16.8238V22.8322H880.671V16.8238C880.671 15.8624 881.456 15.0773 882.417 15.0773C883.378 15.0773 884.163 15.8624 884.163 16.8238V27.9435L889.851 26.0528C890.38 25.8765 890.941 25.7804 891.502 25.7804V25.7644ZM866.891 30.5712C867.852 30.5712 868.638 31.3563 868.638 32.3176C868.638 33.279 867.852 34.0641 866.891 34.0641H859.136C858.431 34.0641 857.79 33.6315 857.518 32.9906C857.245 32.3497 857.39 31.5966 857.902 31.0839L862.917 26.0688C864.359 24.6268 865.145 22.7201 865.145 20.6852C865.145 19.4995 864.183 18.5542 863.014 18.5542C861.844 18.5542 860.883 19.5156 860.883 20.6852C860.883 21.6466 860.097 22.4317 859.136 22.4317C858.175 22.4317 857.39 21.6466 857.39 20.6852C857.39 17.5768 859.905 15.0613 863.014 15.0613C866.122 15.0613 868.638 17.5768 868.638 20.6852C868.638 23.7936 867.484 26.4373 865.385 28.5363L863.35 30.5712H866.907H866.891Z" fill="#725054"/>
<path d="M902.927 32.9591L892.048 29.338C891.695 29.2259 891.31 29.2259 890.942 29.338L880.063 32.9591C879.358 33.1995 878.877 33.8564 878.877 34.6095V41.2749C878.877 48.8856 883.732 55.6151 890.942 58.0185C891.118 58.0826 891.311 58.1147 891.487 58.1147C891.663 58.1147 891.855 58.0826 892.032 58.0185C899.258 55.6151 904.097 48.8856 904.097 41.2749V34.6095C904.097 33.8564 903.616 33.1995 902.911 32.9591H902.927ZM896.518 43.2296L890.157 47.1071C889.868 47.2834 889.564 47.3635 889.26 47.3635C888.715 47.3635 888.202 47.1231 887.85 46.6585L885.975 44.1109C885.398 43.3418 885.574 42.2523 886.344 41.6754C887.113 41.0986 888.218 41.2749 888.779 42.044L889.708 43.3098L894.707 40.2655C895.524 39.7688 896.598 40.0251 897.111 40.8423C897.607 41.6594 897.351 42.7329 896.534 43.2457L896.518 43.2296Z" fill="#725054"/>
<path d="M815.865 86.3146C817.096 85.2892 818.076 84.4368 818.807 83.7574C819.537 83.0653 820.146 82.3474 820.633 81.604C821.12 80.8605 821.364 80.1299 821.364 79.4121C821.364 78.7584 821.21 78.2457 820.903 77.8739C820.595 77.5022 820.121 77.3163 819.48 77.3163C818.839 77.3163 818.345 77.5342 817.999 77.9701C817.653 78.3931 817.474 78.9763 817.461 79.7197H814.846C814.897 78.1816 815.352 77.0151 816.211 76.2204C817.083 75.4257 818.185 75.0283 819.518 75.0283C820.979 75.0283 822.101 75.4193 822.883 76.2012C823.665 76.9703 824.056 77.9893 824.056 79.2583C824.056 80.2581 823.787 81.213 823.248 82.1231C822.71 83.0332 822.095 83.8279 821.402 84.5073C820.71 85.1738 819.807 85.9814 818.691 86.9299H824.363V89.1603H814.865V87.1606L815.865 86.3146ZM825.944 86.6223V84.5073L832.232 75.509H835.366V84.2766H837.058V86.6223H835.366V89.3525H832.674V86.6223H825.944ZM832.847 78.3931L828.905 84.2766H832.847V78.3931ZM846.289 71.1444L841.098 92.8327H838.464L843.655 71.1444H846.289ZM857.043 77.374L851.929 89.3525H849.199L854.352 77.6817H847.776V75.3744H857.043V77.374ZM867.621 89.5256C866.749 89.5256 865.967 89.3718 865.275 89.0641C864.583 88.7437 864.032 88.3143 863.622 87.7759C863.224 87.2376 863.006 86.6415 862.968 85.9878H865.679C865.73 86.398 865.929 86.7376 866.275 87.0068C866.634 87.276 867.076 87.4106 867.602 87.4106C868.114 87.4106 868.512 87.3081 868.794 87.103C869.089 86.8979 869.236 86.6351 869.236 86.3146C869.236 85.9686 869.057 85.7122 868.698 85.5456C868.352 85.3661 867.794 85.1738 867.025 84.9687C866.23 84.7765 865.576 84.5778 865.064 84.3727C864.564 84.1676 864.128 83.8536 863.756 83.4306C863.397 83.0076 863.218 82.4372 863.218 81.7194C863.218 81.1297 863.385 80.5914 863.718 80.1043C864.064 79.6172 864.551 79.2326 865.179 78.9506C865.82 78.6687 866.57 78.5277 867.429 78.5277C868.698 78.5277 869.71 78.8481 870.467 79.489C871.223 80.1171 871.639 80.9695 871.716 82.0462H869.14C869.101 81.6232 868.922 81.29 868.602 81.0464C868.294 80.79 867.877 80.6619 867.352 80.6619C866.865 80.6619 866.487 80.7516 866.217 80.931C865.961 81.1105 865.833 81.3605 865.833 81.6809C865.833 82.0398 866.012 82.3154 866.371 82.5077C866.73 82.6871 867.288 82.873 868.044 83.0653C868.813 83.2575 869.448 83.4562 869.947 83.6613C870.447 83.8664 870.877 84.1868 871.236 84.6227C871.607 85.0457 871.8 85.6097 871.812 86.3146C871.812 86.9299 871.639 87.4811 871.293 87.9682C870.96 88.4553 870.473 88.8398 869.832 89.1218C869.204 89.391 868.467 89.5256 867.621 89.5256ZM883.924 83.7959C883.924 84.1804 883.898 84.5265 883.847 84.8342H876.06C876.124 85.6032 876.393 86.2057 876.868 86.6415C877.342 87.0773 877.925 87.2952 878.617 87.2952C879.617 87.2952 880.329 86.8658 880.752 86.007H883.655C883.347 87.0325 882.758 87.8785 881.886 88.545C881.014 89.1987 879.944 89.5256 878.675 89.5256C877.65 89.5256 876.727 89.3013 875.906 88.8526C875.099 88.3912 874.464 87.7439 874.003 86.9107C873.554 86.0775 873.33 85.1162 873.33 84.0266C873.33 82.9243 873.554 81.9565 874.003 81.1233C874.451 80.2901 875.08 79.6492 875.887 79.2006C876.695 78.752 877.624 78.5277 878.675 78.5277C879.688 78.5277 880.591 78.7456 881.386 79.1814C882.194 79.6172 882.815 80.2389 883.251 81.0464C883.7 81.8411 883.924 82.7576 883.924 83.7959ZM881.136 83.0268C881.123 82.3346 880.873 81.7834 880.386 81.3733C879.899 80.9503 879.303 80.7388 878.598 80.7388C877.932 80.7388 877.368 80.9439 876.906 81.354C876.458 81.7514 876.182 82.309 876.079 83.0268H881.136ZM885.197 84.0266C885.197 82.9243 885.421 81.9629 885.87 81.1425C886.318 80.3094 886.94 79.6685 887.735 79.2198C888.529 78.7584 889.439 78.5277 890.465 78.5277C891.785 78.5277 892.875 78.8609 893.734 79.5275C894.605 80.1812 895.188 81.1041 895.483 82.2962H892.58C892.426 81.8347 892.163 81.4758 891.792 81.2195C891.433 80.9503 890.984 80.8157 890.446 80.8157C889.677 80.8157 889.068 81.0977 888.619 81.6617C888.17 82.2129 887.946 83.0012 887.946 84.0266C887.946 85.0392 888.17 85.8276 888.619 86.3916C889.068 86.9427 889.677 87.2183 890.446 87.2183C891.535 87.2183 892.247 86.7312 892.58 85.7571H895.483C895.188 86.9107 894.605 87.8272 893.734 88.5065C892.862 89.1859 891.772 89.5256 890.465 89.5256C889.439 89.5256 888.529 89.3013 887.735 88.8526C886.94 88.3912 886.318 87.7503 885.87 86.9299C885.421 86.0967 885.197 85.129 885.197 84.0266ZM907.511 78.7007V89.3525H904.8V88.0066C904.454 88.4681 903.999 88.8334 903.435 89.1026C902.884 89.3589 902.281 89.4871 901.627 89.4871C900.794 89.4871 900.057 89.3141 899.416 88.968C898.775 88.6091 898.269 88.09 897.897 87.4106C897.538 86.7184 897.359 85.8981 897.359 84.9495V78.7007H900.051V84.565C900.051 85.411 900.262 86.0647 900.685 86.5261C901.108 86.9748 901.685 87.1991 902.416 87.1991C903.159 87.1991 903.742 86.9748 904.165 86.5261C904.588 86.0647 904.8 85.411 904.8 84.565V78.7007H907.511ZM912.859 80.3542C913.205 79.7902 913.653 79.348 914.205 79.0276C914.769 78.7071 915.409 78.5469 916.127 78.5469V81.3733H915.416C914.57 81.3733 913.929 81.572 913.493 81.9693C913.07 82.3667 912.859 83.0589 912.859 84.0458V89.3525H910.167V78.7007H912.859V80.3542ZM919.305 77.4317C918.831 77.4317 918.434 77.2843 918.113 76.9895C917.806 76.6818 917.652 76.3037 917.652 75.8551C917.652 75.4064 917.806 75.0347 918.113 74.7399C918.434 74.4323 918.831 74.2785 919.305 74.2785C919.78 74.2785 920.171 74.4323 920.478 74.7399C920.799 75.0347 920.959 75.4064 920.959 75.8551C920.959 76.3037 920.799 76.6818 920.478 76.9895C920.171 77.2843 919.78 77.4317 919.305 77.4317ZM920.632 78.7007V89.3525H917.94V78.7007H920.632ZM926.426 80.9118V86.0647C926.426 86.4236 926.509 86.6864 926.676 86.853C926.855 87.0068 927.15 87.0837 927.56 87.0837H928.81V89.3525H927.118C924.849 89.3525 923.715 88.2502 923.715 86.0455V80.9118H922.446V78.7007H923.715V76.0666H926.426V78.7007H928.81V80.9118H926.426ZM940.936 78.7007L934.341 94.3901H931.477L933.784 89.0834L929.515 78.7007H932.534L935.284 86.1416L938.071 78.7007H940.936Z" fill="#725054"/>
</svg>
