<svg width="973" height="136" viewBox="0 0 973 136" fill="none" xmlns="http://www.w3.org/2000/svg">
<path d="M131.258 52.2942V52.855C131.258 53.6401 131.145 54.4412 130.921 55.2263H131.77V62.2442H128.774C128.598 67.788 128.373 79.3884 128.373 80.1255C128.373 81.0868 128.261 82.3847 127.749 83.6344H130.456C132.78 83.6344 134.638 81.7758 134.638 79.4525V52.2942H131.242H131.258ZM106.599 62.1961H78.479V55.1782H104.5C104.275 54.4412 104.163 53.6561 104.163 52.8069V52.2461H75.5469V79.4525C75.5469 81.7758 77.4055 83.6344 79.7288 83.6344H107.608C107.095 82.3847 106.983 81.0388 106.983 80.1255C106.983 79.3884 106.759 67.74 106.583 62.1961H106.599Z" fill="#725054"/>
<path d="M101.792 34.4769C101.792 34.2526 101.728 33.6918 101.68 33.115C101.616 32.6664 101.567 32.2658 101.567 32.0895C101.567 31.4166 101.119 30.9039 100.43 30.6796L100.318 30.6155C99.4685 30.3271 98.5712 30.0547 97.8342 29.7663C97.7701 29.7663 97.658 29.7022 97.5458 29.6541C96.8728 29.4298 96.296 29.2055 96.0237 29.2055H95.9115C95.5109 29.3176 95.3988 29.6541 95.3507 29.7663C95.3507 29.8304 95.1264 30.5514 94.7899 31.5127C94.3893 32.7625 93.8926 34.3968 93.6042 35.3582L93.2678 32.6503V32.5382L93.2037 32.2017C93.2037 32.0255 93.1396 31.9133 93.1396 31.8652C93.2037 31.7531 93.2517 31.5768 93.3158 31.4166C93.3158 31.3525 93.3799 31.3044 93.3799 31.2404L93.444 31.0641C93.5081 30.9519 93.5562 30.7757 93.5562 30.6155C93.5562 30.5514 93.3799 29.9906 93.3318 29.9425C93.2197 29.7663 93.1075 29.7663 92.9954 29.7182H90.9605C90.9605 29.7182 90.7362 29.7823 90.6721 29.8944C90.608 29.9585 90.4478 30.5193 90.4478 30.5674C90.4478 30.7436 90.5119 30.9039 90.5599 31.016L90.624 31.1923C90.624 31.1923 90.6881 31.3044 90.6881 31.3685V31.4326C90.7522 31.5448 90.8003 31.6569 90.8644 31.8332C90.8644 31.8973 90.8643 32.0094 90.8003 32.1697L90.7362 32.5061V32.5702L90.3997 35.3421C90.0632 34.3808 89.5505 32.7465 89.214 31.4967C88.9256 30.5354 88.7013 29.7983 88.6532 29.7502C88.5891 29.6381 88.477 29.2375 88.0925 29.1895H87.9803C87.6919 29.1895 87.1311 29.4138 86.4581 29.6381C86.346 29.7022 86.2338 29.7022 86.1697 29.7502C85.4327 30.0387 84.5354 30.311 83.6862 30.5994L83.5741 30.6635C82.837 30.8879 82.4364 31.4006 82.4364 32.0735C82.4364 32.2498 82.3724 32.6343 82.3243 33.099C82.2602 33.6598 82.2121 34.2366 82.2121 34.4609C82.148 37.1687 82.148 43.7861 82.2121 47.984C82.2121 48.8332 82.9492 49.5061 83.7984 49.5061H100.254C101.103 49.5061 101.84 48.8332 101.84 47.984C101.904 43.8502 101.904 37.2328 101.84 34.525L101.792 34.4769Z" fill="#725054"/>
<path d="M89.6325 26.5617C90.3055 27.2347 91.1547 27.5872 92.0039 27.5231C92.8531 27.5872 93.7023 27.2347 94.3752 26.5617C95.0482 25.8888 95.625 25.1998 95.9614 24.3506C96.6985 22.6522 97.1471 20.9058 97.1471 19.0311V18.246C96.9709 16.4995 96.1217 15.1857 94.3752 14.4486C93.5901 14.1602 92.789 14 91.9398 14C91.0906 14 90.3055 14.1762 89.5043 14.4486C87.7579 15.1216 86.9087 16.4354 86.7324 18.246V19.0311C86.7324 20.8897 87.1811 22.6522 87.9181 24.3506C88.3667 25.1998 88.9435 25.8728 89.6165 26.5617H89.6325Z" fill="#725054"/>
<path d="M116.213 27.6831C116.39 27.7472 116.55 27.7952 116.774 27.7952C117.063 27.8593 117.335 27.8593 117.623 27.8593C118.184 27.8593 118.761 27.7952 119.258 27.635C119.482 27.5709 119.706 27.5229 119.931 27.4107C121.789 26.6737 123.376 25.0393 124 23.0525C124.177 22.4917 124.289 21.8669 124.289 21.242C124.353 17.685 121.293 14.6246 117.72 14.5605C114.162 14.6246 111.102 17.5568 111.038 21.1779C111.038 21.963 111.15 22.7641 111.487 23.5012C112.224 25.488 114.082 27.1223 116.181 27.6831H116.213Z" fill="#725054"/>
<path d="M128.758 36.0616C128.758 35.7732 128.694 35.1643 128.582 34.5394C128.517 34.0267 128.469 33.5781 128.469 33.4018C128.405 31.8797 126.483 31.5913 125.297 31.2548C122.813 30.5178 120.266 30.1813 117.654 30.1172C115.058 30.1813 112.511 30.5178 110.011 31.2548C108.826 31.5913 106.903 31.8797 106.839 33.4018C106.839 33.5781 106.775 34.0267 106.727 34.5394C106.663 35.1643 106.614 35.7892 106.55 36.0616C106.486 38.8335 106.486 46.8608 106.486 50.2096C106.486 51.0588 106.486 51.908 106.55 52.8052C106.55 53.6544 106.727 54.4395 107.063 55.2407C107.4 56.0418 107.912 56.8269 108.537 57.612L108.601 57.6761C108.713 57.7883 108.778 57.9645 108.89 58.0767C108.89 58.4131 108.954 58.7016 108.954 59.038V59.3745C109.066 61.4094 109.402 79.7873 109.402 80.1398C109.402 81.1012 109.515 82.1747 109.963 82.9758C110.588 84.1615 111.774 84.6742 113.136 84.4499C114.434 84.2256 115.395 83.2642 115.619 81.9023C115.619 81.7902 115.683 81.6139 115.683 81.5018C116.02 77.2558 116.244 71.1511 116.533 66.9692C116.709 64.71 116.869 62.3868 117.093 60.1276C117.093 60.0635 117.093 60.0154 117.157 59.9513C117.27 59.7751 117.382 59.6629 117.558 59.6148C117.734 59.6789 117.846 59.7911 117.959 59.9513C117.959 60.0154 118.023 60.0635 118.023 60.1276C118.247 62.3868 118.471 64.646 118.583 66.9692C118.872 71.2152 119.144 77.3198 119.433 81.5018C119.433 81.6139 119.497 81.7902 119.497 81.9023C119.785 83.2642 120.682 84.2256 121.98 84.4499C123.342 84.6742 124.528 84.2256 125.153 82.9758C125.601 82.1266 125.713 81.0531 125.713 80.1398C125.713 79.8514 126.114 61.4735 126.162 59.3745V59.038C126.162 58.7016 126.162 58.4131 126.226 58.0767C126.29 57.9645 126.402 57.7883 126.515 57.6761C126.515 57.612 126.579 57.612 126.579 57.612C127.252 56.8269 127.764 56.0258 128.053 55.2407C128.389 54.4556 128.566 53.6544 128.566 52.8052C128.566 51.908 128.565 51.0588 128.63 50.2096C128.854 46.9249 128.854 38.8976 128.806 36.0616H128.758Z" fill="#725054"/>
<path d="M10.6711 112.51C10.3634 111.946 9.94044 111.516 9.40208 111.222C8.86372 110.927 8.23563 110.779 7.51782 110.779C6.72309 110.779 6.0181 110.959 5.40283 111.318C4.78756 111.677 4.30688 112.189 3.96079 112.856C3.6147 113.522 3.44166 114.291 3.44166 115.163C3.44166 116.06 3.6147 116.842 3.96079 117.509C4.3197 118.175 4.8132 118.688 5.44128 119.047C6.06937 119.406 6.8 119.585 7.63318 119.585C8.65863 119.585 9.49821 119.316 10.1519 118.778C10.8057 118.227 11.2351 117.464 11.4402 116.49H6.82564V114.432H14.0935V116.778C13.914 117.714 13.5295 118.579 12.9399 119.374C12.3502 120.169 11.5876 120.809 10.6518 121.297C9.72894 121.771 8.69067 122.008 7.53704 122.008C6.24242 122.008 5.06956 121.72 4.01847 121.143C2.98021 120.553 2.15985 119.739 1.5574 118.701C0.967767 117.663 0.67295 116.483 0.67295 115.163C0.67295 113.843 0.967767 112.664 1.5574 111.625C2.15985 110.574 2.98021 109.76 4.01847 109.183C5.06956 108.594 6.23601 108.299 7.51782 108.299C9.03035 108.299 10.3442 108.671 11.4594 109.414C12.5746 110.145 13.3436 111.177 13.7666 112.51H10.6711ZM18.7768 112.894C19.1229 112.33 19.5715 111.888 20.1227 111.568C20.6867 111.247 21.3276 111.087 22.0454 111.087V113.913H21.334C20.488 113.913 19.8471 114.112 19.4113 114.509C18.9883 114.907 18.7768 115.599 18.7768 116.586V121.893H16.085V111.241H18.7768V112.894ZM23.1663 116.528C23.1663 115.451 23.3778 114.497 23.8008 113.663C24.2366 112.83 24.8198 112.189 25.5505 111.741C26.2939 111.292 27.1207 111.068 28.0308 111.068C28.8255 111.068 29.5177 111.228 30.1073 111.548C30.7098 111.869 31.1904 112.273 31.5494 112.76V111.241H34.2604V121.893H31.5494V120.335C31.2033 120.835 30.7226 121.252 30.1073 121.585C29.5049 121.905 28.8063 122.066 28.0116 122.066C27.1143 122.066 26.2939 121.835 25.5505 121.373C24.8198 120.912 24.2366 120.265 23.8008 119.432C23.3778 118.586 23.1663 117.618 23.1663 116.528ZM31.5494 116.567C31.5494 115.913 31.4212 115.355 31.1648 114.894C30.9084 114.42 30.5624 114.061 30.1265 113.817C29.6907 113.561 29.2229 113.433 28.723 113.433C28.2231 113.433 27.7616 113.554 27.3386 113.798C26.9156 114.041 26.5695 114.4 26.3003 114.875C26.044 115.336 25.9158 115.887 25.9158 116.528C25.9158 117.169 26.044 117.733 26.3003 118.22C26.5695 118.694 26.9156 119.06 27.3386 119.316C27.7744 119.573 28.2359 119.701 28.723 119.701C29.2229 119.701 29.6907 119.579 30.1265 119.335C30.5624 119.079 30.9084 118.72 31.1648 118.259C31.4212 117.784 31.5494 117.22 31.5494 116.567ZM42.7921 111.087C44.0611 111.087 45.0866 111.491 45.8685 112.298C46.6504 113.093 47.0413 114.208 47.0413 115.644V121.893H44.3495V116.009C44.3495 115.163 44.138 114.516 43.715 114.067C43.292 113.606 42.7152 113.375 41.9846 113.375C41.2411 113.375 40.6515 113.606 40.2157 114.067C39.7927 114.516 39.5812 115.163 39.5812 116.009V121.893H36.8894V111.241H39.5812V112.567C39.9401 112.106 40.3951 111.747 40.9463 111.491C41.5103 111.222 42.1256 111.087 42.7921 111.087ZM48.9089 116.528C48.9089 115.451 49.1204 114.497 49.5434 113.663C49.9792 112.83 50.5689 112.189 51.3123 111.741C52.0558 111.292 52.8825 111.068 53.7926 111.068C54.4848 111.068 55.1449 111.222 55.773 111.529C56.4011 111.824 56.901 112.221 57.2727 112.721V107.664H60.003V121.893H57.2727V120.316C56.9395 120.841 56.4716 121.264 55.8691 121.585C55.2667 121.905 54.5681 122.066 53.7734 122.066C52.8761 122.066 52.0558 121.835 51.3123 121.373C50.5689 120.912 49.9792 120.265 49.5434 119.432C49.1204 118.586 48.9089 117.618 48.9089 116.528ZM57.292 116.567C57.292 115.913 57.1638 115.355 56.9074 114.894C56.6511 114.42 56.305 114.061 55.8691 113.817C55.4333 113.561 54.9655 113.433 54.4656 113.433C53.9657 113.433 53.5042 113.554 53.0812 113.798C52.6582 114.041 52.3121 114.4 52.0429 114.875C51.7866 115.336 51.6584 115.887 51.6584 116.528C51.6584 117.169 51.7866 117.733 52.0429 118.22C52.3121 118.694 52.6582 119.06 53.0812 119.316C53.517 119.573 53.9785 119.701 54.4656 119.701C54.9655 119.701 55.4333 119.579 55.8691 119.335C56.305 119.079 56.6511 118.72 56.9074 118.259C57.1638 117.784 57.292 117.22 57.292 116.567ZM69.9053 112.894C70.2514 112.33 70.7 111.888 71.2512 111.568C71.8152 111.247 72.4561 111.087 73.1739 111.087V113.913H72.4625C71.6165 113.913 70.9756 114.112 70.5398 114.509C70.1168 114.907 69.9053 115.599 69.9053 116.586V121.893H67.2135V111.241H69.9053V112.894ZM84.8889 116.336C84.8889 116.72 84.8633 117.067 84.812 117.374H77.025C77.0891 118.143 77.3583 118.746 77.8326 119.182C78.3068 119.617 78.8901 119.835 79.5822 119.835C80.582 119.835 81.2935 119.406 81.7164 118.547H84.6197C84.3121 119.573 83.7225 120.418 82.8508 121.085C81.9792 121.739 80.9089 122.066 79.6399 122.066C78.6145 122.066 77.6916 121.841 76.8712 121.393C76.0637 120.931 75.4292 120.284 74.9677 119.451C74.5191 118.618 74.2948 117.656 74.2948 116.567C74.2948 115.464 74.5191 114.497 74.9677 113.663C75.4164 112.83 76.0444 112.189 76.852 111.741C77.6595 111.292 78.5888 111.068 79.6399 111.068C80.6525 111.068 81.5562 111.286 82.3509 111.721C83.1585 112.157 83.7802 112.779 84.216 113.586C84.6646 114.381 84.8889 115.298 84.8889 116.336ZM82.101 115.567C82.0882 114.875 81.8382 114.323 81.3511 113.913C80.864 113.49 80.268 113.279 79.563 113.279C78.8965 113.279 78.3325 113.484 77.871 113.894C77.4224 114.291 77.1468 114.849 77.0442 115.567H82.101ZM86.1615 116.567C86.1615 115.464 86.3858 114.503 86.8345 113.683C87.2831 112.849 87.9048 112.209 88.6995 111.76C89.4942 111.298 90.4043 111.068 91.4298 111.068C92.75 111.068 93.8396 111.401 94.6984 112.068C95.57 112.721 96.1532 113.644 96.4481 114.836H93.5448C93.3909 114.375 93.1282 114.016 92.7564 113.759C92.3975 113.49 91.9489 113.356 91.4105 113.356C90.6415 113.356 90.0326 113.638 89.584 114.202C89.1353 114.753 88.911 115.541 88.911 116.567C88.911 117.579 89.1353 118.368 89.584 118.932C90.0326 119.483 90.6415 119.758 91.4105 119.758C92.5001 119.758 93.2115 119.271 93.5448 118.297H96.4481C96.1532 119.451 95.57 120.367 94.6984 121.047C93.8268 121.726 92.7372 122.066 91.4298 122.066C90.4043 122.066 89.4942 121.841 88.6995 121.393C87.9048 120.931 87.2831 120.29 86.8345 119.47C86.3858 118.637 86.1615 117.669 86.1615 116.567ZM108.322 116.336C108.322 116.72 108.296 117.067 108.245 117.374H100.458C100.522 118.143 100.791 118.746 101.266 119.182C101.74 119.617 102.323 119.835 103.015 119.835C104.015 119.835 104.727 119.406 105.15 118.547H108.053C107.745 119.573 107.156 120.418 106.284 121.085C105.412 121.739 104.342 122.066 103.073 122.066C102.048 122.066 101.125 121.841 100.304 121.393C99.4968 120.931 98.8623 120.284 98.4008 119.451C97.9522 118.618 97.7279 117.656 97.7279 116.567C97.7279 115.464 97.9522 114.497 98.4008 113.663C98.8494 112.83 99.4775 112.189 100.285 111.741C101.093 111.292 102.022 111.068 103.073 111.068C104.086 111.068 104.989 111.286 105.784 111.721C106.592 112.157 107.213 112.779 107.649 113.586C108.098 114.381 108.322 115.298 108.322 116.336ZM105.534 115.567C105.521 114.875 105.271 114.323 104.784 113.913C104.297 113.49 103.701 113.279 102.996 113.279C102.33 113.279 101.766 113.484 101.304 113.894C100.855 114.291 100.58 114.849 100.477 115.567H105.534ZM112.979 112.779C113.325 112.292 113.799 111.888 114.401 111.568C115.017 111.234 115.715 111.068 116.497 111.068C117.407 111.068 118.228 111.292 118.958 111.741C119.702 112.189 120.285 112.83 120.708 113.663C121.144 114.484 121.362 115.439 121.362 116.528C121.362 117.618 121.144 118.586 120.708 119.432C120.285 120.265 119.702 120.912 118.958 121.373C118.228 121.835 117.407 122.066 116.497 122.066C115.715 122.066 115.023 121.905 114.421 121.585C113.831 121.264 113.35 120.861 112.979 120.374V126.969H110.287V111.241H112.979V112.779ZM118.612 116.528C118.612 115.887 118.478 115.336 118.208 114.875C117.952 114.4 117.606 114.041 117.17 113.798C116.747 113.554 116.286 113.433 115.786 113.433C115.299 113.433 114.837 113.561 114.401 113.817C113.978 114.061 113.632 114.42 113.363 114.894C113.107 115.368 112.979 115.926 112.979 116.567C112.979 117.208 113.107 117.765 113.363 118.239C113.632 118.714 113.978 119.079 114.401 119.335C114.837 119.579 115.299 119.701 115.786 119.701C116.286 119.701 116.747 119.573 117.17 119.316C117.606 119.06 117.952 118.694 118.208 118.22C118.478 117.746 118.612 117.182 118.612 116.528ZM126.452 113.452V118.605C126.452 118.964 126.535 119.226 126.702 119.393C126.881 119.547 127.176 119.624 127.586 119.624H128.836V121.893H127.144C124.875 121.893 123.741 120.79 123.741 118.586V113.452H122.472V111.241H123.741V108.607H126.452V111.241H128.836V113.452H126.452ZM132.137 109.972C131.663 109.972 131.265 109.824 130.945 109.53C130.637 109.222 130.484 108.844 130.484 108.395C130.484 107.946 130.637 107.575 130.945 107.28C131.265 106.972 131.663 106.818 132.137 106.818C132.611 106.818 133.002 106.972 133.31 107.28C133.63 107.575 133.791 107.946 133.791 108.395C133.791 108.844 133.63 109.222 133.31 109.53C133.002 109.824 132.611 109.972 132.137 109.972ZM133.464 111.241V121.893H130.772V111.241H133.464ZM140.853 122.066C139.828 122.066 138.905 121.841 138.084 121.393C137.264 120.931 136.617 120.284 136.143 119.451C135.681 118.618 135.45 117.656 135.45 116.567C135.45 115.477 135.687 114.516 136.162 113.683C136.649 112.849 137.309 112.209 138.142 111.76C138.975 111.298 139.905 111.068 140.93 111.068C141.956 111.068 142.885 111.298 143.718 111.76C144.551 112.209 145.205 112.849 145.679 113.683C146.166 114.516 146.41 115.477 146.41 116.567C146.41 117.656 146.16 118.618 145.66 119.451C145.173 120.284 144.506 120.931 143.66 121.393C142.827 121.841 141.891 122.066 140.853 122.066ZM140.853 119.72C141.34 119.72 141.795 119.605 142.218 119.374C142.654 119.13 143 118.771 143.257 118.297C143.513 117.823 143.641 117.246 143.641 116.567C143.641 115.554 143.372 114.779 142.834 114.24C142.308 113.689 141.661 113.413 140.892 113.413C140.123 113.413 139.475 113.689 138.95 114.24C138.437 114.779 138.181 115.554 138.181 116.567C138.181 117.579 138.431 118.361 138.93 118.912C139.443 119.451 140.084 119.72 140.853 119.72ZM154.287 111.087C155.556 111.087 156.582 111.491 157.363 112.298C158.145 113.093 158.536 114.208 158.536 115.644V121.893H155.844V116.009C155.844 115.163 155.633 114.516 155.21 114.067C154.787 113.606 154.21 113.375 153.48 113.375C152.736 113.375 152.146 113.606 151.711 114.067C151.288 114.516 151.076 115.163 151.076 116.009V121.893H148.384V111.241H151.076V112.567C151.435 112.106 151.89 111.747 152.441 111.491C153.005 111.222 153.621 111.087 154.287 111.087ZM168.369 107.664V121.893H165.678V107.664H168.369ZM175.759 122.066C174.733 122.066 173.81 121.841 172.99 121.393C172.17 120.931 171.522 120.284 171.048 119.451C170.587 118.618 170.356 117.656 170.356 116.567C170.356 115.477 170.593 114.516 171.067 113.683C171.554 112.849 172.214 112.209 173.048 111.76C173.881 111.298 174.81 111.068 175.836 111.068C176.861 111.068 177.79 111.298 178.624 111.76C179.457 112.209 180.11 112.849 180.585 113.683C181.072 114.516 181.315 115.477 181.315 116.567C181.315 117.656 181.065 118.618 180.565 119.451C180.078 120.284 179.412 120.931 178.566 121.393C177.733 121.841 176.797 122.066 175.759 122.066ZM175.759 119.72C176.246 119.72 176.701 119.605 177.124 119.374C177.56 119.13 177.906 118.771 178.162 118.297C178.418 117.823 178.547 117.246 178.547 116.567C178.547 115.554 178.277 114.779 177.739 114.24C177.214 113.689 176.566 113.413 175.797 113.413C175.028 113.413 174.381 113.689 173.855 114.24C173.342 114.779 173.086 115.554 173.086 116.567C173.086 117.579 173.336 118.361 173.836 118.912C174.349 119.451 174.99 119.72 175.759 119.72ZM185.982 112.798C186.328 112.285 186.802 111.869 187.404 111.548C188.02 111.228 188.718 111.068 189.5 111.068C190.41 111.068 191.231 111.292 191.961 111.741C192.705 112.189 193.288 112.83 193.711 113.663C194.147 114.484 194.365 115.439 194.365 116.528C194.365 117.618 194.147 118.586 193.711 119.432C193.288 120.265 192.705 120.912 191.961 121.373C191.231 121.835 190.41 122.066 189.5 122.066C188.706 122.066 188.007 121.912 187.404 121.604C186.815 121.284 186.341 120.874 185.982 120.374V121.893H183.29V107.664H185.982V112.798ZM191.615 116.528C191.615 115.887 191.481 115.336 191.211 114.875C190.955 114.4 190.609 114.041 190.173 113.798C189.75 113.554 189.289 113.433 188.789 113.433C188.302 113.433 187.84 113.561 187.404 113.817C186.981 114.061 186.635 114.42 186.366 114.894C186.11 115.368 185.982 115.926 185.982 116.567C185.982 117.208 186.11 117.765 186.366 118.239C186.635 118.714 186.981 119.079 187.404 119.335C187.84 119.579 188.302 119.701 188.789 119.701C189.289 119.701 189.75 119.573 190.173 119.316C190.609 119.06 190.955 118.694 191.211 118.22C191.481 117.746 191.615 117.182 191.615 116.528ZM199.013 112.798C199.359 112.285 199.833 111.869 200.435 111.548C201.051 111.228 201.749 111.068 202.531 111.068C203.441 111.068 204.262 111.292 204.992 111.741C205.736 112.189 206.319 112.83 206.742 113.663C207.178 114.484 207.396 115.439 207.396 116.528C207.396 117.618 207.178 118.586 206.742 119.432C206.319 120.265 205.736 120.912 204.992 121.373C204.262 121.835 203.441 122.066 202.531 122.066C201.736 122.066 201.038 121.912 200.435 121.604C199.846 121.284 199.371 120.874 199.013 120.374V121.893H196.321V107.664H199.013V112.798ZM204.646 116.528C204.646 115.887 204.512 115.336 204.242 114.875C203.986 114.4 203.64 114.041 203.204 113.798C202.781 113.554 202.32 113.433 201.82 113.433C201.333 113.433 200.871 113.561 200.435 113.817C200.012 114.061 199.666 114.42 199.397 114.894C199.141 115.368 199.013 115.926 199.013 116.567C199.013 117.208 199.141 117.765 199.397 118.239C199.666 118.714 200.012 119.079 200.435 119.335C200.871 119.579 201.333 119.701 201.82 119.701C202.32 119.701 202.781 119.573 203.204 119.316C203.64 119.06 203.986 118.694 204.242 118.22C204.512 117.746 204.646 117.182 204.646 116.528ZM219.542 111.241L212.947 126.93H210.082L212.39 121.623L208.121 111.241H211.14L213.889 118.682L216.677 111.241H219.542Z" fill="#725054"/>
<path d="M420.26 34.1282C417.408 34.1282 415.085 36.4515 415.085 39.3035V47.9237H409.909V25.508C409.909 24.5627 409.14 23.7776 408.179 23.7776H390.939C389.993 23.7776 389.208 24.5467 389.208 25.508V47.9237H380.588C379.643 47.9237 378.858 47.1546 378.858 46.1932V21.6305L399.543 9.48539L420.228 21.6305V34.1282H420.26ZM400.44 5.94439L423.625 19.5636C424.394 19.9962 425.259 19.9962 426.044 19.5636C426.829 19.131 427.246 18.3619 427.246 17.4967C427.246 16.6315 426.813 15.8624 426.124 15.4298L399.575 0L373.122 15.5099C372.433 15.9425 372 16.7116 372 17.5768C372 18.442 372.433 19.2111 373.202 19.6437C373.971 20.0764 374.836 20.0764 375.621 19.6437L398.726 5.94439C399.238 5.5919 399.927 5.5919 400.456 5.94439H400.44ZM392.685 47.9237H406.481V37.5891C406.481 38.5344 405.712 39.3195 404.75 39.3195C403.789 39.3195 403.02 38.5504 403.02 37.5891C403.02 36.6277 403.789 35.8586 404.75 35.8586C405.712 35.8586 406.481 36.6277 406.481 37.5891V27.2545H392.685V47.9397V47.9237ZM418.546 66.8784C418.546 67.8238 419.315 68.6089 420.276 68.6089H439.231C440.176 68.6089 440.961 67.8398 440.961 66.8784V63.4336H418.546V66.8784ZM440.945 39.3035V59.9887H418.53V39.3035C418.53 38.3582 419.299 37.5731 420.26 37.5731H439.215C440.16 37.5731 440.945 38.3421 440.945 39.3035ZM427.166 53.083C427.166 52.1376 426.397 51.3525 425.435 51.3525C424.474 51.3525 423.705 52.1216 423.705 53.083C423.705 54.0443 424.474 54.8134 425.435 54.8134C426.397 54.8134 427.166 54.0443 427.166 53.083ZM427.166 44.4788C427.166 43.5335 426.397 42.7484 425.435 42.7484C424.474 42.7484 423.705 43.5175 423.705 44.4788C423.705 45.4402 424.474 46.2093 425.435 46.2093C426.397 46.2093 427.166 45.4402 427.166 44.4788ZM435.786 53.083C435.786 52.1376 435.017 51.3525 434.056 51.3525C433.094 51.3525 432.325 52.1216 432.325 53.083C432.325 54.0443 433.094 54.8134 434.056 54.8134C435.017 54.8134 435.786 54.0443 435.786 53.083ZM435.786 44.4788C435.786 43.5335 435.017 42.7484 434.056 42.7484C433.094 42.7484 432.325 43.5175 432.325 44.4788C432.325 45.4402 433.094 46.2093 434.056 46.2093C435.017 46.2093 435.786 45.4402 435.786 44.4788Z" fill="#725054"/>
<path d="M328.673 96.8799C328.673 95.5596 328.968 94.3803 329.557 93.3421C330.16 92.291 330.974 91.477 331.999 90.9002C333.038 90.3106 334.198 90.0158 335.479 90.0158C336.979 90.0158 338.293 90.4003 339.421 91.1694C340.549 91.9385 341.337 93.0024 341.786 94.3611H338.69C338.383 93.7202 337.947 93.2395 337.383 92.9191C336.832 92.5986 336.191 92.4384 335.46 92.4384C334.678 92.4384 333.98 92.6243 333.364 92.996C332.762 93.3549 332.288 93.8676 331.942 94.5342C331.608 95.2007 331.442 95.9826 331.442 96.8799C331.442 97.7643 331.608 98.5462 331.942 99.2256C332.288 99.8921 332.762 100.411 333.364 100.783C333.98 101.142 334.678 101.321 335.46 101.321C336.191 101.321 336.832 101.161 337.383 100.841C337.947 100.507 338.383 100.02 338.69 99.3794H341.786C341.337 100.751 340.549 101.821 339.421 102.59C338.306 103.347 336.992 103.725 335.479 103.725C334.198 103.725 333.038 103.436 331.999 102.86C330.974 102.27 330.16 101.456 329.557 100.418C328.968 99.3794 328.673 98.2001 328.673 96.8799ZM346.777 89.3813V103.609H344.085V89.3813H346.777ZM359.492 92.9575V103.609H356.781V102.263C356.435 102.725 355.98 103.09 355.416 103.359C354.865 103.616 354.262 103.744 353.609 103.744C352.775 103.744 352.038 103.571 351.397 103.225C350.757 102.866 350.25 102.347 349.879 101.667C349.52 100.975 349.34 100.155 349.34 99.2064V92.9575H352.032V98.8218C352.032 99.6678 352.243 100.322 352.666 100.783C353.089 101.232 353.666 101.456 354.397 101.456C355.14 101.456 355.724 101.232 356.147 100.783C356.57 100.322 356.781 99.6678 356.781 98.8218V92.9575H359.492ZM364.84 94.5149C365.186 94.0022 365.66 93.5856 366.263 93.2652C366.878 92.9447 367.576 92.7845 368.358 92.7845C369.268 92.7845 370.089 93.0088 370.819 93.4574C371.563 93.9061 372.146 94.547 372.569 95.3802C373.005 96.2005 373.223 97.1555 373.223 98.245C373.223 99.3345 373.005 100.302 372.569 101.148C372.146 101.981 371.563 102.629 370.819 103.09C370.089 103.552 369.268 103.782 368.358 103.782C367.564 103.782 366.865 103.629 366.263 103.321C365.673 103.001 365.199 102.59 364.84 102.09V103.609H362.148V89.3813H364.84V94.5149ZM370.473 98.245C370.473 97.6041 370.339 97.0529 370.07 96.5915C369.813 96.1172 369.467 95.7583 369.031 95.5147C368.608 95.2712 368.147 95.1494 367.647 95.1494C367.16 95.1494 366.698 95.2776 366.263 95.534C365.84 95.7775 365.494 96.1364 365.224 96.6107C364.968 97.085 364.84 97.6425 364.84 98.2835C364.84 98.9244 364.968 99.4819 365.224 99.9562C365.494 100.43 365.84 100.796 366.263 101.052C366.698 101.296 367.16 101.417 367.647 101.417C368.147 101.417 368.608 101.289 369.031 101.033C369.467 100.777 369.813 100.411 370.07 99.937C370.339 99.4627 370.473 98.8987 370.473 98.245ZM381.178 92.8037C381.985 92.8037 382.703 92.9832 383.331 93.3421C383.959 93.6882 384.446 94.2073 384.792 94.8995C385.151 95.5788 385.331 96.3992 385.331 97.3606V103.609H382.639V97.7259C382.639 96.8799 382.428 96.2326 382.005 95.7839C381.582 95.3225 381.005 95.0917 380.274 95.0917C379.531 95.0917 378.941 95.3225 378.505 95.7839C378.082 96.2326 377.871 96.8799 377.871 97.7259V103.609H375.179V89.3813H377.871V94.2842C378.217 93.8228 378.678 93.4638 379.255 93.2075C379.832 92.9383 380.473 92.8037 381.178 92.8037ZM392.621 103.782C391.595 103.782 390.672 103.558 389.852 103.109C389.031 102.648 388.384 102.001 387.91 101.168C387.448 100.334 387.218 99.373 387.218 98.2835C387.218 97.1939 387.455 96.2326 387.929 95.3994C388.416 94.5662 389.076 93.9253 389.909 93.4767C390.743 93.0152 391.672 92.7845 392.697 92.7845C393.723 92.7845 394.652 93.0152 395.485 93.4767C396.319 93.9253 396.972 94.5662 397.447 95.3994C397.934 96.2326 398.177 97.1939 398.177 98.2835C398.177 99.373 397.927 100.334 397.427 101.168C396.94 102.001 396.274 102.648 395.428 103.109C394.594 103.558 393.659 103.782 392.621 103.782ZM392.621 101.437C393.108 101.437 393.563 101.321 393.986 101.091C394.421 100.847 394.768 100.488 395.024 100.014C395.28 99.5396 395.408 98.9628 395.408 98.2835C395.408 97.2708 395.139 96.4953 394.601 95.957C394.075 95.4058 393.428 95.1302 392.659 95.1302C391.89 95.1302 391.243 95.4058 390.717 95.957C390.204 96.4953 389.948 97.2708 389.948 98.2835C389.948 99.2961 390.198 100.078 390.698 100.629C391.211 101.168 391.851 101.437 392.621 101.437ZM410.207 92.9575V103.609H407.496V102.263C407.15 102.725 406.695 103.09 406.131 103.359C405.58 103.616 404.978 103.744 404.324 103.744C403.491 103.744 402.754 103.571 402.113 103.225C401.472 102.866 400.966 102.347 400.594 101.667C400.235 100.975 400.056 100.155 400.056 99.2064V92.9575H402.747V98.8218C402.747 99.6678 402.959 100.322 403.382 100.783C403.805 101.232 404.382 101.456 405.112 101.456C405.856 101.456 406.439 101.232 406.862 100.783C407.285 100.322 407.496 99.6678 407.496 98.8218V92.9575H410.207ZM416.94 103.782C416.068 103.782 415.286 103.629 414.594 103.321C413.902 103.001 413.35 102.571 412.94 102.033C412.543 101.494 412.325 100.898 412.287 100.245H414.998C415.049 100.655 415.248 100.994 415.594 101.264C415.953 101.533 416.395 101.667 416.92 101.667C417.433 101.667 417.83 101.565 418.112 101.36C418.407 101.155 418.555 100.892 418.555 100.571C418.555 100.225 418.375 99.969 418.016 99.8024C417.67 99.6229 417.113 99.4307 416.344 99.2256C415.549 99.0333 414.895 98.8346 414.382 98.6295C413.882 98.4245 413.447 98.1104 413.075 97.6874C412.716 97.2644 412.537 96.694 412.537 95.9762C412.537 95.3866 412.703 94.8482 413.036 94.3611C413.383 93.874 413.87 93.4895 414.498 93.2075C415.139 92.9255 415.888 92.7845 416.747 92.7845C418.016 92.7845 419.029 93.1049 419.785 93.7458C420.541 94.3739 420.958 95.2263 421.035 96.3031H418.458C418.42 95.8801 418.241 95.5468 417.92 95.3032C417.613 95.0469 417.196 94.9187 416.67 94.9187C416.183 94.9187 415.805 95.0084 415.536 95.1879C415.28 95.3673 415.151 95.6173 415.151 95.9377C415.151 96.2966 415.331 96.5722 415.69 96.7645C416.049 96.944 416.606 97.1298 417.363 97.3221C418.132 97.5144 418.766 97.713 419.266 97.9181C419.766 98.1232 420.195 98.4437 420.554 98.8795C420.926 99.3025 421.118 99.8665 421.131 100.571C421.131 101.187 420.958 101.738 420.612 102.225C420.279 102.712 419.792 103.097 419.151 103.379C418.523 103.648 417.786 103.782 416.94 103.782ZM433.243 98.0527C433.243 98.4373 433.217 98.7834 433.166 99.091H425.379C425.443 99.8601 425.712 100.463 426.186 100.898C426.661 101.334 427.244 101.552 427.936 101.552C428.936 101.552 429.647 101.123 430.07 100.264H432.973C432.666 101.289 432.076 102.135 431.205 102.802C430.333 103.456 429.263 103.782 427.994 103.782C426.968 103.782 426.045 103.558 425.225 103.109C424.417 102.648 423.783 102.001 423.321 101.168C422.873 100.334 422.649 99.373 422.649 98.2835C422.649 97.1811 422.873 96.2133 423.321 95.3802C423.77 94.547 424.398 93.9061 425.206 93.4574C426.013 93.0088 426.943 92.7845 427.994 92.7845C429.006 92.7845 429.91 93.0024 430.705 93.4382C431.512 93.874 432.134 94.4957 432.57 95.3032C433.018 96.098 433.243 97.0145 433.243 98.0527ZM430.455 97.2836C430.442 96.5915 430.192 96.0403 429.705 95.6301C429.218 95.2071 428.622 94.9956 427.917 94.9956C427.25 94.9956 426.686 95.2007 426.225 95.6109C425.776 96.0082 425.501 96.5658 425.398 97.2836H430.455ZM454.555 92.9575L451.441 103.609H448.537L446.595 96.1685L444.653 103.609H441.731L438.597 92.9575H441.327L443.211 101.071L445.249 92.9575H448.095L450.095 101.052L451.979 92.9575H454.555ZM457.377 91.6885C456.903 91.6885 456.505 91.5411 456.185 91.2463C455.877 90.9387 455.723 90.5605 455.723 90.1119C455.723 89.6633 455.877 89.2916 456.185 88.9967C456.505 88.6891 456.903 88.5353 457.377 88.5353C457.851 88.5353 458.242 88.6891 458.55 88.9967C458.87 89.2916 459.03 89.6633 459.03 90.1119C459.03 90.5605 458.87 90.9387 458.55 91.2463C458.242 91.5411 457.851 91.6885 457.377 91.6885ZM458.704 92.9575V103.609H456.012V92.9575H458.704ZM464.497 95.1687V100.322C464.497 100.68 464.58 100.943 464.747 101.11C464.927 101.264 465.221 101.341 465.632 101.341H466.881V103.609H465.189C462.921 103.609 461.786 102.507 461.786 100.302V95.1687H460.517V92.9575H461.786V90.3234H464.497V92.9575H466.881V95.1687H464.497ZM474.816 92.8037C475.624 92.8037 476.342 92.9832 476.97 93.3421C477.598 93.6882 478.085 94.2073 478.431 94.8995C478.79 95.5788 478.969 96.3992 478.969 97.3606V103.609H476.278V97.7259C476.278 96.8799 476.066 96.2326 475.643 95.7839C475.22 95.3225 474.643 95.0917 473.913 95.0917C473.169 95.0917 472.58 95.3225 472.144 95.7839C471.721 96.2326 471.509 96.8799 471.509 97.7259V103.609H468.817V89.3813H471.509V94.2842C471.855 93.8228 472.317 93.4638 472.894 93.2075C473.47 92.9383 474.111 92.8037 474.816 92.8037Z" fill="#725054"/>
<path d="M340.385 115.722C339.911 115.722 339.514 115.574 339.193 115.28C338.885 114.972 338.732 114.594 338.732 114.145C338.732 113.696 338.885 113.325 339.193 113.03C339.514 112.722 339.911 112.568 340.385 112.568C340.859 112.568 341.25 112.722 341.558 113.03C341.878 113.325 342.039 113.696 342.039 114.145C342.039 114.594 341.878 114.972 341.558 115.28C341.25 115.574 340.859 115.722 340.385 115.722ZM341.712 116.991V127.643H339.02V116.991H341.712ZM350.274 116.837C351.543 116.837 352.569 117.241 353.35 118.048C354.132 118.843 354.523 119.958 354.523 121.394V127.643H351.831V121.759C351.831 120.913 351.62 120.266 351.197 119.817C350.774 119.356 350.197 119.125 349.467 119.125C348.723 119.125 348.133 119.356 347.698 119.817C347.275 120.266 347.063 120.913 347.063 121.759V127.643H344.371V116.991H347.063V118.317C347.422 117.856 347.877 117.497 348.428 117.241C348.992 116.972 349.608 116.837 350.274 116.837ZM356.391 122.278C356.391 121.201 356.602 120.247 357.025 119.413C357.461 118.58 358.051 117.939 358.794 117.491C359.538 117.042 360.364 116.818 361.275 116.818C361.967 116.818 362.627 116.972 363.255 117.279C363.883 117.574 364.383 117.971 364.755 118.471V113.414H367.485V127.643H364.755V126.066C364.421 126.591 363.954 127.014 363.351 127.335C362.749 127.655 362.05 127.816 361.255 127.816C360.358 127.816 359.538 127.585 358.794 127.123C358.051 126.662 357.461 126.015 357.025 125.182C356.602 124.336 356.391 123.368 356.391 122.278ZM364.774 122.317C364.774 121.663 364.646 121.105 364.389 120.644C364.133 120.17 363.787 119.811 363.351 119.567C362.915 119.311 362.447 119.183 361.948 119.183C361.448 119.183 360.986 119.304 360.563 119.548C360.14 119.791 359.794 120.15 359.525 120.625C359.269 121.086 359.14 121.637 359.14 122.278C359.14 122.919 359.269 123.483 359.525 123.97C359.794 124.444 360.14 124.81 360.563 125.066C360.999 125.323 361.46 125.451 361.948 125.451C362.447 125.451 362.915 125.329 363.351 125.085C363.787 124.829 364.133 124.47 364.389 124.009C364.646 123.534 364.774 122.97 364.774 122.317ZM374.844 127.816C373.818 127.816 372.895 127.591 372.075 127.143C371.255 126.681 370.607 126.034 370.133 125.201C369.672 124.368 369.441 123.406 369.441 122.317C369.441 121.227 369.678 120.266 370.152 119.433C370.639 118.599 371.3 117.959 372.133 117.51C372.966 117.048 373.895 116.818 374.921 116.818C375.946 116.818 376.875 117.048 377.709 117.51C378.542 117.959 379.196 118.599 379.67 119.433C380.157 120.266 380.4 121.227 380.4 122.317C380.4 123.406 380.151 124.368 379.651 125.201C379.164 126.034 378.497 126.681 377.651 127.143C376.818 127.591 375.882 127.816 374.844 127.816ZM374.844 125.47C375.331 125.47 375.786 125.355 376.209 125.124C376.645 124.88 376.991 124.521 377.247 124.047C377.504 123.573 377.632 122.996 377.632 122.317C377.632 121.304 377.363 120.529 376.824 119.99C376.299 119.439 375.651 119.163 374.882 119.163C374.113 119.163 373.466 119.439 372.94 119.99C372.428 120.529 372.171 121.304 372.171 122.317C372.171 123.329 372.421 124.111 372.921 124.662C373.434 125.201 374.075 125.47 374.844 125.47ZM387.105 127.816C386.079 127.816 385.157 127.591 384.336 127.143C383.516 126.681 382.869 126.034 382.394 125.201C381.933 124.368 381.702 123.406 381.702 122.317C381.702 121.227 381.939 120.266 382.413 119.433C382.901 118.599 383.561 117.959 384.394 117.51C385.227 117.048 386.156 116.818 387.182 116.818C388.207 116.818 389.137 117.048 389.97 117.51C390.803 117.959 391.457 118.599 391.931 119.433C392.418 120.266 392.662 121.227 392.662 122.317C392.662 123.406 392.412 124.368 391.912 125.201C391.425 126.034 390.758 126.681 389.912 127.143C389.079 127.591 388.143 127.816 387.105 127.816ZM387.105 125.47C387.592 125.47 388.047 125.355 388.47 125.124C388.906 124.88 389.252 124.521 389.508 124.047C389.765 123.573 389.893 122.996 389.893 122.317C389.893 121.304 389.624 120.529 389.085 119.99C388.56 119.439 387.912 119.163 387.143 119.163C386.374 119.163 385.727 119.439 385.201 119.99C384.689 120.529 384.432 121.304 384.432 122.317C384.432 123.329 384.682 124.111 385.182 124.662C385.695 125.201 386.336 125.47 387.105 125.47ZM397.328 118.644C397.674 118.08 398.123 117.638 398.674 117.318C399.238 116.997 399.879 116.837 400.596 116.837V119.663H399.885C399.039 119.663 398.398 119.862 397.962 120.259C397.539 120.657 397.328 121.349 397.328 122.336V127.643H394.636V116.991H397.328V118.644ZM411.163 116.818C411.958 116.818 412.657 116.978 413.259 117.298C413.862 117.606 414.336 118.01 414.682 118.51V116.991H417.393V127.719C417.393 128.706 417.194 129.585 416.797 130.354C416.4 131.136 415.803 131.751 415.009 132.199C414.214 132.661 413.253 132.892 412.125 132.892C410.612 132.892 409.369 132.539 408.395 131.834C407.433 131.129 406.888 130.168 406.76 128.95H409.433C409.574 129.437 409.875 129.822 410.337 130.104C410.811 130.398 411.381 130.546 412.048 130.546C412.83 130.546 413.464 130.309 413.951 129.834C414.438 129.373 414.682 128.668 414.682 127.719V126.066C414.336 126.566 413.855 126.982 413.24 127.316C412.637 127.649 411.945 127.816 411.163 127.816C410.266 127.816 409.446 127.585 408.702 127.123C407.959 126.662 407.369 126.015 406.933 125.182C406.51 124.336 406.299 123.368 406.299 122.278C406.299 121.201 406.51 120.247 406.933 119.413C407.369 118.58 407.952 117.939 408.683 117.491C409.426 117.042 410.253 116.818 411.163 116.818ZM414.682 122.317C414.682 121.663 414.554 121.105 414.297 120.644C414.041 120.17 413.695 119.811 413.259 119.567C412.823 119.311 412.355 119.183 411.855 119.183C411.356 119.183 410.894 119.304 410.471 119.548C410.048 119.791 409.702 120.15 409.433 120.625C409.177 121.086 409.048 121.637 409.048 122.278C409.048 122.919 409.177 123.483 409.433 123.97C409.702 124.444 410.048 124.81 410.471 125.066C410.907 125.323 411.368 125.451 411.855 125.451C412.355 125.451 412.823 125.329 413.259 125.085C413.695 124.829 414.041 124.47 414.297 124.009C414.554 123.534 414.682 122.97 414.682 122.317ZM419.33 122.278C419.33 121.201 419.541 120.247 419.964 119.413C420.4 118.58 420.983 117.939 421.714 117.491C422.457 117.042 423.284 116.818 424.194 116.818C424.989 116.818 425.681 116.978 426.271 117.298C426.873 117.619 427.354 118.023 427.713 118.51V116.991H430.424V127.643H427.713V126.085C427.367 126.585 426.886 127.002 426.271 127.335C425.668 127.655 424.97 127.816 424.175 127.816C423.278 127.816 422.457 127.585 421.714 127.123C420.983 126.662 420.4 126.015 419.964 125.182C419.541 124.336 419.33 123.368 419.33 122.278ZM427.713 122.317C427.713 121.663 427.585 121.105 427.328 120.644C427.072 120.17 426.726 119.811 426.29 119.567C425.854 119.311 425.386 119.183 424.886 119.183C424.386 119.183 423.925 119.304 423.502 119.548C423.079 119.791 422.733 120.15 422.464 120.625C422.207 121.086 422.079 121.637 422.079 122.278C422.079 122.919 422.207 123.483 422.464 123.97C422.733 124.444 423.079 124.81 423.502 125.066C423.938 125.323 424.399 125.451 424.886 125.451C425.386 125.451 425.854 125.329 426.29 125.085C426.726 124.829 427.072 124.47 427.328 124.009C427.585 123.534 427.713 122.97 427.713 122.317ZM446.281 116.837C447.589 116.837 448.64 117.241 449.434 118.048C450.242 118.843 450.646 119.958 450.646 121.394V127.643H447.954V121.759C447.954 120.926 447.742 120.291 447.319 119.856C446.896 119.407 446.32 119.183 445.589 119.183C444.858 119.183 444.275 119.407 443.839 119.856C443.416 120.291 443.205 120.926 443.205 121.759V127.643H440.513V121.759C440.513 120.926 440.301 120.291 439.878 119.856C439.455 119.407 438.879 119.183 438.148 119.183C437.405 119.183 436.815 119.407 436.379 119.856C435.956 120.291 435.745 120.926 435.745 121.759V127.643H433.053V116.991H435.745V118.279C436.091 117.83 436.533 117.478 437.071 117.221C437.622 116.965 438.225 116.837 438.879 116.837C439.712 116.837 440.455 117.016 441.109 117.375C441.763 117.721 442.269 118.221 442.628 118.875C442.974 118.26 443.474 117.766 444.128 117.395C444.794 117.023 445.512 116.837 446.281 116.837ZM463.102 122.086C463.102 122.47 463.076 122.817 463.025 123.124H455.238C455.302 123.893 455.571 124.496 456.046 124.932C456.52 125.367 457.103 125.585 457.795 125.585C458.795 125.585 459.507 125.156 459.93 124.297H462.833C462.525 125.323 461.936 126.168 461.064 126.835C460.192 127.489 459.122 127.816 457.853 127.816C456.828 127.816 455.905 127.591 455.084 127.143C454.277 126.681 453.642 126.034 453.181 125.201C452.732 124.368 452.508 123.406 452.508 122.317C452.508 121.214 452.732 120.247 453.181 119.413C453.629 118.58 454.258 117.939 455.065 117.491C455.873 117.042 456.802 116.818 457.853 116.818C458.866 116.818 459.769 117.036 460.564 117.471C461.372 117.907 461.993 118.529 462.429 119.336C462.878 120.131 463.102 121.048 463.102 122.086ZM460.314 121.317C460.301 120.625 460.051 120.073 459.564 119.663C459.077 119.24 458.481 119.029 457.776 119.029C457.11 119.029 456.546 119.234 456.084 119.644C455.635 120.041 455.36 120.599 455.257 121.317H460.314ZM469.143 127.816C468.271 127.816 467.489 127.662 466.797 127.354C466.105 127.034 465.554 126.604 465.144 126.066C464.746 125.528 464.528 124.932 464.49 124.278H467.201C467.252 124.688 467.451 125.028 467.797 125.297C468.156 125.566 468.598 125.701 469.124 125.701C469.636 125.701 470.034 125.598 470.316 125.393C470.611 125.188 470.758 124.925 470.758 124.605C470.758 124.259 470.579 124.002 470.22 123.836C469.874 123.656 469.316 123.464 468.547 123.259C467.752 123.067 467.098 122.868 466.586 122.663C466.086 122.458 465.65 122.144 465.278 121.721C464.919 121.298 464.74 120.727 464.74 120.009C464.74 119.42 464.907 118.881 465.24 118.394C465.586 117.907 466.073 117.523 466.701 117.241C467.342 116.959 468.092 116.818 468.951 116.818C470.22 116.818 471.232 117.138 471.989 117.779C472.745 118.407 473.161 119.26 473.238 120.336H470.662C470.623 119.913 470.444 119.58 470.124 119.336C469.816 119.08 469.399 118.952 468.874 118.952C468.387 118.952 468.009 119.042 467.739 119.221C467.483 119.401 467.355 119.65 467.355 119.971C467.355 120.33 467.534 120.605 467.893 120.798C468.252 120.977 468.81 121.163 469.566 121.355C470.335 121.548 470.97 121.746 471.469 121.951C471.969 122.156 472.399 122.477 472.758 122.913C473.129 123.336 473.322 123.9 473.334 124.605C473.334 125.22 473.161 125.771 472.815 126.258C472.482 126.745 471.995 127.13 471.354 127.412C470.726 127.681 469.989 127.816 469.143 127.816Z" fill="#725054"/>
<path d="M674.999 11.016H636.192C634.158 11.016 632.491 12.6664 632.491 14.7172V59.9972C632.491 61.5193 633.741 62.7691 635.263 62.7691H637.106C638.275 62.7691 639.317 62.0321 639.717 60.9265H664.072C664.456 62.0321 665.498 62.7691 666.683 62.7691H675.929C677.451 62.7691 678.7 61.5193 678.7 59.9972V14.7012C678.7 12.6664 677.05 11 674.999 11V11.016ZM663.912 20.2451C663.912 21.2705 663.078 22.0877 662.069 22.0877H641.736C640.711 22.0877 639.894 21.2545 639.894 20.2451V17.4731C639.894 16.4477 640.727 15.6305 641.736 15.6305H662.069C663.094 15.6305 663.912 16.4637 663.912 17.4731V20.2451ZM662.982 26.7182C663.495 26.7182 663.912 27.1348 663.912 27.6475V59.0679H652.824V26.7182H662.982ZM673.798 40.1291C673.349 40.3855 672.788 40.2253 672.548 39.7766L671.314 37.5335L670.08 39.7766C669.84 40.2253 669.263 40.3855 668.831 40.1291C668.398 39.8728 668.222 39.312 668.478 38.8794L670.128 35.9152C670.497 35.2422 671.346 35.0019 672.019 35.3864C672.243 35.5146 672.436 35.6909 672.548 35.9152L674.198 38.8794C674.454 39.312 674.294 39.8728 673.862 40.1291C673.862 40.1291 673.862 40.1291 673.846 40.1291H673.798ZM668.815 43.2215C669.263 42.9812 669.824 43.1414 670.064 43.574L671.298 45.8172L672.532 43.574C672.772 43.1254 673.349 42.9651 673.782 43.2215C674.214 43.4779 674.39 44.0387 674.134 44.4713L672.484 47.4355C672.115 48.1084 671.266 48.3487 670.593 47.9642C670.369 47.836 670.176 47.6598 670.064 47.4355L668.414 44.4713C668.158 44.0226 668.318 43.4618 668.766 43.2215H668.815ZM639.894 27.6475C639.894 27.1348 640.31 26.7182 640.823 26.7182H650.981V59.0679H639.894V27.6475Z" fill="#725054"/>
<path d="M641.735 17.4736H662.068V20.2455H641.735V17.4736Z" fill="#725054"/>
<path d="M608.113 90.4767C608.113 91.1945 607.94 91.8674 607.594 92.4955C607.261 93.1236 606.729 93.6299 605.998 94.0144C605.28 94.399 604.37 94.5913 603.268 94.5913H601.018V99.7441H598.327V86.3236H603.268C604.306 86.3236 605.191 86.503 605.921 86.8619C606.652 87.2209 607.197 87.7144 607.556 88.3424C607.927 88.9705 608.113 89.6819 608.113 90.4767ZM603.153 92.4186C603.896 92.4186 604.447 92.252 604.806 91.9187C605.165 91.5726 605.345 91.0919 605.345 90.4767C605.345 89.1692 604.614 88.5155 603.153 88.5155H601.018V92.4186H603.153ZM609.332 94.3798C609.332 93.303 609.544 92.3481 609.967 91.5149C610.403 90.6817 610.986 90.0408 611.716 89.5922C612.46 89.1436 613.287 88.9193 614.197 88.9193C614.991 88.9193 615.684 89.0795 616.273 89.3999C616.876 89.7204 617.356 90.1242 617.715 90.6112V89.0923H620.426V99.7441H617.715V98.1867C617.369 98.6866 616.889 99.1032 616.273 99.4365C615.671 99.757 614.972 99.9172 614.178 99.9172C613.28 99.9172 612.46 99.6865 611.716 99.225C610.986 98.7636 610.403 98.1162 609.967 97.2831C609.544 96.4371 609.332 95.4693 609.332 94.3798ZM617.715 94.4182C617.715 93.7645 617.587 93.2069 617.331 92.7455C617.074 92.2712 616.728 91.9123 616.292 91.6687C615.857 91.4124 615.389 91.2842 614.889 91.2842C614.389 91.2842 613.928 91.406 613.505 91.6495C613.082 91.8931 612.735 92.252 612.466 92.7262C612.21 93.1877 612.082 93.7389 612.082 94.3798C612.082 95.0207 612.21 95.5847 612.466 96.0718C612.735 96.546 613.082 96.9113 613.505 97.1677C613.94 97.4241 614.402 97.5522 614.889 97.5522C615.389 97.5522 615.857 97.4305 616.292 97.1869C616.728 96.9306 617.074 96.5717 617.331 96.1102C617.587 95.6359 617.715 95.0719 617.715 94.4182ZM627.132 99.9172C626.26 99.9172 625.478 99.7634 624.786 99.4557C624.094 99.1353 623.542 98.7059 623.132 98.1675C622.735 97.6292 622.517 97.0331 622.479 96.3794H625.19C625.241 96.7896 625.44 97.1292 625.786 97.3984C626.145 97.6676 626.587 97.8022 627.112 97.8022C627.625 97.8022 628.022 97.6997 628.304 97.4946C628.599 97.2895 628.747 97.0267 628.747 96.7063C628.747 96.3602 628.567 96.1038 628.208 95.9372C627.862 95.7577 627.305 95.5654 626.535 95.3603C625.741 95.1681 625.087 94.9694 624.574 94.7643C624.074 94.5592 623.639 94.2452 623.267 93.8222C622.908 93.3992 622.728 92.8288 622.728 92.111C622.728 91.5213 622.895 90.983 623.228 90.4959C623.574 90.0088 624.062 89.6242 624.69 89.3423C625.331 89.0603 626.08 88.9193 626.939 88.9193C628.208 88.9193 629.221 89.2397 629.977 89.8806C630.733 90.5087 631.15 91.3611 631.227 92.4378H628.65C628.612 92.0148 628.433 91.6816 628.112 91.438C627.804 91.1816 627.388 91.0535 626.862 91.0535C626.375 91.0535 625.997 91.1432 625.728 91.3226C625.472 91.5021 625.343 91.7521 625.343 92.0725C625.343 92.4314 625.523 92.707 625.882 92.8993C626.241 93.0787 626.798 93.2646 627.554 93.4569C628.324 93.6491 628.958 93.8478 629.458 94.0529C629.958 94.258 630.387 94.5784 630.746 95.0143C631.118 95.4373 631.31 96.0013 631.323 96.7063C631.323 97.3215 631.15 97.8727 630.804 98.3598C630.471 98.8469 629.984 99.2314 629.343 99.5134C628.715 99.7826 627.977 99.9172 627.132 99.9172ZM637.609 99.9172C636.737 99.9172 635.955 99.7634 635.263 99.4557C634.571 99.1353 634.02 98.7059 633.61 98.1675C633.212 97.6292 632.994 97.0331 632.956 96.3794H635.667C635.718 96.7896 635.917 97.1292 636.263 97.3984C636.622 97.6676 637.064 97.8022 637.59 97.8022C638.102 97.8022 638.5 97.6997 638.782 97.4946C639.076 97.2895 639.224 97.0267 639.224 96.7063C639.224 96.3602 639.044 96.1038 638.686 95.9372C638.339 95.7577 637.782 95.5654 637.013 95.3603C636.218 95.1681 635.564 94.9694 635.052 94.7643C634.552 94.5592 634.116 94.2452 633.744 93.8222C633.385 93.3992 633.206 92.8288 633.206 92.111C633.206 91.5213 633.372 90.983 633.706 90.4959C634.052 90.0088 634.539 89.6242 635.167 89.3423C635.808 89.0603 636.558 88.9193 637.417 88.9193C638.686 88.9193 639.698 89.2397 640.454 89.8806C641.211 90.5087 641.627 91.3611 641.704 92.4378H639.128C639.089 92.0148 638.91 91.6816 638.589 91.438C638.282 91.1816 637.865 91.0535 637.34 91.0535C636.853 91.0535 636.474 91.1432 636.205 91.3226C635.949 91.5021 635.821 91.7521 635.821 92.0725C635.821 92.4314 636 92.707 636.359 92.8993C636.718 93.0787 637.276 93.2646 638.032 93.4569C638.801 93.6491 639.435 93.8478 639.935 94.0529C640.435 94.258 640.865 94.5784 641.224 95.0143C641.595 95.4373 641.787 96.0013 641.8 96.7063C641.8 97.3215 641.627 97.8727 641.281 98.3598C640.948 98.8469 640.461 99.2314 639.82 99.5134C639.192 99.7826 638.455 99.9172 637.609 99.9172ZM653.912 94.1875C653.912 94.572 653.886 94.9181 653.835 95.2258H646.048C646.112 95.9948 646.381 96.5973 646.856 97.0331C647.33 97.4689 647.913 97.6868 648.605 97.6868C649.605 97.6868 650.316 97.2574 650.739 96.3986H653.643C653.335 97.4241 652.745 98.2701 651.874 98.9366C651.002 99.5903 649.932 99.9172 648.663 99.9172C647.637 99.9172 646.715 99.6929 645.894 99.2442C645.087 98.7828 644.452 98.1355 643.991 97.3023C643.542 96.4691 643.318 95.5078 643.318 94.4182C643.318 93.3159 643.542 92.3481 643.991 91.5149C644.439 90.6817 645.067 90.0408 645.875 89.5922C646.683 89.1436 647.612 88.9193 648.663 88.9193C649.676 88.9193 650.579 89.1372 651.374 89.573C652.181 90.0088 652.803 90.6305 653.239 91.438C653.688 92.2327 653.912 93.1492 653.912 94.1875ZM651.124 93.4184C651.111 92.7262 650.861 92.1751 650.374 91.7649C649.887 91.3419 649.291 91.1304 648.586 91.1304C647.919 91.1304 647.355 91.3355 646.894 91.7456C646.445 92.143 646.17 92.7006 646.067 93.4184H651.124ZM661.779 88.9385C663.048 88.9385 664.074 89.3423 664.856 90.1498C665.638 90.9445 666.029 92.0597 666.029 93.4953V99.7441H663.337V93.8606C663.337 93.0146 663.125 92.3673 662.702 91.9187C662.279 91.4572 661.703 91.2265 660.972 91.2265C660.228 91.2265 659.639 91.4572 659.203 91.9187C658.78 92.3673 658.568 93.0146 658.568 93.8606V99.7441H655.877V89.0923H658.568V90.419C658.927 89.9575 659.382 89.5986 659.934 89.3423C660.498 89.0731 661.113 88.9385 661.779 88.9385ZM672.761 88.9193C673.555 88.9193 674.254 89.0795 674.856 89.3999C675.459 89.7076 675.933 90.1113 676.279 90.6112V89.0923H678.99V99.821C678.99 100.808 678.792 101.686 678.394 102.455C677.997 103.237 677.401 103.852 676.606 104.301C675.811 104.762 674.85 104.993 673.722 104.993C672.21 104.993 670.966 104.641 669.992 103.936C669.031 103.231 668.486 102.269 668.358 101.052H671.03C671.171 101.539 671.472 101.923 671.934 102.205C672.408 102.5 672.979 102.647 673.645 102.647C674.427 102.647 675.062 102.41 675.549 101.936C676.036 101.475 676.279 100.77 676.279 99.821V98.1675C675.933 98.6674 675.452 99.084 674.837 99.4173C674.235 99.7505 673.543 99.9172 672.761 99.9172C671.863 99.9172 671.043 99.6865 670.3 99.225C669.556 98.7636 668.967 98.1162 668.531 97.2831C668.108 96.4371 667.896 95.4693 667.896 94.3798C667.896 93.303 668.108 92.3481 668.531 91.5149C668.967 90.6817 669.55 90.0408 670.28 89.5922C671.024 89.1436 671.851 88.9193 672.761 88.9193ZM676.279 94.4182C676.279 93.7645 676.151 93.2069 675.895 92.7455C675.638 92.2712 675.292 91.9123 674.856 91.6687C674.421 91.4124 673.953 91.2842 673.453 91.2842C672.953 91.2842 672.492 91.406 672.069 91.6495C671.646 91.8931 671.299 92.252 671.03 92.7262C670.774 93.1877 670.646 93.7389 670.646 94.3798C670.646 95.0207 670.774 95.5847 671.03 96.0718C671.299 96.546 671.646 96.9113 672.069 97.1677C672.504 97.4241 672.966 97.5522 673.453 97.5522C673.953 97.5522 674.421 97.4305 674.856 97.1869C675.292 96.9306 675.638 96.5717 675.895 96.1102C676.151 95.6359 676.279 95.0719 676.279 94.4182ZM691.521 94.1875C691.521 94.572 691.496 94.9181 691.444 95.2258H683.657C683.721 95.9948 683.991 96.5973 684.465 97.0331C684.939 97.4689 685.522 97.6868 686.215 97.6868C687.214 97.6868 687.926 97.2574 688.349 96.3986H691.252C690.944 97.4241 690.355 98.2701 689.483 98.9366C688.612 99.5903 687.541 99.9172 686.272 99.9172C685.247 99.9172 684.324 99.6929 683.504 99.2442C682.696 98.7828 682.062 98.1355 681.6 97.3023C681.151 96.4691 680.927 95.5078 680.927 94.4182C680.927 93.3159 681.151 92.3481 681.6 91.5149C682.049 90.6817 682.677 90.0408 683.484 89.5922C684.292 89.1436 685.221 88.9193 686.272 88.9193C687.285 88.9193 688.189 89.1372 688.983 89.573C689.791 90.0088 690.413 90.6305 690.848 91.438C691.297 92.2327 691.521 93.1492 691.521 94.1875ZM688.733 93.4184C688.721 92.7262 688.471 92.1751 687.983 91.7649C687.496 91.3419 686.9 91.1304 686.195 91.1304C685.529 91.1304 684.965 91.3355 684.503 91.7456C684.055 92.143 683.779 92.7006 683.677 93.4184H688.733ZM696.178 90.7458C696.524 90.1818 696.973 89.7396 697.524 89.4192C698.088 89.0987 698.729 88.9385 699.446 88.9385V91.7649H698.735C697.889 91.7649 697.248 91.9636 696.812 92.3609C696.389 92.7583 696.178 93.4505 696.178 94.4374V99.7441H693.486V89.0923H696.178V90.7458ZM716.166 99.7441L714.705 98.3021C713.461 99.4173 711.942 99.9749 710.148 99.9749C709.161 99.9749 708.289 99.8082 707.533 99.475C706.79 99.1289 706.213 98.6482 705.803 98.0329C705.392 97.4048 705.187 96.6806 705.187 95.8603C705.187 94.9758 705.437 94.1811 705.937 93.4761C706.437 92.7711 707.174 92.2007 708.148 91.7649C707.802 91.3419 707.552 90.9381 707.398 90.5536C707.245 90.1562 707.168 89.7332 707.168 89.2846C707.168 88.6693 707.328 88.1181 707.648 87.631C707.969 87.1311 708.424 86.7402 709.013 86.4582C709.616 86.1762 710.315 86.0352 711.109 86.0352C711.917 86.0352 712.609 86.189 713.186 86.4966C713.763 86.8043 714.192 87.2144 714.474 87.7272C714.756 88.2399 714.878 88.8103 714.839 89.4384H712.224C712.237 89.0154 712.135 88.6949 711.917 88.477C711.699 88.2463 711.404 88.1309 711.032 88.1309C710.673 88.1309 710.372 88.2399 710.129 88.4578C709.898 88.6629 709.783 88.9321 709.783 89.2653C709.783 89.5858 709.879 89.9062 710.071 90.2267C710.263 90.5343 710.577 90.9189 711.013 91.3803L714.397 94.7259C714.423 94.7002 714.442 94.6746 714.455 94.6489C714.468 94.6233 714.48 94.5977 714.493 94.572L715.589 92.7455H718.396L717.05 95.1104C716.794 95.6103 716.518 96.0846 716.224 96.5332L719.473 99.7441H716.166ZM710.225 97.7445C711.276 97.7445 712.205 97.3728 713.013 96.6293L709.706 93.3607C708.462 93.9119 707.841 94.6938 707.841 95.7064C707.841 96.2833 708.059 96.7703 708.494 97.1677C708.93 97.5522 709.507 97.7445 710.225 97.7445Z" fill="#725054"/>
<path d="M611.958 118.453C611.958 117.351 612.182 116.39 612.631 115.569C613.08 114.736 613.701 114.095 614.496 113.647C615.291 113.185 616.201 112.954 617.226 112.954C618.547 112.954 619.636 113.288 620.495 113.954C621.367 114.608 621.95 115.531 622.245 116.723H619.341C619.188 116.261 618.925 115.903 618.553 115.646C618.194 115.377 617.746 115.242 617.207 115.242C616.438 115.242 615.829 115.524 615.381 116.088C614.932 116.64 614.708 117.428 614.708 118.453C614.708 119.466 614.932 120.254 615.381 120.818C615.829 121.369 616.438 121.645 617.207 121.645C618.297 121.645 619.008 121.158 619.341 120.184H622.245C621.95 121.337 621.367 122.254 620.495 122.933C619.623 123.613 618.534 123.952 617.226 123.952C616.201 123.952 615.291 123.728 614.496 123.279C613.701 122.818 613.08 122.177 612.631 121.357C612.182 120.523 611.958 119.556 611.958 118.453ZM623.524 118.415C623.524 117.338 623.736 116.383 624.159 115.55C624.595 114.717 625.178 114.076 625.909 113.627C626.652 113.179 627.479 112.954 628.389 112.954C629.184 112.954 629.876 113.115 630.465 113.435C631.068 113.756 631.549 114.159 631.908 114.646V113.127H634.619V123.779H631.908V122.222C631.561 122.722 631.081 123.138 630.465 123.472C629.863 123.792 629.164 123.952 628.37 123.952C627.472 123.952 626.652 123.722 625.909 123.26C625.178 122.799 624.595 122.151 624.159 121.318C623.736 120.472 623.524 119.504 623.524 118.415ZM631.908 118.453C631.908 117.8 631.779 117.242 631.523 116.781C631.267 116.306 630.921 115.947 630.485 115.704C630.049 115.448 629.581 115.319 629.081 115.319C628.581 115.319 628.12 115.441 627.697 115.685C627.274 115.928 626.928 116.287 626.659 116.761C626.402 117.223 626.274 117.774 626.274 118.415C626.274 119.056 626.402 119.62 626.659 120.107C626.928 120.581 627.274 120.946 627.697 121.203C628.133 121.459 628.594 121.587 629.081 121.587C629.581 121.587 630.049 121.466 630.485 121.222C630.921 120.966 631.267 120.607 631.523 120.145C631.779 119.671 631.908 119.107 631.908 118.453ZM639.939 114.781C640.285 114.217 640.734 113.775 641.285 113.454C641.849 113.134 642.49 112.974 643.208 112.974V115.8H642.497C641.651 115.8 641.01 115.999 640.574 116.396C640.151 116.793 639.939 117.486 639.939 118.473V123.779H637.248V113.127H639.939V114.781ZM649.193 112.954C649.988 112.954 650.687 113.115 651.289 113.435C651.892 113.743 652.366 114.146 652.712 114.646V113.127H655.423V123.856C655.423 124.843 655.224 125.721 654.827 126.49C654.43 127.272 653.833 127.887 653.039 128.336C652.244 128.798 651.283 129.028 650.155 129.028C648.642 129.028 647.399 128.676 646.425 127.971C645.463 127.266 644.918 126.304 644.79 125.087H647.463C647.604 125.574 647.905 125.958 648.367 126.24C648.841 126.535 649.411 126.683 650.078 126.683C650.86 126.683 651.494 126.445 651.981 125.971C652.468 125.51 652.712 124.805 652.712 123.856V122.203C652.366 122.703 651.885 123.119 651.27 123.452C650.667 123.786 649.975 123.952 649.193 123.952C648.296 123.952 647.476 123.722 646.732 123.26C645.989 122.799 645.399 122.151 644.963 121.318C644.54 120.472 644.329 119.504 644.329 118.415C644.329 117.338 644.54 116.383 644.963 115.55C645.399 114.717 645.982 114.076 646.713 113.627C647.456 113.179 648.283 112.954 649.193 112.954ZM652.712 118.453C652.712 117.8 652.584 117.242 652.327 116.781C652.071 116.306 651.725 115.947 651.289 115.704C650.853 115.448 650.385 115.319 649.886 115.319C649.386 115.319 648.924 115.441 648.501 115.685C648.078 115.928 647.732 116.287 647.463 116.761C647.207 117.223 647.078 117.774 647.078 118.415C647.078 119.056 647.207 119.62 647.463 120.107C647.732 120.581 648.078 120.946 648.501 121.203C648.937 121.459 649.398 121.587 649.886 121.587C650.385 121.587 650.853 121.466 651.289 121.222C651.725 120.966 652.071 120.607 652.327 120.145C652.584 119.671 652.712 119.107 652.712 118.453ZM662.782 123.952C661.756 123.952 660.833 123.728 660.013 123.279C659.193 122.818 658.545 122.171 658.071 121.337C657.61 120.504 657.379 119.543 657.379 118.453C657.379 117.364 657.616 116.402 658.09 115.569C658.577 114.736 659.238 114.095 660.071 113.647C660.904 113.185 661.833 112.954 662.859 112.954C663.884 112.954 664.813 113.185 665.647 113.647C666.48 114.095 667.134 114.736 667.608 115.569C668.095 116.402 668.338 117.364 668.338 118.453C668.338 119.543 668.089 120.504 667.589 121.337C667.102 122.171 666.435 122.818 665.589 123.279C664.756 123.728 663.82 123.952 662.782 123.952ZM662.782 121.607C663.269 121.607 663.724 121.491 664.147 121.261C664.583 121.017 664.929 120.658 665.185 120.184C665.442 119.71 665.57 119.133 665.57 118.453C665.57 117.441 665.301 116.665 664.762 116.127C664.237 115.576 663.589 115.3 662.82 115.3C662.051 115.3 661.404 115.576 660.878 116.127C660.366 116.665 660.109 117.441 660.109 118.453C660.109 119.466 660.359 120.248 660.859 120.799C661.372 121.337 662.013 121.607 662.782 121.607ZM677.586 109.551V123.779H674.894V109.551H677.586ZM681.611 111.858C681.137 111.858 680.739 111.711 680.419 111.416C680.111 111.109 679.957 110.73 679.957 110.282C679.957 109.833 680.111 109.461 680.419 109.167C680.739 108.859 681.137 108.705 681.611 108.705C682.085 108.705 682.476 108.859 682.784 109.167C683.104 109.461 683.264 109.833 683.264 110.282C683.264 110.73 683.104 111.109 682.784 111.416C682.476 111.711 682.085 111.858 681.611 111.858ZM682.938 113.127V123.779H680.246V113.127H682.938ZM690.481 115.339H688.616V123.779H685.886V115.339H684.674V113.127H685.886V112.589C685.886 111.282 686.257 110.32 687.001 109.705C687.744 109.09 688.866 108.801 690.365 108.84V111.109C689.712 111.096 689.257 111.205 689 111.435C688.744 111.666 688.616 112.083 688.616 112.685V113.127H690.481V115.339ZM695.359 115.339V120.491C695.359 120.85 695.443 121.113 695.609 121.28C695.789 121.434 696.083 121.51 696.494 121.51H697.743V123.779H696.051C693.783 123.779 692.648 122.677 692.648 120.472V115.339H691.379V113.127H692.648V110.493H695.359V113.127H697.743V115.339H695.359ZM703.756 123.952C702.884 123.952 702.102 123.799 701.41 123.491C700.718 123.17 700.167 122.741 699.756 122.203C699.359 121.664 699.141 121.068 699.103 120.415H701.814C701.865 120.825 702.064 121.164 702.41 121.434C702.769 121.703 703.211 121.837 703.736 121.837C704.249 121.837 704.646 121.735 704.928 121.53C705.223 121.325 705.371 121.062 705.371 120.741C705.371 120.395 705.191 120.139 704.832 119.972C704.486 119.793 703.929 119.601 703.16 119.396C702.365 119.203 701.711 119.005 701.198 118.799C700.699 118.594 700.263 118.28 699.891 117.857C699.532 117.434 699.353 116.864 699.353 116.146C699.353 115.556 699.519 115.018 699.853 114.531C700.199 114.044 700.686 113.659 701.314 113.377C701.955 113.095 702.705 112.954 703.563 112.954C704.832 112.954 705.845 113.275 706.601 113.916C707.358 114.544 707.774 115.396 707.851 116.473H705.275C705.236 116.05 705.057 115.717 704.736 115.473C704.429 115.217 704.012 115.089 703.486 115.089C702.999 115.089 702.621 115.178 702.352 115.358C702.096 115.537 701.968 115.787 701.968 116.108C701.968 116.467 702.147 116.742 702.506 116.934C702.865 117.114 703.422 117.3 704.179 117.492C704.948 117.684 705.582 117.883 706.082 118.088C706.582 118.293 707.011 118.614 707.37 119.049C707.742 119.472 707.934 120.036 707.947 120.741C707.947 121.357 707.774 121.908 707.428 122.395C707.095 122.882 706.608 123.267 705.967 123.549C705.339 123.818 704.602 123.952 703.756 123.952Z" fill="#725054"/>
<path d="M864.115 49.8784H874.995V11.2959H864.115V49.8784ZM872.928 26.6936C873.681 26.7577 874.225 27.4307 874.161 28.1677C874.097 28.8247 873.585 29.3374 872.928 29.4015C872.175 29.3374 871.63 28.6644 871.694 27.9274C871.758 27.2705 872.271 26.7577 872.928 26.6936Z" fill="#725054"/>
<path d="M861.92 47.6843V10.2074C861.92 9.58247 862.433 9.06975 863.058 9.06975H876.068C876.693 9.06975 877.206 9.58247 877.206 10.2074V49.8473H878.023V5H859.901C859.276 5 858.764 5.51272 858.764 6.13761V48.8379C858.764 49.4628 859.276 49.9755 859.901 49.9755H861.968L861.936 47.7003L861.92 47.6843Z" fill="#725054"/>
<path d="M898.404 5H880.282V49.8794H881.179V10.2074C881.179 9.58247 881.692 9.06975 882.317 9.06975H895.279C895.904 9.06975 896.417 9.58247 896.417 10.2074V49.8473H898.404C899.029 49.8473 899.541 49.3346 899.541 48.7097V6.13761C899.541 5.51272 899.029 5 898.404 5Z" fill="#725054"/>
<path d="M894.19 47.6833V11.2959H883.311V49.8784H894.19V47.6993V47.6833ZM885.377 26.6936C886.131 26.7577 886.675 27.4307 886.611 28.1677C886.547 28.8247 886.034 29.3374 885.377 29.4015C884.624 29.3374 884.08 28.6644 884.144 27.9274C884.208 27.2705 884.721 26.7577 885.377 26.6936Z" fill="#725054"/>
<path d="M892.06 53.7577L890.842 50.9697H883.68C883.744 51.3382 884.08 53.3411 884.16 53.7577C884.417 55.3439 886.019 64.7973 886.259 66.2233H895.873C896.498 66.1912 896.978 65.6625 896.946 65.0376C896.946 64.9254 896.914 64.7973 896.882 64.6851L892.076 53.7577H892.06Z" fill="#725054"/>
<path d="M874.627 50.9697H867.449C867.288 51.3382 866.407 53.3251 866.231 53.7577L861.44 64.637C861.216 65.2299 861.52 65.8708 862.097 66.0951C862.209 66.1432 862.338 66.1592 862.466 66.1592H872.079C872.656 62.7624 874.082 54.3185 874.627 50.9697Z" fill="#725054"/>
<path d="M881.902 53.6936L881.421 50.9697H876.887C876.598 52.7482 875.012 61.9933 874.676 63.9641L874.291 66.1432H884.001C883.792 64.8453 882.158 55.2157 881.902 53.6775V53.6936Z" fill="#725054"/>
<path d="M817.094 84.8031L813.344 98.2236H810.172L807.653 88.6677L805.019 98.2236L801.866 98.2429L798.251 84.8031H801.135L803.5 95.2242L806.23 84.8031H809.23L811.806 95.1665L814.19 84.8031H817.094ZM828.753 92.667C828.753 93.0515 828.728 93.3976 828.676 93.7053H820.889C820.954 94.4743 821.223 95.0768 821.697 95.5126C822.171 95.9484 822.754 96.1663 823.447 96.1663C824.446 96.1663 825.158 95.7369 825.581 94.8781H828.484C828.177 95.9036 827.587 96.7496 826.715 97.4161C825.844 98.0698 824.773 98.3967 823.504 98.3967C822.479 98.3967 821.556 98.1724 820.736 97.7237C819.928 97.2623 819.294 96.615 818.832 95.7818C818.384 94.9486 818.159 93.9873 818.159 92.8977C818.159 91.7954 818.384 90.8276 818.832 89.9944C819.281 89.1612 819.909 88.5203 820.716 88.0717C821.524 87.6231 822.453 87.3987 823.504 87.3987C824.517 87.3987 825.421 87.6167 826.215 88.0525C827.023 88.4883 827.645 89.11 828.08 89.9175C828.529 90.7122 828.753 91.6287 828.753 92.667ZM825.965 91.8979C825.953 91.2057 825.703 90.6545 825.216 90.2444C824.728 89.8214 824.132 89.6099 823.427 89.6099C822.761 89.6099 822.197 89.815 821.735 90.2251C821.287 90.6225 821.011 91.1801 820.909 91.8979H825.965ZM833.41 83.9955V98.2236H830.718V83.9955H833.41ZM838.761 83.9955V98.2236H836.069V83.9955H838.761ZM849.612 90.2251V92.4939H841.459V90.2251H849.612ZM855.322 83.9955V98.2236H852.63V83.9955H855.322ZM859.347 86.3028C858.872 86.3028 858.475 86.1554 858.155 85.8606C857.847 85.5529 857.693 85.1748 857.693 84.7262C857.693 84.2775 857.847 83.9058 858.155 83.611C858.475 83.3034 858.872 83.1495 859.347 83.1495C859.821 83.1495 860.212 83.3034 860.52 83.611C860.84 83.9058 861 84.2775 861 84.7262C861 85.1748 860.84 85.5529 860.52 85.8606C860.212 86.1554 859.821 86.3028 859.347 86.3028ZM860.673 87.5718V98.2236H857.982V87.5718H860.673ZM866.467 89.7829V94.9358C866.467 95.2947 866.55 95.5575 866.717 95.7241C866.896 95.8779 867.191 95.9548 867.601 95.9548H868.851V98.2236H867.159C864.89 98.2236 863.756 97.1213 863.756 94.9166V89.7829H862.487V87.5718H863.756V84.9377H866.467V87.5718H868.851V89.7829H866.467ZM873.729 95.3972L871.479 100.8H869.749L870.999 95.3972H873.729ZM884.327 98.3967C883.455 98.3967 882.673 98.2429 881.981 97.9352C881.289 97.6148 880.738 97.1854 880.327 96.647C879.93 96.1086 879.712 95.5126 879.674 94.8589H882.385C882.436 95.2691 882.635 95.6087 882.981 95.8779C883.34 96.1471 883.782 96.2817 884.307 96.2817C884.82 96.2817 885.218 96.1791 885.5 95.9741C885.794 95.769 885.942 95.5062 885.942 95.1857C885.942 94.8397 885.762 94.5833 885.403 94.4167C885.057 94.2372 884.5 94.0449 883.731 93.8398C882.936 93.6476 882.282 93.4489 881.77 93.2438C881.27 93.0387 880.834 92.7247 880.462 92.3017C880.103 91.8787 879.924 91.3083 879.924 90.5905C879.924 90.0008 880.09 89.4625 880.424 88.9754C880.77 88.4883 881.257 88.1037 881.885 87.8217C882.526 87.5397 883.276 87.3987 884.134 87.3987C885.403 87.3987 886.416 87.7192 887.172 88.3601C887.929 88.9882 888.345 89.8406 888.422 90.9173H885.846C885.807 90.4943 885.628 90.161 885.307 89.9175C885 89.6611 884.583 89.533 884.058 89.533C883.57 89.533 883.192 89.6227 882.923 89.8021C882.667 89.9816 882.539 90.2315 882.539 90.552C882.539 90.9109 882.718 91.1865 883.077 91.3788C883.436 91.5582 883.993 91.7441 884.75 91.9364C885.519 92.1286 886.153 92.3273 886.653 92.5324C887.153 92.7375 887.583 93.0579 887.941 93.4938C888.313 93.9168 888.505 94.4807 888.518 95.1857C888.518 95.801 888.345 96.3522 887.999 96.8393C887.666 97.3264 887.179 97.7109 886.538 97.9929C885.91 98.2621 885.173 98.3967 884.327 98.3967ZM893.42 89.11C893.766 88.6229 894.24 88.2191 894.842 87.8987C895.458 87.5654 896.156 87.3987 896.938 87.3987C897.848 87.3987 898.669 87.6231 899.399 88.0717C900.143 88.5203 900.726 89.1612 901.149 89.9944C901.585 90.8148 901.803 91.7697 901.803 92.8593C901.803 93.9488 901.585 94.9166 901.149 95.7626C900.726 96.5957 900.143 97.243 899.399 97.7045C898.669 98.166 897.848 98.3967 896.938 98.3967C896.156 98.3967 895.464 98.2365 894.862 97.916C894.272 97.5955 893.791 97.1918 893.42 96.7047V103.3H890.728V87.5718H893.42V89.11ZM899.053 92.8593C899.053 92.2184 898.919 91.6672 898.649 91.2057C898.393 90.7315 898.047 90.3725 897.611 90.129C897.188 89.8855 896.727 89.7637 896.227 89.7637C895.74 89.7637 895.278 89.8919 894.842 90.1482C894.419 90.3918 894.073 90.7507 893.804 91.2249C893.548 91.6992 893.42 92.2568 893.42 92.8977C893.42 93.5386 893.548 94.0962 893.804 94.5705C894.073 95.0447 894.419 95.4101 894.842 95.6664C895.278 95.91 895.74 96.0317 896.227 96.0317C896.727 96.0317 897.188 95.9036 897.611 95.6472C898.047 95.3908 898.393 95.0255 898.649 94.5512C898.919 94.077 899.053 93.513 899.053 92.8593ZM903.067 92.8593C903.067 91.7825 903.278 90.8276 903.701 89.9944C904.137 89.1612 904.72 88.5203 905.451 88.0717C906.194 87.6231 907.021 87.3987 907.931 87.3987C908.726 87.3987 909.418 87.559 910.008 87.8794C910.61 88.1999 911.091 88.6036 911.45 89.0907V87.5718H914.161V98.2236H911.45V96.6662C911.104 97.1661 910.623 97.5827 910.008 97.916C909.405 98.2365 908.707 98.3967 907.912 98.3967C907.015 98.3967 906.194 98.166 905.451 97.7045C904.72 97.243 904.137 96.5957 903.701 95.7626C903.278 94.9166 903.067 93.9488 903.067 92.8593ZM911.45 92.8977C911.45 92.244 911.321 91.6864 911.065 91.2249C910.809 90.7507 910.463 90.3918 910.027 90.1482C909.591 89.8919 909.123 89.7637 908.623 89.7637C908.123 89.7637 907.662 89.8855 907.239 90.129C906.816 90.3725 906.47 90.7315 906.201 91.2057C905.944 91.6672 905.816 92.2184 905.816 92.8593C905.816 93.5002 905.944 94.0642 906.201 94.5512C906.47 95.0255 906.816 95.3908 907.239 95.6472C907.675 95.9036 908.136 96.0317 908.623 96.0317C909.123 96.0317 909.591 95.91 910.027 95.6664C910.463 95.4101 910.809 95.0512 911.065 94.5897C911.321 94.1154 911.45 93.5514 911.45 92.8977ZM916.097 92.8977C916.097 91.7954 916.322 90.834 916.77 90.0136C917.219 89.1805 917.841 88.5396 918.635 88.0909C919.43 87.6295 920.34 87.3987 921.366 87.3987C922.686 87.3987 923.776 87.732 924.634 88.3986C925.506 89.0523 926.089 89.9752 926.384 91.1673H923.481C923.327 90.7058 923.064 90.3469 922.692 90.0905C922.334 89.8214 921.885 89.6868 921.347 89.6868C920.577 89.6868 919.969 89.9688 919.52 90.5328C919.071 91.084 918.847 91.8723 918.847 92.8977C918.847 93.9103 919.071 94.6987 919.52 95.2627C919.969 95.8138 920.577 96.0894 921.347 96.0894C922.436 96.0894 923.147 95.6023 923.481 94.6282H926.384C926.089 95.7818 925.506 96.6983 924.634 97.3776C923.763 98.057 922.673 98.3967 921.366 98.3967C920.34 98.3967 919.43 98.1724 918.635 97.7237C917.841 97.2623 917.219 96.6214 916.77 95.801C916.322 94.9678 916.097 94.0001 916.097 92.8977ZM929.721 86.3028C929.247 86.3028 928.849 86.1554 928.529 85.8606C928.221 85.5529 928.068 85.1748 928.068 84.7262C928.068 84.2775 928.221 83.9058 928.529 83.611C928.849 83.3034 929.247 83.1495 929.721 83.1495C930.195 83.1495 930.586 83.3034 930.894 83.611C931.214 83.9058 931.375 84.2775 931.375 84.7262C931.375 85.1748 931.214 85.5529 930.894 85.8606C930.586 86.1554 930.195 86.3028 929.721 86.3028ZM931.048 87.5718V98.2236H928.356V87.5718H931.048ZM938.437 98.3967C937.412 98.3967 936.489 98.1724 935.668 97.7237C934.848 97.2623 934.201 96.615 933.727 95.7818C933.265 94.9486 933.034 93.9873 933.034 92.8977C933.034 91.8082 933.271 90.8468 933.746 90.0136C934.233 89.1805 934.893 88.5396 935.726 88.0909C936.559 87.6295 937.489 87.3987 938.514 87.3987C939.54 87.3987 940.469 87.6295 941.302 88.0909C942.135 88.5396 942.789 89.1805 943.263 90.0136C943.75 90.8468 943.994 91.8082 943.994 92.8977C943.994 93.9873 943.744 94.9486 943.244 95.7818C942.757 96.615 942.09 97.2623 941.244 97.7237C940.411 98.1724 939.475 98.3967 938.437 98.3967ZM938.437 96.051C938.924 96.051 939.379 95.9356 939.802 95.7049C940.238 95.4613 940.584 95.1024 940.841 94.6282C941.097 94.1539 941.225 93.5771 941.225 92.8977C941.225 91.8851 940.956 91.1096 940.418 90.5712C939.892 90.02 939.245 89.7445 938.476 89.7445C937.707 89.7445 937.059 90.02 936.534 90.5712C936.021 91.1096 935.765 91.8851 935.765 92.8977C935.765 93.9103 936.015 94.6922 936.514 95.2434C937.027 95.7818 937.668 96.051 938.437 96.051ZM956.024 87.5718V98.2236H953.313V96.8777C952.967 97.3392 952.512 97.7045 951.948 97.9737C951.397 98.23 950.794 98.3582 950.141 98.3582C949.307 98.3582 948.57 98.1852 947.93 97.8391C947.289 97.4802 946.782 96.961 946.411 96.2817C946.052 95.5895 945.872 94.7692 945.872 93.8206V87.5718H948.564V93.4361C948.564 94.2821 948.776 94.9358 949.199 95.3972C949.622 95.8459 950.198 96.0702 950.929 96.0702C951.672 96.0702 952.256 95.8459 952.679 95.3972C953.102 94.9358 953.313 94.2821 953.313 93.4361V87.5718H956.024ZM962.756 98.3967C961.885 98.3967 961.103 98.2429 960.411 97.9352C959.718 97.6148 959.167 97.1854 958.757 96.647C958.36 96.1086 958.142 95.5126 958.103 94.8589H960.814C960.866 95.2691 961.064 95.6087 961.41 95.8779C961.769 96.1471 962.211 96.2817 962.737 96.2817C963.25 96.2817 963.647 96.1791 963.929 95.9741C964.224 95.769 964.371 95.5062 964.371 95.1857C964.371 94.8397 964.192 94.5833 963.833 94.4167C963.487 94.2372 962.929 94.0449 962.16 93.8398C961.365 93.6476 960.712 93.4489 960.199 93.2438C959.699 93.0387 959.263 92.7247 958.892 92.3017C958.533 91.8787 958.353 91.3083 958.353 90.5905C958.353 90.0008 958.52 89.4625 958.853 88.9754C959.199 88.4883 959.686 88.1037 960.314 87.8217C960.955 87.5397 961.705 87.3987 962.564 87.3987C963.833 87.3987 964.846 87.7192 965.602 88.3601C966.358 88.9882 966.775 89.8406 966.852 90.9173H964.275C964.237 90.4943 964.057 90.161 963.737 89.9175C963.429 89.6611 963.013 89.533 962.487 89.533C962 89.533 961.622 89.6227 961.353 89.8021C961.096 89.9816 960.968 90.2315 960.968 90.552C960.968 90.9109 961.148 91.1865 961.506 91.3788C961.865 91.5582 962.423 91.7441 963.179 91.9364C963.948 92.1286 964.583 92.3273 965.083 92.5324C965.583 92.7375 966.012 93.0579 966.371 93.4938C966.743 93.9168 966.935 94.4807 966.948 95.1857C966.948 95.801 966.775 96.3522 966.429 96.8393C966.095 97.3264 965.608 97.7109 964.967 97.9929C964.339 98.2621 963.602 98.3967 962.756 98.3967Z" fill="#725054"/>
<path d="M802.6 113.164C802.946 112.652 803.42 112.235 804.023 111.915C804.638 111.594 805.337 111.434 806.119 111.434C807.029 111.434 807.849 111.658 808.58 112.107C809.323 112.555 809.906 113.196 810.329 114.03C810.765 114.85 810.983 115.805 810.983 116.894C810.983 117.984 810.765 118.952 810.329 119.798C809.906 120.631 809.323 121.278 808.58 121.74C807.849 122.201 807.029 122.432 806.119 122.432C805.324 122.432 804.625 122.278 804.023 121.97C803.433 121.65 802.959 121.24 802.6 120.74V122.259H799.908V108.031H802.6V113.164ZM808.234 116.894C808.234 116.254 808.099 115.702 807.83 115.241C807.573 114.767 807.227 114.408 806.791 114.164C806.368 113.921 805.907 113.799 805.407 113.799C804.92 113.799 804.459 113.927 804.023 114.183C803.6 114.427 803.254 114.786 802.984 115.26C802.728 115.734 802.6 116.292 802.6 116.933C802.6 117.574 802.728 118.131 802.984 118.606C803.254 119.08 803.6 119.445 804.023 119.702C804.459 119.945 804.92 120.067 805.407 120.067C805.907 120.067 806.368 119.939 806.791 119.682C807.227 119.426 807.573 119.061 807.83 118.586C808.099 118.112 808.234 117.548 808.234 116.894ZM822.995 111.607V122.259H820.284V120.913C819.938 121.374 819.483 121.74 818.919 122.009C818.368 122.265 817.765 122.393 817.111 122.393C816.278 122.393 815.541 122.22 814.9 121.874C814.259 121.515 813.753 120.996 813.381 120.317C813.022 119.625 812.843 118.804 812.843 117.856V111.607H815.535V117.471C815.535 118.317 815.746 118.971 816.169 119.432C816.592 119.881 817.169 120.105 817.9 120.105C818.643 120.105 819.226 119.881 819.649 119.432C820.072 118.971 820.284 118.317 820.284 117.471V111.607H822.995ZM827.016 110.338C826.542 110.338 826.144 110.191 825.824 109.896C825.516 109.588 825.362 109.21 825.362 108.761C825.362 108.313 825.516 107.941 825.824 107.646C826.144 107.339 826.542 107.185 827.016 107.185C827.49 107.185 827.881 107.339 828.189 107.646C828.509 107.941 828.669 108.313 828.669 108.761C828.669 109.21 828.509 109.588 828.189 109.896C827.881 110.191 827.49 110.338 827.016 110.338ZM828.343 111.607V122.259H825.651V111.607H828.343ZM833.694 108.031V122.259H831.002V108.031H833.694ZM835.661 116.894C835.661 115.818 835.873 114.863 836.296 114.03C836.731 113.196 837.321 112.555 838.065 112.107C838.808 111.658 839.635 111.434 840.545 111.434C841.237 111.434 841.897 111.588 842.525 111.895C843.153 112.19 843.653 112.588 844.025 113.087V108.031H846.755V122.259H844.025V120.682C843.692 121.208 843.224 121.631 842.621 121.951C842.019 122.272 841.32 122.432 840.526 122.432C839.628 122.432 838.808 122.201 838.065 121.74C837.321 121.278 836.731 120.631 836.296 119.798C835.873 118.952 835.661 117.984 835.661 116.894ZM844.044 116.933C844.044 116.279 843.916 115.722 843.66 115.26C843.403 114.786 843.057 114.427 842.621 114.183C842.186 113.927 841.718 113.799 841.218 113.799C840.718 113.799 840.256 113.921 839.833 114.164C839.41 114.408 839.064 114.767 838.795 115.241C838.539 115.702 838.411 116.254 838.411 116.894C838.411 117.535 838.539 118.099 838.795 118.586C839.064 119.061 839.41 119.426 839.833 119.682C840.269 119.939 840.731 120.067 841.218 120.067C841.718 120.067 842.186 119.945 842.621 119.702C843.057 119.445 843.403 119.086 843.66 118.625C843.916 118.151 844.044 117.587 844.044 116.933ZM850.749 110.338C850.275 110.338 849.878 110.191 849.557 109.896C849.25 109.588 849.096 109.21 849.096 108.761C849.096 108.313 849.25 107.941 849.557 107.646C849.878 107.339 850.275 107.185 850.749 107.185C851.224 107.185 851.615 107.339 851.922 107.646C852.243 107.941 852.403 108.313 852.403 108.761C852.403 109.21 852.243 109.588 851.922 109.896C851.615 110.191 851.224 110.338 850.749 110.338ZM852.076 111.607V122.259H849.384V111.607H852.076ZM860.638 111.453C861.907 111.453 862.933 111.857 863.715 112.664C864.497 113.459 864.888 114.574 864.888 116.01V122.259H862.196V116.375C862.196 115.529 861.984 114.882 861.561 114.433C861.138 113.972 860.561 113.741 859.831 113.741C859.087 113.741 858.498 113.972 858.062 114.433C857.639 114.882 857.427 115.529 857.427 116.375V122.259H854.736V111.607H857.427V112.934C857.786 112.472 858.241 112.113 858.792 111.857C859.356 111.588 859.972 111.453 860.638 111.453ZM871.62 111.434C872.414 111.434 873.113 111.594 873.715 111.915C874.318 112.222 874.792 112.626 875.138 113.126V111.607H877.849V122.336C877.849 123.323 877.65 124.201 877.253 124.97C876.856 125.752 876.26 126.367 875.465 126.816C874.67 127.277 873.709 127.508 872.581 127.508C871.068 127.508 869.825 127.155 868.851 126.45C867.889 125.745 867.345 124.784 867.217 123.566H869.889C870.03 124.053 870.331 124.438 870.793 124.72C871.267 125.015 871.837 125.162 872.504 125.162C873.286 125.162 873.92 124.925 874.408 124.451C874.895 123.989 875.138 123.284 875.138 122.336V120.682C874.792 121.182 874.311 121.599 873.696 121.932C873.094 122.265 872.401 122.432 871.62 122.432C870.722 122.432 869.902 122.201 869.158 121.74C868.415 121.278 867.825 120.631 867.39 119.798C866.967 118.952 866.755 117.984 866.755 116.894C866.755 115.818 866.967 114.863 867.39 114.03C867.825 113.196 868.409 112.555 869.139 112.107C869.883 111.658 870.709 111.434 871.62 111.434ZM875.138 116.933C875.138 116.279 875.01 115.722 874.754 115.26C874.497 114.786 874.151 114.427 873.715 114.183C873.28 113.927 872.812 113.799 872.312 113.799C871.812 113.799 871.35 113.921 870.927 114.164C870.504 114.408 870.158 114.767 869.889 115.241C869.633 115.702 869.505 116.254 869.505 116.894C869.505 117.535 869.633 118.099 869.889 118.586C870.158 119.061 870.504 119.426 870.927 119.682C871.363 119.939 871.825 120.067 872.312 120.067C872.812 120.067 873.28 119.945 873.715 119.702C874.151 119.445 874.497 119.086 874.754 118.625C875.01 118.151 875.138 117.587 875.138 116.933ZM884.367 116.933C884.367 115.831 884.592 114.869 885.04 114.049C885.489 113.216 886.111 112.575 886.905 112.126C887.7 111.665 888.61 111.434 889.636 111.434C890.956 111.434 892.046 111.767 892.904 112.434C893.776 113.087 894.359 114.01 894.654 115.202H891.751C891.597 114.741 891.334 114.382 890.962 114.126C890.603 113.857 890.155 113.722 889.616 113.722C888.847 113.722 888.239 114.004 887.79 114.568C887.341 115.119 887.117 115.907 887.117 116.933C887.117 117.945 887.341 118.734 887.79 119.298C888.239 119.849 888.847 120.125 889.616 120.125C890.706 120.125 891.417 119.637 891.751 118.663H894.654C894.359 119.817 893.776 120.733 892.904 121.413C892.033 122.092 890.943 122.432 889.636 122.432C888.61 122.432 887.7 122.208 886.905 121.759C886.111 121.297 885.489 120.657 885.04 119.836C884.592 119.003 884.367 118.035 884.367 116.933ZM901.356 122.432C900.33 122.432 899.408 122.208 898.587 121.759C897.767 121.297 897.119 120.65 896.645 119.817C896.184 118.984 895.953 118.022 895.953 116.933C895.953 115.843 896.19 114.882 896.664 114.049C897.152 113.216 897.812 112.575 898.645 112.126C899.478 111.665 900.407 111.434 901.433 111.434C902.458 111.434 903.388 111.665 904.221 112.126C905.054 112.575 905.708 113.216 906.182 114.049C906.669 114.882 906.913 115.843 906.913 116.933C906.913 118.022 906.663 118.984 906.163 119.817C905.676 120.65 905.009 121.297 904.163 121.759C903.33 122.208 902.394 122.432 901.356 122.432ZM901.356 120.086C901.843 120.086 902.298 119.971 902.721 119.74C903.157 119.496 903.503 119.138 903.759 118.663C904.016 118.189 904.144 117.612 904.144 116.933C904.144 115.92 903.875 115.145 903.336 114.606C902.811 114.055 902.163 113.78 901.394 113.78C900.625 113.78 899.978 114.055 899.452 114.606C898.94 115.145 898.683 115.92 898.683 116.933C898.683 117.945 898.933 118.727 899.433 119.279C899.946 119.817 900.587 120.086 901.356 120.086ZM911.579 113.26C911.925 112.696 912.374 112.254 912.925 111.934C913.489 111.613 914.13 111.453 914.847 111.453V114.28H914.136C913.29 114.28 912.649 114.478 912.213 114.876C911.79 115.273 911.579 115.965 911.579 116.952V122.259H908.887V111.607H911.579V113.26ZM919.352 113.26C919.698 112.696 920.147 112.254 920.698 111.934C921.262 111.613 921.903 111.453 922.621 111.453V114.28H921.91C921.064 114.28 920.423 114.478 919.987 114.876C919.564 115.273 919.352 115.965 919.352 116.952V122.259H916.661V111.607H919.352V113.26ZM925.799 110.338C925.325 110.338 924.928 110.191 924.607 109.896C924.299 109.588 924.146 109.21 924.146 108.761C924.146 108.313 924.299 107.941 924.607 107.646C924.928 107.339 925.325 107.185 925.799 107.185C926.273 107.185 926.664 107.339 926.972 107.646C927.292 107.941 927.453 108.313 927.453 108.761C927.453 109.21 927.292 109.588 926.972 109.896C926.664 110.191 926.273 110.338 925.799 110.338ZM927.126 111.607V122.259H924.434V111.607H927.126ZM929.093 116.894C929.093 115.818 929.305 114.863 929.728 114.03C930.163 113.196 930.753 112.555 931.497 112.107C932.24 111.658 933.067 111.434 933.977 111.434C934.669 111.434 935.329 111.588 935.957 111.895C936.585 112.19 937.085 112.588 937.457 113.087V108.031H940.187V122.259H937.457V120.682C937.124 121.208 936.656 121.631 936.053 121.951C935.451 122.272 934.752 122.432 933.958 122.432C933.06 122.432 932.24 122.201 931.497 121.74C930.753 121.278 930.163 120.631 929.728 119.798C929.305 118.952 929.093 117.984 929.093 116.894ZM937.476 116.933C937.476 116.279 937.348 115.722 937.092 115.26C936.835 114.786 936.489 114.427 936.053 114.183C935.618 113.927 935.15 113.799 934.65 113.799C934.15 113.799 933.688 113.921 933.265 114.164C932.842 114.408 932.496 114.767 932.227 115.241C931.971 115.702 931.843 116.254 931.843 116.894C931.843 117.535 931.971 118.099 932.227 118.586C932.496 119.061 932.842 119.426 933.265 119.682C933.701 119.939 934.163 120.067 934.65 120.067C935.15 120.067 935.618 119.945 936.053 119.702C936.489 119.445 936.835 119.086 937.092 118.625C937.348 118.151 937.476 117.587 937.476 116.933ZM947.546 122.432C946.521 122.432 945.598 122.208 944.777 121.759C943.957 121.297 943.31 120.65 942.835 119.817C942.374 118.984 942.143 118.022 942.143 116.933C942.143 115.843 942.38 114.882 942.855 114.049C943.342 113.216 944.002 112.575 944.835 112.126C945.668 111.665 946.598 111.434 947.623 111.434C948.648 111.434 949.578 111.665 950.411 112.126C951.244 112.575 951.898 113.216 952.372 114.049C952.859 114.882 953.103 115.843 953.103 116.933C953.103 118.022 952.853 118.984 952.353 119.817C951.866 120.65 951.199 121.297 950.353 121.759C949.52 122.208 948.584 122.432 947.546 122.432ZM947.546 120.086C948.033 120.086 948.488 119.971 948.911 119.74C949.347 119.496 949.693 119.138 949.949 118.663C950.206 118.189 950.334 117.612 950.334 116.933C950.334 115.92 950.065 115.145 949.526 114.606C949.001 114.055 948.354 113.78 947.585 113.78C946.815 113.78 946.168 114.055 945.643 114.606C945.13 115.145 944.874 115.92 944.874 116.933C944.874 117.945 945.123 118.727 945.623 119.279C946.136 119.817 946.777 120.086 947.546 120.086ZM957.769 113.26C958.115 112.696 958.564 112.254 959.115 111.934C959.679 111.613 960.32 111.453 961.038 111.453V114.28H960.326C959.48 114.28 958.839 114.478 958.404 114.876C957.981 115.273 957.769 115.965 957.769 116.952V122.259H955.077V111.607H957.769V113.26ZM966.927 122.432C966.055 122.432 965.273 122.278 964.581 121.97C963.889 121.65 963.338 121.221 962.928 120.682C962.53 120.144 962.312 119.548 962.274 118.894H964.985C965.036 119.304 965.235 119.644 965.581 119.913C965.94 120.182 966.382 120.317 966.908 120.317C967.42 120.317 967.818 120.214 968.1 120.009C968.395 119.804 968.542 119.541 968.542 119.221C968.542 118.875 968.363 118.618 968.004 118.452C967.658 118.272 967.1 118.08 966.331 117.875C965.536 117.683 964.882 117.484 964.37 117.279C963.87 117.074 963.434 116.76 963.062 116.337C962.703 115.914 962.524 115.343 962.524 114.626C962.524 114.036 962.691 113.498 963.024 113.011C963.37 112.523 963.857 112.139 964.485 111.857C965.126 111.575 965.876 111.434 966.735 111.434C968.004 111.434 969.016 111.754 969.773 112.395C970.529 113.023 970.945 113.876 971.022 114.952H968.446C968.407 114.529 968.228 114.196 967.907 113.953C967.6 113.696 967.183 113.568 966.658 113.568C966.171 113.568 965.793 113.658 965.523 113.837C965.267 114.017 965.139 114.267 965.139 114.587C965.139 114.946 965.318 115.222 965.677 115.414C966.036 115.593 966.594 115.779 967.35 115.972C968.119 116.164 968.753 116.362 969.253 116.568C969.753 116.773 970.183 117.093 970.542 117.529C970.913 117.952 971.106 118.516 971.118 119.221C971.118 119.836 970.945 120.387 970.599 120.874C970.266 121.362 969.779 121.746 969.138 122.028C968.51 122.297 967.773 122.432 966.927 122.432Z" fill="#725054"/>
</svg>
