<svg width="118" height="388" viewBox="0 0 118 388" fill="none" xmlns="http://www.w3.org/2000/svg">
<path d="M5.70532 52.4405C5.54085 52.1389 5.31469 51.9093 5.02685 51.7517C4.73902 51.5941 4.40321 51.5153 4.01943 51.5153C3.59453 51.5153 3.2176 51.6112 2.88864 51.8031C2.55969 51.995 2.30269 52.2691 2.11765 52.6255C1.93261 52.9819 1.8401 53.3931 1.8401 53.8591C1.8401 54.3388 1.93261 54.7569 2.11765 55.1132C2.30954 55.4696 2.57339 55.7437 2.9092 55.9356C3.24501 56.1275 3.63565 56.2234 4.08111 56.2234C4.62937 56.2234 5.07825 56.0795 5.42777 55.7917C5.77728 55.497 6.00687 55.0892 6.11652 54.5684H3.64935V53.4684H7.53514V54.7226C7.43919 55.2229 7.2336 55.6855 6.91835 56.1104C6.6031 56.5353 6.19533 56.8779 5.69504 57.1384C5.20161 57.3919 4.6465 57.5187 4.02971 57.5187C3.33753 57.5187 2.71046 57.3645 2.14849 57.0561C1.59338 56.7409 1.15477 56.3057 0.832669 55.7506C0.51742 55.1955 0.359795 54.565 0.359795 53.8591C0.359795 53.1532 0.51742 52.5227 0.832669 51.9676C1.15477 51.4056 1.59338 50.9704 2.14849 50.662C2.71046 50.3468 3.3341 50.1892 4.01943 50.1892C4.82811 50.1892 5.53057 50.3879 6.1268 50.7854C6.72303 51.176 7.13423 51.7277 7.36038 52.4405H5.70532ZM10.0391 52.6461C10.2241 52.3445 10.464 52.1081 10.7587 51.9367C11.0602 51.7654 11.4029 51.6797 11.7867 51.6797V53.1909H11.4063C10.954 53.1909 10.6113 53.2971 10.3783 53.5096C10.1522 53.722 10.0391 54.0921 10.0391 54.6198V57.457H8.59991V51.762H10.0391V52.6461ZM12.386 54.5889C12.386 54.0133 12.499 53.5027 12.7252 53.0572C12.9582 52.6118 13.27 52.2691 13.6607 52.0293C14.0581 51.7894 14.5002 51.6695 14.9868 51.6695C15.4117 51.6695 15.7817 51.7551 16.097 51.9265C16.4191 52.0978 16.6761 52.3137 16.868 52.5741V51.762H18.3174V57.457H16.868V56.6244C16.6829 56.8916 16.4259 57.1144 16.097 57.2926C15.7749 57.4639 15.4014 57.5496 14.9765 57.5496C14.4967 57.5496 14.0581 57.4262 13.6607 57.1795C13.27 56.9328 12.9582 56.5867 12.7252 56.1412C12.499 55.6889 12.386 55.1715 12.386 54.5889ZM16.868 54.6095C16.868 54.26 16.7994 53.9619 16.6624 53.7152C16.5253 53.4616 16.3403 53.2697 16.1073 53.1395C15.8743 53.0024 15.6241 52.9339 15.3568 52.9339C15.0896 52.9339 14.8428 52.999 14.6167 53.1292C14.3905 53.2594 14.2055 53.4513 14.0616 53.7049C13.9245 53.9516 13.856 54.2463 13.856 54.5889C13.856 54.9316 13.9245 55.2332 14.0616 55.4936C14.2055 55.7471 14.3905 55.9425 14.6167 56.0795C14.8497 56.2166 15.0964 56.2851 15.3568 56.2851C15.6241 56.2851 15.8743 56.22 16.1073 56.0898C16.3403 55.9527 16.5253 55.7609 16.6624 55.5141C16.7994 55.2606 16.868 54.959 16.868 54.6095ZM22.879 51.6797C23.5574 51.6797 24.1057 51.8956 24.5237 52.3274C24.9418 52.7523 25.1508 53.3485 25.1508 54.1161V57.457H23.7116V54.3114C23.7116 53.8591 23.5986 53.513 23.3724 53.2731C23.1462 53.0264 22.8378 52.9031 22.4472 52.9031C22.0497 52.9031 21.7345 53.0264 21.5015 53.2731C21.2753 53.513 21.1622 53.8591 21.1622 54.3114V57.457H19.723V51.762H21.1622V52.4713C21.3541 52.2246 21.5974 52.0327 21.8921 51.8956C22.1936 51.7517 22.5226 51.6797 22.879 51.6797ZM26.1493 54.5889C26.1493 54.0133 26.2624 53.5027 26.4886 53.0572C26.7216 52.6118 27.0368 52.2691 27.4343 52.0293C27.8318 51.7894 28.2738 51.6695 28.7604 51.6695C29.1305 51.6695 29.4834 51.7517 29.8192 51.9162C30.155 52.0738 30.4223 52.2863 30.6211 52.5535V49.8499H32.0808V57.457H30.6211V56.6141C30.4429 56.8951 30.1927 57.1212 29.8706 57.2926C29.5485 57.4639 29.175 57.5496 28.7501 57.5496C28.2704 57.5496 27.8318 57.4262 27.4343 57.1795C27.0368 56.9328 26.7216 56.5867 26.4886 56.1412C26.2624 55.6889 26.1493 55.1715 26.1493 54.5889ZM30.6313 54.6095C30.6313 54.26 30.5628 53.9619 30.4257 53.7152C30.2887 53.4616 30.1036 53.2697 29.8706 53.1395C29.6376 53.0024 29.3875 52.9339 29.1202 52.9339C28.8529 52.9339 28.6062 52.999 28.3801 53.1292C28.1539 53.2594 27.9689 53.4513 27.8249 53.7049C27.6879 53.9516 27.6193 54.2463 27.6193 54.5889C27.6193 54.9316 27.6879 55.2332 27.8249 55.4936C27.9689 55.7471 28.1539 55.9425 28.3801 56.0795C28.6131 56.2166 28.8598 56.2851 29.1202 56.2851C29.3875 56.2851 29.6376 56.22 29.8706 56.0898C30.1036 55.9527 30.2887 55.7609 30.4257 55.5141C30.5628 55.2606 30.6313 54.959 30.6313 54.6095ZM37.3751 52.6461C37.5601 52.3445 37.8 52.1081 38.0947 51.9367C38.3962 51.7654 38.7389 51.6797 39.1227 51.6797V53.1909H38.7423C38.29 53.1909 37.9473 53.2971 37.7143 53.5096C37.4882 53.722 37.3751 54.0921 37.3751 54.6198V57.457H35.9359V51.762H37.3751V52.6461ZM45.3862 54.4862C45.3862 54.6917 45.3725 54.8768 45.345 55.0413H41.1817C41.216 55.4525 41.3599 55.7746 41.6134 56.0076C41.867 56.2406 42.1788 56.3571 42.5489 56.3571C43.0835 56.3571 43.4638 56.1275 43.69 55.6683H45.2422C45.0778 56.2166 44.7625 56.6689 44.2965 57.0253C43.8305 57.3748 43.2582 57.5496 42.5798 57.5496C42.0315 57.5496 41.5381 57.4296 41.0995 57.1898C40.6677 56.943 40.3285 56.5969 40.0817 56.1515C39.8419 55.706 39.722 55.192 39.722 54.6095C39.722 54.0201 39.8419 53.5027 40.0817 53.0572C40.3216 52.6118 40.6574 52.2691 41.0892 52.0293C41.5209 51.7894 42.0178 51.6695 42.5798 51.6695C43.1212 51.6695 43.6043 51.786 44.0292 52.019C44.461 52.252 44.7934 52.5844 45.0264 53.0161C45.2662 53.441 45.3862 53.931 45.3862 54.4862ZM43.8956 54.075C43.8887 53.7049 43.7551 53.4102 43.4947 53.1909C43.2342 52.9647 42.9156 52.8517 42.5386 52.8517C42.1823 52.8517 41.8807 52.9613 41.634 53.1806C41.3941 53.3931 41.2468 53.6912 41.192 54.075H43.8956ZM46.0666 54.6095C46.0666 54.0201 46.1865 53.5061 46.4264 53.0675C46.6662 52.6221 46.9986 52.2794 47.4235 52.0395C47.8484 51.7928 48.335 51.6695 48.8832 51.6695C49.5891 51.6695 50.1716 51.8477 50.6308 52.204C51.0968 52.5535 51.4087 53.047 51.5663 53.6843H50.014C49.9318 53.4376 49.7913 53.2457 49.5926 53.1086C49.4007 52.9647 49.1608 52.8928 48.873 52.8928C48.4618 52.8928 48.1362 53.0435 47.8964 53.3451C47.6565 53.6398 47.5366 54.0612 47.5366 54.6095C47.5366 55.1509 47.6565 55.5724 47.8964 55.8739C48.1362 56.1686 48.4618 56.316 48.873 56.316C49.4555 56.316 49.8358 56.0555 50.014 55.5347H51.5663C51.4087 56.1515 51.0968 56.6415 50.6308 57.0047C50.1648 57.3679 49.5823 57.5496 48.8832 57.5496C48.335 57.5496 47.8484 57.4296 47.4235 57.1898C46.9986 56.943 46.6662 56.6004 46.4264 56.1618C46.1865 55.7163 46.0666 55.1989 46.0666 54.6095ZM57.9147 54.4862C57.9147 54.6917 57.901 54.8768 57.8736 55.0413H53.7103C53.7445 55.4525 53.8885 55.7746 54.142 56.0076C54.3956 56.2406 54.7074 56.3571 55.0775 56.3571C55.6121 56.3571 55.9924 56.1275 56.2186 55.6683H57.7708C57.6063 56.2166 57.2911 56.6689 56.8251 57.0253C56.3591 57.3748 55.7868 57.5496 55.1083 57.5496C54.5601 57.5496 54.0666 57.4296 53.628 57.1898C53.1963 56.943 52.857 56.5969 52.6103 56.1515C52.3705 55.706 52.2505 55.192 52.2505 54.6095C52.2505 54.0201 52.3705 53.5027 52.6103 53.0572C52.8502 52.6118 53.186 52.2691 53.6178 52.0293C54.0495 51.7894 54.5464 51.6695 55.1083 51.6695C55.6497 51.6695 56.1329 51.786 56.5578 52.019C56.9896 52.252 57.3219 52.5844 57.5549 53.0161C57.7948 53.441 57.9147 53.931 57.9147 54.4862ZM56.4242 54.075C56.4173 53.7049 56.2837 53.4102 56.0232 53.1909C55.7628 52.9647 55.4441 52.8517 55.0672 52.8517C54.7109 52.8517 54.4093 52.9613 54.1626 53.1806C53.9227 53.3931 53.7754 53.6912 53.7206 54.075H56.4242ZM60.4044 52.5844C60.5894 52.324 60.843 52.1081 61.1651 51.9367C61.4941 51.7586 61.8676 51.6695 62.2856 51.6695C62.7722 51.6695 63.2108 51.7894 63.6014 52.0293C63.9989 52.2691 64.3107 52.6118 64.5369 53.0572C64.7699 53.4959 64.8864 54.0064 64.8864 54.5889C64.8864 55.1715 64.7699 55.6889 64.5369 56.1412C64.3107 56.5867 63.9989 56.9328 63.6014 57.1795C63.2108 57.4262 62.7722 57.5496 62.2856 57.5496C61.8676 57.5496 61.4975 57.4639 61.1754 57.2926C60.8601 57.1212 60.6031 56.9053 60.4044 56.6449V60.1709H58.9652V51.762H60.4044V52.5844ZM63.4164 54.5889C63.4164 54.2463 63.3444 53.9516 63.2005 53.7049C63.0635 53.4513 62.8784 53.2594 62.6454 53.1292C62.4193 52.999 62.1725 52.9339 61.9053 52.9339C61.6448 52.9339 61.3981 53.0024 61.1651 53.1395C60.9389 53.2697 60.7539 53.4616 60.61 53.7152C60.4729 53.9687 60.4044 54.2668 60.4044 54.6095C60.4044 54.9522 60.4729 55.2503 60.61 55.5039C60.7539 55.7574 60.9389 55.9527 61.1651 56.0898C61.3981 56.22 61.6448 56.2851 61.9053 56.2851C62.1725 56.2851 62.4193 56.2166 62.6454 56.0795C62.8784 55.9425 63.0635 55.7471 63.2005 55.4936C63.3444 55.24 63.4164 54.9385 63.4164 54.5889ZM67.6079 52.9442V55.6992C67.6079 55.8911 67.6524 56.0316 67.7415 56.1206C67.8374 56.2029 67.9951 56.244 68.2144 56.244H68.8826V57.457H67.9779C66.7649 57.457 66.1584 56.8677 66.1584 55.6889V52.9442H65.4799V51.762H66.1584V50.3536H67.6079V51.762H68.8826V52.9442H67.6079ZM70.6476 51.0835C70.394 51.0835 70.1815 51.0047 70.0102 50.8471C69.8457 50.6826 69.7635 50.4804 69.7635 50.2406C69.7635 50.0007 69.8457 49.802 70.0102 49.6443C70.1815 49.4799 70.394 49.3976 70.6476 49.3976C70.9011 49.3976 71.1101 49.4799 71.2746 49.6443C71.446 49.802 71.5316 50.0007 71.5316 50.2406C71.5316 50.4804 71.446 50.6826 71.2746 50.8471C71.1101 51.0047 70.9011 51.0835 70.6476 51.0835ZM71.3569 51.762V57.457H69.9177V51.762H71.3569ZM75.3076 57.5496C74.7594 57.5496 74.2659 57.4296 73.8273 57.1898C73.3887 56.943 73.0426 56.5969 72.7891 56.1515C72.5423 55.706 72.419 55.192 72.419 54.6095C72.419 54.027 72.5458 53.513 72.7993 53.0675C73.0598 52.6221 73.4127 52.2794 73.8582 52.0395C74.3036 51.7928 74.8005 51.6695 75.3487 51.6695C75.897 51.6695 76.3939 51.7928 76.8393 52.0395C77.2848 52.2794 77.6343 52.6221 77.8879 53.0675C78.1483 53.513 78.2785 54.027 78.2785 54.6095C78.2785 55.192 78.1449 55.706 77.8776 56.1515C77.6172 56.5969 77.2608 56.943 76.8085 57.1898C76.363 57.4296 75.8627 57.5496 75.3076 57.5496ZM75.3076 56.2954C75.5681 56.2954 75.8113 56.2337 76.0375 56.1104C76.2705 55.9802 76.4555 55.7883 76.5926 55.5347C76.7297 55.2811 76.7982 54.9727 76.7982 54.6095C76.7982 54.0681 76.6543 53.6535 76.3665 53.3656C76.0855 53.071 75.7394 52.9236 75.3282 52.9236C74.917 52.9236 74.5709 53.071 74.2899 53.3656C74.0158 53.6535 73.8787 54.0681 73.8787 54.6095C73.8787 55.1509 74.0124 55.569 74.2796 55.8637C74.5538 56.1515 74.8964 56.2954 75.3076 56.2954ZM82.4901 51.6797C83.1686 51.6797 83.7169 51.8956 84.1349 52.3274C84.5529 52.7523 84.762 53.3485 84.762 54.1161V57.457H83.3228V54.3114C83.3228 53.8591 83.2097 53.513 82.9836 53.2731C82.7574 53.0264 82.449 52.9031 82.0584 52.9031C81.6609 52.9031 81.3456 53.0264 81.1126 53.2731C80.8865 53.513 80.7734 53.8591 80.7734 54.3114V57.457H79.3342V51.762H80.7734V52.4713C80.9653 52.2246 81.2086 52.0327 81.5033 51.8956C81.8048 51.7517 82.1338 51.6797 82.4901 51.6797ZM90.0192 49.8499V57.457H88.5801V49.8499H90.0192ZM93.97 57.5496C93.4217 57.5496 92.9283 57.4296 92.4897 57.1898C92.0511 56.943 91.705 56.5969 91.4514 56.1515C91.2047 55.706 91.0814 55.192 91.0814 54.6095C91.0814 54.027 91.2081 53.513 91.4617 53.0675C91.7221 52.6221 92.0751 52.2794 92.5205 52.0395C92.966 51.7928 93.4629 51.6695 94.0111 51.6695C94.5594 51.6695 95.0562 51.7928 95.5017 52.0395C95.9472 52.2794 96.2967 52.6221 96.5502 53.0675C96.8107 53.513 96.9409 54.027 96.9409 54.6095C96.9409 55.192 96.8072 55.706 96.54 56.1515C96.2795 56.5969 95.9232 56.943 95.4709 57.1898C95.0254 57.4296 94.5251 57.5496 93.97 57.5496ZM93.97 56.2954C94.2304 56.2954 94.4737 56.2337 94.6999 56.1104C94.9329 55.9802 95.1179 55.7883 95.255 55.5347C95.392 55.2811 95.4606 54.9727 95.4606 54.6095C95.4606 54.0681 95.3167 53.6535 95.0288 53.3656C94.7478 53.071 94.4018 52.9236 93.9906 52.9236C93.5794 52.9236 93.2333 53.071 92.9523 53.3656C92.6782 53.6535 92.5411 54.0681 92.5411 54.6095C92.5411 55.1509 92.6747 55.569 92.942 55.8637C93.2161 56.1515 93.5588 56.2954 93.97 56.2954ZM99.4358 52.5947C99.6208 52.3205 99.8744 52.0978 100.196 51.9265C100.525 51.7551 100.899 51.6695 101.317 51.6695C101.804 51.6695 102.242 51.7894 102.633 52.0293C103.03 52.2691 103.342 52.6118 103.568 53.0572C103.801 53.4959 103.918 54.0064 103.918 54.5889C103.918 55.1715 103.801 55.6889 103.568 56.1412C103.342 56.5867 103.03 56.9328 102.633 57.1795C102.242 57.4262 101.804 57.5496 101.317 57.5496C100.892 57.5496 100.519 57.4673 100.196 57.3028C99.8812 57.1315 99.6276 56.9122 99.4358 56.6449V57.457H97.9966V49.8499H99.4358V52.5947ZM102.448 54.5889C102.448 54.2463 102.376 53.9516 102.232 53.7049C102.095 53.4513 101.91 53.2594 101.677 53.1292C101.451 52.999 101.204 52.9339 100.937 52.9339C100.676 52.9339 100.429 53.0024 100.196 53.1395C99.9703 53.2697 99.7853 53.4616 99.6414 53.7152C99.5043 53.9687 99.4358 54.2668 99.4358 54.6095C99.4358 54.9522 99.5043 55.2503 99.6414 55.5039C99.7853 55.7574 99.9703 55.9527 100.196 56.0898C100.429 56.22 100.676 56.2851 100.937 56.2851C101.204 56.2851 101.451 56.2166 101.677 56.0795C101.91 55.9425 102.095 55.7471 102.232 55.4936C102.376 55.24 102.448 54.9385 102.448 54.5889ZM106.403 52.5947C106.588 52.3205 106.841 52.0978 107.163 51.9265C107.492 51.7551 107.866 51.6695 108.284 51.6695C108.771 51.6695 109.209 51.7894 109.6 52.0293C109.997 52.2691 110.309 52.6118 110.535 53.0572C110.768 53.4959 110.885 54.0064 110.885 54.5889C110.885 55.1715 110.768 55.6889 110.535 56.1412C110.309 56.5867 109.997 56.9328 109.6 57.1795C109.209 57.4262 108.771 57.5496 108.284 57.5496C107.859 57.5496 107.486 57.4673 107.163 57.3028C106.848 57.1315 106.595 56.9122 106.403 56.6449V57.457H104.964V49.8499H106.403V52.5947ZM109.415 54.5889C109.415 54.2463 109.343 53.9516 109.199 53.7049C109.062 53.4513 108.877 53.2594 108.644 53.1292C108.418 52.999 108.171 52.9339 107.904 52.9339C107.643 52.9339 107.396 53.0024 107.163 53.1395C106.937 53.2697 106.752 53.4616 106.608 53.7152C106.471 53.9687 106.403 54.2668 106.403 54.6095C106.403 54.9522 106.471 55.2503 106.608 55.5039C106.752 55.7574 106.937 55.9527 107.163 56.0898C107.396 56.22 107.643 56.2851 107.904 56.2851C108.171 56.2851 108.418 56.2166 108.644 56.0795C108.877 55.9425 109.062 55.7471 109.199 55.4936C109.343 55.24 109.415 54.9385 109.415 54.5889ZM117.379 51.762L113.853 60.1504H112.321L113.555 57.3131L111.273 51.762H112.887L114.357 55.7403L115.847 51.762H117.379Z" fill="#725054"/>
<path d="M18.3598 151.023C18.3598 150.317 18.5174 149.687 18.8327 149.132C19.1548 148.57 19.59 148.134 20.1382 147.826C20.6933 147.511 21.3135 147.353 21.9989 147.353C22.8007 147.353 23.5032 147.559 24.1062 147.97C24.7093 148.381 25.1308 148.95 25.3707 149.676H23.7156C23.5511 149.334 23.3181 149.077 23.0166 148.905C22.7219 148.734 22.3792 148.648 21.9886 148.648C21.5705 148.648 21.197 148.748 20.8681 148.947C20.546 149.138 20.2924 149.413 20.1074 149.769C19.9292 150.125 19.8401 150.543 19.8401 151.023C19.8401 151.496 19.9292 151.914 20.1074 152.277C20.2924 152.634 20.546 152.911 20.8681 153.11C21.197 153.302 21.5705 153.398 21.9886 153.398C22.3792 153.398 22.7219 153.312 23.0166 153.141C23.3181 152.963 23.5511 152.702 23.7156 152.36H25.3707C25.1308 153.093 24.7093 153.665 24.1062 154.076C23.51 154.481 22.8075 154.683 21.9989 154.683C21.3135 154.683 20.6933 154.529 20.1382 154.22C19.59 153.905 19.1548 153.47 18.8327 152.915C18.5174 152.36 18.3598 151.729 18.3598 151.023ZM28.0391 147.014V154.621H26.5999V147.014H28.0391ZM34.8374 148.926V154.621H33.3879V153.902C33.2029 154.148 32.9596 154.344 32.658 154.487C32.3634 154.625 32.0412 154.693 31.6917 154.693C31.2463 154.693 30.8522 154.601 30.5095 154.415C30.1669 154.224 29.8962 153.946 29.6974 153.583C29.5055 153.213 29.4096 152.774 29.4096 152.267V148.926H30.8488V152.061C30.8488 152.514 30.9619 152.863 31.188 153.11C31.4142 153.35 31.7226 153.47 32.1132 153.47C32.5107 153.47 32.8225 153.35 33.0487 153.11C33.2748 152.863 33.3879 152.514 33.3879 152.061V148.926H34.8374ZM37.6965 149.759C37.8816 149.485 38.1351 149.262 38.4572 149.091C38.7862 148.919 39.1597 148.834 39.5778 148.834C40.0643 148.834 40.5029 148.953 40.8936 149.193C41.2911 149.433 41.6029 149.776 41.829 150.221C42.0621 150.66 42.1786 151.17 42.1786 151.753C42.1786 152.336 42.0621 152.853 41.829 153.305C41.6029 153.751 41.2911 154.097 40.8936 154.344C40.5029 154.59 40.0643 154.714 39.5778 154.714C39.1529 154.714 38.7794 154.631 38.4572 154.467C38.142 154.296 37.8884 154.076 37.6965 153.809V154.621H36.2574V147.014H37.6965V149.759ZM40.7085 151.753C40.7085 151.41 40.6366 151.116 40.4927 150.869C40.3556 150.615 40.1706 150.423 39.9375 150.293C39.7114 150.163 39.4647 150.098 39.1974 150.098C38.937 150.098 38.6903 150.166 38.4572 150.304C38.2311 150.434 38.0461 150.626 37.9021 150.879C37.7651 151.133 37.6965 151.431 37.6965 151.774C37.6965 152.116 37.7651 152.414 37.9021 152.668C38.0461 152.921 38.2311 153.117 38.4572 153.254C38.6903 153.384 38.937 153.449 39.1974 153.449C39.4647 153.449 39.7114 153.381 39.9375 153.244C40.1706 153.107 40.3556 152.911 40.4927 152.658C40.6366 152.404 40.7085 152.103 40.7085 151.753ZM46.4317 148.844C46.8634 148.844 47.2472 148.94 47.583 149.132C47.9188 149.317 48.1793 149.594 48.3643 149.964C48.5562 150.328 48.6521 150.766 48.6521 151.28V154.621H47.213V151.475C47.213 151.023 47.0999 150.677 46.8737 150.437C46.6476 150.19 46.3392 150.067 45.9485 150.067C45.5511 150.067 45.2358 150.19 45.0028 150.437C44.7766 150.677 44.6636 151.023 44.6636 151.475V154.621H43.2244V147.014H44.6636V149.635C44.8486 149.389 45.0953 149.197 45.4037 149.06C45.7121 148.916 46.0548 148.844 46.4317 148.844ZM52.5496 154.714C52.0013 154.714 51.5079 154.594 51.0693 154.354C50.6307 154.107 50.2846 153.761 50.031 153.316C49.7843 152.87 49.6609 152.356 49.6609 151.774C49.6609 151.191 49.7877 150.677 50.0413 150.232C50.3017 149.786 50.6547 149.443 51.1001 149.204C51.5456 148.957 52.0424 148.834 52.5907 148.834C53.139 148.834 53.6358 148.957 54.0813 149.204C54.5267 149.443 54.8763 149.786 55.1298 150.232C55.3902 150.677 55.5205 151.191 55.5205 151.774C55.5205 152.356 55.3868 152.87 55.1195 153.316C54.8591 153.761 54.5027 154.107 54.0504 154.354C53.605 154.594 53.1047 154.714 52.5496 154.714ZM52.5496 153.459C52.81 153.459 53.0533 153.398 53.2794 153.274C53.5125 153.144 53.6975 152.952 53.8346 152.699C53.9716 152.445 54.0402 152.137 54.0402 151.774C54.0402 151.232 53.8962 150.818 53.6084 150.53C53.3274 150.235 52.9813 150.088 52.5701 150.088C52.1589 150.088 51.8129 150.235 51.5319 150.53C51.2577 150.818 51.1207 151.232 51.1207 151.774C51.1207 152.315 51.2543 152.733 51.5216 153.028C51.7957 153.316 52.1384 153.459 52.5496 153.459ZM61.9525 148.926V154.621H60.5031V153.902C60.318 154.148 60.0747 154.344 59.7732 154.487C59.4785 154.625 59.1564 154.693 58.8069 154.693C58.3614 154.693 57.9674 154.601 57.6247 154.415C57.282 154.224 57.0113 153.946 56.8126 153.583C56.6207 153.213 56.5248 152.774 56.5248 152.267V148.926H57.9639V152.061C57.9639 152.514 58.077 152.863 58.3032 153.11C58.5293 153.35 58.8377 153.47 59.2284 153.47C59.6258 153.47 59.9377 153.35 60.1638 153.11C60.39 152.863 60.5031 152.514 60.5031 152.061V148.926H61.9525ZM65.5518 154.714C65.0858 154.714 64.6678 154.631 64.2977 154.467C63.9276 154.296 63.6329 154.066 63.4136 153.778C63.2012 153.49 63.0847 153.172 63.0641 152.822H64.5136C64.541 153.041 64.6472 153.223 64.8322 153.367C65.0241 153.511 65.2606 153.583 65.5416 153.583C65.8157 153.583 66.0281 153.528 66.1789 153.418C66.3365 153.309 66.4153 153.168 66.4153 152.997C66.4153 152.812 66.3194 152.675 66.1275 152.586C65.9425 152.49 65.6444 152.387 65.2332 152.277C64.8083 152.174 64.4587 152.068 64.1846 151.959C63.9173 151.849 63.6843 151.681 63.4856 151.455C63.2937 151.229 63.1977 150.924 63.1977 150.54C63.1977 150.225 63.2868 149.937 63.465 149.676C63.6501 149.416 63.9105 149.21 64.2463 149.06C64.589 148.909 64.9899 148.834 65.449 148.834C66.1275 148.834 66.6689 149.005 67.0733 149.348C67.4776 149.683 67.7003 150.139 67.7414 150.715H66.3639C66.3434 150.489 66.2474 150.31 66.0761 150.18C65.9116 150.043 65.6889 149.975 65.4079 149.975C65.1475 149.975 64.9453 150.023 64.8014 150.119C64.6643 150.214 64.5958 150.348 64.5958 150.519C64.5958 150.711 64.6918 150.859 64.8836 150.961C65.0755 151.057 65.3737 151.157 65.778 151.26C66.1892 151.362 66.5284 151.469 66.7957 151.578C67.063 151.688 67.2926 151.859 67.4845 152.092C67.6832 152.318 67.786 152.62 67.7928 152.997C67.7928 153.326 67.7003 153.621 67.5153 153.881C67.3371 154.141 67.0767 154.347 66.734 154.498C66.3982 154.642 66.0042 154.714 65.5518 154.714ZM74.2684 151.65C74.2684 151.856 74.2546 152.041 74.2272 152.205H70.0639C70.0982 152.617 70.2421 152.939 70.4956 153.172C70.7492 153.405 71.061 153.521 71.4311 153.521C71.9657 153.521 72.346 153.292 72.5722 152.832H74.1244C73.96 153.381 73.6447 153.833 73.1787 154.189C72.7127 154.539 72.1404 154.714 71.462 154.714C70.9137 154.714 70.4203 154.594 69.9817 154.354C69.5499 154.107 69.2107 153.761 68.9639 153.316C68.7241 152.87 68.6042 152.356 68.6042 151.774C68.6042 151.184 68.7241 150.667 68.9639 150.221C69.2038 149.776 69.5396 149.433 69.9714 149.193C70.4031 148.953 70.9 148.834 71.462 148.834C72.0034 148.834 72.4865 148.95 72.9114 149.183C73.3432 149.416 73.6756 149.748 73.9086 150.18C74.1484 150.605 74.2684 151.095 74.2684 151.65ZM72.7778 151.239C72.7709 150.869 72.6373 150.574 72.3769 150.355C72.1164 150.129 71.7978 150.016 71.4208 150.016C71.0645 150.016 70.7629 150.125 70.5162 150.345C70.2763 150.557 70.129 150.855 70.0742 151.239H72.7778ZM85.6633 148.926L83.9979 154.621H82.4457L81.4074 150.643L80.3691 154.621H78.8066L77.131 148.926H78.5907L79.5981 153.264L80.6878 148.926H82.2092L83.2783 153.254L84.2858 148.926H85.6633ZM87.1718 148.248C86.9183 148.248 86.7058 148.169 86.5345 148.011C86.37 147.847 86.2878 147.644 86.2878 147.405C86.2878 147.165 86.37 146.966 86.5345 146.808C86.7058 146.644 86.9183 146.562 87.1718 146.562C87.4254 146.562 87.6344 146.644 87.7989 146.808C87.9702 146.966 88.0559 147.165 88.0559 147.405C88.0559 147.644 87.9702 147.847 87.7989 148.011C87.6344 148.169 87.4254 148.248 87.1718 148.248ZM87.8811 148.926V154.621H86.442V148.926H87.8811ZM90.9787 150.108V152.863C90.9787 153.055 91.0232 153.196 91.1123 153.285C91.2083 153.367 91.3659 153.408 91.5852 153.408H92.2534V154.621H91.3488C90.1357 154.621 89.5292 154.032 89.5292 152.853V150.108H88.8507V148.926H89.5292V147.518H90.9787V148.926H92.2534V150.108H90.9787ZM96.4958 148.844C96.9276 148.844 97.3114 148.94 97.6472 149.132C97.983 149.317 98.2434 149.594 98.4284 149.964C98.6203 150.328 98.7163 150.766 98.7163 151.28V154.621H97.2771V151.475C97.2771 151.023 97.164 150.677 96.9379 150.437C96.7117 150.19 96.4033 150.067 96.0127 150.067C95.6152 150.067 95.2999 150.19 95.0669 150.437C94.8408 150.677 94.7277 151.023 94.7277 151.475V154.621H93.2885V147.014H94.7277V149.635C94.9127 149.389 95.1594 149.197 95.4678 149.06C95.7762 148.916 96.1189 148.844 96.4958 148.844Z" fill="#725054"/>
<path d="M24.6218 161.097C24.3682 161.097 24.1558 161.018 23.9844 160.861C23.82 160.696 23.7377 160.494 23.7377 160.254C23.7377 160.014 23.82 159.816 23.9844 159.658C24.1558 159.494 24.3682 159.411 24.6218 159.411C24.8754 159.411 25.0844 159.494 25.2489 159.658C25.4202 159.816 25.5059 160.014 25.5059 160.254C25.5059 160.494 25.4202 160.696 25.2489 160.861C25.0844 161.018 24.8754 161.097 24.6218 161.097ZM25.3311 161.776V167.471H23.8919V161.776H25.3311ZM29.9089 161.693C30.5874 161.693 31.1357 161.909 31.5537 162.341C31.9718 162.766 32.1808 163.362 32.1808 164.13V167.471H30.7416V164.325C30.7416 163.873 30.6285 163.527 30.4024 163.287C30.1762 163.04 29.8678 162.917 29.4772 162.917C29.0797 162.917 28.7644 163.04 28.5314 163.287C28.3053 163.527 28.1922 163.873 28.1922 164.325V167.471H26.753V161.776H28.1922V162.485C28.3841 162.238 28.6274 162.046 28.9221 161.909C29.2236 161.765 29.5526 161.693 29.9089 161.693ZM33.1793 164.603C33.1793 164.027 33.2924 163.516 33.5185 163.071C33.7515 162.625 34.0668 162.283 34.4643 162.043C34.8618 161.803 35.3038 161.683 35.7904 161.683C36.1605 161.683 36.5134 161.765 36.8492 161.93C37.185 162.087 37.4523 162.3 37.651 162.567V159.864H39.1108V167.471H37.651V166.628C37.4729 166.909 37.2227 167.135 36.9006 167.306C36.5785 167.478 36.205 167.563 35.7801 167.563C35.3004 167.563 34.8618 167.44 34.4643 167.193C34.0668 166.946 33.7515 166.6 33.5185 166.155C33.2924 165.703 33.1793 165.185 33.1793 164.603ZM37.6613 164.623C37.6613 164.274 37.5928 163.976 37.4557 163.729C37.3187 163.475 37.1336 163.283 36.9006 163.153C36.6676 163.016 36.4175 162.948 36.1502 162.948C35.8829 162.948 35.6362 163.013 35.41 163.143C35.1839 163.273 34.9988 163.465 34.8549 163.719C34.7179 163.965 34.6493 164.26 34.6493 164.603C34.6493 164.945 34.7179 165.247 34.8549 165.507C34.9988 165.761 35.1839 165.956 35.41 166.093C35.643 166.23 35.8898 166.299 36.1502 166.299C36.4175 166.299 36.6676 166.234 36.9006 166.103C37.1336 165.966 37.3187 165.775 37.4557 165.528C37.5928 165.274 37.6613 164.973 37.6613 164.623ZM43.0452 167.563C42.497 167.563 42.0035 167.443 41.5649 167.203C41.1263 166.957 40.7802 166.611 40.5267 166.165C40.28 165.72 40.1566 165.206 40.1566 164.623C40.1566 164.041 40.2834 163.527 40.537 163.081C40.7974 162.636 41.1503 162.293 41.5958 162.053C42.0412 161.806 42.5381 161.683 43.0864 161.683C43.6346 161.683 44.1315 161.806 44.5769 162.053C45.0224 162.293 45.3719 162.636 45.6255 163.081C45.8859 163.527 46.0161 164.041 46.0161 164.623C46.0161 165.206 45.8825 165.72 45.6152 166.165C45.3548 166.611 44.9984 166.957 44.5461 167.203C44.1006 167.443 43.6004 167.563 43.0452 167.563ZM43.0452 166.309C43.3057 166.309 43.549 166.247 43.7751 166.124C44.0081 165.994 44.1932 165.802 44.3302 165.548C44.4673 165.295 44.5358 164.986 44.5358 164.623C44.5358 164.082 44.3919 163.667 44.1041 163.379C43.8231 163.085 43.477 162.937 43.0658 162.937C42.6546 162.937 42.3085 163.085 42.0275 163.379C41.7534 163.667 41.6163 164.082 41.6163 164.623C41.6163 165.165 41.75 165.583 42.0173 165.877C42.2914 166.165 42.634 166.309 43.0452 166.309ZM49.6007 167.563C49.0524 167.563 48.559 167.443 48.1204 167.203C47.6818 166.957 47.3357 166.611 47.0821 166.165C46.8354 165.72 46.712 165.206 46.712 164.623C46.712 164.041 46.8388 163.527 47.0924 163.081C47.3528 162.636 47.7057 162.293 48.1512 162.053C48.5967 161.806 49.0935 161.683 49.6418 161.683C50.19 161.683 50.6869 161.806 51.1324 162.053C51.5778 162.293 51.9273 162.636 52.1809 163.081C52.4413 163.527 52.5715 164.041 52.5715 164.623C52.5715 165.206 52.4379 165.72 52.1706 166.165C51.9102 166.611 51.5538 166.957 51.1015 167.203C50.6561 167.443 50.1558 167.563 49.6007 167.563ZM49.6007 166.309C49.8611 166.309 50.1044 166.247 50.3305 166.124C50.5635 165.994 50.7486 165.802 50.8856 165.548C51.0227 165.295 51.0912 164.986 51.0912 164.623C51.0912 164.082 50.9473 163.667 50.6595 163.379C50.3785 163.085 50.0324 162.937 49.6212 162.937C49.21 162.937 48.8639 163.085 48.583 163.379C48.3088 163.667 48.1718 164.082 48.1718 164.623C48.1718 165.165 48.3054 165.583 48.5727 165.877C48.8468 166.165 49.1895 166.309 49.6007 166.309ZM55.0664 162.66C55.2515 162.358 55.4913 162.122 55.786 161.95C56.0875 161.779 56.4302 161.693 56.814 161.693V163.205H56.4336C55.9813 163.205 55.6387 163.311 55.4057 163.523C55.1795 163.736 55.0664 164.106 55.0664 164.633V167.471H53.6272V161.776H55.0664V162.66ZM62.4636 161.683C62.8885 161.683 63.262 161.769 63.5841 161.94C63.9062 162.105 64.1598 162.32 64.3448 162.588V161.776H65.7943V167.512C65.7943 168.04 65.688 168.509 65.4756 168.92C65.2631 169.338 64.9445 169.667 64.5196 169.907C64.0947 170.154 63.5807 170.277 62.9776 170.277C62.1689 170.277 61.5041 170.089 60.9833 169.712C60.4693 169.335 60.178 168.821 60.1095 168.17H61.5384C61.6138 168.43 61.7748 168.636 62.0215 168.787C62.2751 168.944 62.5801 169.023 62.9365 169.023C63.3545 169.023 63.6937 168.896 63.9542 168.643C64.2146 168.396 64.3448 168.019 64.3448 167.512V166.628C64.1598 166.895 63.9028 167.118 63.5738 167.296C63.2517 167.474 62.8816 167.563 62.4636 167.563C61.9839 167.563 61.5452 167.44 61.1478 167.193C60.7503 166.946 60.435 166.6 60.202 166.155C59.9759 165.703 59.8628 165.185 59.8628 164.603C59.8628 164.027 59.9759 163.516 60.202 163.071C60.435 162.625 60.7468 162.283 61.1375 162.043C61.535 161.803 61.977 161.683 62.4636 161.683ZM64.3448 164.623C64.3448 164.274 64.2763 163.976 64.1392 163.729C64.0021 163.475 63.8171 163.283 63.5841 163.153C63.3511 163.016 63.1009 162.948 62.8337 162.948C62.5664 162.948 62.3197 163.013 62.0935 163.143C61.8673 163.273 61.6823 163.465 61.5384 163.719C61.4013 163.965 61.3328 164.26 61.3328 164.603C61.3328 164.945 61.4013 165.247 61.5384 165.507C61.6823 165.761 61.8673 165.956 62.0935 166.093C62.3265 166.23 62.5732 166.299 62.8337 166.299C63.1009 166.299 63.3511 166.234 63.5841 166.103C63.8171 165.966 64.0021 165.775 64.1392 165.528C64.2763 165.274 64.3448 164.973 64.3448 164.623ZM66.8298 164.603C66.8298 164.027 66.9429 163.516 67.169 163.071C67.402 162.625 67.7139 162.283 68.1045 162.043C68.502 161.803 68.944 161.683 69.4306 161.683C69.8555 161.683 70.2256 161.769 70.5408 161.94C70.8629 162.111 71.1199 162.327 71.3118 162.588V161.776H72.7613V167.471H71.3118V166.638C71.1268 166.905 70.8698 167.128 70.5408 167.306C70.2187 167.478 69.8452 167.563 69.4203 167.563C68.9406 167.563 68.502 167.44 68.1045 167.193C67.7139 166.946 67.402 166.6 67.169 166.155C66.9429 165.703 66.8298 165.185 66.8298 164.603ZM71.3118 164.623C71.3118 164.274 71.2433 163.976 71.1062 163.729C70.9692 163.475 70.7841 163.283 70.5511 163.153C70.3181 163.016 70.068 162.948 69.8007 162.948C69.5334 162.948 69.2867 163.013 69.0605 163.143C68.8344 163.273 68.6493 163.465 68.5054 163.719C68.3683 163.965 68.2998 164.26 68.2998 164.603C68.2998 164.945 68.3683 165.247 68.5054 165.507C68.6493 165.761 68.8344 165.956 69.0605 166.093C69.2935 166.23 69.5403 166.299 69.8007 166.299C70.068 166.299 70.3181 166.234 70.5511 166.103C70.7841 165.966 70.9692 165.775 71.1062 165.528C71.2433 165.274 71.3118 164.973 71.3118 164.623ZM81.2394 161.693C81.9385 161.693 82.5004 161.909 82.9253 162.341C83.3571 162.766 83.573 163.362 83.573 164.13V167.471H82.1338V164.325C82.1338 163.88 82.0207 163.54 81.7945 163.307C81.5684 163.067 81.26 162.948 80.8694 162.948C80.4787 162.948 80.1669 163.067 79.9339 163.307C79.7077 163.54 79.5947 163.88 79.5947 164.325V167.471H78.1555V164.325C78.1555 163.88 78.0424 163.54 77.8162 163.307C77.5901 163.067 77.2817 162.948 76.891 162.948C76.4936 162.948 76.1783 163.067 75.9453 163.307C75.7191 163.54 75.6061 163.88 75.6061 164.325V167.471H74.1669V161.776H75.6061V162.464C75.7911 162.225 76.0275 162.036 76.3154 161.899C76.6101 161.762 76.9322 161.693 77.2817 161.693C77.7271 161.693 78.1246 161.789 78.4741 161.981C78.8237 162.166 79.0944 162.434 79.2863 162.783C79.4713 162.454 79.7386 162.19 80.0881 161.992C80.4445 161.793 80.8282 161.693 81.2394 161.693ZM90.2328 164.5C90.2328 164.705 90.2191 164.89 90.1917 165.055H86.0283C86.0626 165.466 86.2065 165.788 86.4601 166.021C86.7136 166.254 87.0255 166.371 87.3955 166.371C87.9301 166.371 88.3104 166.141 88.5366 165.682H90.0889C89.9244 166.23 89.6091 166.683 89.1431 167.039C88.6771 167.388 88.1049 167.563 87.4264 167.563C86.8781 167.563 86.3847 167.443 85.9461 167.203C85.5143 166.957 85.1751 166.611 84.9284 166.165C84.6885 165.72 84.5686 165.206 84.5686 164.623C84.5686 164.034 84.6885 163.516 84.9284 163.071C85.1682 162.625 85.504 162.283 85.9358 162.043C86.3676 161.803 86.8644 161.683 87.4264 161.683C87.9678 161.683 88.4509 161.8 88.8758 162.033C89.3076 162.266 89.64 162.598 89.873 163.03C90.1129 163.455 90.2328 163.945 90.2328 164.5ZM88.7422 164.089C88.7354 163.719 88.6017 163.424 88.3413 163.205C88.0809 162.978 87.7622 162.865 87.3853 162.865C87.0289 162.865 86.7274 162.975 86.4806 163.194C86.2408 163.407 86.0934 163.705 86.0386 164.089H88.7422ZM93.4626 167.563C92.9966 167.563 92.5785 167.481 92.2084 167.317C91.8384 167.145 91.5437 166.916 91.3244 166.628C91.1119 166.34 90.9954 166.021 90.9749 165.672H92.4243C92.4517 165.891 92.558 166.073 92.743 166.217C92.9349 166.36 93.1713 166.432 93.4523 166.432C93.7264 166.432 93.9389 166.378 94.0897 166.268C94.2473 166.158 94.3261 166.018 94.3261 165.846C94.3261 165.661 94.2301 165.524 94.0383 165.435C93.8532 165.339 93.5551 165.237 93.1439 165.127C92.719 165.024 92.3695 164.918 92.0954 164.808C91.8281 164.699 91.5951 164.531 91.3963 164.305C91.2044 164.078 91.1085 163.773 91.1085 163.39C91.1085 163.074 91.1976 162.787 91.3758 162.526C91.5608 162.266 91.8212 162.06 92.157 161.909C92.4997 161.759 92.9006 161.683 93.3598 161.683C94.0383 161.683 94.5797 161.854 94.984 162.197C95.3883 162.533 95.6111 162.989 95.6522 163.564H94.2747C94.2541 163.338 94.1582 163.16 93.9869 163.03C93.8224 162.893 93.5997 162.824 93.3187 162.824C93.0582 162.824 92.8561 162.872 92.7122 162.968C92.5751 163.064 92.5066 163.198 92.5066 163.369C92.5066 163.561 92.6025 163.708 92.7944 163.811C92.9863 163.907 93.2844 164.006 93.6887 164.109C94.0999 164.212 94.4392 164.318 94.7064 164.428C94.9737 164.538 95.2033 164.709 95.3952 164.942C95.5939 165.168 95.6967 165.47 95.7036 165.846C95.7036 166.175 95.6111 166.47 95.426 166.731C95.2479 166.991 94.9874 167.197 94.6448 167.347C94.309 167.491 93.9149 167.563 93.4626 167.563Z" fill="#725054"/>
<path d="M31.9418 257.736C31.9418 258.119 31.8492 258.479 31.6642 258.815C31.486 259.151 31.2016 259.421 30.811 259.627C30.4272 259.833 29.9406 259.935 29.3512 259.935H28.1485V262.69H26.7093V255.515H29.3512C29.9063 255.515 30.3792 255.611 30.7699 255.803C31.1605 255.995 31.4518 256.259 31.6436 256.594C31.8424 256.93 31.9418 257.311 31.9418 257.736ZM29.2896 258.774C29.687 258.774 29.9817 258.685 30.1736 258.507C30.3655 258.321 30.4615 258.064 30.4615 257.736C30.4615 257.037 30.0708 256.687 29.2896 256.687H28.1485V258.774H29.2896ZM32.5935 259.822C32.5935 259.247 32.7066 258.736 32.9327 258.291C33.1657 257.845 33.4776 257.503 33.8682 257.263C34.2657 257.023 34.7077 256.903 35.1943 256.903C35.6192 256.903 35.9893 256.989 36.3045 257.16C36.6266 257.331 36.8836 257.547 37.0755 257.807V256.995H38.525V262.69H37.0755V261.858C36.8905 262.125 36.6335 262.348 36.3045 262.526C35.9824 262.697 35.6089 262.783 35.184 262.783C34.7043 262.783 34.2657 262.66 33.8682 262.413C33.4776 262.166 33.1657 261.82 32.9327 261.375C32.7066 260.922 32.5935 260.405 32.5935 259.822ZM37.0755 259.843C37.0755 259.493 37.007 259.195 36.8699 258.949C36.7328 258.695 36.5478 258.503 36.3148 258.373C36.0818 258.236 35.8316 258.167 35.5644 258.167C35.2971 258.167 35.0504 258.232 34.8242 258.363C34.5981 258.493 34.413 258.685 34.2691 258.938C34.132 259.185 34.0635 259.48 34.0635 259.822C34.0635 260.165 34.132 260.467 34.2691 260.727C34.413 260.981 34.5981 261.176 34.8242 261.313C35.0572 261.45 35.3039 261.519 35.5644 261.519C35.8316 261.519 36.0818 261.453 36.3148 261.323C36.5478 261.186 36.7328 260.994 36.8699 260.748C37.007 260.494 37.0755 260.192 37.0755 259.843ZM42.1099 262.783C41.6439 262.783 41.2258 262.701 40.8558 262.536C40.4857 262.365 40.191 262.135 39.9717 261.847C39.7592 261.56 39.6427 261.241 39.6222 260.891H41.0716C41.0991 261.111 41.2053 261.292 41.3903 261.436C41.5822 261.58 41.8186 261.652 42.0996 261.652C42.3738 261.652 42.5862 261.597 42.737 261.488C42.8946 261.378 42.9734 261.238 42.9734 261.066C42.9734 260.881 42.8775 260.744 42.6856 260.655C42.5005 260.559 42.2024 260.456 41.7912 260.347C41.3663 260.244 41.0168 260.138 40.7427 260.028C40.4754 259.918 40.2424 259.75 40.0437 259.524C39.8518 259.298 39.7558 258.993 39.7558 258.609C39.7558 258.294 39.8449 258.006 40.0231 257.746C40.2081 257.485 40.4686 257.28 40.8044 257.129C41.147 256.978 41.5479 256.903 42.0071 256.903C42.6856 256.903 43.227 257.074 43.6313 257.417C44.0357 257.753 44.2584 258.208 44.2995 258.784H42.922C42.9015 258.558 42.8055 258.38 42.6342 258.25C42.4697 258.112 42.247 258.044 41.966 258.044C41.7056 258.044 41.5034 258.092 41.3595 258.188C41.2224 258.284 41.1539 258.417 41.1539 258.589C41.1539 258.781 41.2498 258.928 41.4417 259.031C41.6336 259.127 41.9317 259.226 42.3361 259.329C42.7473 259.432 43.0865 259.538 43.3538 259.648C43.6211 259.757 43.8506 259.929 44.0425 260.162C44.2413 260.388 44.3441 260.689 44.3509 261.066C44.3509 261.395 44.2584 261.69 44.0734 261.95C43.8952 262.211 43.6348 262.416 43.2921 262.567C42.9563 262.711 42.5622 262.783 42.1099 262.783ZM47.7116 262.783C47.2456 262.783 46.8276 262.701 46.4575 262.536C46.0874 262.365 45.7927 262.135 45.5734 261.847C45.361 261.56 45.2445 261.241 45.2239 260.891H46.6734C46.7008 261.111 46.807 261.292 46.992 261.436C47.1839 261.58 47.4204 261.652 47.7014 261.652C47.9755 261.652 48.1879 261.597 48.3387 261.488C48.4963 261.378 48.5751 261.238 48.5751 261.066C48.5751 260.881 48.4792 260.744 48.2873 260.655C48.1023 260.559 47.8042 260.456 47.393 260.347C46.9681 260.244 46.6185 260.138 46.3444 260.028C46.0771 259.918 45.8441 259.75 45.6454 259.524C45.4535 259.298 45.3575 258.993 45.3575 258.609C45.3575 258.294 45.4466 258.006 45.6248 257.746C45.8099 257.485 46.0703 257.28 46.4061 257.129C46.7488 256.978 47.1497 256.903 47.6088 256.903C48.2873 256.903 48.8287 257.074 49.2331 257.417C49.6374 257.753 49.8601 258.208 49.9012 258.784H48.5237C48.5032 258.558 48.4072 258.38 48.2359 258.25C48.0714 258.112 47.8487 258.044 47.5677 258.044C47.3073 258.044 47.1051 258.092 46.9612 258.188C46.8241 258.284 46.7556 258.417 46.7556 258.589C46.7556 258.781 46.8516 258.928 47.0434 259.031C47.2353 259.127 47.5334 259.226 47.9378 259.329C48.349 259.432 48.6882 259.538 48.9555 259.648C49.2228 259.757 49.4524 259.929 49.6442 260.162C49.843 260.388 49.9458 260.689 49.9526 261.066C49.9526 261.395 49.8601 261.69 49.6751 261.95C49.4969 262.211 49.2365 262.416 48.8938 262.567C48.558 262.711 48.1639 262.783 47.7116 262.783ZM56.4282 259.72C56.4282 259.925 56.4144 260.11 56.387 260.275H52.2237C52.258 260.686 52.4019 261.008 52.6554 261.241C52.909 261.474 53.2208 261.59 53.5909 261.59C54.1255 261.59 54.5058 261.361 54.732 260.902H56.2842C56.1198 261.45 55.8045 261.902 55.3385 262.259C54.8725 262.608 54.3002 262.783 53.6218 262.783C53.0735 262.783 52.5801 262.663 52.1415 262.423C51.7097 262.176 51.3705 261.83 51.1237 261.385C50.8839 260.939 50.7639 260.425 50.7639 259.843C50.7639 259.254 50.8839 258.736 51.1237 258.291C51.3636 257.845 51.6994 257.503 52.1312 257.263C52.5629 257.023 53.0598 256.903 53.6218 256.903C54.1632 256.903 54.6463 257.019 55.0712 257.252C55.503 257.485 55.8353 257.818 56.0684 258.25C56.3082 258.674 56.4282 259.164 56.4282 259.72ZM54.9376 259.308C54.9307 258.938 54.7971 258.644 54.5367 258.424C54.2762 258.198 53.9576 258.085 53.5806 258.085C53.2243 258.085 52.9227 258.195 52.676 258.414C52.4361 258.626 52.2888 258.925 52.234 259.308H54.9376ZM60.6345 256.913C61.313 256.913 61.8613 257.129 62.2793 257.561C62.6974 257.986 62.9064 258.582 62.9064 259.349V262.69H61.4672V259.545C61.4672 259.092 61.3541 258.746 61.128 258.507C60.9018 258.26 60.5934 258.136 60.2028 258.136C59.8053 258.136 59.4901 258.26 59.257 258.507C59.0309 258.746 58.9178 259.092 58.9178 259.545V262.69H57.4786V256.995H58.9178V257.705C59.1097 257.458 59.353 257.266 59.6477 257.129C59.9492 256.985 60.2782 256.913 60.6345 256.913ZM66.5057 256.903C66.9306 256.903 67.3041 256.989 67.6262 257.16C67.9483 257.324 68.2019 257.54 68.3869 257.807V256.995H69.8364V262.732C69.8364 263.259 69.7302 263.729 69.5177 264.14C69.3053 264.558 68.9866 264.887 68.5617 265.127C68.1368 265.373 67.6228 265.497 67.0197 265.497C66.211 265.497 65.5463 265.308 65.0254 264.931C64.5114 264.555 64.2202 264.041 64.1516 263.389H65.5805C65.6559 263.65 65.817 263.855 66.0637 264.006C66.3173 264.164 66.6222 264.243 66.9786 264.243C67.3966 264.243 67.7359 264.116 67.9963 263.862C68.2567 263.616 68.3869 263.239 68.3869 262.732V261.847C68.2019 262.115 67.9449 262.337 67.6159 262.516C67.2938 262.694 66.9238 262.783 66.5057 262.783C66.026 262.783 65.5874 262.66 65.1899 262.413C64.7924 262.166 64.4772 261.82 64.2441 261.375C64.018 260.922 63.9049 260.405 63.9049 259.822C63.9049 259.247 64.018 258.736 64.2441 258.291C64.4772 257.845 64.789 257.503 65.1796 257.263C65.5771 257.023 66.0191 256.903 66.5057 256.903ZM68.3869 259.843C68.3869 259.493 68.3184 259.195 68.1813 258.949C68.0443 258.695 67.8592 258.503 67.6262 258.373C67.3932 258.236 67.1431 258.167 66.8758 258.167C66.6085 258.167 66.3618 258.232 66.1356 258.363C65.9095 258.493 65.7244 258.685 65.5805 258.938C65.4435 259.185 65.3749 259.48 65.3749 259.822C65.3749 260.165 65.4435 260.467 65.5805 260.727C65.7244 260.981 65.9095 261.176 66.1356 261.313C66.3686 261.45 66.6154 261.519 66.8758 261.519C67.1431 261.519 67.3932 261.453 67.6262 261.323C67.8592 261.186 68.0443 260.994 68.1813 260.748C68.3184 260.494 68.3869 260.192 68.3869 259.843ZM76.5361 259.72C76.5361 259.925 76.5224 260.11 76.495 260.275H72.3317C72.3659 260.686 72.5098 261.008 72.7634 261.241C73.017 261.474 73.3288 261.59 73.6989 261.59C74.2334 261.59 74.6138 261.361 74.84 260.902H76.3922C76.2277 261.45 75.9125 261.902 75.4465 262.259C74.9804 262.608 74.4082 262.783 73.7297 262.783C73.1815 262.783 72.688 262.663 72.2494 262.423C71.8177 262.176 71.4784 261.83 71.2317 261.385C70.9919 260.939 70.8719 260.425 70.8719 259.843C70.8719 259.254 70.9919 258.736 71.2317 258.291C71.4716 257.845 71.8074 257.503 72.2391 257.263C72.6709 257.023 73.1678 256.903 73.7297 256.903C74.2711 256.903 74.7543 257.019 75.1792 257.252C75.6109 257.485 75.9433 257.818 76.1763 258.25C76.4162 258.674 76.5361 259.164 76.5361 259.72ZM75.0455 259.308C75.0387 258.938 74.9051 258.644 74.6446 258.424C74.3842 258.198 74.0655 258.085 73.6886 258.085C73.3322 258.085 73.0307 258.195 72.784 258.414C72.5441 258.626 72.3968 258.925 72.3419 259.308H75.0455ZM79.0258 257.879C79.2108 257.578 79.4507 257.341 79.7454 257.17C80.0469 256.999 80.3896 256.913 80.7734 256.913V258.424H80.393C79.9407 258.424 79.598 258.531 79.365 258.743C79.1389 258.955 79.0258 259.325 79.0258 259.853V262.69H77.5866V256.995H79.0258V257.879ZM89.7125 262.69L88.9312 261.919C88.2665 262.516 87.4544 262.814 86.4949 262.814C85.9672 262.814 85.5012 262.725 85.0968 262.547C84.6994 262.361 84.391 262.104 84.1717 261.776C83.9524 261.44 83.8427 261.053 83.8427 260.614C83.8427 260.141 83.9763 259.716 84.2436 259.339C84.5109 258.962 84.905 258.657 85.4258 258.424C85.2408 258.198 85.1071 257.982 85.0249 257.777C84.9426 257.564 84.9015 257.338 84.9015 257.098C84.9015 256.769 84.9872 256.475 85.1585 256.214C85.3299 255.947 85.5731 255.738 85.8884 255.587C86.2105 255.436 86.584 255.361 87.0089 255.361C87.4407 255.361 87.8107 255.443 88.1191 255.608C88.4275 255.772 88.6571 255.991 88.8079 256.266C88.9586 256.54 89.0238 256.845 89.0032 257.18H87.6051C87.612 256.954 87.5572 256.783 87.4407 256.666C87.3241 256.543 87.1665 256.481 86.9678 256.481C86.7759 256.481 86.6148 256.54 86.4846 256.656C86.3613 256.766 86.2996 256.91 86.2996 257.088C86.2996 257.259 86.351 257.431 86.4538 257.602C86.5566 257.766 86.7245 257.972 86.9575 258.219L88.7668 260.007C88.7805 259.994 88.7907 259.98 88.7976 259.966C88.8044 259.953 88.8113 259.939 88.8182 259.925L89.4041 258.949H90.905L90.1854 260.213C90.0483 260.48 89.901 260.734 89.7433 260.974L91.4806 262.69H89.7125ZM86.536 261.621C87.098 261.621 87.5949 261.423 88.0266 261.025L86.2585 259.278C85.5937 259.572 85.2613 259.99 85.2613 260.532C85.2613 260.84 85.3778 261.1 85.6108 261.313C85.8438 261.519 86.1522 261.621 86.536 261.621Z" fill="#725054"/>
<path d="M33.9977 272.693C33.9977 272.104 34.1177 271.59 34.3575 271.152C34.5974 270.706 34.9298 270.363 35.3547 270.124C35.7796 269.877 36.2661 269.753 36.8144 269.753C37.5203 269.753 38.1028 269.932 38.562 270.288C39.028 270.638 39.3398 271.131 39.4974 271.768H37.9452C37.8629 271.522 37.7225 271.33 37.5237 271.193C37.3318 271.049 37.092 270.977 36.8041 270.977C36.3929 270.977 36.0674 271.128 35.8275 271.429C35.5877 271.724 35.4677 272.145 35.4677 272.693C35.4677 273.235 35.5877 273.656 35.8275 273.958C36.0674 274.253 36.3929 274.4 36.8041 274.4C37.3866 274.4 37.767 274.14 37.9452 273.619H39.4974C39.3398 274.235 39.028 274.725 38.562 275.089C38.096 275.452 37.5134 275.634 36.8144 275.634C36.2661 275.634 35.7796 275.514 35.3547 275.274C34.9298 275.027 34.5974 274.684 34.3575 274.246C34.1177 273.8 33.9977 273.283 33.9977 272.693ZM40.1817 272.673C40.1817 272.097 40.2948 271.587 40.5209 271.141C40.7539 270.696 41.0658 270.353 41.4564 270.113C41.8539 269.873 42.2959 269.753 42.7825 269.753C43.2074 269.753 43.5775 269.839 43.8927 270.01C44.2148 270.182 44.4718 270.398 44.6637 270.658V269.846H46.1132V275.541H44.6637V274.708C44.4787 274.976 44.2217 275.198 43.8927 275.377C43.5706 275.548 43.1971 275.634 42.7722 275.634C42.2925 275.634 41.8539 275.51 41.4564 275.263C41.0658 275.017 40.7539 274.671 40.5209 274.225C40.2948 273.773 40.1817 273.255 40.1817 272.673ZM44.6637 272.693C44.6637 272.344 44.5952 272.046 44.4581 271.799C44.3211 271.546 44.136 271.354 43.903 271.223C43.67 271.086 43.4199 271.018 43.1526 271.018C42.8853 271.018 42.6386 271.083 42.4124 271.213C42.1863 271.343 42.0012 271.535 41.8573 271.789C41.7203 272.036 41.6517 272.33 41.6517 272.673C41.6517 273.016 41.7203 273.317 41.8573 273.578C42.0012 273.831 42.1863 274.026 42.4124 274.164C42.6454 274.301 42.8922 274.369 43.1526 274.369C43.4199 274.369 43.67 274.304 43.903 274.174C44.136 274.037 44.3211 273.845 44.4581 273.598C44.5952 273.345 44.6637 273.043 44.6637 272.693ZM48.958 270.73C49.143 270.428 49.3829 270.192 49.6776 270.021C49.9791 269.849 50.3218 269.764 50.7055 269.764V271.275H50.3252C49.8729 271.275 49.5302 271.381 49.2972 271.594C49.0711 271.806 48.958 272.176 48.958 272.704V275.541H47.5188V269.846H48.958V270.73ZM53.9056 269.753C54.3305 269.753 54.704 269.839 55.0261 270.01C55.3482 270.175 55.6018 270.391 55.7869 270.658V269.846H57.2363V275.582C57.2363 276.11 57.1301 276.579 56.9176 276.99C56.7052 277.409 56.3865 277.737 55.9616 277.977C55.5367 278.224 55.0227 278.347 54.4196 278.347C53.6109 278.347 52.9462 278.159 52.4253 277.782C51.9113 277.405 51.6201 276.891 51.5515 276.24H52.9805C53.0558 276.5 53.2169 276.706 53.4636 276.857C53.7172 277.014 54.0221 277.093 54.3785 277.093C54.7966 277.093 55.1358 276.966 55.3962 276.713C55.6566 276.466 55.7869 276.089 55.7869 275.582V274.698C55.6018 274.965 55.3448 275.188 55.0159 275.366C54.6938 275.544 54.3237 275.634 53.9056 275.634C53.4259 275.634 52.9873 275.51 52.5898 275.263C52.1923 275.017 51.8771 274.671 51.6441 274.225C51.4179 273.773 51.3048 273.255 51.3048 272.673C51.3048 272.097 51.4179 271.587 51.6441 271.141C51.8771 270.696 52.1889 270.353 52.5795 270.113C52.977 269.873 53.4191 269.753 53.9056 269.753ZM55.7869 272.693C55.7869 272.344 55.7183 272.046 55.5813 271.799C55.4442 271.546 55.2592 271.354 55.0261 271.223C54.7931 271.086 54.543 271.018 54.2757 271.018C54.0084 271.018 53.7617 271.083 53.5356 271.213C53.3094 271.343 53.1244 271.535 52.9805 271.789C52.8434 272.036 52.7749 272.33 52.7749 272.673C52.7749 273.016 52.8434 273.317 52.9805 273.578C53.1244 273.831 53.3094 274.026 53.5356 274.164C53.7686 274.301 54.0153 274.369 54.2757 274.369C54.543 274.369 54.7931 274.304 55.0261 274.174C55.2592 274.037 55.4442 273.845 55.5813 273.598C55.7183 273.345 55.7869 273.043 55.7869 272.693ZM61.1708 275.634C60.6225 275.634 60.1291 275.514 59.6905 275.274C59.2519 275.027 58.9058 274.681 58.6522 274.235C58.4055 273.79 58.2821 273.276 58.2821 272.693C58.2821 272.111 58.4089 271.597 58.6625 271.152C58.9229 270.706 59.2758 270.363 59.7213 270.124C60.1668 269.877 60.6636 269.753 61.2119 269.753C61.7601 269.753 62.257 269.877 62.7025 270.124C63.1479 270.363 63.4974 270.706 63.751 271.152C64.0114 271.597 64.1417 272.111 64.1417 272.693C64.1417 273.276 64.008 273.79 63.7407 274.235C63.4803 274.681 63.1239 275.027 62.6716 275.274C62.2262 275.514 61.7259 275.634 61.1708 275.634ZM61.1708 274.379C61.4312 274.379 61.6745 274.318 61.9006 274.194C62.1337 274.064 62.3187 273.872 62.4558 273.619C62.5928 273.365 62.6614 273.057 62.6614 272.693C62.6614 272.152 62.5174 271.737 62.2296 271.45C61.9486 271.155 61.6025 271.008 61.1913 271.008C60.7801 271.008 60.434 271.155 60.1531 271.45C59.8789 271.737 59.7419 272.152 59.7419 272.693C59.7419 273.235 59.8755 273.653 60.1428 273.948C60.4169 274.235 60.7596 274.379 61.1708 274.379ZM69.086 267.934V275.541H67.6468V267.934H69.086ZM71.2378 269.168C70.9842 269.168 70.7718 269.089 70.6005 268.931C70.436 268.767 70.3537 268.564 70.3537 268.325C70.3537 268.085 70.436 267.886 70.6005 267.728C70.7718 267.564 70.9842 267.482 71.2378 267.482C71.4914 267.482 71.7004 267.564 71.8649 267.728C72.0362 267.886 72.1219 268.085 72.1219 268.325C72.1219 268.564 72.0362 268.767 71.8649 268.931C71.7004 269.089 71.4914 269.168 71.2378 269.168ZM71.9471 269.846V275.541H70.5079V269.846H71.9471ZM75.9801 271.028H74.983V275.541H73.5232V271.028H72.8756V269.846H73.5232V269.558C73.5232 268.859 73.722 268.345 74.1195 268.016C74.517 267.687 75.1166 267.533 75.9184 267.554V268.767C75.5689 268.76 75.3256 268.818 75.1886 268.941C75.0515 269.065 74.983 269.287 74.983 269.61V269.846H75.9801V271.028ZM78.5884 271.028V273.783C78.5884 273.975 78.6329 274.116 78.722 274.205C78.818 274.287 78.9756 274.328 79.1949 274.328H79.8631V275.541H78.9585C77.7454 275.541 77.1389 274.952 77.1389 273.773V271.028H76.4605V269.846H77.1389V268.438H78.5884V269.846H79.8631V271.028H78.5884ZM83.0776 275.634C82.6115 275.634 82.1935 275.551 81.8234 275.387C81.4533 275.215 81.1587 274.986 80.9393 274.698C80.7269 274.41 80.6104 274.092 80.5898 273.742H82.0393C82.0667 273.961 82.1729 274.143 82.358 274.287C82.5499 274.431 82.7863 274.503 83.0673 274.503C83.3414 274.503 83.5539 274.448 83.7046 274.338C83.8623 274.229 83.9411 274.088 83.9411 273.917C83.9411 273.732 83.8451 273.595 83.6532 273.506C83.4682 273.41 83.1701 273.307 82.7589 273.197C82.334 273.094 81.9845 272.988 81.7103 272.879C81.4431 272.769 81.2101 272.601 81.0113 272.375C80.8194 272.149 80.7235 271.844 80.7235 271.46C80.7235 271.145 80.8126 270.857 80.9907 270.596C81.1758 270.336 81.4362 270.13 81.772 269.98C82.1147 269.829 82.5156 269.753 82.9748 269.753C83.6532 269.753 84.1946 269.925 84.599 270.267C85.0033 270.603 85.2261 271.059 85.2672 271.635H83.8897C83.8691 271.409 83.7732 271.23 83.6018 271.1C83.4374 270.963 83.2146 270.895 82.9336 270.895C82.6732 270.895 82.471 270.942 82.3271 271.038C82.1901 271.134 82.1215 271.268 82.1215 271.439C82.1215 271.631 82.2175 271.779 82.4094 271.881C82.6013 271.977 82.8994 272.077 83.3037 272.18C83.7149 272.282 84.0541 272.389 84.3214 272.498C84.5887 272.608 84.8183 272.779 85.0102 273.012C85.2089 273.238 85.3117 273.54 85.3186 273.917C85.3186 274.246 85.2261 274.54 85.041 274.801C84.8628 275.061 84.6024 275.267 84.2597 275.418C83.9239 275.562 83.5299 275.634 83.0776 275.634Z" fill="#725054"/>
<path d="M70.1775 20.4739V20.7738C70.1775 21.1935 70.1175 21.6219 69.9976 22.0416H70.4516V25.7938H68.8497C68.7555 28.7578 68.6355 34.96 68.6355 35.354C68.6355 35.868 68.5756 36.5619 68.3014 37.2301H69.7492C70.9913 37.2301 71.985 36.2364 71.985 34.9942V20.4739H70.1689H70.1775ZM56.9936 25.7681H41.9593V22.0159H55.8714C55.7514 21.6219 55.6915 21.2021 55.6915 20.7481V20.4482H40.3916V34.9942C40.3916 36.2364 41.3853 37.2301 42.6275 37.2301H57.5333C57.2591 36.5619 57.1992 35.8423 57.1992 35.354C57.1992 34.96 57.0792 28.7321 56.985 25.7681H56.9936Z" fill="#725054"/>
<path d="M54.4237 10.9481C54.4237 10.8281 54.3895 10.5283 54.3638 10.2199C54.3295 9.98004 54.3038 9.76587 54.3038 9.67164C54.3038 9.31184 54.0639 9.03772 53.6956 8.91778L53.6356 8.88352C53.1816 8.72932 52.7018 8.58369 52.3078 8.42949C52.2735 8.42949 52.2136 8.39522 52.1536 8.36952C51.7938 8.24959 51.4854 8.12966 51.3398 8.12966H51.2798C51.0656 8.18963 51.0057 8.36952 50.98 8.42949C50.98 8.46376 50.86 8.84925 50.6801 9.36324C50.466 10.0314 50.2004 10.9052 50.0462 11.4192L49.8663 9.97147V9.9115L49.832 9.73161C49.832 9.63737 49.7978 9.57741 49.7978 9.55171C49.832 9.49174 49.8577 9.39751 49.892 9.31184C49.892 9.27758 49.9263 9.25188 49.9263 9.21761L49.9605 9.12338C49.9948 9.06341 50.0205 8.96918 50.0205 8.88352C50.0205 8.84925 49.9263 8.54942 49.9006 8.52372C49.8406 8.42949 49.7807 8.42949 49.7207 8.40379H48.6327C48.6327 8.40379 48.5128 8.43806 48.4785 8.49802C48.4443 8.53229 48.3586 8.83212 48.3586 8.85782C48.3586 8.95205 48.3929 9.03772 48.4186 9.09768L48.4528 9.19191C48.4528 9.19191 48.4871 9.25188 48.4871 9.28615V9.32041C48.5214 9.38038 48.5471 9.44034 48.5813 9.53458C48.5813 9.56884 48.5813 9.62881 48.5471 9.71447L48.5128 9.89437V9.92864L48.3329 11.4107C48.153 10.8967 47.8789 10.0229 47.699 9.35468C47.5448 8.84068 47.4248 8.44662 47.3991 8.42092C47.3649 8.36096 47.3049 8.14679 47.0993 8.12109H47.0394C46.8852 8.12109 46.5853 8.24103 46.2255 8.36096C46.1656 8.39522 46.1056 8.39522 46.0713 8.42092C45.6773 8.57512 45.1975 8.72075 44.7435 8.87495L44.6835 8.90922C44.2895 9.02915 44.0753 9.30328 44.0753 9.66307C44.0753 9.75731 44.0411 9.9629 44.0154 10.2113C43.9811 10.5112 43.9554 10.8196 43.9554 10.9395C43.9211 12.3872 43.9211 15.9252 43.9554 18.1697C43.9554 18.6237 44.3495 18.9835 44.8035 18.9835H53.6013C54.0554 18.9835 54.4494 18.6237 54.4494 18.1697C54.4837 15.9595 54.4837 12.4215 54.4494 10.9738L54.4237 10.9481Z" fill="#725054"/>
<path d="M47.9226 6.71618C48.2824 7.07597 48.7364 7.26444 49.1905 7.23017C49.6445 7.26444 50.0985 7.07597 50.4583 6.71618C50.8181 6.35638 51.1265 5.98802 51.3064 5.53399C51.7005 4.62594 51.9403 3.69218 51.9403 2.6899V2.27014C51.8461 1.33638 51.3921 0.633925 50.4583 0.239863C50.0386 0.0856655 49.6102 0 49.1562 0C48.7022 0 48.2824 0.0942321 47.8541 0.239863C46.9203 0.599659 46.4663 1.30212 46.3721 2.27014V2.6899C46.3721 3.68362 46.6119 4.62594 47.006 5.53399C47.2459 5.98802 47.5543 6.34782 47.9141 6.71618H47.9226Z" fill="#725054"/>
<path d="M62.1342 7.31581C62.2284 7.35008 62.3141 7.37578 62.434 7.37578C62.5882 7.41004 62.7338 7.41004 62.888 7.41004C63.1879 7.41004 63.4963 7.37578 63.7618 7.29011C63.8818 7.25585 64.0017 7.23014 64.1216 7.17018C65.1153 6.77612 65.9634 5.90233 66.2975 4.84008C66.3918 4.54025 66.4517 4.20615 66.4517 3.87206C66.486 1.97028 64.8498 0.334071 62.9394 0.299805C61.0377 0.334071 59.4015 1.90175 59.3672 3.83779C59.3672 4.25755 59.4272 4.68588 59.607 5.07994C60.0011 6.14219 60.9948 7.01598 62.1171 7.31581H62.1342Z" fill="#725054"/>
<path d="M68.8411 11.7954C68.8411 11.6412 68.8068 11.3157 68.7469 10.9816C68.7126 10.7074 68.6869 10.4676 68.6869 10.3733C68.6526 9.55951 67.6246 9.40531 66.9907 9.22541C65.6629 8.83135 64.3008 8.65145 62.9045 8.61719C61.5167 8.65145 60.1546 8.83135 58.8182 9.22541C58.1843 9.40531 57.1563 9.55951 57.1221 10.3733C57.1221 10.4676 57.0878 10.7074 57.0621 10.9816C57.0278 11.3157 57.0021 11.6497 56.9679 11.7954C56.9336 13.2774 56.9336 17.5692 56.9336 19.3596C56.9336 19.8137 56.9336 20.2677 56.9679 20.7474C56.9679 21.2015 57.0621 21.6212 57.242 22.0495C57.4219 22.4779 57.696 22.8976 58.0301 23.3174L58.0644 23.3517C58.1243 23.4116 58.1586 23.5059 58.2186 23.5658C58.2186 23.7457 58.2528 23.8999 58.2528 24.0798V24.2597C58.3128 25.3477 58.4927 35.1735 58.4927 35.362C58.4927 35.876 58.5527 36.4499 58.7925 36.8782C59.1266 37.5122 59.7606 37.7863 60.4887 37.6664C61.1826 37.5464 61.6966 37.0324 61.8165 36.3043C61.8165 36.2443 61.8508 36.1501 61.8508 36.0901C62.0307 33.82 62.1506 30.5561 62.3048 28.3203C62.3991 27.1124 62.4847 25.8702 62.6046 24.6623C62.6046 24.6281 62.6047 24.6024 62.6389 24.5681C62.6989 24.4739 62.7589 24.4139 62.8531 24.3882C62.9473 24.4225 63.0073 24.4824 63.0672 24.5681C63.0672 24.6024 63.1015 24.6281 63.1015 24.6623C63.2214 25.8702 63.3414 27.0781 63.4013 28.3203C63.5555 30.5904 63.7012 33.8543 63.8554 36.0901C63.8554 36.1501 63.8896 36.2443 63.8896 36.3043C64.0438 37.0324 64.5236 37.5464 65.2174 37.6664C65.9456 37.7863 66.5795 37.5464 66.9136 36.8782C67.1535 36.4242 67.2135 35.8503 67.2135 35.362C67.2135 35.2078 67.4276 25.3819 67.4533 24.2597V24.0798C67.4533 23.8999 67.4533 23.7457 67.4876 23.5658C67.5218 23.5059 67.5818 23.4116 67.6418 23.3517C67.6418 23.3174 67.676 23.3174 67.676 23.3174C68.0358 22.8976 68.31 22.4693 68.4642 22.0495C68.6441 21.6298 68.7383 21.2015 68.7383 20.7474C68.7383 20.2677 68.7383 19.8137 68.7726 19.3596C68.8925 17.6035 68.8925 13.3117 68.8668 11.7954H68.8411Z" fill="#725054"/>
<path d="M67.2497 123.704C65.7249 123.704 64.4827 124.946 64.4827 126.471V131.08H61.7157V119.095C61.7157 118.59 61.3045 118.17 60.7905 118.17H51.5729C51.0675 118.17 50.6477 118.581 50.6477 119.095V131.08H46.0389C45.5335 131.08 45.1137 130.668 45.1137 130.154V117.022L56.1732 110.528L67.2326 117.022V123.704H67.2497ZM56.6529 108.635L69.0487 115.917C69.4599 116.148 69.9225 116.148 70.3422 115.917C70.762 115.685 70.9847 115.274 70.9847 114.812C70.9847 114.349 70.7534 113.938 70.3851 113.707L56.1903 105.457L42.0469 113.749C41.6785 113.981 41.4473 114.392 41.4473 114.855C41.4473 115.317 41.6786 115.728 42.0898 115.96C42.501 116.191 42.9635 116.191 43.3833 115.96L55.7363 108.635C56.0104 108.447 56.3788 108.447 56.6615 108.635H56.6529ZM52.5067 131.08H59.8825V125.554C59.8825 126.06 59.4713 126.479 58.9573 126.479C58.4433 126.479 58.0321 126.068 58.0321 125.554C58.0321 125.04 58.4433 124.629 58.9573 124.629C59.4713 124.629 59.8825 125.04 59.8825 125.554V120.029H52.5067V131.088V131.08ZM66.3331 141.214C66.3331 141.719 66.7443 142.139 67.2583 142.139H77.3925C77.8979 142.139 78.3177 141.728 78.3177 141.214V139.372H66.3331V141.214ZM78.3091 126.471V137.53H66.3245V126.471C66.3245 125.965 66.7357 125.546 67.2497 125.546H77.384C77.8894 125.546 78.3091 125.957 78.3091 126.471ZM70.9419 133.838C70.9419 133.333 70.5307 132.913 70.0167 132.913C69.5027 132.913 69.0915 133.324 69.0915 133.838C69.0915 134.352 69.5027 134.763 70.0167 134.763C70.5307 134.763 70.9419 134.352 70.9419 133.838ZM70.9419 129.238C70.9419 128.732 70.5307 128.313 70.0167 128.313C69.5027 128.313 69.0915 128.724 69.0915 129.238C69.0915 129.752 69.5027 130.163 70.0167 130.163C70.5307 130.163 70.9419 129.752 70.9419 129.238ZM75.5507 133.838C75.5507 133.333 75.1395 132.913 74.6255 132.913C74.1115 132.913 73.7003 133.324 73.7003 133.838C73.7003 134.352 74.1115 134.763 74.6255 134.763C75.1395 134.763 75.5507 134.352 75.5507 133.838ZM75.5507 129.238C75.5507 128.732 75.1395 128.313 74.6255 128.313C74.1115 128.313 73.7003 128.724 73.7003 129.238C73.7003 129.752 74.1115 130.163 74.6255 130.163C75.1395 130.163 75.5507 129.752 75.5507 129.238Z" fill="#725054"/>
<path d="M67.7026 215.479H46.9545C45.8665 215.479 44.9756 216.362 44.9756 217.458V241.667C44.9756 242.481 45.6438 243.149 46.4576 243.149H47.4428C48.0681 243.149 48.6249 242.755 48.8391 242.164H61.8603C62.0659 242.755 62.6227 243.149 63.2566 243.149H68.1995C69.0133 243.149 69.6815 242.481 69.6815 241.667V217.45C69.6815 216.362 68.7992 215.471 67.7026 215.471V215.479ZM61.7746 220.414C61.7746 220.962 61.3291 221.399 60.7894 221.399H49.9185C49.3702 221.399 48.9333 220.953 48.9333 220.414V218.932C48.9333 218.383 49.3788 217.946 49.9185 217.946H60.7894C61.3377 217.946 61.7746 218.392 61.7746 218.932V220.414ZM61.2777 223.874C61.5519 223.874 61.7746 224.097 61.7746 224.371V241.17H55.8465V223.874H61.2777ZM67.0602 231.045C66.8203 231.182 66.5205 231.096 66.392 230.856L65.7323 229.657L65.0727 230.856C64.9442 231.096 64.6358 231.182 64.4045 231.045C64.1732 230.908 64.079 230.608 64.2161 230.377L65.0984 228.792C65.2955 228.432 65.7495 228.303 66.1093 228.509C66.2292 228.578 66.332 228.672 66.392 228.792L67.2743 230.377C67.4114 230.608 67.3257 230.908 67.0944 231.045C67.0944 231.045 67.0944 231.045 67.0859 231.045H67.0602ZM64.396 232.698C64.6358 232.57 64.9356 232.655 65.0641 232.887L65.7238 234.086L66.3834 232.887C66.5119 232.647 66.8203 232.561 67.0516 232.698C67.2829 232.835 67.3771 233.135 67.2401 233.366L66.3577 234.951C66.1607 235.311 65.7066 235.439 65.3468 235.234C65.2269 235.165 65.1241 235.071 65.0641 234.951L64.1818 233.366C64.0447 233.126 64.1304 232.827 64.3703 232.698H64.396ZM48.9333 224.371C48.9333 224.097 49.1561 223.874 49.4302 223.874H54.8614V241.17H48.9333V224.371Z" fill="#725054"/>
<path d="M49.918 218.932H60.7889V220.414H49.918V218.932Z" fill="#725054"/>
<path d="M48.4873 347.535H54.304V326.907H48.4873V347.535ZM53.1989 335.14C53.6015 335.174 53.8928 335.534 53.8585 335.928C53.8243 336.279 53.5501 336.553 53.1989 336.587C52.7963 336.553 52.505 336.193 52.5393 335.799C52.5735 335.448 52.8477 335.174 53.1989 335.14Z" fill="#725054"/>
<path d="M47.3136 346.362V326.325C47.3136 325.991 47.5877 325.717 47.9218 325.717H54.8778C55.2119 325.717 55.4861 325.991 55.4861 326.325V347.519H55.923V323.541H46.2342C45.9001 323.541 45.626 323.815 45.626 324.149V346.979C45.626 347.313 45.9001 347.587 46.2342 347.587H47.3393L47.3221 346.371L47.3136 346.362Z" fill="#725054"/>
<path d="M66.8196 323.541H57.1309V347.536H57.6106V326.325C57.6106 325.991 57.8847 325.717 58.2188 325.717H65.1491C65.4832 325.717 65.7574 325.991 65.7574 326.325V347.519H66.8196C67.1537 347.519 67.4278 347.245 67.4278 346.911V324.149C67.4278 323.815 67.1537 323.541 66.8196 323.541Z" fill="#725054"/>
<path d="M64.5667 346.362V326.907H58.75V347.535H64.5667V346.37V346.362ZM59.8551 335.14C60.2577 335.174 60.549 335.534 60.5147 335.928C60.4804 336.279 60.2063 336.553 59.8551 336.587C59.4525 336.553 59.1612 336.193 59.1955 335.799C59.2297 335.448 59.5039 335.174 59.8551 335.14Z" fill="#725054"/>
<path d="M63.4276 349.61L62.7765 348.119H58.9473C58.9815 348.316 59.1614 349.387 59.2043 349.61C59.3413 350.458 60.198 355.512 60.3265 356.274H65.4664C65.8005 356.257 66.0575 355.975 66.0404 355.641C66.0404 355.581 66.0232 355.512 66.0061 355.452L63.4361 349.61H63.4276Z" fill="#725054"/>
<path d="M54.1074 348.119H50.2696C50.184 348.316 49.7128 349.378 49.6185 349.61L47.0572 355.426C46.9372 355.743 47.1 356.086 47.4084 356.206C47.4684 356.232 47.5369 356.24 47.6054 356.24H52.7454C53.0538 354.424 53.8162 349.91 54.1074 348.119Z" fill="#725054"/>
<path d="M57.9968 349.575L57.7398 348.119H55.3155C55.1613 349.07 54.3132 354.013 54.1333 355.067L53.9277 356.232H59.1191C59.0077 355.538 58.1339 350.389 57.9968 349.567V349.575Z" fill="#725054"/>
<path d="M23.3473 363.903L21.3427 371.078H19.6465L18.2999 365.969L16.8915 371.078L15.2056 371.088L13.273 363.903H14.815L16.0794 369.474L17.5392 363.903H19.1428L20.5203 369.444L21.795 363.903H23.3473ZM29.5812 368.107C29.5812 368.313 29.5674 368.498 29.54 368.662H25.3767C25.411 369.074 25.5549 369.396 25.8084 369.629C26.062 369.862 26.3738 369.978 26.7439 369.978C27.2785 369.978 27.6588 369.749 27.885 369.289H29.4372C29.2728 369.838 28.9575 370.29 28.4915 370.646C28.0255 370.996 27.4532 371.171 26.7747 371.171C26.2265 371.171 25.7331 371.051 25.2944 370.811C24.8627 370.564 24.5235 370.218 24.2767 369.773C24.0369 369.327 23.9169 368.813 23.9169 368.231C23.9169 367.641 24.0369 367.124 24.2767 366.678C24.5166 366.233 24.8524 365.89 25.2842 365.65C25.7159 365.41 26.2128 365.291 26.7747 365.291C27.3162 365.291 27.7993 365.407 28.2242 365.64C28.656 365.873 28.9883 366.205 29.2214 366.637C29.4612 367.062 29.5812 367.552 29.5812 368.107ZM28.0906 367.696C28.0837 367.326 27.9501 367.031 27.6897 366.812C27.4292 366.586 27.1106 366.473 26.7336 366.473C26.3773 366.473 26.0757 366.582 25.829 366.802C25.5891 367.014 25.4418 367.312 25.387 367.696H28.0906ZM32.0708 363.471V371.078H30.6316V363.471H32.0708ZM34.9319 363.471V371.078H33.4927V363.471H34.9319ZM40.733 366.802V368.015H36.3744V366.802H40.733ZM43.7862 363.471V371.078H42.3471V363.471H43.7862ZM45.938 364.705C45.6845 364.705 45.472 364.626 45.3007 364.468C45.1362 364.304 45.054 364.102 45.054 363.862C45.054 363.622 45.1362 363.423 45.3007 363.265C45.472 363.101 45.6845 363.019 45.938 363.019C46.1916 363.019 46.4006 363.101 46.5651 363.265C46.7364 363.423 46.8221 363.622 46.8221 363.862C46.8221 364.102 46.7364 364.304 46.5651 364.468C46.4006 364.626 46.1916 364.705 45.938 364.705ZM46.6473 365.383V371.078H45.2082V365.383H46.6473ZM49.7449 366.565V369.32C49.7449 369.512 49.7894 369.653 49.8785 369.742C49.9744 369.824 50.1321 369.865 50.3514 369.865H51.0196V371.078H50.1149C48.9019 371.078 48.2954 370.489 48.2954 369.31V366.565H47.6169V365.383H48.2954V363.975H49.7449V365.383H51.0196V366.565H49.7449ZM53.6275 369.567L52.4248 372.456H51.4996L52.1678 369.567H53.6275ZM59.2937 371.171C58.8276 371.171 58.4096 371.088 58.0395 370.924C57.6694 370.753 57.3747 370.523 57.1554 370.235C56.943 369.947 56.8265 369.629 56.8059 369.279H58.2554C58.2828 369.498 58.389 369.68 58.5741 369.824C58.766 369.968 59.0024 370.04 59.2834 370.04C59.5575 370.04 59.77 369.985 59.9207 369.875C60.0783 369.766 60.1572 369.625 60.1572 369.454C60.1572 369.269 60.0612 369.132 59.8693 369.043C59.6843 368.947 59.3862 368.844 58.975 368.734C58.5501 368.632 58.2006 368.525 57.9264 368.416C57.6592 368.306 57.4261 368.138 57.2274 367.912C57.0355 367.686 56.9396 367.381 56.9396 366.997C56.9396 366.682 57.0287 366.394 57.2068 366.134C57.3919 365.873 57.6523 365.667 57.9881 365.517C58.3308 365.366 58.7317 365.291 59.1909 365.291C59.8693 365.291 60.4107 365.462 60.8151 365.805C61.2194 366.14 61.4421 366.596 61.4833 367.172H60.1058C60.0852 366.946 59.9893 366.767 59.8179 366.637C59.6534 366.5 59.4307 366.432 59.1497 366.432C58.8893 366.432 58.6871 366.48 58.5432 366.576C58.4062 366.671 58.3376 366.805 58.3376 366.976C58.3376 367.168 58.4336 367.316 58.6255 367.418C58.8174 367.514 59.1155 367.614 59.5198 367.717C59.931 367.819 60.2702 367.926 60.5375 368.035C60.8048 368.145 61.0344 368.316 61.2263 368.549C61.425 368.775 61.5278 369.077 61.5347 369.454C61.5347 369.783 61.4421 370.078 61.2571 370.338C61.0789 370.598 60.8185 370.804 60.4758 370.955C60.14 371.099 59.746 371.171 59.2937 371.171ZM64.1552 366.205C64.3403 365.945 64.5938 365.729 64.9159 365.558C65.2449 365.38 65.6184 365.291 66.0364 365.291C66.523 365.291 66.9616 365.41 67.3523 365.65C67.7498 365.89 68.0616 366.233 68.2877 366.678C68.5207 367.117 68.6372 367.628 68.6372 368.21C68.6372 368.793 68.5207 369.31 68.2877 369.762C68.0616 370.208 67.7498 370.554 67.3523 370.801C66.9616 371.047 66.523 371.171 66.0364 371.171C65.6184 371.171 65.2483 371.085 64.9262 370.914C64.611 370.742 64.354 370.526 64.1552 370.266V373.792H62.716V365.383H64.1552V366.205ZM67.1672 368.21C67.1672 367.867 67.0953 367.573 66.9513 367.326C66.8143 367.072 66.6292 366.881 66.3962 366.75C66.1701 366.62 65.9234 366.555 65.6561 366.555C65.3957 366.555 65.1489 366.624 64.9159 366.761C64.6898 366.891 64.5047 367.083 64.3608 367.336C64.2238 367.59 64.1552 367.888 64.1552 368.231C64.1552 368.573 64.2238 368.871 64.3608 369.125C64.5047 369.379 64.6898 369.574 64.9159 369.711C65.1489 369.841 65.3957 369.906 65.6561 369.906C65.9234 369.906 66.1701 369.838 66.3962 369.701C66.6292 369.564 66.8143 369.368 66.9513 369.115C67.0953 368.861 67.1672 368.56 67.1672 368.21ZM69.313 368.21C69.313 367.634 69.4261 367.124 69.6522 366.678C69.8852 366.233 70.1971 365.89 70.5877 365.65C70.9852 365.41 71.4272 365.291 71.9138 365.291C72.3387 365.291 72.7088 365.376 73.024 365.548C73.3461 365.719 73.6031 365.935 73.795 366.195V365.383H75.2445V371.078H73.795V370.245C73.61 370.513 73.353 370.735 73.024 370.914C72.7019 371.085 72.3284 371.171 71.9035 371.171C71.4238 371.171 70.9852 371.047 70.5877 370.801C70.1971 370.554 69.8852 370.208 69.6522 369.762C69.4261 369.31 69.313 368.793 69.313 368.21ZM73.795 368.231C73.795 367.881 73.7265 367.583 73.5894 367.336C73.4523 367.083 73.2673 366.891 73.0343 366.761C72.8013 366.624 72.5511 366.555 72.2839 366.555C72.0166 366.555 71.7699 366.62 71.5437 366.75C71.3176 366.881 71.1325 367.072 70.9886 367.326C70.8515 367.573 70.783 367.867 70.783 368.21C70.783 368.553 70.8515 368.854 70.9886 369.115C71.1325 369.368 71.3176 369.564 71.5437 369.701C71.7767 369.838 72.0234 369.906 72.2839 369.906C72.5511 369.906 72.8013 369.841 73.0343 369.711C73.2673 369.574 73.4523 369.382 73.5894 369.135C73.7265 368.882 73.795 368.58 73.795 368.231ZM76.28 368.231C76.28 367.641 76.3999 367.127 76.6398 366.689C76.8797 366.243 77.212 365.901 77.6369 365.661C78.0618 365.414 78.5484 365.291 79.0967 365.291C79.8026 365.291 80.3851 365.469 80.8443 365.825C81.3103 366.175 81.6221 366.668 81.7797 367.305H80.2275C80.1452 367.059 80.0047 366.867 79.806 366.73C79.6141 366.586 79.3742 366.514 79.0864 366.514C78.6752 366.514 78.3497 366.665 78.1098 366.966C77.87 367.261 77.75 367.682 77.75 368.231C77.75 368.772 77.87 369.193 78.1098 369.495C78.3497 369.79 78.6752 369.937 79.0864 369.937C79.6689 369.937 80.0493 369.677 80.2275 369.156H81.7797C81.6221 369.773 81.3103 370.263 80.8443 370.626C80.3782 370.989 79.7957 371.171 79.0967 371.171C78.5484 371.171 78.0618 371.051 77.6369 370.811C77.212 370.564 76.8797 370.221 76.6398 369.783C76.3999 369.337 76.28 368.82 76.28 368.231ZM83.5639 364.705C83.3104 364.705 83.0979 364.626 82.9266 364.468C82.7621 364.304 82.6799 364.102 82.6799 363.862C82.6799 363.622 82.7621 363.423 82.9266 363.265C83.0979 363.101 83.3104 363.019 83.5639 363.019C83.8175 363.019 84.0265 363.101 84.191 363.265C84.3623 363.423 84.448 363.622 84.448 363.862C84.448 364.102 84.3623 364.304 84.191 364.468C84.0265 364.626 83.8175 364.705 83.5639 364.705ZM84.2732 365.383V371.078H82.8341V365.383H84.2732ZM88.224 371.171C87.6757 371.171 87.1823 371.051 86.7437 370.811C86.3051 370.564 85.959 370.218 85.7054 369.773C85.4587 369.327 85.3354 368.813 85.3354 368.231C85.3354 367.648 85.4621 367.134 85.7157 366.689C85.9761 366.243 86.3291 365.901 86.7745 365.661C87.22 365.414 87.7169 365.291 88.2651 365.291C88.8134 365.291 89.3102 365.414 89.7557 365.661C90.2012 365.901 90.5507 366.243 90.8042 366.689C91.0647 367.134 91.1949 367.648 91.1949 368.231C91.1949 368.813 91.0612 369.327 90.794 369.773C90.5335 370.218 90.1772 370.564 89.7249 370.811C89.2794 371.051 88.7791 371.171 88.224 371.171ZM88.224 369.917C88.4844 369.917 88.7277 369.855 88.9539 369.731C89.1869 369.601 89.3719 369.409 89.509 369.156C89.646 368.902 89.7146 368.594 89.7146 368.231C89.7146 367.689 89.5707 367.275 89.2828 366.987C89.0018 366.692 88.6558 366.545 88.2446 366.545C87.8334 366.545 87.4873 366.692 87.2063 366.987C86.9322 367.275 86.7951 367.689 86.7951 368.231C86.7951 368.772 86.9287 369.19 87.196 369.485C87.4701 369.773 87.8128 369.917 88.224 369.917ZM97.6269 365.383V371.078H96.1775V370.359C95.9924 370.605 95.7492 370.801 95.4476 370.944C95.1529 371.082 94.8308 371.15 94.4813 371.15C94.0358 371.15 93.6418 371.058 93.2991 370.873C92.9565 370.681 92.6858 370.403 92.487 370.04C92.2951 369.67 92.1992 369.231 92.1992 368.724V365.383H93.6384V368.518C93.6384 368.971 93.7514 369.32 93.9776 369.567C94.2037 369.807 94.5121 369.927 94.9028 369.927C95.3003 369.927 95.6121 369.807 95.8382 369.567C96.0644 369.32 96.1775 368.971 96.1775 368.518V365.383H97.6269ZM101.226 371.171C100.76 371.171 100.342 371.088 99.9721 370.924C99.602 370.753 99.3073 370.523 99.088 370.235C98.8756 369.947 98.7591 369.629 98.7385 369.279H100.188C100.215 369.498 100.322 369.68 100.507 369.824C100.699 369.968 100.935 370.04 101.216 370.04C101.49 370.04 101.703 369.985 101.853 369.875C102.011 369.766 102.09 369.625 102.09 369.454C102.09 369.269 101.994 369.132 101.802 369.043C101.617 368.947 101.319 368.844 100.908 368.734C100.483 368.632 100.133 368.525 99.859 368.416C99.5918 368.306 99.3587 368.138 99.16 367.912C98.9681 367.686 98.8722 367.381 98.8722 366.997C98.8722 366.682 98.9613 366.394 99.1394 366.134C99.3245 365.873 99.5849 365.667 99.9207 365.517C100.263 365.366 100.664 365.291 101.123 365.291C101.802 365.291 102.343 365.462 102.748 365.805C103.152 366.14 103.375 366.596 103.416 367.172H102.038C102.018 366.946 101.922 366.767 101.751 366.637C101.586 366.5 101.363 366.432 101.082 366.432C100.822 366.432 100.62 366.48 100.476 366.576C100.339 366.671 100.27 366.805 100.27 366.976C100.27 367.168 100.366 367.316 100.558 367.418C100.75 367.514 101.048 367.614 101.452 367.717C101.864 367.819 102.203 367.926 102.47 368.035C102.737 368.145 102.967 368.316 103.159 368.549C103.358 368.775 103.46 369.077 103.467 369.454C103.467 369.783 103.375 370.078 103.19 370.338C103.012 370.598 102.751 370.804 102.408 370.955C102.073 371.099 101.679 371.171 101.226 371.171Z" fill="#725054"/>
<path d="M15.598 379.066C15.783 378.792 16.0366 378.569 16.3587 378.398C16.6877 378.227 17.0612 378.141 17.4792 378.141C17.9658 378.141 18.4044 378.261 18.795 378.501C19.1925 378.741 19.5043 379.083 19.7305 379.529C19.9635 379.968 20.08 380.478 20.08 381.061C20.08 381.643 19.9635 382.161 19.7305 382.613C19.5043 383.058 19.1925 383.404 18.795 383.651C18.4044 383.898 17.9658 384.021 17.4792 384.021C17.0543 384.021 16.6808 383.939 16.3587 383.775C16.0435 383.603 15.7899 383.384 15.598 383.117V383.929H14.1588V376.322H15.598V379.066ZM18.61 381.061C18.61 380.718 18.538 380.423 18.3941 380.177C18.257 379.923 18.072 379.731 17.839 379.601C17.6128 379.471 17.3661 379.406 17.0989 379.406C16.8384 379.406 16.5917 379.474 16.3587 379.611C16.1325 379.741 15.9475 379.933 15.8036 380.187C15.6665 380.44 15.598 380.739 15.598 381.081C15.598 381.424 15.6665 381.722 15.8036 381.976C15.9475 382.229 16.1325 382.424 16.3587 382.561C16.5917 382.692 16.8384 382.757 17.0989 382.757C17.3661 382.757 17.6128 382.688 17.839 382.551C18.072 382.414 18.257 382.219 18.3941 381.965C18.538 381.712 18.61 381.41 18.61 381.061ZM26.5022 378.234V383.929H25.0527V383.209C24.8677 383.456 24.6244 383.651 24.3229 383.795C24.0282 383.932 23.7061 384.001 23.3566 384.001C22.9111 384.001 22.517 383.908 22.1744 383.723C21.8317 383.531 21.561 383.254 21.3623 382.89C21.1704 382.52 21.0744 382.082 21.0744 381.575V378.234H22.5136V381.369C22.5136 381.821 22.6267 382.171 22.8528 382.418C23.079 382.657 23.3874 382.777 23.778 382.777C24.1755 382.777 24.4873 382.657 24.7135 382.418C24.9397 382.171 25.0527 381.821 25.0527 381.369V378.234H26.5022ZM28.6521 377.555C28.3985 377.555 28.186 377.476 28.0147 377.319C27.8502 377.154 27.768 376.952 27.768 376.712C27.768 376.472 27.8502 376.274 28.0147 376.116C28.186 375.952 28.3985 375.869 28.6521 375.869C28.9056 375.869 29.1146 375.952 29.2791 376.116C29.4505 376.274 29.5361 376.472 29.5361 376.712C29.5361 376.952 29.4505 377.154 29.2791 377.319C29.1146 377.476 28.9056 377.555 28.6521 377.555ZM29.3614 378.234V383.929H27.9222V378.234H29.3614ZM32.2225 376.322V383.929H30.7833V376.322H32.2225ZM33.2743 381.061C33.2743 380.485 33.3874 379.974 33.6135 379.529C33.8465 379.083 34.1618 378.741 34.5593 378.501C34.9568 378.261 35.3988 378.141 35.8854 378.141C36.2555 378.141 36.6084 378.223 36.9442 378.388C37.28 378.545 37.5473 378.758 37.746 379.025V376.322H39.2058V383.929H37.746V383.086C37.5679 383.367 37.3177 383.593 36.9956 383.764C36.6735 383.936 36.3 384.021 35.8751 384.021C35.3954 384.021 34.9568 383.898 34.5593 383.651C34.1618 383.404 33.8465 383.058 33.6135 382.613C33.3874 382.161 33.2743 381.643 33.2743 381.061ZM37.7563 381.081C37.7563 380.732 37.6878 380.434 37.5507 380.187C37.4137 379.933 37.2286 379.741 36.9956 379.611C36.7626 379.474 36.5125 379.406 36.2452 379.406C35.9779 379.406 35.7312 379.471 35.505 379.601C35.2789 379.731 35.0938 379.923 34.9499 380.177C34.8128 380.423 34.7443 380.718 34.7443 381.061C34.7443 381.403 34.8128 381.705 34.9499 381.965C35.0938 382.219 35.2789 382.414 35.505 382.551C35.738 382.688 35.9848 382.757 36.2452 382.757C36.5125 382.757 36.7626 382.692 36.9956 382.561C37.2286 382.424 37.4137 382.233 37.5507 381.986C37.6878 381.732 37.7563 381.431 37.7563 381.081ZM41.3413 377.555C41.0877 377.555 40.8752 377.476 40.7039 377.319C40.5394 377.154 40.4572 376.952 40.4572 376.712C40.4572 376.472 40.5394 376.274 40.7039 376.116C40.8752 375.952 41.0877 375.869 41.3413 375.869C41.5948 375.869 41.8039 375.952 41.9683 376.116C42.1397 376.274 42.2253 376.472 42.2253 376.712C42.2253 376.952 42.1397 377.154 41.9683 377.319C41.8039 377.476 41.5948 377.555 41.3413 377.555ZM42.0506 378.234V383.929H40.6114V378.234H42.0506ZM46.6284 378.151C47.3069 378.151 47.8551 378.367 48.2732 378.799C48.6912 379.224 48.9002 379.82 48.9002 380.588V383.929H47.4611V380.783C47.4611 380.331 47.348 379.985 47.1218 379.745C46.8957 379.498 46.5873 379.375 46.1966 379.375C45.7992 379.375 45.4839 379.498 45.2509 379.745C45.0247 379.985 44.9117 380.331 44.9117 380.783V383.929H43.4725V378.234H44.9117V378.943C45.1036 378.696 45.3468 378.504 45.6415 378.367C45.9431 378.223 46.272 378.151 46.6284 378.151ZM52.4996 378.141C52.9245 378.141 53.298 378.227 53.6201 378.398C53.9422 378.563 54.1957 378.778 54.3808 379.046V378.234H55.8302V383.97C55.8302 384.498 55.724 384.967 55.5116 385.378C55.2991 385.796 54.9804 386.125 54.5555 386.365C54.1306 386.612 53.6166 386.735 53.0136 386.735C52.2049 386.735 51.5401 386.547 51.0193 386.17C50.5053 385.793 50.214 385.279 50.1455 384.628H51.5744C51.6498 384.888 51.8108 385.094 52.0575 385.245C52.3111 385.402 52.6161 385.481 52.9724 385.481C53.3905 385.481 53.7297 385.354 53.9901 385.101C54.2506 384.854 54.3808 384.477 54.3808 383.97V383.086C54.1957 383.353 53.9387 383.576 53.6098 383.754C53.2877 383.932 52.9176 384.021 52.4996 384.021C52.0198 384.021 51.5812 383.898 51.1837 383.651C50.7863 383.404 50.471 383.058 50.238 382.613C50.0118 382.161 49.8988 381.643 49.8988 381.061C49.8988 380.485 50.0118 379.974 50.238 379.529C50.471 379.083 50.7828 378.741 51.1735 378.501C51.571 378.261 52.013 378.141 52.4996 378.141ZM54.3808 381.081C54.3808 380.732 54.3122 380.434 54.1752 380.187C54.0381 379.933 53.8531 379.741 53.6201 379.611C53.3871 379.474 53.1369 379.406 52.8696 379.406C52.6024 379.406 52.3556 379.471 52.1295 379.601C51.9033 379.731 51.7183 379.923 51.5744 380.177C51.4373 380.423 51.3688 380.718 51.3688 381.061C51.3688 381.403 51.4373 381.705 51.5744 381.965C51.7183 382.219 51.9033 382.414 52.1295 382.551C52.3625 382.688 52.6092 382.757 52.8696 382.757C53.1369 382.757 53.3871 382.692 53.6201 382.561C53.8531 382.424 54.0381 382.233 54.1752 381.986C54.3122 381.732 54.3808 381.431 54.3808 381.081ZM59.3153 381.081C59.3153 380.492 59.4352 379.978 59.6751 379.539C59.9149 379.094 60.2473 378.751 60.6722 378.511C61.0971 378.265 61.5837 378.141 62.132 378.141C62.8378 378.141 63.4204 378.319 63.8795 378.676C64.3456 379.025 64.6574 379.519 64.815 380.156H63.2627C63.1805 379.909 63.04 379.717 62.8413 379.58C62.6494 379.436 62.4095 379.364 62.1217 379.364C61.7105 379.364 61.385 379.515 61.1451 379.817C60.9052 380.111 60.7853 380.533 60.7853 381.081C60.7853 381.623 60.9052 382.044 61.1451 382.346C61.385 382.64 61.7105 382.788 62.1217 382.788C62.7042 382.788 63.0846 382.527 63.2627 382.006H64.815C64.6574 382.623 64.3456 383.113 63.8795 383.476C63.4135 383.84 62.831 384.021 62.132 384.021C61.5837 384.021 61.0971 383.901 60.6722 383.661C60.2473 383.415 59.9149 383.072 59.6751 382.633C59.4352 382.188 59.3153 381.671 59.3153 381.081ZM68.3982 384.021C67.8499 384.021 67.3565 383.901 66.9179 383.661C66.4793 383.415 66.1332 383.069 65.8796 382.623C65.6329 382.178 65.5095 381.664 65.5095 381.081C65.5095 380.499 65.6363 379.985 65.8899 379.539C66.1503 379.094 66.5033 378.751 66.9487 378.511C67.3942 378.265 67.891 378.141 68.4393 378.141C68.9876 378.141 69.4844 378.265 69.9299 378.511C70.3753 378.751 70.7249 379.094 70.9784 379.539C71.2388 379.985 71.3691 380.499 71.3691 381.081C71.3691 381.664 71.2354 382.178 70.9681 382.623C70.7077 383.069 70.3514 383.415 69.899 383.661C69.4536 383.901 68.9533 384.021 68.3982 384.021ZM68.3982 382.767C68.6586 382.767 68.9019 382.705 69.1281 382.582C69.3611 382.452 69.5461 382.26 69.6832 382.006C69.8202 381.753 69.8888 381.444 69.8888 381.081C69.8888 380.54 69.7448 380.125 69.457 379.837C69.176 379.543 68.8299 379.395 68.4187 379.395C68.0075 379.395 67.6615 379.543 67.3805 379.837C67.1063 380.125 66.9693 380.54 66.9693 381.081C66.9693 381.623 67.1029 382.041 67.3702 382.335C67.6443 382.623 67.987 382.767 68.3982 382.767ZM73.8639 379.118C74.049 378.816 74.2888 378.58 74.5835 378.408C74.8851 378.237 75.2277 378.151 75.6115 378.151V379.663H75.2312C74.7788 379.663 74.4362 379.769 74.2032 379.981C73.977 380.194 73.8639 380.564 73.8639 381.091V383.929H72.4248V378.234H73.8639V379.118ZM78.0201 379.118C78.2051 378.816 78.445 378.58 78.7396 378.408C79.0412 378.237 79.3838 378.151 79.7676 378.151V379.663H79.3873C78.935 379.663 78.5923 379.769 78.3593 379.981C78.1331 380.194 78.0201 380.564 78.0201 381.091V383.929H76.5809V378.234H78.0201V379.118ZM81.4669 377.555C81.2133 377.555 81.0008 377.476 80.8295 377.319C80.665 377.154 80.5828 376.952 80.5828 376.712C80.5828 376.472 80.665 376.274 80.8295 376.116C81.0008 375.952 81.2133 375.869 81.4669 375.869C81.7204 375.869 81.9294 375.952 82.0939 376.116C82.2653 376.274 82.3509 376.472 82.3509 376.712C82.3509 376.952 82.2653 377.154 82.0939 377.319C81.9294 377.476 81.7204 377.555 81.4669 377.555ZM82.1762 378.234V383.929H80.737V378.234H82.1762ZM83.228 381.061C83.228 380.485 83.3411 379.974 83.5672 379.529C83.8003 379.083 84.1155 378.741 84.513 378.501C84.9105 378.261 85.3525 378.141 85.8391 378.141C86.2092 378.141 86.5621 378.223 86.8979 378.388C87.2337 378.545 87.501 378.758 87.6997 379.025V376.322H89.1595V383.929H87.6997V383.086C87.5216 383.367 87.2714 383.593 86.9493 383.764C86.6272 383.936 86.2537 384.021 85.8288 384.021C85.3491 384.021 84.9105 383.898 84.513 383.651C84.1155 383.404 83.8003 383.058 83.5672 382.613C83.3411 382.161 83.228 381.643 83.228 381.061ZM87.71 381.081C87.71 380.732 87.6415 380.434 87.5044 380.187C87.3674 379.933 87.1823 379.741 86.9493 379.611C86.7163 379.474 86.4662 379.406 86.1989 379.406C85.9316 379.406 85.6849 379.471 85.4587 379.601C85.2326 379.731 85.0475 379.923 84.9036 380.177C84.7666 380.423 84.698 380.718 84.698 381.061C84.698 381.403 84.7666 381.705 84.9036 381.965C85.0475 382.219 85.2326 382.414 85.4587 382.551C85.6917 382.688 85.9385 382.757 86.1989 382.757C86.4662 382.757 86.7163 382.692 86.9493 382.561C87.1823 382.424 87.3674 382.233 87.5044 381.986C87.6415 381.732 87.71 381.431 87.71 381.081ZM93.0939 384.021C92.5457 384.021 92.0523 383.901 91.6136 383.661C91.175 383.415 90.8289 383.069 90.5754 382.623C90.3287 382.178 90.2053 381.664 90.2053 381.081C90.2053 380.499 90.3321 379.985 90.5857 379.539C90.8461 379.094 91.199 378.751 91.6445 378.511C92.0899 378.265 92.5868 378.141 93.1351 378.141C93.6833 378.141 94.1802 378.265 94.6256 378.511C95.0711 378.751 95.4206 379.094 95.6742 379.539C95.9346 379.985 96.0648 380.499 96.0648 381.081C96.0648 381.664 95.9312 382.178 95.6639 382.623C95.4035 383.069 95.0471 383.415 94.5948 383.661C94.1493 383.901 93.6491 384.021 93.0939 384.021ZM93.0939 382.767C93.3544 382.767 93.5977 382.705 93.8238 382.582C94.0568 382.452 94.2419 382.26 94.3789 382.006C94.516 381.753 94.5845 381.444 94.5845 381.081C94.5845 380.54 94.4406 380.125 94.1528 379.837C93.8718 379.543 93.5257 379.395 93.1145 379.395C92.7033 379.395 92.3572 379.543 92.0762 379.837C91.8021 380.125 91.665 380.54 91.665 381.081C91.665 381.623 91.7987 382.041 92.066 382.335C92.3401 382.623 92.6828 382.767 93.0939 382.767ZM98.5597 379.118C98.7447 378.816 98.9846 378.58 99.2793 378.408C99.5808 378.237 99.9235 378.151 100.307 378.151V379.663H99.9269C99.4746 379.663 99.1319 379.769 98.8989 379.981C98.6728 380.194 98.5597 380.564 98.5597 381.091V383.929H97.1205V378.234H98.5597V379.118ZM103.456 384.021C102.99 384.021 102.572 383.939 102.202 383.775C101.832 383.603 101.537 383.374 101.318 383.086C101.105 382.798 100.989 382.479 100.968 382.13H102.418C102.445 382.349 102.551 382.531 102.736 382.675C102.928 382.818 103.165 382.89 103.446 382.89C103.72 382.89 103.932 382.836 104.083 382.726C104.241 382.616 104.319 382.476 104.319 382.304C104.319 382.119 104.224 381.982 104.032 381.893C103.847 381.797 103.548 381.695 103.137 381.585C102.712 381.482 102.363 381.376 102.089 381.266C101.821 381.157 101.588 380.989 101.39 380.763C101.198 380.536 101.102 380.231 101.102 379.848C101.102 379.532 101.191 379.245 101.369 378.984C101.554 378.724 101.815 378.518 102.15 378.367C102.493 378.217 102.894 378.141 103.353 378.141C104.032 378.141 104.573 378.312 104.977 378.655C105.382 378.991 105.604 379.447 105.646 380.022H104.268C104.248 379.796 104.152 379.618 103.98 379.488C103.816 379.351 103.593 379.282 103.312 379.282C103.052 379.282 102.849 379.33 102.706 379.426C102.568 379.522 102.5 379.656 102.5 379.827C102.5 380.019 102.596 380.166 102.788 380.269C102.98 380.365 103.278 380.464 103.682 380.567C104.093 380.67 104.433 380.776 104.7 380.886C104.967 380.996 105.197 381.167 105.389 381.4C105.587 381.626 105.69 381.928 105.697 382.304C105.697 382.633 105.604 382.928 105.419 383.189C105.241 383.449 104.981 383.655 104.638 383.805C104.302 383.949 103.908 384.021 103.456 384.021Z" fill="#725054"/>
</svg>
