<svg width="113" height="373" viewBox="0 0 113 373" fill="none" xmlns="http://www.w3.org/2000/svg">
<path d="M3.68676 52.8522C3.18647 52.8522 2.73416 52.7666 2.32982 52.5952C1.93233 52.4239 1.61708 52.1772 1.38407 51.8551C1.15106 51.533 1.03113 51.1526 1.02427 50.714H2.56625C2.58681 51.0087 2.68961 51.2417 2.87465 51.4131C3.06654 51.5844 3.32696 51.67 3.65592 51.67C3.99173 51.67 4.25558 51.5912 4.44747 51.4336C4.63936 51.2691 4.7353 51.0567 4.7353 50.7963C4.7353 50.5838 4.6702 50.4091 4.53999 50.272C4.40977 50.1349 4.2453 50.0287 4.04655 49.9533C3.85466 49.8711 3.58739 49.782 3.24472 49.686C2.7787 49.549 2.39835 49.4153 2.10366 49.2851C1.81582 49.1481 1.56568 48.9459 1.35323 48.6786C1.14763 48.4045 1.04483 48.0413 1.04483 47.5889C1.04483 47.164 1.15106 46.794 1.36351 46.4787C1.57596 46.1635 1.87408 45.9236 2.25786 45.7591C2.64164 45.5878 3.08025 45.5021 3.57368 45.5021C4.31383 45.5021 4.91349 45.6837 5.37266 46.047C5.83868 46.4033 6.09567 46.9036 6.14365 47.5478H4.56055C4.54684 47.3011 4.44061 47.0989 4.24187 46.9413C4.04998 46.7768 3.79298 46.6946 3.47088 46.6946C3.1899 46.6946 2.96374 46.7666 2.79241 46.9105C2.62793 47.0544 2.54569 47.2634 2.54569 47.5375C2.54569 47.7294 2.60737 47.8905 2.73073 48.0207C2.86094 48.1441 3.01857 48.2469 3.2036 48.3291C3.39549 48.4045 3.66277 48.4936 4.00543 48.5964C4.47145 48.7334 4.85181 48.8705 5.1465 49.0076C5.44119 49.1446 5.69476 49.3502 5.90721 49.6244C6.11966 49.8985 6.22588 50.2583 6.22588 50.7037C6.22588 51.0875 6.12651 51.4439 5.92777 51.7728C5.72902 52.1018 5.43776 52.3657 5.05398 52.5644C4.6702 52.7563 4.21446 52.8522 3.68676 52.8522ZM8.91278 47.9076C9.09782 47.6472 9.35139 47.4313 9.67349 47.26C10.0024 47.0818 10.376 46.9927 10.794 46.9927C11.2806 46.9927 11.7192 47.1126 12.1098 47.3525C12.5073 47.5924 12.8191 47.935 13.0453 48.3805C13.2783 48.8191 13.3948 49.3297 13.3948 49.9122C13.3948 50.4947 13.2783 51.0121 13.0453 51.4645C12.8191 51.9099 12.5073 52.256 12.1098 52.5027C11.7192 52.7494 11.2806 52.8728 10.794 52.8728C10.376 52.8728 10.0059 52.7871 9.68377 52.6158C9.36852 52.4445 9.11153 52.2286 8.91278 51.9682V55.4942H7.4736V47.0852H8.91278V47.9076ZM11.9248 49.9122C11.9248 49.5695 11.8528 49.2748 11.7089 49.0281C11.5718 48.7746 11.3868 48.5827 11.1538 48.4525C10.9276 48.3222 10.6809 48.2571 10.4136 48.2571C10.1532 48.2571 9.9065 48.3257 9.67349 48.4627C9.44734 48.5929 9.2623 48.7848 9.11838 49.0384C8.98132 49.292 8.91278 49.5901 8.91278 49.9328C8.91278 50.2754 8.98132 50.5735 9.11838 50.8271C9.2623 51.0807 9.44734 51.276 9.67349 51.4131C9.9065 51.5433 10.1532 51.6084 10.4136 51.6084C10.6809 51.6084 10.9276 51.5398 11.1538 51.4028C11.3868 51.2657 11.5718 51.0704 11.7089 50.8168C11.8528 50.5632 11.9248 50.2617 11.9248 49.9122ZM14.0705 49.9122C14.0705 49.3365 14.1836 48.826 14.4098 48.3805C14.6428 47.935 14.9546 47.5924 15.3452 47.3525C15.7427 47.1126 16.1848 46.9927 16.6713 46.9927C17.0963 46.9927 17.4663 47.0784 17.7816 47.2497C18.1037 47.421 18.3607 47.6369 18.5526 47.8973V47.0852H20.002V52.7803H18.5526V51.9476C18.3675 52.2149 18.1105 52.4376 17.7816 52.6158C17.4595 52.7871 17.086 52.8728 16.6611 52.8728C16.1813 52.8728 15.7427 52.7494 15.3452 52.5027C14.9546 52.256 14.6428 51.9099 14.4098 51.4645C14.1836 51.0121 14.0705 50.4947 14.0705 49.9122ZM18.5526 49.9328C18.5526 49.5832 18.484 49.2851 18.347 49.0384C18.2099 48.7848 18.0249 48.5929 17.7919 48.4627C17.5588 48.3257 17.3087 48.2571 17.0414 48.2571C16.7741 48.2571 16.5274 48.3222 16.3013 48.4525C16.0751 48.5827 15.8901 48.7746 15.7462 49.0281C15.6091 49.2748 15.5406 49.5695 15.5406 49.9122C15.5406 50.2549 15.6091 50.5564 15.7462 50.8168C15.8901 51.0704 16.0751 51.2657 16.3013 51.4028C16.5343 51.5398 16.781 51.6084 17.0414 51.6084C17.3087 51.6084 17.5588 51.5433 17.7919 51.4131C18.0249 51.276 18.2099 51.0841 18.347 50.8374C18.484 50.5838 18.5526 50.2823 18.5526 49.9328ZM21.0376 49.9328C21.0376 49.3434 21.1575 48.8294 21.3974 48.3908C21.6372 47.9453 21.9696 47.6026 22.3945 47.3628C22.8194 47.1161 23.306 46.9927 23.8542 46.9927C24.5601 46.9927 25.1427 47.1709 25.6018 47.5273C26.0678 47.8768 26.3797 48.3702 26.5373 49.0076H24.985C24.9028 48.7608 24.7623 48.569 24.5636 48.4319C24.3717 48.288 24.1318 48.216 23.844 48.216C23.4328 48.216 23.1072 48.3668 22.8674 48.6683C22.6275 48.963 22.5076 49.3845 22.5076 49.9328C22.5076 50.4742 22.6275 50.8956 22.8674 51.1972C23.1072 51.4919 23.4328 51.6392 23.844 51.6392C24.4265 51.6392 24.8068 51.3788 24.985 50.8579H26.5373C26.3797 51.4747 26.0678 51.9647 25.6018 52.328C25.1358 52.6912 24.5533 52.8728 23.8542 52.8728C23.306 52.8728 22.8194 52.7529 22.3945 52.513C21.9696 52.2663 21.6372 51.9236 21.3974 51.485C21.1575 51.0395 21.0376 50.5221 21.0376 49.9328ZM28.3215 46.4068C28.0679 46.4068 27.8555 46.3279 27.6841 46.1703C27.5197 46.0058 27.4374 45.8037 27.4374 45.5638C27.4374 45.3239 27.5197 45.1252 27.6841 44.9676C27.8555 44.8031 28.0679 44.7209 28.3215 44.7209C28.5751 44.7209 28.7841 44.8031 28.9486 44.9676C29.1199 45.1252 29.2056 45.3239 29.2056 45.5638C29.2056 45.8037 29.1199 46.0058 28.9486 46.1703C28.7841 46.3279 28.5751 46.4068 28.3215 46.4068ZM29.0308 47.0852V52.7803H27.5916V47.0852H29.0308ZM32.9816 52.8728C32.4333 52.8728 31.9399 52.7529 31.5013 52.513C31.0626 52.2663 30.7166 51.9202 30.463 51.4747C30.2163 51.0293 30.0929 50.5153 30.0929 49.9328C30.0929 49.3502 30.2197 48.8362 30.4733 48.3908C30.7337 47.9453 31.0866 47.6026 31.5321 47.3628C31.9776 47.1161 32.4744 46.9927 33.0227 46.9927C33.5709 46.9927 34.0678 47.1161 34.5133 47.3628C34.9587 47.6026 35.3082 47.9453 35.5618 48.3908C35.8222 48.8362 35.9524 49.3502 35.9524 49.9328C35.9524 50.5153 35.8188 51.0293 35.5515 51.4747C35.2911 51.9202 34.9347 52.2663 34.4824 52.513C34.037 52.7529 33.5367 52.8728 32.9816 52.8728ZM32.9816 51.6186C33.242 51.6186 33.4853 51.557 33.7114 51.4336C33.9444 51.3034 34.1295 51.1115 34.2665 50.8579C34.4036 50.6044 34.4721 50.296 34.4721 49.9328C34.4721 49.3913 34.3282 48.9767 34.0404 48.6889C33.7594 48.3942 33.4133 48.2469 33.0021 48.2469C32.5909 48.2469 32.2448 48.3942 31.9639 48.6889C31.6897 48.9767 31.5527 49.3913 31.5527 49.9328C31.5527 50.4742 31.6863 50.8922 31.9536 51.1869C32.2277 51.4747 32.5704 51.6186 32.9816 51.6186ZM42.3845 47.0852V52.7803H40.935V52.0607C40.75 52.3074 40.5067 52.5027 40.2052 52.6466C39.9105 52.7837 39.5884 52.8522 39.2389 52.8522C38.7934 52.8522 38.3993 52.7597 38.0567 52.5747C37.714 52.3828 37.4433 52.1052 37.2446 51.742C37.0527 51.3719 36.9567 50.9333 36.9567 50.4262V47.0852H38.3959V50.2206C38.3959 50.6729 38.509 51.0224 38.7351 51.2691C38.9613 51.509 39.2697 51.6289 39.6603 51.6289C40.0578 51.6289 40.3696 51.509 40.5958 51.2691C40.822 51.0224 40.935 50.6729 40.935 50.2206V47.0852H42.3845ZM45.9838 52.8728C45.5178 52.8728 45.0998 52.7906 44.7297 52.6261C44.3596 52.4547 44.0649 52.2252 43.8456 51.9373C43.6332 51.6495 43.5167 51.3308 43.4961 50.9813H44.9456C44.973 51.2006 45.0792 51.3822 45.2642 51.5261C45.4561 51.67 45.6926 51.742 45.9735 51.742C46.2477 51.742 46.4601 51.6872 46.6109 51.5775C46.7685 51.4679 46.8473 51.3274 46.8473 51.1561C46.8473 50.971 46.7514 50.834 46.5595 50.7449C46.3745 50.6489 46.0763 50.5461 45.6651 50.4365C45.2402 50.3337 44.8907 50.2274 44.6166 50.1178C44.3493 50.0081 44.1163 49.8402 43.9176 49.6141C43.7257 49.3879 43.6297 49.0829 43.6297 48.6992C43.6297 48.3839 43.7188 48.0961 43.897 47.8357C44.082 47.5752 44.3425 47.3696 44.6783 47.2189C45.0209 47.0681 45.4219 46.9927 45.881 46.9927C46.5595 46.9927 47.1009 47.164 47.5052 47.5067C47.9096 47.8425 48.1323 48.2983 48.1734 48.8739H46.7959C46.7754 48.6478 46.6794 48.4696 46.5081 48.3394C46.3436 48.2023 46.1209 48.1338 45.8399 48.1338C45.5795 48.1338 45.3773 48.1817 45.2334 48.2777C45.0963 48.3736 45.0278 48.5073 45.0278 48.6786C45.0278 48.8705 45.1237 49.0178 45.3156 49.1206C45.5075 49.2166 45.8056 49.316 46.21 49.4188C46.6212 49.5216 46.9604 49.6278 47.2277 49.7374C47.495 49.8471 47.7245 50.0184 47.9164 50.2514C48.1152 50.4776 48.218 50.7791 48.2248 51.1561C48.2248 51.485 48.1323 51.7797 47.9473 52.0401C47.7691 52.3005 47.5087 52.5061 47.166 52.6569C46.8302 52.8008 46.4361 52.8728 45.9838 52.8728ZM51.4856 49.9328C51.4856 49.3434 51.6056 48.8294 51.8454 48.3908C52.0853 47.9453 52.4177 47.6026 52.8426 47.3628C53.2675 47.1161 53.7541 46.9927 54.3023 46.9927C55.0082 46.9927 55.5907 47.1709 56.0499 47.5273C56.5159 47.8768 56.8277 48.3702 56.9854 49.0076H55.4331C55.3509 48.7608 55.2104 48.569 55.0116 48.4319C54.8197 48.288 54.5799 48.216 54.292 48.216C53.8808 48.216 53.5553 48.3668 53.3154 48.6683C53.0756 48.963 52.9557 49.3845 52.9557 49.9328C52.9557 50.4742 53.0756 50.8956 53.3154 51.1972C53.5553 51.4919 53.8808 51.6392 54.292 51.6392C54.8746 51.6392 55.2549 51.3788 55.4331 50.8579H56.9854C56.8277 51.4747 56.5159 51.9647 56.0499 52.328C55.5839 52.6912 55.0013 52.8728 54.3023 52.8728C53.7541 52.8728 53.2675 52.7529 52.8426 52.513C52.4177 52.2663 52.0853 51.9236 51.8454 51.485C51.6056 51.0395 51.4856 50.5221 51.4856 49.9328ZM57.6696 49.9122C57.6696 49.3365 57.7827 48.826 58.0088 48.3805C58.2419 47.935 58.5537 47.5924 58.9443 47.3525C59.3418 47.1126 59.7838 46.9927 60.2704 46.9927C60.6953 46.9927 61.0654 47.0784 61.3806 47.2497C61.7027 47.421 61.9597 47.6369 62.1516 47.8973V47.0852H63.6011V52.7803H62.1516V51.9476C61.9666 52.2149 61.7096 52.4376 61.3806 52.6158C61.0585 52.7871 60.685 52.8728 60.2601 52.8728C59.7804 52.8728 59.3418 52.7494 58.9443 52.5027C58.5537 52.256 58.2419 51.9099 58.0088 51.4645C57.7827 51.0121 57.6696 50.4947 57.6696 49.9122ZM62.1516 49.9328C62.1516 49.5832 62.0831 49.2851 61.946 49.0384C61.809 48.7848 61.6239 48.5929 61.3909 48.4627C61.1579 48.3257 60.9078 48.2571 60.6405 48.2571C60.3732 48.2571 60.1265 48.3222 59.9003 48.4525C59.6742 48.5827 59.4891 48.7746 59.3452 49.0281C59.2082 49.2748 59.1396 49.5695 59.1396 49.9122C59.1396 50.2549 59.2082 50.5564 59.3452 50.8168C59.4891 51.0704 59.6742 51.2657 59.9003 51.4028C60.1334 51.5398 60.3801 51.6084 60.6405 51.6084C60.9078 51.6084 61.1579 51.5433 61.3909 51.4131C61.6239 51.276 61.809 51.0841 61.946 50.8374C62.0831 50.5838 62.1516 50.2823 62.1516 49.9328ZM66.4459 47.9693C66.6309 47.6678 66.8708 47.4313 67.1655 47.26C67.467 47.0887 67.8097 47.003 68.1935 47.003V48.5141H67.8131C67.3608 48.5141 67.0181 48.6204 66.7851 48.8328C66.559 49.0453 66.4459 49.4153 66.4459 49.943V52.7803H65.0067V47.0852H66.4459V47.9693ZM73.0515 47.9076C73.2365 47.6472 73.4901 47.4313 73.8122 47.26C74.1412 47.0818 74.5147 46.9927 74.9327 46.9927C75.4193 46.9927 75.8579 47.1126 76.2485 47.3525C76.646 47.5924 76.9578 47.935 77.184 48.3805C77.417 48.8191 77.5335 49.3297 77.5335 49.9122C77.5335 50.4947 77.417 51.0121 77.184 51.4645C76.9578 51.9099 76.646 52.256 76.2485 52.5027C75.8579 52.7494 75.4193 52.8728 74.9327 52.8728C74.5147 52.8728 74.1446 52.7871 73.8225 52.6158C73.5072 52.4445 73.2502 52.2286 73.0515 51.9682V55.4942H71.6123V47.0852H73.0515V47.9076ZM76.0635 49.9122C76.0635 49.5695 75.9915 49.2748 75.8476 49.0281C75.7106 48.7746 75.5255 48.5827 75.2925 48.4525C75.0664 48.3222 74.8196 48.2571 74.5524 48.2571C74.2919 48.2571 74.0452 48.3257 73.8122 48.4627C73.5861 48.5929 73.401 48.7848 73.2571 49.0384C73.12 49.292 73.0515 49.5901 73.0515 49.9328C73.0515 50.2754 73.12 50.5735 73.2571 50.8271C73.401 51.0807 73.5861 51.276 73.8122 51.4131C74.0452 51.5433 74.2919 51.6084 74.5524 51.6084C74.8196 51.6084 75.0664 51.5398 75.2925 51.4028C75.5255 51.2657 75.7106 51.0704 75.8476 50.8168C75.9915 50.5632 76.0635 50.2617 76.0635 49.9122ZM78.2093 49.9122C78.2093 49.3365 78.3223 48.826 78.5485 48.3805C78.7815 47.935 79.0933 47.5924 79.484 47.3525C79.8815 47.1126 80.3235 46.9927 80.8101 46.9927C81.235 46.9927 81.605 47.0784 81.9203 47.2497C82.2424 47.421 82.4994 47.6369 82.6913 47.8973V47.0852H84.1407V52.7803H82.6913V51.9476C82.5062 52.2149 82.2492 52.4376 81.9203 52.6158C81.5982 52.7871 81.2247 52.8728 80.7998 52.8728C80.3201 52.8728 79.8815 52.7494 79.484 52.5027C79.0933 52.256 78.7815 51.9099 78.5485 51.4645C78.3223 51.0121 78.2093 50.4947 78.2093 49.9122ZM82.6913 49.9328C82.6913 49.5832 82.6227 49.2851 82.4857 49.0384C82.3486 48.7848 82.1636 48.5929 81.9306 48.4627C81.6976 48.3257 81.4474 48.2571 81.1801 48.2571C80.9129 48.2571 80.6661 48.3222 80.44 48.4525C80.2138 48.5827 80.0288 48.7746 79.8849 49.0281C79.7478 49.2748 79.6793 49.5695 79.6793 49.9122C79.6793 50.2549 79.7478 50.5564 79.8849 50.8168C80.0288 51.0704 80.2138 51.2657 80.44 51.4028C80.673 51.5398 80.9197 51.6084 81.1801 51.6084C81.4474 51.6084 81.6976 51.5433 81.9306 51.4131C82.1636 51.276 82.3486 51.0841 82.4857 50.8374C82.6227 50.5838 82.6913 50.2823 82.6913 49.9328ZM86.9855 47.9693C87.1706 47.6678 87.4104 47.4313 87.7051 47.26C88.0067 47.0887 88.3493 47.003 88.7331 47.003V48.5141H88.3528C87.9004 48.5141 87.5578 48.6204 87.3248 48.8328C87.0986 49.0453 86.9855 49.4153 86.9855 49.943V52.7803H85.5464V47.0852H86.9855V47.9693ZM93.0743 52.7803L91.1416 50.3542V52.7803H89.7025V45.1732H91.1416V49.501L93.0537 47.0852H94.9246L92.4164 49.943L94.9452 52.7803H93.0743ZM96.4356 46.4068C96.182 46.4068 95.9696 46.3279 95.7983 46.1703C95.6338 46.0058 95.5515 45.8037 95.5515 45.5638C95.5515 45.3239 95.6338 45.1252 95.7983 44.9676C95.9696 44.8031 96.182 44.7209 96.4356 44.7209C96.6892 44.7209 96.8982 44.8031 97.0627 44.9676C97.234 45.1252 97.3197 45.3239 97.3197 45.5638C97.3197 45.8037 97.234 46.0058 97.0627 46.1703C96.8982 46.3279 96.6892 46.4068 96.4356 46.4068ZM97.1449 47.0852V52.7803H95.7057V47.0852H97.1449ZM101.723 47.003C102.401 47.003 102.949 47.2189 103.368 47.6506C103.786 48.0755 103.995 48.6718 103.995 49.4393V52.7803H102.555V49.6346C102.555 49.1823 102.442 48.8362 102.216 48.5964C101.99 48.3497 101.682 48.2263 101.291 48.2263C100.894 48.2263 100.578 48.3497 100.345 48.5964C100.119 48.8362 100.006 49.1823 100.006 49.6346V52.7803H98.5668V47.0852H100.006V47.7945C100.198 47.5478 100.441 47.3559 100.736 47.2189C101.037 47.0749 101.366 47.003 101.723 47.003ZM107.594 46.9927C108.019 46.9927 108.392 47.0784 108.714 47.2497C109.037 47.4142 109.29 47.6301 109.475 47.8973V47.0852H110.925V52.8214C110.925 53.3491 110.818 53.8185 110.606 54.2297C110.393 54.6478 110.075 54.9767 109.65 55.2166C109.225 55.4633 108.711 55.5867 108.108 55.5867C107.299 55.5867 106.634 55.3982 106.114 55.0213C105.6 54.6444 105.308 54.1304 105.24 53.4793H106.669C106.744 53.7397 106.905 53.9453 107.152 54.0961C107.405 54.2537 107.71 54.3325 108.067 54.3325C108.485 54.3325 108.824 54.2057 109.085 53.9522C109.345 53.7055 109.475 53.3285 109.475 52.8214V51.9373C109.29 52.2046 109.033 52.4273 108.704 52.6055C108.382 52.7837 108.012 52.8728 107.594 52.8728C107.114 52.8728 106.676 52.7494 106.278 52.5027C105.881 52.256 105.565 51.9099 105.332 51.4645C105.106 51.0121 104.993 50.4947 104.993 49.9122C104.993 49.3365 105.106 48.826 105.332 48.3805C105.565 47.935 105.877 47.5924 106.268 47.3525C106.665 47.1126 107.107 46.9927 107.594 46.9927ZM109.475 49.9328C109.475 49.5832 109.407 49.2851 109.27 49.0384C109.132 48.7848 108.947 48.5929 108.714 48.4627C108.481 48.3257 108.231 48.2571 107.964 48.2571C107.697 48.2571 107.45 48.3222 107.224 48.4525C106.998 48.5827 106.813 48.7746 106.669 49.0281C106.532 49.2748 106.463 49.5695 106.463 49.9122C106.463 50.2549 106.532 50.5564 106.669 50.8168C106.813 51.0704 106.998 51.2657 107.224 51.4028C107.457 51.5398 107.704 51.6084 107.964 51.6084C108.231 51.6084 108.481 51.5433 108.714 51.4131C108.947 51.276 109.132 51.0841 109.27 50.8374C109.407 50.5838 109.475 50.2823 109.475 49.9328Z" fill="#725054"/>
<path d="M6.18676 154.068C5.68647 154.068 5.23416 153.982 4.82982 153.811C4.43233 153.64 4.11708 153.393 3.88407 153.071C3.65106 152.749 3.53113 152.368 3.52427 151.93H5.06625C5.08681 152.225 5.18961 152.458 5.37465 152.629C5.56654 152.8 5.82696 152.886 6.15592 152.886C6.49173 152.886 6.75558 152.807 6.94747 152.649C7.13936 152.485 7.2353 152.273 7.2353 152.012C7.2353 151.8 7.1702 151.625 7.03999 151.488C6.90977 151.351 6.7453 151.245 6.54655 151.169C6.35466 151.087 6.08739 150.998 5.74472 150.902C5.2787 150.765 4.89835 150.631 4.60366 150.501C4.31582 150.364 4.06568 150.162 3.85323 149.894C3.64763 149.62 3.54483 149.257 3.54483 148.805C3.54483 148.38 3.65106 148.01 3.86351 147.695C4.07596 147.379 4.37408 147.139 4.75786 146.975C5.14164 146.804 5.58025 146.718 6.07368 146.718C6.81383 146.718 7.41349 146.9 7.87266 147.263C8.33868 147.619 8.59567 148.119 8.64365 148.764H7.06055C7.04684 148.517 6.94061 148.315 6.74187 148.157C6.54998 147.993 6.29298 147.91 5.97088 147.91C5.6899 147.91 5.46374 147.982 5.29241 148.126C5.12793 148.27 5.04569 148.479 5.04569 148.753C5.04569 148.945 5.10737 149.106 5.23073 149.237C5.36094 149.36 5.51857 149.463 5.7036 149.545C5.89549 149.62 6.16277 149.709 6.50543 149.812C6.97145 149.949 7.35181 150.086 7.6465 150.223C7.94119 150.36 8.19476 150.566 8.40721 150.84C8.61966 151.114 8.72588 151.474 8.72588 151.92C8.72588 152.303 8.62651 152.66 8.42777 152.989C8.22902 153.318 7.93776 153.581 7.55398 153.78C7.1702 153.972 6.71446 154.068 6.18676 154.068ZM17.8685 148.301L16.2032 153.996H14.6509L13.6127 150.018L12.5744 153.996H11.0119L9.33625 148.301H10.796L11.8034 152.639L12.8931 148.301H14.4145L15.4836 152.629L16.491 148.301H17.8685ZM19.3771 147.623C19.1235 147.623 18.9111 147.544 18.7398 147.386C18.5753 147.222 18.493 147.019 18.493 146.78C18.493 146.54 18.5753 146.341 18.7398 146.183C18.9111 146.019 19.1235 145.937 19.3771 145.937C19.6307 145.937 19.8397 146.019 20.0042 146.183C20.1755 146.341 20.2612 146.54 20.2612 146.78C20.2612 147.019 20.1755 147.222 20.0042 147.386C19.8397 147.544 19.6307 147.623 19.3771 147.623ZM20.0864 148.301V153.996H18.6472V148.301H20.0864ZM28.5809 148.219C29.2799 148.219 29.8419 148.435 30.2668 148.866C30.6985 149.291 30.9144 149.888 30.9144 150.655V153.996H29.4752V150.85C29.4752 150.405 29.3621 150.066 29.136 149.833C28.9098 149.593 28.6014 149.473 28.2108 149.473C27.8202 149.473 27.5083 149.593 27.2753 149.833C27.0492 150.066 26.9361 150.405 26.9361 150.85V153.996H25.4969V150.85C25.4969 150.405 25.3838 150.066 25.1577 149.833C24.9315 149.593 24.6231 149.473 24.2325 149.473C23.835 149.473 23.5198 149.593 23.2867 149.833C23.0606 150.066 22.9475 150.405 22.9475 150.85V153.996H21.5083V148.301H22.9475V148.99C23.1325 148.75 23.369 148.561 23.6568 148.424C23.9515 148.287 24.2736 148.219 24.6231 148.219C25.0686 148.219 25.4661 148.315 25.8156 148.507C26.1651 148.692 26.4358 148.959 26.6277 149.308C26.8127 148.98 27.08 148.716 27.4295 148.517C27.7859 148.318 28.1697 148.219 28.5809 148.219ZM39.3526 148.219C40.0517 148.219 40.6136 148.435 41.0385 148.866C41.4703 149.291 41.6862 149.888 41.6862 150.655V153.996H40.247V150.85C40.247 150.405 40.1339 150.066 39.9078 149.833C39.6816 149.593 39.3732 149.473 38.9826 149.473C38.5919 149.473 38.2801 149.593 38.0471 149.833C37.8209 150.066 37.7079 150.405 37.7079 150.85V153.996H36.2687V150.85C36.2687 150.405 36.1556 150.066 35.9295 149.833C35.7033 149.593 35.3949 149.473 35.0043 149.473C34.6068 149.473 34.2915 149.593 34.0585 149.833C33.8324 150.066 33.7193 150.405 33.7193 150.85V153.996H32.2801V148.301H33.7193V148.99C33.9043 148.75 34.1408 148.561 34.4286 148.424C34.7233 148.287 35.0454 148.219 35.3949 148.219C35.8404 148.219 36.2378 148.315 36.5874 148.507C36.9369 148.692 37.2076 148.959 37.3995 149.308C37.5845 148.98 37.8518 148.716 38.2013 148.517C38.5577 148.318 38.9415 148.219 39.3526 148.219ZM43.7817 147.623C43.5282 147.623 43.3157 147.544 43.1444 147.386C42.9799 147.222 42.8977 147.019 42.8977 146.78C42.8977 146.54 42.9799 146.341 43.1444 146.183C43.3157 146.019 43.5282 145.937 43.7817 145.937C44.0353 145.937 44.2443 146.019 44.4088 146.183C44.5801 146.341 44.6658 146.54 44.6658 146.78C44.6658 147.019 44.5801 147.222 44.4088 147.386C44.2443 147.544 44.0353 147.623 43.7817 147.623ZM44.4911 148.301V153.996H43.0519V148.301H44.4911ZM49.0689 148.219C49.7474 148.219 50.2956 148.435 50.7137 148.866C51.1317 149.291 51.3407 149.888 51.3407 150.655V153.996H49.9016V150.85C49.9016 150.398 49.7885 150.052 49.5623 149.812C49.3362 149.565 49.0278 149.442 48.6371 149.442C48.2396 149.442 47.9244 149.565 47.6914 149.812C47.4652 150.052 47.3521 150.398 47.3521 150.85V153.996H45.913V148.301H47.3521V149.01C47.544 148.764 47.7873 148.572 48.082 148.435C48.3836 148.291 48.7125 148.219 49.0689 148.219ZM54.9401 148.209C55.365 148.209 55.7385 148.294 56.0606 148.466C56.3827 148.63 56.6362 148.846 56.8213 149.113V148.301H58.2707V154.037C58.2707 154.565 58.1645 155.034 57.9521 155.446C57.7396 155.864 57.4209 156.193 56.996 156.432C56.5711 156.679 56.0571 156.802 55.454 156.802C54.6454 156.802 53.9806 156.614 53.4598 156.237C52.9458 155.86 52.6545 155.346 52.586 154.695H54.0149C54.0903 154.956 54.2513 155.161 54.498 155.312C54.7516 155.47 55.0566 155.548 55.4129 155.548C55.831 155.548 56.1702 155.422 56.4306 155.168C56.6911 154.921 56.8213 154.544 56.8213 154.037V153.153C56.6362 153.42 56.3792 153.643 56.0503 153.821C55.7282 154 55.3581 154.089 54.9401 154.089C54.4603 154.089 54.0217 153.965 53.6242 153.719C53.2267 153.472 52.9115 153.126 52.6785 152.68C52.4523 152.228 52.3392 151.711 52.3392 151.128C52.3392 150.552 52.4523 150.042 52.6785 149.596C52.9115 149.151 53.2233 148.808 53.614 148.568C54.0114 148.328 54.4535 148.209 54.9401 148.209ZM56.8213 151.149C56.8213 150.799 56.7527 150.501 56.6157 150.254C56.4786 150.001 56.2936 149.809 56.0606 149.679C55.8275 149.541 55.5774 149.473 55.3101 149.473C55.0429 149.473 54.7961 149.538 54.57 149.668C54.3438 149.798 54.1588 149.99 54.0149 150.244C53.8778 150.491 53.8093 150.785 53.8093 151.128C53.8093 151.471 53.8778 151.772 54.0149 152.033C54.1588 152.286 54.3438 152.482 54.57 152.619C54.803 152.756 55.0497 152.824 55.3101 152.824C55.5774 152.824 55.8275 152.759 56.0606 152.629C56.2936 152.492 56.4786 152.3 56.6157 152.053C56.7527 151.8 56.8213 151.498 56.8213 151.149ZM63.565 149.123C63.7501 148.863 64.0036 148.647 64.3257 148.476C64.6547 148.298 65.0282 148.209 65.4462 148.209C65.9328 148.209 66.3714 148.328 66.7621 148.568C67.1595 148.808 67.4714 149.151 67.6975 149.596C67.9305 150.035 68.047 150.545 68.047 151.128C68.047 151.711 67.9305 152.228 67.6975 152.68C67.4714 153.126 67.1595 153.472 66.7621 153.719C66.3714 153.965 65.9328 154.089 65.4462 154.089C65.0282 154.089 64.6581 154.003 64.336 153.832C64.0208 153.66 63.7638 153.444 63.565 153.184V156.71H62.1258V148.301H63.565V149.123ZM66.577 151.128C66.577 150.785 66.5051 150.491 66.3611 150.244C66.2241 149.99 66.039 149.798 65.806 149.668C65.5799 149.538 65.3332 149.473 65.0659 149.473C64.8055 149.473 64.5587 149.541 64.3257 149.679C64.0996 149.809 63.9145 150.001 63.7706 150.254C63.6336 150.508 63.565 150.806 63.565 151.149C63.565 151.491 63.6336 151.789 63.7706 152.043C63.9145 152.296 64.0996 152.492 64.3257 152.629C64.5587 152.759 64.8055 152.824 65.0659 152.824C65.3332 152.824 65.5799 152.756 65.806 152.619C66.039 152.482 66.2241 152.286 66.3611 152.033C66.5051 151.779 66.577 151.478 66.577 151.128ZM71.6217 154.089C71.0734 154.089 70.58 153.969 70.1414 153.729C69.7028 153.482 69.3567 153.136 69.1031 152.691C68.8564 152.245 68.7331 151.731 68.7331 151.149C68.7331 150.566 68.8598 150.052 69.1134 149.607C69.3738 149.161 69.7268 148.818 70.1722 148.579C70.6177 148.332 71.1146 148.209 71.6628 148.209C72.2111 148.209 72.7079 148.332 73.1534 148.579C73.5989 148.818 73.9484 149.161 74.2019 149.607C74.4624 150.052 74.5926 150.566 74.5926 151.149C74.5926 151.731 74.4589 152.245 74.1917 152.691C73.9312 153.136 73.5749 153.482 73.1226 153.729C72.6771 153.969 72.1768 154.089 71.6217 154.089ZM71.6217 152.834C71.8821 152.834 72.1254 152.773 72.3516 152.649C72.5846 152.519 72.7696 152.327 72.9067 152.074C73.0437 151.82 73.1123 151.512 73.1123 151.149C73.1123 150.607 72.9684 150.193 72.6805 149.905C72.3995 149.61 72.0535 149.463 71.6423 149.463C71.2311 149.463 70.885 149.61 70.604 149.905C70.3299 150.193 70.1928 150.607 70.1928 151.149C70.1928 151.69 70.3264 152.108 70.5937 152.403C70.8678 152.691 71.2105 152.834 71.6217 152.834ZM78.1771 154.089C77.6289 154.089 77.1354 153.969 76.6968 153.729C76.2582 153.482 75.9121 153.136 75.6586 152.691C75.4118 152.245 75.2885 151.731 75.2885 151.149C75.2885 150.566 75.4153 150.052 75.6688 149.607C75.9293 149.161 76.2822 148.818 76.7277 148.579C77.1731 148.332 77.67 148.209 78.2182 148.209C78.7665 148.209 79.2634 148.332 79.7088 148.579C80.1543 148.818 80.5038 149.161 80.7574 149.607C81.0178 150.052 81.148 150.566 81.148 151.149C81.148 151.731 81.0144 152.245 80.7471 152.691C80.4867 153.136 80.1303 153.482 79.678 153.729C79.2325 153.969 78.7322 154.089 78.1771 154.089ZM78.1771 152.834C78.4375 152.834 78.6808 152.773 78.907 152.649C79.14 152.519 79.325 152.327 79.4621 152.074C79.5992 151.82 79.6677 151.512 79.6677 151.149C79.6677 150.607 79.5238 150.193 79.2359 149.905C78.955 149.61 78.6089 149.463 78.1977 149.463C77.7865 149.463 77.4404 149.61 77.1594 149.905C76.8853 150.193 76.7482 150.607 76.7482 151.149C76.7482 151.69 76.8819 152.108 77.1491 152.403C77.4233 152.691 77.7659 152.834 78.1771 152.834ZM83.6429 146.389V153.996H82.2037V146.389H83.6429ZM95.4092 148.301L93.7439 153.996H92.1916L91.1534 150.018L90.1151 153.996H88.5526L86.8769 148.301H88.3367L89.3441 152.639L90.4338 148.301H91.9552L93.0243 152.629L94.0317 148.301H95.4092ZM96.9178 147.623C96.6642 147.623 96.4518 147.544 96.2804 147.386C96.116 147.222 96.0337 147.019 96.0337 146.78C96.0337 146.54 96.116 146.341 96.2804 146.183C96.4518 146.019 96.6642 145.937 96.9178 145.937C97.1714 145.937 97.3804 146.019 97.5449 146.183C97.7162 146.341 97.8019 146.54 97.8019 146.78C97.8019 147.019 97.7162 147.222 97.5449 147.386C97.3804 147.544 97.1714 147.623 96.9178 147.623ZM97.6271 148.301V153.996H96.1879V148.301H97.6271ZM100.725 149.483V152.238C100.725 152.43 100.769 152.571 100.858 152.66C100.954 152.742 101.112 152.783 101.331 152.783H101.999V153.996H101.095C99.8817 153.996 99.2752 153.407 99.2752 152.228V149.483H98.5967V148.301H99.2752V146.893H100.725V148.301H101.999V149.483H100.725ZM106.242 148.219C106.674 148.219 107.057 148.315 107.393 148.507C107.729 148.692 107.989 148.969 108.174 149.339C108.366 149.703 108.462 150.141 108.462 150.655V153.996H107.023V150.85C107.023 150.398 106.91 150.052 106.684 149.812C106.458 149.565 106.149 149.442 105.759 149.442C105.361 149.442 105.046 149.565 104.813 149.812C104.587 150.052 104.474 150.398 104.474 150.85V153.996H103.034V146.389H104.474V149.01C104.659 148.764 104.905 148.572 105.214 148.435C105.522 148.291 105.865 148.219 106.242 148.219Z" fill="#725054"/>
<path d="M30.2211 163.978C30.2211 163.402 30.3341 162.891 30.5603 162.446C30.7933 162 31.1086 161.658 31.5061 161.418C31.9035 161.178 32.3456 161.058 32.8322 161.058C33.2022 161.058 33.5552 161.14 33.891 161.305C34.2268 161.462 34.4941 161.675 34.6928 161.942V159.239H36.1526V166.846H34.6928V166.003C34.5146 166.284 34.2645 166.51 33.9424 166.681C33.6203 166.853 33.2468 166.938 32.8219 166.938C32.3421 166.938 31.9035 166.815 31.5061 166.568C31.1086 166.321 30.7933 165.975 30.5603 165.53C30.3341 165.078 30.2211 164.56 30.2211 163.978ZM34.7031 163.998C34.7031 163.649 34.6346 163.351 34.4975 163.104C34.3604 162.85 34.1754 162.658 33.9424 162.528C33.7094 162.391 33.4592 162.323 33.192 162.323C32.9247 162.323 32.678 162.388 32.4518 162.518C32.2256 162.648 32.0406 162.84 31.8967 163.094C31.7596 163.34 31.6911 163.635 31.6911 163.978C31.6911 164.32 31.7596 164.622 31.8967 164.882C32.0406 165.136 32.2256 165.331 32.4518 165.468C32.6848 165.605 32.9315 165.674 33.192 165.674C33.4592 165.674 33.7094 165.609 33.9424 165.478C34.1754 165.341 34.3604 165.15 34.4975 164.903C34.6346 164.649 34.7031 164.348 34.7031 163.998ZM42.8523 163.875C42.8523 164.08 42.8386 164.265 42.8112 164.43H38.6478C38.6821 164.841 38.826 165.163 39.0796 165.396C39.3332 165.629 39.645 165.746 40.0151 165.746C40.5496 165.746 40.93 165.516 41.1561 165.057H42.7084C42.5439 165.605 42.2286 166.058 41.7626 166.414C41.2966 166.763 40.7244 166.938 40.0459 166.938C39.4976 166.938 39.0042 166.818 38.5656 166.578C38.1338 166.332 37.7946 165.986 37.5479 165.54C37.308 165.095 37.1881 164.581 37.1881 163.998C37.1881 163.409 37.308 162.891 37.5479 162.446C37.7877 162 38.1236 161.658 38.5553 161.418C38.9871 161.178 39.4839 161.058 40.0459 161.058C40.5873 161.058 41.0705 161.175 41.4954 161.408C41.9271 161.641 42.2595 161.973 42.4925 162.405C42.7324 162.83 42.8523 163.32 42.8523 163.875ZM41.3617 163.464C41.3549 163.094 41.2212 162.799 40.9608 162.58C40.7004 162.353 40.3817 162.24 40.0048 162.24C39.6484 162.24 39.3469 162.35 39.1001 162.569C38.8603 162.782 38.7129 163.08 38.6581 163.464H41.3617ZM43.5327 163.998C43.5327 163.409 43.6526 162.895 43.8925 162.456C44.1323 162.011 44.4647 161.668 44.8896 161.428C45.3145 161.181 45.8011 161.058 46.3494 161.058C47.0553 161.058 47.6378 161.236 48.097 161.593C48.563 161.942 48.8748 162.436 49.0324 163.073H47.4802C47.3979 162.826 47.2574 162.634 47.0587 162.497C46.8668 162.353 46.6269 162.281 46.3391 162.281C45.9279 162.281 45.6024 162.432 45.3625 162.734C45.1226 163.028 45.0027 163.45 45.0027 163.998C45.0027 164.54 45.1226 164.961 45.3625 165.263C45.6024 165.557 45.9279 165.705 46.3391 165.705C46.9216 165.705 47.302 165.444 47.4802 164.923H49.0324C48.8748 165.54 48.563 166.03 48.097 166.393C47.6309 166.757 47.0484 166.938 46.3494 166.938C45.8011 166.938 45.3145 166.818 44.8896 166.578C44.4647 166.332 44.1323 165.989 43.8925 165.55C43.6526 165.105 43.5327 164.588 43.5327 163.998ZM53.4585 166.846L51.5259 164.42V166.846H50.0867V159.239H51.5259V163.566L53.438 161.151H55.3089L52.8006 164.008L55.3295 166.846H53.4585ZM58.1695 163.978C58.1695 163.402 58.2825 162.891 58.5087 162.446C58.7417 162 59.0535 161.658 59.4442 161.418C59.8416 161.178 60.2837 161.058 60.7703 161.058C61.1952 161.058 61.5652 161.144 61.8805 161.315C62.2026 161.486 62.4596 161.702 62.6515 161.963V161.151H64.1009V166.846H62.6515V166.013C62.4664 166.28 62.2094 166.503 61.8805 166.681C61.5584 166.853 61.1849 166.938 60.76 166.938C60.2802 166.938 59.8416 166.815 59.4442 166.568C59.0535 166.321 58.7417 165.975 58.5087 165.53C58.2825 165.078 58.1695 164.56 58.1695 163.978ZM62.6515 163.998C62.6515 163.649 62.5829 163.351 62.4459 163.104C62.3088 162.85 62.1238 162.658 61.8908 162.528C61.6578 162.391 61.4076 162.323 61.1403 162.323C60.8731 162.323 60.6263 162.388 60.4002 162.518C60.174 162.648 59.989 162.84 59.8451 163.094C59.708 163.34 59.6395 163.635 59.6395 163.978C59.6395 164.32 59.708 164.622 59.8451 164.882C59.989 165.136 60.174 165.331 60.4002 165.468C60.6332 165.605 60.8799 165.674 61.1403 165.674C61.4076 165.674 61.6578 165.609 61.8908 165.478C62.1238 165.341 62.3088 165.15 62.4459 164.903C62.5829 164.649 62.6515 164.348 62.6515 163.998ZM66.9457 162.035C67.1308 161.733 67.3706 161.497 67.6653 161.325C67.9669 161.154 68.3095 161.068 68.6933 161.068V162.58H68.3129C67.8606 162.58 67.518 162.686 67.285 162.898C67.0588 163.111 66.9457 163.481 66.9457 164.008V166.846H65.5065V161.151H66.9457V162.035ZM74.9568 163.875C74.9568 164.08 74.9431 164.265 74.9157 164.43H70.7523C70.7866 164.841 70.9305 165.163 71.1841 165.396C71.4376 165.629 71.7495 165.746 72.1195 165.746C72.6541 165.746 73.0345 165.516 73.2606 165.057H74.8129C74.6484 165.605 74.3331 166.058 73.8671 166.414C73.4011 166.763 72.8289 166.938 72.1504 166.938C71.6021 166.938 71.1087 166.818 70.6701 166.578C70.2383 166.332 69.8991 165.986 69.6524 165.54C69.4125 165.095 69.2926 164.581 69.2926 163.998C69.2926 163.409 69.4125 162.891 69.6524 162.446C69.8922 162 70.228 161.658 70.6598 161.418C71.0916 161.178 71.5884 161.058 72.1504 161.058C72.6918 161.058 73.1749 161.175 73.5998 161.408C74.0316 161.641 74.364 161.973 74.597 162.405C74.8369 162.83 74.9568 163.32 74.9568 163.875ZM73.4662 163.464C73.4594 163.094 73.3257 162.799 73.0653 162.58C72.8049 162.353 72.4862 162.24 72.1093 162.24C71.7529 162.24 71.4514 162.35 71.2046 162.569C70.9648 162.782 70.8174 163.08 70.7626 163.464H73.4662ZM75.6372 163.978C75.6372 163.402 75.7503 162.891 75.9764 162.446C76.2094 162 76.5213 161.658 76.9119 161.418C77.3094 161.178 77.7514 161.058 78.238 161.058C78.6629 161.058 79.033 161.144 79.3482 161.315C79.6703 161.486 79.9273 161.702 80.1192 161.963V161.151H81.5687V166.846H80.1192V166.013C79.9342 166.28 79.6772 166.503 79.3482 166.681C79.0261 166.853 78.6526 166.938 78.2277 166.938C77.748 166.938 77.3094 166.815 76.9119 166.568C76.5213 166.321 76.2094 165.975 75.9764 165.53C75.7503 165.078 75.6372 164.56 75.6372 163.978ZM80.1192 163.998C80.1192 163.649 80.0507 163.351 79.9136 163.104C79.7765 162.85 79.5915 162.658 79.3585 162.528C79.1255 162.391 78.8753 162.323 78.6081 162.323C78.3408 162.323 78.0941 162.388 77.8679 162.518C77.6418 162.648 77.4567 162.84 77.3128 163.094C77.1757 163.34 77.1072 163.635 77.1072 163.978C77.1072 164.32 77.1757 164.622 77.3128 164.882C77.4567 165.136 77.6418 165.331 77.8679 165.468C78.1009 165.605 78.3476 165.674 78.6081 165.674C78.8753 165.674 79.1255 165.609 79.3585 165.478C79.5915 165.341 79.7765 165.15 79.9136 164.903C80.0507 164.649 80.1192 164.348 80.1192 163.998Z" fill="#725054"/>
<path d="M26.1868 258.572C25.6865 258.572 25.2342 258.486 24.8298 258.315C24.4323 258.144 24.1171 257.897 23.8841 257.575C23.6511 257.253 23.5311 256.872 23.5243 256.434H25.0663C25.0868 256.728 25.1896 256.961 25.3746 257.133C25.5665 257.304 25.827 257.39 26.1559 257.39C26.4917 257.39 26.7556 257.311 26.9475 257.153C27.1394 256.989 27.2353 256.776 27.2353 256.516C27.2353 256.304 27.1702 256.129 27.04 255.992C26.9098 255.855 26.7453 255.748 26.5466 255.673C26.3547 255.591 26.0874 255.502 25.7447 255.406C25.2787 255.269 24.8983 255.135 24.6037 255.005C24.3158 254.868 24.0657 254.666 23.8532 254.398C23.6476 254.124 23.5448 253.761 23.5448 253.309C23.5448 252.884 23.6511 252.514 23.8635 252.198C24.076 251.883 24.3741 251.643 24.7579 251.479C25.1416 251.308 25.5802 251.222 26.0737 251.222C26.8138 251.222 27.4135 251.403 27.8727 251.767C28.3387 252.123 28.5957 252.623 28.6436 253.268H27.0605C27.0468 253.021 26.9406 252.819 26.7419 252.661C26.55 252.497 26.293 252.414 25.9709 252.414C25.6899 252.414 25.4637 252.486 25.2924 252.63C25.1279 252.774 25.0457 252.983 25.0457 253.257C25.0457 253.449 25.1074 253.61 25.2307 253.74C25.3609 253.864 25.5186 253.967 25.7036 254.049C25.8955 254.124 26.1628 254.213 26.5054 254.316C26.9715 254.453 27.3518 254.59 27.6465 254.727C27.9412 254.864 28.1948 255.07 28.4072 255.344C28.6197 255.618 28.7259 255.978 28.7259 256.423C28.7259 256.807 28.6265 257.164 28.4278 257.493C28.229 257.822 27.9378 258.085 27.554 258.284C27.1702 258.476 26.7145 258.572 26.1868 258.572ZM31.6492 253.987V256.742C31.6492 256.934 31.6938 257.075 31.7829 257.164C31.8788 257.246 32.0364 257.287 32.2557 257.287H32.9239V258.5H32.0193C30.8063 258.5 30.1998 257.911 30.1998 256.732V253.987H29.5213V252.805H30.1998V251.397H31.6492V252.805H32.9239V253.987H31.6492ZM33.589 255.632C33.589 255.056 33.7021 254.546 33.9282 254.1C34.1612 253.655 34.4731 253.312 34.8637 253.072C35.2612 252.832 35.7032 252.712 36.1898 252.712C36.6147 252.712 36.9848 252.798 37.3 252.969C37.6221 253.141 37.8791 253.357 38.071 253.617V252.805H39.5205V258.5H38.071V257.667C37.886 257.935 37.629 258.157 37.3 258.336C36.9779 258.507 36.6044 258.593 36.1795 258.593C35.6998 258.593 35.2612 258.469 34.8637 258.222C34.4731 257.976 34.1612 257.63 33.9282 257.184C33.7021 256.732 33.589 256.214 33.589 255.632ZM38.071 255.652C38.071 255.303 38.0025 255.005 37.8654 254.758C37.7283 254.505 37.5433 254.313 37.3103 254.182C37.0773 254.045 36.8271 253.977 36.5599 253.977C36.2926 253.977 36.0459 254.042 35.8197 254.172C35.5936 254.302 35.4085 254.494 35.2646 254.748C35.1275 254.995 35.059 255.289 35.059 255.632C35.059 255.975 35.1275 256.276 35.2646 256.537C35.4085 256.79 35.5936 256.985 35.8197 257.122C36.0527 257.26 36.2994 257.328 36.5599 257.328C36.8271 257.328 37.0773 257.263 37.3103 257.133C37.5433 256.996 37.7283 256.804 37.8654 256.557C38.0025 256.304 38.071 256.002 38.071 255.652ZM42.6017 253.987V256.742C42.6017 256.934 42.6462 257.075 42.7353 257.164C42.8313 257.246 42.9889 257.287 43.2082 257.287H43.8764V258.5H42.9718C41.7587 258.5 41.1522 257.911 41.1522 256.732V253.987H40.4738V252.805H41.1522V251.397H42.6017V252.805H43.8764V253.987H42.6017ZM50.2057 255.529C50.2057 255.735 50.192 255.92 50.1645 256.084H46.0012C46.0355 256.495 46.1794 256.818 46.4329 257.051C46.6865 257.284 46.9983 257.4 47.3684 257.4C47.903 257.4 48.2833 257.17 48.5095 256.711H50.0617C49.8973 257.26 49.582 257.712 49.116 258.068C48.65 258.418 48.0777 258.593 47.3993 258.593C46.851 258.593 46.3576 258.473 45.919 258.233C45.4872 257.986 45.148 257.64 44.9012 257.194C44.6614 256.749 44.5415 256.235 44.5415 255.652C44.5415 255.063 44.6614 254.546 44.9012 254.1C45.1411 253.655 45.4769 253.312 45.9087 253.072C46.3404 252.832 46.8373 252.712 47.3993 252.712C47.9407 252.712 48.4238 252.829 48.8487 253.062C49.2805 253.295 49.6129 253.627 49.8459 254.059C50.0857 254.484 50.2057 254.974 50.2057 255.529ZM48.7151 255.118C48.7082 254.748 48.5746 254.453 48.3142 254.234C48.0537 254.008 47.7351 253.895 47.3581 253.895C47.0018 253.895 46.7002 254.004 46.4535 254.224C46.2136 254.436 46.0663 254.734 46.0115 255.118H48.7151ZM55.6354 254.224V255.437H51.2767V254.224H55.6354ZM59.7782 258.593C59.23 258.593 58.7365 258.473 58.2979 258.233C57.8593 257.986 57.5132 257.64 57.2597 257.194C57.0129 256.749 56.8896 256.235 56.8896 255.652C56.8896 255.07 57.0164 254.556 57.2699 254.11C57.5304 253.665 57.8833 253.322 58.3288 253.083C58.7742 252.836 59.2711 252.712 59.8193 252.712C60.3676 252.712 60.8645 252.836 61.3099 253.083C61.7554 253.322 62.1049 253.665 62.3585 254.11C62.6189 254.556 62.7491 255.07 62.7491 255.652C62.7491 256.235 62.6155 256.749 62.3482 257.194C62.0878 257.64 61.7314 257.986 61.2791 258.233C60.8336 258.473 60.3333 258.593 59.7782 258.593ZM59.7782 257.338C60.0386 257.338 60.2819 257.277 60.5081 257.153C60.7411 257.023 60.9261 256.831 61.0632 256.578C61.2003 256.324 61.2688 256.016 61.2688 255.652C61.2688 255.111 61.1249 254.696 60.837 254.409C60.5561 254.114 60.21 253.967 59.7988 253.967C59.3876 253.967 59.0415 254.114 58.7605 254.409C58.4864 254.696 58.3493 255.111 58.3493 255.652C58.3493 256.194 58.483 256.612 58.7502 256.907C59.0244 257.194 59.367 257.338 59.7782 257.338ZM66.4159 253.987H65.4187V258.5H63.959V253.987H63.3114V252.805H63.959V252.517C63.959 251.818 64.1577 251.304 64.5552 250.975C64.9527 250.646 65.5524 250.492 66.3542 250.513V251.726C66.0047 251.719 65.7614 251.777 65.6243 251.9C65.4873 252.024 65.4187 252.246 65.4187 252.569V252.805H66.4159V253.987ZM71.7278 254.224V255.437H67.3691V254.224H71.7278ZM75.0174 253.987V256.742C75.0174 256.934 75.0619 257.075 75.151 257.164C75.247 257.246 75.4046 257.287 75.6239 257.287H76.2921V258.5H75.3875C74.1744 258.5 73.5679 257.911 73.5679 256.732V253.987H72.8895V252.805H73.5679V251.397H75.0174V252.805H76.2921V253.987H75.0174ZM80.5345 252.723C80.9663 252.723 81.3501 252.819 81.6859 253.011C82.0217 253.196 82.2821 253.473 82.4672 253.843C82.6591 254.206 82.755 254.645 82.755 255.159V258.5H81.3158V255.354C81.3158 254.902 81.2027 254.556 80.9766 254.316C80.7504 254.069 80.442 253.946 80.0514 253.946C79.6539 253.946 79.3387 254.069 79.1056 254.316C78.8795 254.556 78.7664 254.902 78.7664 255.354V258.5H77.3272V250.893H78.7664V253.514C78.9514 253.268 79.1982 253.076 79.5066 252.939C79.815 252.795 80.1576 252.723 80.5345 252.723ZM89.4177 255.529C89.4177 255.735 89.404 255.92 89.3766 256.084H85.2133C85.2475 256.495 85.3914 256.818 85.645 257.051C85.8986 257.284 86.2104 257.4 86.5805 257.4C87.115 257.4 87.4954 257.17 87.7215 256.711H89.2738C89.1093 257.26 88.7941 257.712 88.3281 258.068C87.862 258.418 87.2898 258.593 86.6113 258.593C86.0631 258.593 85.5696 258.473 85.131 258.233C84.6993 257.986 84.36 257.64 84.1133 257.194C83.8734 256.749 83.7535 256.235 83.7535 255.652C83.7535 255.063 83.8734 254.546 84.1133 254.1C84.3532 253.655 84.689 253.312 85.1207 253.072C85.5525 252.832 86.0493 252.712 86.6113 252.712C87.1527 252.712 87.6359 252.829 88.0608 253.062C88.4925 253.295 88.8249 253.627 89.0579 254.059C89.2978 254.484 89.4177 254.974 89.4177 255.529ZM87.9271 255.118C87.9203 254.748 87.7866 254.453 87.5262 254.234C87.2658 254.008 86.9471 253.895 86.5702 253.895C86.2138 253.895 85.9123 254.004 85.6656 254.224C85.4257 254.436 85.2784 254.734 85.2235 255.118H87.9271Z" fill="#725054"/>
<path d="M35.4174 268.483C35.4174 267.907 35.5304 267.396 35.7566 266.951C35.9896 266.505 36.3014 266.163 36.6921 265.923C37.0896 265.683 37.5316 265.563 38.0182 265.563C38.4431 265.563 38.8131 265.649 39.1284 265.82C39.4505 265.991 39.7075 266.207 39.8994 266.468V265.656H41.3488V271.351H39.8994V270.518C39.7143 270.785 39.4573 271.008 39.1284 271.186C38.8063 271.357 38.4328 271.443 38.0079 271.443C37.5282 271.443 37.0896 271.32 36.6921 271.073C36.3014 270.826 35.9896 270.48 35.7566 270.035C35.5304 269.582 35.4174 269.065 35.4174 268.483ZM39.8994 268.503C39.8994 268.154 39.8308 267.855 39.6938 267.609C39.5567 267.355 39.3717 267.163 39.1387 267.033C38.9057 266.896 38.6555 266.827 38.3882 266.827C38.121 266.827 37.8742 266.893 37.6481 267.023C37.4219 267.153 37.2369 267.345 37.093 267.598C36.9559 267.845 36.8874 268.14 36.8874 268.483C36.8874 268.825 36.9559 269.127 37.093 269.387C37.2369 269.641 37.4219 269.836 37.6481 269.973C37.8811 270.11 38.1278 270.179 38.3882 270.179C38.6555 270.179 38.9057 270.114 39.1387 269.983C39.3717 269.846 39.5567 269.654 39.6938 269.408C39.8308 269.154 39.8994 268.853 39.8994 268.503ZM44.1936 266.54C44.3787 266.238 44.6185 266.002 44.9132 265.83C45.2148 265.659 45.5574 265.573 45.9412 265.573V267.084H45.5609C45.1085 267.084 44.7659 267.191 44.5329 267.403C44.3067 267.616 44.1936 267.986 44.1936 268.513V271.351H42.7545V265.656H44.1936V266.54ZM48.5862 266.838V269.593C48.5862 269.785 48.6307 269.925 48.7198 270.014C48.8158 270.096 48.9734 270.138 49.1927 270.138H49.8609V271.351H48.9563C47.7432 271.351 47.1367 270.761 47.1367 269.582V266.838H46.4583V265.656H47.1367V264.247H48.5862V265.656H49.8609V266.838H48.5862ZM55.5763 265.563C56.0012 265.563 56.3747 265.649 56.6968 265.82C57.0189 265.984 57.2724 266.2 57.4575 266.468V265.656H58.9069V271.392C58.9069 271.919 58.8007 272.389 58.5883 272.8C58.3758 273.218 58.0571 273.547 57.6322 273.787C57.2073 274.034 56.6933 274.157 56.0902 274.157C55.2816 274.157 54.6168 273.969 54.096 273.592C53.582 273.215 53.2907 272.701 53.2222 272.05H54.6511C54.7265 272.31 54.8875 272.516 55.1342 272.666C55.3878 272.824 55.6928 272.903 56.0491 272.903C56.4672 272.903 56.8064 272.776 57.0668 272.522C57.3273 272.276 57.4575 271.899 57.4575 271.392V270.508C57.2724 270.775 57.0154 270.998 56.6865 271.176C56.3644 271.354 55.9943 271.443 55.5763 271.443C55.0965 271.443 54.6579 271.32 54.2604 271.073C53.8629 270.826 53.5477 270.48 53.3147 270.035C53.0885 269.582 52.9754 269.065 52.9754 268.483C52.9754 267.907 53.0885 267.396 53.3147 266.951C53.5477 266.505 53.8595 266.163 54.2501 265.923C54.6476 265.683 55.0897 265.563 55.5763 265.563ZM57.4575 268.503C57.4575 268.154 57.3889 267.855 57.2519 267.609C57.1148 267.355 56.9298 267.163 56.6968 267.033C56.4637 266.896 56.2136 266.827 55.9463 266.827C55.6791 266.827 55.4323 266.893 55.2062 267.023C54.98 267.153 54.795 267.345 54.6511 267.598C54.514 267.845 54.4455 268.14 54.4455 268.483C54.4455 268.825 54.514 269.127 54.6511 269.387C54.795 269.641 54.98 269.836 55.2062 269.973C55.4392 270.11 55.6859 270.179 55.9463 270.179C56.2136 270.179 56.4637 270.114 56.6968 269.983C56.9298 269.846 57.1148 269.654 57.2519 269.408C57.3889 269.154 57.4575 268.853 57.4575 268.503ZM65.7609 265.656L62.2349 274.044H60.7032L61.9368 271.207L59.6546 265.656H61.2686L62.7386 269.634L64.2292 265.656H65.7609ZM73.6092 265.573C74.3083 265.573 74.8702 265.789 75.2951 266.221C75.7269 266.646 75.9427 267.242 75.9427 268.01V271.351H74.5036V268.205C74.5036 267.759 74.3905 267.42 74.1643 267.187C73.9382 266.947 73.6298 266.827 73.2391 266.827C72.8485 266.827 72.5367 266.947 72.3037 267.187C72.0775 267.42 71.9644 267.759 71.9644 268.205V271.351H70.5253V268.205C70.5253 267.759 70.4122 267.42 70.186 267.187C69.9599 266.947 69.6515 266.827 69.2608 266.827C68.8634 266.827 68.5481 266.947 68.3151 267.187C68.0889 267.42 67.9759 267.759 67.9759 268.205V271.351H66.5367V265.656H67.9759V266.344C68.1609 266.104 68.3973 265.916 68.6852 265.779C68.9799 265.642 69.302 265.573 69.6515 265.573C70.0969 265.573 70.4944 265.669 70.8439 265.861C71.1935 266.046 71.4642 266.313 71.656 266.663C71.8411 266.334 72.1084 266.07 72.4579 265.871C72.8142 265.673 73.198 265.573 73.6092 265.573Z" fill="#725054"/>
<path d="M70.144 13.4033C69.9989 13.4033 69.8462 13.4262 69.7011 13.4644L68.0057 13.9303L66.2492 9.65355C65.7528 8.43927 64.2788 7.4541 62.9729 7.4541H46.5305C45.2169 7.4541 43.7506 8.43927 43.2542 9.65355L41.4977 13.9303L39.8252 13.472C39.6725 13.4339 39.5274 13.4109 39.3823 13.4109C38.5804 13.4109 38 14.0219 38 14.862V15.8624C38 16.8476 38.8019 17.6418 39.7794 17.6418H39.9703L39.6878 18.3292C39.2219 19.4518 38.8477 21.361 38.8477 22.583V31.0829C38.8477 32.0681 39.6496 32.8623 40.6271 32.8623H42.9564C43.9416 32.8623 44.7358 32.0604 44.7358 31.0829V28.9598H64.76V31.0829C64.76 32.0681 65.5619 32.8623 66.5394 32.8623H68.8687C69.8538 32.8623 70.6481 32.0604 70.6481 31.0829V22.583C70.6481 21.3687 70.2739 19.4594 69.808 18.3292L69.5254 17.6418H69.7393C70.7244 17.6418 71.5187 16.8399 71.5187 15.8624V14.862C71.5187 14.0219 70.9383 13.4109 70.1364 13.4109L70.144 13.4033ZM42.7655 16.6643L45.4231 10.1881C45.721 9.46263 46.6069 8.86694 47.3935 8.86694H62.1023C62.8889 8.86694 63.7748 9.46263 64.0726 10.1881L66.7303 16.6643C67.0282 17.3898 66.631 17.9855 65.8444 17.9855H43.6514C42.8648 17.9855 42.4676 17.3898 42.7655 16.6643ZM48.6994 24.8588C48.6994 25.2483 48.3787 25.569 47.9892 25.569H42.9411C42.5516 25.569 42.2309 25.2483 42.2309 24.8588V22.4379C42.2309 22.0484 42.5516 21.7276 42.9411 21.7276H47.9892C48.3787 21.7276 48.6994 22.0484 48.6994 22.4379V24.8588ZM67.2191 24.8588C67.2191 25.2483 66.8983 25.569 66.5088 25.569H61.4608C61.0713 25.569 60.7506 25.2483 60.7506 24.8588V22.4379C60.7506 22.0484 61.0713 21.7276 61.4608 21.7276H66.5088C66.8983 21.7276 67.2191 22.0484 67.2191 22.4379V24.8588Z" fill="#725054"/>
<path d="M81.1034 0H72.6646C71.435 0 70.4346 1.00044 70.4346 2.23V10.6689C70.4346 11.8984 71.435 12.8989 72.6646 12.8989H76.0554V31.8386C76.0554 32.2968 76.4296 32.671 76.8878 32.671C77.346 32.671 77.7202 32.2968 77.7202 31.8386V12.8989H81.1111C82.3406 12.8989 83.3411 11.8984 83.3411 10.6689V2.23C83.3411 1.00044 82.3406 0 81.1111 0H81.1034ZM79.1865 6.99547C78.6978 7.43078 77.9875 7.65225 77.0635 7.65225H75.8416C75.6964 7.65225 75.5743 7.77444 75.5743 7.91955V9.98153C75.5743 10.203 75.391 10.3863 75.1695 10.3863H74.2454C74.0239 10.3863 73.8407 10.203 73.8407 9.98153V2.90969C73.8407 2.68822 74.0239 2.50493 74.2454 2.50493H76.5747C78.1174 2.50493 78.6978 2.73404 79.1713 3.1388C79.6677 3.56647 79.9273 4.21561 79.9273 5.07095C79.9273 5.91102 79.683 6.55253 79.1942 6.99547H79.1865Z" fill="#725054"/>
<path d="M77.8653 4.21571C77.6362 4.0477 77.2391 3.95605 76.6816 3.95605H75.8415C75.6964 3.95605 75.5742 4.07825 75.5742 4.22335V5.91876C75.5742 6.06386 75.6964 6.18605 75.8415 6.18605H76.3456C76.5288 6.18605 76.8267 6.17078 77.01 6.1555C77.1856 6.14023 77.682 6.06386 77.8653 5.9264C78.0868 5.75838 78.1937 5.47581 78.1937 5.07105C78.1937 4.66629 78.0791 4.37609 77.8653 4.21571Z" fill="#725054"/>
<path d="M63.3082 123.593L61.3636 120.458C63.4024 122.993 67.1803 123.122 69.3819 120.775C71.395 118.633 71.2922 115.275 69.1506 113.262C67.0089 111.249 63.6508 111.351 61.6377 113.493C60.0957 115.138 59.813 117.477 60.6782 119.361L55.9752 111.78L62.957 109.767C65.1243 109.141 66.1523 106.657 65.0472 104.687C64.2505 103.256 62.5886 102.571 61.0124 103.025L50.4498 106.074C47.7085 106.863 46.4835 110.049 47.9912 112.474L51.1865 117.622L45.584 121.1C52.3173 121.254 57.1917 123.31 63.3082 123.593Z" fill="#725054"/>
<path d="M36.2293 127.089C51.5463 122.737 57.3287 131.526 74.2905 127.089C74.9244 126.926 75.3013 126.275 75.1386 125.641C74.9758 125.007 74.3247 124.63 73.6908 124.793C57.3887 129.05 51.5977 120.244 35.5782 124.793C34.9529 124.973 34.5845 125.624 34.7644 126.258C34.9443 126.892 35.5953 127.251 36.2293 127.072V127.089Z" fill="#725054"/>
<path d="M73.6908 130.327C57.363 134.593 51.632 125.769 35.5782 130.327C34.9529 130.506 34.5845 131.158 34.7644 131.791C34.9443 132.425 35.5953 132.785 36.2293 132.605C51.5463 128.253 57.3287 137.043 74.2905 132.605C74.9244 132.443 75.3013 131.791 75.1386 131.158C74.9758 130.524 74.3247 130.147 73.6908 130.309V130.327Z" fill="#725054"/>
<path d="M73.8678 224.832H72.7113V222.28C72.7113 221.003 71.6833 219.967 70.424 219.967H69.0362V219.264C69.0362 217.988 68.0082 216.951 66.749 216.951H65.2241C63.9563 216.951 62.9368 217.988 62.9368 219.264V224.824H46.9774V219.264C46.9774 217.988 45.9494 216.951 44.6901 216.951H43.1652C41.8974 216.951 40.878 217.988 40.878 219.264V219.967H39.4902C38.2223 219.967 37.2029 221.003 37.2029 222.28V224.832H36.0464C34.9156 224.832 33.999 225.758 33.999 226.897C33.999 228.036 34.9156 228.961 36.0464 228.961H37.2029V231.583C37.2029 232.859 38.2309 233.896 39.4902 233.896H40.878V234.53C40.878 235.806 41.906 236.843 43.1652 236.843H44.6901C45.9579 236.843 46.9774 235.806 46.9774 234.53V228.97H62.9368V234.53C62.9368 235.806 63.9648 236.843 65.2241 236.843H66.749C68.0168 236.843 69.0362 235.806 69.0362 234.53V233.896H70.424C71.6919 233.896 72.7113 232.859 72.7113 231.583V228.961H73.8678C74.9985 228.961 75.9152 228.036 75.9152 226.897C75.9152 225.758 74.9985 224.832 73.8678 224.832Z" fill="#725054"/>
<path d="M63.9368 335.23C64.2366 335.23 64.5364 335.281 64.8191 335.376L64.8705 335.393C64.8191 335.273 64.7849 335.144 64.7849 335.016C64.7849 334.502 65.2046 334.082 65.7186 334.082H66.4039C66.1983 331.032 64.9819 328.265 63.0887 326.09L62.609 326.569C62.4291 326.749 62.1892 326.843 61.9493 326.843C61.7095 326.843 61.4696 326.749 61.2897 326.569C60.9299 326.21 60.9299 325.618 61.2897 325.25L61.7694 324.77C59.6021 322.877 56.8265 321.661 53.7768 321.455V322.14C53.7768 322.654 53.3571 323.074 52.8431 323.074C52.3291 323.074 51.9093 322.654 51.9093 322.14V321.455C48.8596 321.661 46.0926 322.877 43.9167 324.77L44.3965 325.25C44.7563 325.61 44.7563 326.201 44.3965 326.569C44.2166 326.749 43.9767 326.843 43.7368 326.843C43.497 326.843 43.2571 326.749 43.0772 326.569L42.5975 326.09C40.7043 328.257 39.4878 331.032 39.2822 334.082H39.9676C40.4815 334.082 40.9013 334.502 40.9013 335.016C40.9013 335.53 40.4815 335.95 39.9676 335.95H39.2822C39.4878 338.999 40.7043 341.766 42.5975 343.942L43.0772 343.463C43.437 343.103 44.0281 343.103 44.3965 343.463C44.7563 343.822 44.7563 344.413 44.3965 344.782L43.9167 345.262C46.0841 347.155 48.8596 348.371 51.9093 348.577V347.891C51.9093 347.377 52.3291 346.958 52.8431 346.958C53.3571 346.958 53.7768 347.377 53.7768 347.891V348.577C54.6421 348.517 55.4816 348.38 56.2954 348.166C55.6615 346.744 55.3103 345.176 55.3103 343.54V339.976C55.3103 338.768 56.0812 337.706 57.2206 337.32L58.1372 337.012V335.53H54.9248C54.4108 335.53 53.991 335.11 53.991 334.596V330.45C53.991 329.936 54.4108 329.516 54.9248 329.516C55.4388 329.516 55.8585 329.936 55.8585 330.45V333.662H58.1458V330.45C58.1458 329.936 58.5655 329.516 59.0795 329.516C59.5935 329.516 60.0133 329.936 60.0133 330.45V336.395L63.0544 335.384C63.3371 335.29 63.6369 335.239 63.9368 335.239V335.23ZM50.7786 337.8C51.2925 337.8 51.7123 338.22 51.7123 338.734C51.7123 339.248 51.2925 339.668 50.7786 339.668H46.6323C46.2554 339.668 45.9127 339.436 45.7671 339.094C45.6215 338.751 45.6986 338.348 45.9727 338.074L48.654 335.393C49.425 334.622 49.8448 333.602 49.8448 332.514C49.8448 331.881 49.3308 331.375 48.7054 331.375C48.0801 331.375 47.5661 331.889 47.5661 332.514C47.5661 333.028 47.1463 333.448 46.6323 333.448C46.1183 333.448 45.6986 333.028 45.6986 332.514C45.6986 330.853 47.0435 329.508 48.7054 329.508C50.3673 329.508 51.7123 330.853 51.7123 332.514C51.7123 334.176 51.0955 335.59 49.9733 336.712L48.8853 337.8H50.7871H50.7786Z" fill="#725054"/>
<path d="M70.0449 339.077L64.2282 337.141C64.0398 337.081 63.8342 337.081 63.6371 337.141L57.8205 339.077C57.4435 339.205 57.1865 339.556 57.1865 339.959V343.523C57.1865 347.592 59.7822 351.19 63.6371 352.475C63.7314 352.509 63.8342 352.526 63.9284 352.526C64.0226 352.526 64.1254 352.509 64.2197 352.475C68.0832 351.19 70.6703 347.592 70.6703 343.523V339.959C70.6703 339.556 70.4133 339.205 70.0363 339.077H70.0449ZM66.6183 344.568L63.2174 346.641C63.0632 346.735 62.9004 346.778 62.7376 346.778C62.4464 346.778 62.1722 346.65 61.9838 346.401L60.9815 345.039C60.6731 344.628 60.7673 344.045 61.1785 343.737C61.5897 343.429 62.1808 343.523 62.4807 343.934L62.9775 344.611L65.6503 342.983C66.0872 342.718 66.6611 342.855 66.9353 343.291C67.2008 343.728 67.0638 344.302 66.6269 344.576L66.6183 344.568Z" fill="#725054"/>
<path d="M23.4971 367.376C24.1551 366.828 24.6793 366.372 25.07 366.009C25.4606 365.638 25.7861 365.255 26.0466 364.857C26.307 364.46 26.4372 364.069 26.4372 363.685C26.4372 363.336 26.3549 363.062 26.1905 362.863C26.026 362.664 25.7724 362.565 25.4298 362.565C25.0871 362.565 24.8232 362.681 24.6382 362.914C24.4532 363.14 24.3572 363.452 24.3504 363.85H22.9523C22.9797 363.027 23.223 362.404 23.6822 361.979C24.1482 361.554 24.7376 361.342 25.4503 361.342C26.2316 361.342 26.8312 361.551 27.2493 361.969C27.6673 362.38 27.8764 362.925 27.8764 363.603C27.8764 364.138 27.7325 364.648 27.4446 365.135C27.1568 365.621 26.8278 366.046 26.4577 366.409C26.0877 366.766 25.6045 367.198 25.0083 367.705H28.0408V368.897H22.9626V367.828L23.4971 367.376ZM28.886 367.54V366.409L32.2476 361.598H33.9232V366.286H34.8278V367.54H33.9232V369H32.484V367.54H28.886ZM32.5765 363.14L30.4691 366.286H32.5765V363.14ZM39.7635 359.265L36.9879 370.861H35.5796L38.3552 359.265H39.7635ZM45.5133 362.596L42.7789 369H41.3191L44.0741 362.76H40.5584V361.527H45.5133V362.596ZM51.1686 369.093C50.7026 369.093 50.2845 369.01 49.9145 368.846C49.5444 368.674 49.2497 368.445 49.0304 368.157C48.8179 367.869 48.7014 367.551 48.6809 367.201H50.1303C50.1578 367.42 50.264 367.602 50.449 367.746C50.6409 367.89 50.8773 367.962 51.1583 367.962C51.4325 367.962 51.6449 367.907 51.7957 367.797C51.9533 367.688 52.0321 367.547 52.0321 367.376C52.0321 367.191 51.9362 367.054 51.7443 366.965C51.5592 366.869 51.2611 366.766 50.8499 366.656C50.425 366.553 50.0755 366.447 49.8014 366.338C49.5341 366.228 49.3011 366.06 49.1024 365.834C48.9105 365.608 48.8145 365.303 48.8145 364.919C48.8145 364.604 48.9036 364.316 49.0818 364.055C49.2668 363.795 49.5273 363.589 49.8631 363.439C50.2057 363.288 50.6066 363.212 51.0658 363.212C51.7443 363.212 52.2857 363.384 52.69 363.726C53.0944 364.062 53.3171 364.518 53.3582 365.094H51.9807C51.9602 364.867 51.8642 364.689 51.6929 364.559C51.5284 364.422 51.3057 364.354 51.0247 364.354C50.7643 364.354 50.5621 364.401 50.4182 364.497C50.2811 364.593 50.2126 364.727 50.2126 364.898C50.2126 365.09 50.3085 365.238 50.5004 365.34C50.6923 365.436 50.9904 365.536 51.3948 365.638C51.806 365.741 52.1452 365.848 52.4125 365.957C52.6798 366.067 52.9093 366.238 53.1012 366.471C53.3 366.697 53.4028 366.999 53.4096 367.376C53.4096 367.705 53.3171 367.999 53.1321 368.26C52.9539 368.52 52.6935 368.726 52.3508 368.877C52.015 369.021 51.6209 369.093 51.1686 369.093ZM59.8851 366.029C59.8851 366.235 59.8714 366.42 59.844 366.584H55.6807C55.7149 366.995 55.8589 367.318 56.1124 367.551C56.366 367.784 56.6778 367.9 57.0479 367.9C57.5824 367.9 57.9628 367.67 58.189 367.211H59.7412C59.5767 367.76 59.2615 368.212 58.7955 368.568C58.3294 368.918 57.7572 369.093 57.0787 369.093C56.5305 369.093 56.037 368.973 55.5984 368.733C55.1667 368.486 54.8274 368.14 54.5807 367.694C54.3409 367.249 54.2209 366.735 54.2209 366.152C54.2209 365.563 54.3409 365.046 54.5807 364.6C54.8206 364.155 55.1564 363.812 55.5881 363.572C56.0199 363.332 56.5168 363.212 57.0787 363.212C57.6201 363.212 58.1033 363.329 58.5282 363.562C58.9599 363.795 59.2923 364.127 59.5253 364.559C59.7652 364.984 59.8851 365.474 59.8851 366.029ZM58.3946 365.618C58.3877 365.248 58.2541 364.953 57.9936 364.734C57.7332 364.508 57.4145 364.395 57.0376 364.395C56.6812 364.395 56.3797 364.504 56.133 364.724C55.8931 364.936 55.7458 365.234 55.6909 365.618H58.3946ZM60.5655 366.152C60.5655 365.563 60.6855 365.049 60.9253 364.61C61.1652 364.165 61.4976 363.822 61.9225 363.583C62.3474 363.336 62.834 363.212 63.3822 363.212C64.0881 363.212 64.6706 363.391 65.1298 363.747C65.5958 364.097 65.9076 364.59 66.0653 365.227H64.513C64.4308 364.981 64.2903 364.789 64.0915 364.652C63.8996 364.508 63.6598 364.436 63.3719 364.436C62.9607 364.436 62.6352 364.587 62.3953 364.888C62.1555 365.183 62.0356 365.604 62.0356 366.152C62.0356 366.694 62.1555 367.115 62.3953 367.417C62.6352 367.712 62.9607 367.859 63.3719 367.859C63.9545 367.859 64.3348 367.599 64.513 367.078H66.0653C65.9076 367.694 65.5958 368.184 65.1298 368.548C64.6638 368.911 64.0812 369.093 63.3822 369.093C62.834 369.093 62.3474 368.973 61.9225 368.733C61.4976 368.486 61.1652 368.143 60.9253 367.705C60.6855 367.259 60.5655 366.742 60.5655 366.152ZM72.496 363.305V369H71.0465V368.28C70.8615 368.527 70.6182 368.722 70.3166 368.866C70.0219 369.003 69.6998 369.072 69.3503 369.072C68.9049 369.072 68.5108 368.979 68.1681 368.794C67.8255 368.603 67.5548 368.325 67.356 367.962C67.1641 367.592 67.0682 367.153 67.0682 366.646V363.305H68.5074V366.44C68.5074 366.893 68.6204 367.242 68.8466 367.489C69.0728 367.729 69.3812 367.849 69.7718 367.849C70.1693 367.849 70.4811 367.729 70.7073 367.489C70.9334 367.242 71.0465 366.893 71.0465 366.44V363.305H72.496ZM75.3551 364.189C75.5402 363.887 75.78 363.651 76.0747 363.48C76.3763 363.308 76.7189 363.223 77.1027 363.223V364.734H76.7223C76.27 364.734 75.9274 364.84 75.6944 365.053C75.4682 365.265 75.3551 365.635 75.3551 366.163V369H73.9159V363.305H75.3551V364.189ZM78.8019 362.626C78.5484 362.626 78.3359 362.548 78.1646 362.39C78.0001 362.226 77.9179 362.023 77.9179 361.784C77.9179 361.544 78.0001 361.345 78.1646 361.187C78.3359 361.023 78.5484 360.941 78.8019 360.941C79.0555 360.941 79.2645 361.023 79.429 361.187C79.6003 361.345 79.686 361.544 79.686 361.784C79.686 362.023 79.6003 362.226 79.429 362.39C79.2645 362.548 79.0555 362.626 78.8019 362.626ZM79.5112 363.305V369H78.0721V363.305H79.5112ZM82.6088 364.487V367.242C82.6088 367.434 82.6533 367.575 82.7424 367.664C82.8384 367.746 82.996 367.787 83.2153 367.787H83.8835V369H82.9788C81.7658 369 81.1593 368.411 81.1593 367.232V364.487H80.4808V363.305H81.1593V361.897H82.6088V363.305H83.8835V364.487H82.6088ZM90.3669 363.305L86.8409 371.693H85.3092L86.5428 368.856L84.2607 363.305H85.8746L87.3447 367.283L88.8352 363.305H90.3669Z" fill="#725054"/>
</svg>
