<svg width="318" height="53" viewBox="0 0 318 53" fill="none" xmlns="http://www.w3.org/2000/svg">
<g clip-path="url(#clip0_227_46)">
<path d="M11.4144 49.1047C19.1129 49.1047 20.0474 48.5262 20.8262 43.1639L22.9622 42.9192L23.118 43.1639C23.118 43.1639 22.2502 47.2134 21.8052 51.352L21.5605 51.6412C21.5605 51.6412 11.4144 51.3075 6.78631 51.3075C3.07053 51.3075 0 51.797 0 51.797L0.289253 49.5497C3.20403 49.1492 4.09404 48.237 4.09404 45.4557L4.13854 24.9855C4.13854 22.894 3.80479 22.36 2.33627 22.36C1.75777 22.36 0.667506 22.449 0.667506 22.449L0.578505 22.2487L0.912259 20.1127C0.912259 20.1127 4.76155 20.2684 7.69857 20.2684C15.4416 20.2684 19.1129 20.1127 22.317 19.6899L22.4727 19.9792C22.4727 19.9792 21.6495 23.5837 21.3602 28.0783L19.0239 28.2785C19.0239 28.2785 19.1129 26.8545 19.1129 26.187C19.1129 23.0275 18.5344 22.716 11.6591 22.716C8.49958 22.716 8.29933 22.805 8.25483 24.6072L7.85432 34.0636C8.92233 34.0636 11.4144 34.1081 12.8829 34.1081C14.6406 34.1081 18.8237 33.5741 18.8237 33.5741L19.0239 33.8188L18.3342 36.6891C18.3342 36.6891 14.1511 36.5333 11.5034 36.5333C10.0348 36.5333 8.58858 36.7336 7.74307 36.8671C7.58732 42.1404 7.54282 44.5657 7.54282 46.1899C7.54282 48.8155 7.87657 49.1047 11.3921 49.1047H11.4144Z" fill="#725054"/>
<path d="M45.3446 52.2204L35.8882 25.9429H35.6435C35.6435 25.9429 33.9747 46.3686 33.9747 47.6368C33.9747 48.6604 34.4642 49.1499 35.4877 49.1499C35.9772 49.1499 37.4903 49.1054 37.4903 49.1054L37.5793 49.3056L37.1342 51.5084C37.1342 51.5084 34.0192 51.3081 32.395 51.3081C30.4369 51.3081 28.2119 51.7086 28.2119 51.7086L28.4567 49.4614C30.5037 49.2166 31.2824 48.3489 31.5717 45.7011C31.9722 42.141 33.7077 26.0986 33.7077 24.6301C33.7077 22.9169 32.4395 22.1381 29.4579 21.9379L29.3022 21.6931L29.7027 19.9798C29.7027 19.9798 33.463 20.2246 35.0205 20.2246C36.4445 20.2246 38.3358 20.0243 38.3358 20.0243C42.719 34.22 46.5683 44.2103 46.5683 44.2103H46.8131C46.8131 44.2103 50.6179 34.1087 55.2459 20.1133C55.2459 20.0688 57.4932 20.2023 58.4722 20.2023C59.9407 20.2023 63.7455 19.9131 63.7455 19.9131L63.8345 20.1133L63.5897 21.9156C60.764 22.2494 59.7405 22.9836 59.7405 24.6079C59.7405 26.0319 60.4747 37.6688 61.0087 44.4996C61.4537 48.3044 61.832 49.1276 63.3895 49.1276C63.968 49.1276 64.7468 49.0386 64.7468 49.0386L64.8358 49.2389L64.3908 51.4416C64.3908 51.4416 61.5205 51.2859 59.7627 51.2859C57.6712 51.2859 54.6897 51.6864 54.6897 51.6864L54.8899 49.4391C56.8924 49.1944 57.7602 48.4601 57.7602 46.9916C57.7602 45.3228 56.0914 25.9206 56.0914 25.9206H55.8467L46.4348 51.8644L45.2556 52.1981L45.3446 52.2204Z" fill="#725054"/>
<path d="M71.0438 20.0914C71.0438 20.0914 74.6039 20.2471 76.4506 20.2471C77.7634 20.2471 82.5917 20.0469 82.5917 20.0469C89.3112 20.0469 93.027 23.1174 93.027 28.7245C93.027 34.3315 87.6647 39.4046 81.8574 39.4046H77.7634L77.6744 44.1884C77.6744 48.6161 77.9191 49.1724 79.8104 49.1724C80.7894 49.1724 82.4359 49.0166 82.4359 49.0166L82.5249 49.2169L82.0799 51.4642C82.0799 51.4642 79.2542 51.3084 77.5854 51.3084C74.9599 51.3084 70.4208 51.5532 70.3096 51.7089L70.6433 49.4616C73.4691 48.9721 74.1589 48.2379 74.1589 45.4566L74.2034 24.9864C74.2034 22.8949 73.8029 22.3609 72.4011 22.3609C71.8226 22.3609 70.7323 22.4499 70.7323 22.4499L70.6433 22.2496L70.9771 20.1136L71.0438 20.0914ZM83.0367 37.2463C86.9305 36.6233 88.933 34.02 88.933 29.6367C88.933 24.6527 86.1072 22.4276 79.7659 22.4276C78.5866 22.4276 78.4976 22.4276 78.4531 23.1174C78.1639 27.4562 77.9636 32.329 77.8746 36.5343L83.0367 37.2685V37.2463Z" fill="#725054"/>
<path d="M104.688 37.9808L104.532 45.2566C104.532 48.7721 104.933 49.2616 108.048 49.2616L108.137 49.4619L107.692 51.5089C107.692 51.5089 104.822 51.4199 102.53 51.3531C100.082 51.3086 96.9229 51.5089 96.9229 51.5089L97.3678 49.3061C100.394 48.9724 101.084 48.2826 101.084 45.4568L101.128 24.9866C101.128 22.8951 100.728 22.3611 99.3259 22.3611C98.7474 22.3611 97.6571 22.4501 97.6571 22.4501L97.5681 22.2499L97.9019 20.1138C97.9019 20.1138 101.462 20.2696 103.309 20.2696C104.977 20.2696 109.316 20.0693 109.316 20.0693C115.368 20.0693 119.106 22.9841 119.106 27.7234C119.106 31.6172 116.481 35.0437 111.942 37.0907L117.304 45.5681C119.195 48.6386 120.708 49.7066 123.356 49.7066L123.556 49.9069L123.267 51.5756L119.129 52.1096C117.527 52.1096 115.524 50.3074 113.967 47.4816L108.76 38.0253H104.71L104.688 37.9808ZM109.806 35.7335C109.806 35.7335 115.079 34.3095 115.079 28.5689C115.079 24.2746 112.097 22.1386 106.157 22.1386C105.467 22.1386 105.333 22.3834 105.289 23.2511C105 28.4132 104.844 31.8397 104.799 35.244L109.828 35.7335H109.806Z" fill="#725054"/>
<path d="M138.174 49.1047C145.873 49.1047 146.807 48.5262 147.586 43.1639L149.722 42.9192L149.878 43.1639C149.878 43.1639 149.01 47.2134 148.565 51.352L148.32 51.6412C148.32 51.6412 138.174 51.3075 133.546 51.3075C129.83 51.3075 126.76 51.797 126.76 51.797L127.049 49.5497C129.964 49.1492 130.854 48.237 130.854 45.4557L130.898 24.9855C130.898 22.894 130.565 22.36 129.096 22.36C128.518 22.36 127.427 22.449 127.427 22.449L127.338 22.2487L127.672 20.1127C127.672 20.1127 131.521 20.2684 134.458 20.2684C142.201 20.2684 145.873 20.1127 149.077 19.6899L149.232 19.9792C149.232 19.9792 148.409 23.5837 148.12 28.0783L145.784 28.2785C145.784 28.2785 145.873 26.8545 145.873 26.187C145.873 23.0275 145.294 22.716 138.419 22.716C135.259 22.716 135.059 22.805 135.015 24.6072L134.614 34.0636C135.682 34.0636 138.174 34.1081 139.643 34.1081C141.4 34.1081 145.583 33.5741 145.583 33.5741L145.784 33.8188L145.094 36.6891C145.094 36.6891 140.911 36.5333 138.263 36.5333C136.795 36.5333 135.348 36.7336 134.503 36.8671C134.347 42.1404 134.303 44.5657 134.303 46.1899C134.303 48.8155 134.636 49.1047 138.152 49.1047H138.174Z" fill="#725054"/>
<path d="M155.798 50.2186L155.554 49.729C155.554 49.729 156.132 45.9688 156.132 41.2517L158.335 41.007C158.335 48.038 159.403 49.4843 164.676 49.4843C168.726 49.4843 171.463 47.4373 171.463 44.122C171.463 40.8067 167.814 39.2047 164.053 37.2467C160.16 35.1997 156.11 32.9524 156.11 28.7026C156.11 23.585 160.983 19.6245 167.324 19.6245C171.663 19.6245 174.778 20.8483 174.778 20.8483L174.934 21.1375C174.934 21.1375 174.155 24.8978 173.866 29.3701L171.974 29.5704L171.685 29.3256C171.685 29.3256 171.841 28.3021 171.841 26.7891C171.841 23.3848 170.417 22.25 166.034 22.25C162.474 22.25 159.892 24.2526 159.892 26.9226C159.892 29.8374 163.052 31.6619 166.523 33.4641C170.773 35.6669 175.534 37.8919 175.534 42.342C175.534 47.9045 170.55 51.8428 163.497 51.8428C158.913 51.8428 155.843 50.1741 155.843 50.1741L155.798 50.2186Z" fill="#725054"/>
<path d="M181.628 50.2186L181.383 49.729C181.383 49.729 181.961 45.9688 181.961 41.2517L184.164 41.007C184.164 48.038 185.232 49.4843 190.505 49.4843C194.555 49.4843 197.292 47.4373 197.292 44.122C197.292 40.8067 193.643 39.2047 189.882 37.2467C185.989 35.1997 181.939 32.9524 181.939 28.7026C181.939 23.585 186.812 19.6245 193.153 19.6245C197.492 19.6245 200.607 20.8483 200.607 20.8483L200.763 21.1375C200.763 21.1375 199.984 24.8978 199.695 29.3701L197.803 29.5704L197.514 29.3256C197.514 29.3256 197.67 28.3021 197.67 26.7891C197.67 23.3848 196.246 22.25 191.863 22.25C188.303 22.25 185.722 24.2526 185.722 26.9226C185.722 29.8374 188.881 31.6619 192.352 33.4641C196.602 35.6669 201.364 37.8919 201.364 42.342C201.364 47.9045 196.379 51.8428 189.326 51.8428C184.743 51.8428 181.672 50.1741 181.672 50.1741L181.628 50.2186Z" fill="#725054"/>
<path d="M243.84 45.8343C243.84 48.4598 244.285 49.1496 245.976 49.1496C246.955 49.1496 248.179 48.9938 248.179 48.9938L248.268 49.1941L247.823 51.4413C247.823 51.4413 243.974 51.2856 241.816 51.2856C240.102 51.2856 236.209 51.3746 236.209 51.3746L236.654 49.1718C239.724 49.1273 240.369 48.2373 240.369 43.9653V36.6005C240.369 36.6005 235.207 36.556 232.96 36.556C231.403 36.556 224.861 37.09 224.861 37.09L224.661 45.812C224.661 48.4376 225.106 49.1273 226.797 49.1273C227.776 49.1273 229 48.9716 229 48.9716L229.089 49.1718L228.644 51.4191C228.644 51.4191 226.196 51.2633 224.505 51.2633C221.679 51.2633 217.185 51.5971 217.096 51.8418L217.385 49.5946C220.411 49.0161 221.19 48.1261 221.19 45.4115L221.234 24.9413C221.234 22.8498 220.9 22.3158 219.432 22.3158C218.853 22.3158 217.763 22.4048 217.763 22.4048L217.674 22.2046L218.008 20.0685C218.008 20.0685 221.568 20.2243 223.415 20.2243C225.506 20.2243 228.621 19.7793 228.621 19.7793L228.421 21.9821C225.595 22.4271 225.351 22.9611 225.195 26.3654L224.906 34.2642L233.094 34.3087C235.541 34.3087 237.432 34.1529 240.303 33.8192L240.347 24.9413C240.347 22.8498 240.013 22.3158 238.545 22.3158C237.966 22.3158 236.876 22.4048 236.876 22.4048L236.787 22.2046L237.121 20.0685C237.121 20.0685 240.347 20.2243 241.905 20.2243C244.241 20.2243 247.756 19.7793 247.756 19.7793L247.556 21.9821C245.109 22.3158 244.53 22.9166 244.441 24.7633C244.107 31.8834 243.751 41.7848 243.751 45.8343H243.84Z" fill="#725054"/>
<path d="M261.439 45.8345C261.439 48.46 261.884 49.1498 263.575 49.1498C264.754 49.1498 266.156 48.994 266.156 48.994L266.245 49.1943L265.8 51.4416C265.8 51.4416 261.706 51.2858 259.414 51.2858C256.922 51.2858 253.763 51.8643 253.763 51.8643L254.052 49.617C257.122 49.0385 257.946 48.1485 257.946 45.434L257.99 24.9638C257.99 22.9168 257.656 22.3383 256.188 22.3383C255.454 22.3383 254.141 22.4273 254.141 22.4273L254.052 22.227L254.386 20.091C254.386 20.091 258.19 20.2468 260.193 20.2468C262.44 20.2468 265.8 19.8018 265.8 19.8018L265.6 22.0045C262.863 22.3383 262.196 22.939 262.084 24.7858C261.751 31.8614 261.395 41.8072 261.395 45.8568L261.439 45.8345Z" fill="#725054"/>
<path d="M271.987 51.7753L272.277 49.528C274.813 49.1275 275.592 48.2153 275.592 45.434L275.636 24.9638C275.636 22.8723 275.303 22.3383 273.834 22.3383C273.256 22.3383 272.165 22.4273 272.165 22.4273L272.076 22.227L272.41 20.091C272.41 20.091 276.015 20.2468 277.861 20.2468C279.953 20.2468 283.068 19.8018 283.068 19.8018L282.868 22.0045C279.597 22.4495 279.886 23.2728 279.642 26.5436C279.197 32.6401 279.063 40.9172 279.063 45.3672C279.063 48.6825 279.553 49.1275 283.202 49.1275C288.853 49.1275 289.877 48.193 290.945 42.2077L293.081 41.963L293.236 42.2077C293.236 42.2077 292.369 46.6355 291.812 51.4638L291.568 51.7531C291.568 51.7531 283.09 51.3081 278.44 51.3081C274.791 51.3081 271.898 51.7976 271.898 51.7976L271.987 51.7753Z" fill="#725054"/>
<path d="M296.705 51.7753L296.994 49.528C299.531 49.1275 300.31 48.2153 300.31 45.434L300.354 24.9638C300.354 22.8723 300.02 22.3383 298.552 22.3383C297.973 22.3383 296.883 22.4273 296.883 22.4273L296.794 22.227L297.128 20.091C297.128 20.091 300.733 20.2468 302.579 20.2468C304.671 20.2468 307.786 19.8018 307.786 19.8018L307.586 22.0045C304.315 22.4495 304.604 23.2728 304.359 26.5436C303.914 32.6401 303.781 40.9172 303.781 45.3672C303.781 48.6825 304.27 49.1275 307.919 49.1275C313.571 49.1275 314.594 48.193 315.662 42.2077L317.798 41.963L317.954 42.2077C317.954 42.2077 317.086 46.6355 316.53 51.4638L316.285 51.7531C316.285 51.7531 307.808 51.3081 303.158 51.3081C299.509 51.3081 296.616 51.7976 296.616 51.7976L296.705 51.7753Z" fill="#725054"/>
<path d="M97.9223 9.68007C97.722 10.0361 97.5218 10.4143 97.3438 10.7703C96.6763 12.0386 96.0088 13.3069 95.3858 14.5974C95.2523 14.8644 95.1188 15.1536 94.963 15.4429C94.785 15.7544 94.607 16.0659 94.3845 16.3774C93.984 16.9336 93.45 17.4231 92.8937 17.8237C92.8047 17.8904 92.738 17.9349 92.649 18.0017C91.848 17.7792 91.047 18.1352 90.246 18.2909C85.7292 19.1809 86.6414 16.3996 76.7178 16.5999C75.0936 16.6221 72.646 17.0671 70.421 17.3786C70.243 16.8001 69.798 15.5096 69.5978 14.9311C68.908 12.8619 68.1737 10.8148 67.395 8.76782C67.2392 8.36731 67.0835 7.94456 66.9277 7.54405C67.128 7.49955 67.3282 7.4773 67.5285 7.4328C67.5285 7.4328 67.6842 7.87781 67.929 8.52306C68.6633 10.4811 70.3988 14.3971 72.4903 14.1746C74.9601 13.9744 75.2048 9.34632 75.1603 7.0323C75.1603 6.25354 75.0936 5.74179 75.0936 5.74179C75.3606 5.74179 75.6498 5.71954 75.9168 5.71954C75.9168 5.71954 75.9168 6.20904 76.0058 6.9433C76.2061 9.25732 76.8958 14.0411 78.9651 13.9299C81.6351 13.8631 82.3026 6.9433 82.4584 3.58352C82.5029 2.49326 82.5029 1.78125 82.4806 1.78125L83.2371 1.82575C83.2371 1.82575 83.1259 2.53776 83.0591 3.62802C82.7921 6.9878 82.6364 13.9076 85.2619 14.3526C87.3312 14.7531 88.5772 9.94708 89.0444 7.74431C89.1779 7.0768 89.2447 6.6318 89.2669 6.6318C89.5339 6.6763 89.8232 6.7208 90.0902 6.78755C90.0902 6.78755 89.9567 7.23255 89.801 7.94456C89.3559 10.1028 88.7552 14.6196 91.136 15.3984C93.4945 16.2439 95.853 12.3946 96.8543 10.4811C97.1658 9.88033 97.3438 9.47982 97.366 9.47982C97.5663 9.54657 97.7665 9.59107 97.9445 9.65782L97.9223 9.68007Z" fill="#725054"/>
<path d="M90.757 6.83162C90.7125 7.49912 90.1785 7.98863 89.5555 7.94413C88.9325 7.89963 88.4653 7.34337 88.5098 6.67587C88.5543 6.00836 89.0883 5.51885 89.7113 5.56335C90.3343 5.60785 90.8015 6.16411 90.757 6.83162Z" fill="#725054"/>
<path d="M98.7024 9.67927C98.6579 10.3468 98.1238 10.8363 97.5008 10.7918C96.8778 10.7473 96.4106 10.191 96.4551 9.52352C96.4996 8.85602 97.0336 8.36651 97.6566 8.41101C98.2796 8.45551 98.7469 9.01177 98.7024 9.67927Z" fill="#725054"/>
<path d="M76.5607 5.98494C76.5162 6.65244 75.9822 7.14195 75.3592 7.09745C74.7362 7.05295 74.269 6.49669 74.3135 5.82919C74.358 5.16168 74.892 4.67217 75.515 4.71667C76.138 4.76118 76.6052 5.31743 76.5607 5.98494Z" fill="#725054"/>
<path d="M68.3762 7.67683C68.3317 8.34434 67.7977 8.83384 67.1747 8.78934C66.5517 8.74484 66.0844 8.18859 66.1289 7.52108C66.1734 6.85357 66.7074 6.36407 67.3304 6.40857C67.9534 6.45307 68.4207 7.00932 68.3762 7.67683Z" fill="#725054"/>
<path d="M84.551 1.95783C84.4842 2.95909 83.661 3.73784 82.7265 3.67109C81.7697 3.60434 81.0577 2.73658 81.1245 1.73532C81.1912 0.734065 82.0145 -0.0446927 82.949 0.0220579C83.9057 0.0888085 84.6177 0.956567 84.551 1.95783Z" fill="#725054"/>
<path d="M94.5622 16.0873C94.4954 16.243 94.4287 16.3765 94.3397 16.5323C94.2507 16.7103 94.1394 16.866 94.0281 17.0218C93.8056 17.3333 93.5387 17.6003 93.2271 17.8005C93.1826 17.8228 93.1381 17.8673 93.0936 17.8895C92.9824 17.9563 92.8711 18.023 92.7599 18.0898C92.6041 18.1788 92.4261 18.2455 92.2704 18.3123C91.9366 18.4458 91.5806 18.5348 91.2469 18.5793C90.5571 18.6905 89.8674 18.7128 89.1776 18.6905C88.4879 18.6683 87.7981 18.5793 87.1306 18.4458C86.7968 18.379 86.4631 18.3123 86.1293 18.2455L85.1503 18.023C84.5051 17.8673 83.8598 17.7115 83.2146 17.578C81.924 17.311 80.6335 17.1108 79.3208 17.0218C78.008 16.9105 76.6952 16.9328 75.3825 16.9773C75.0487 16.9773 74.715 16.9995 74.4035 17.044C74.0697 17.044 73.736 17.0885 73.4245 17.133C72.757 17.1998 72.1117 17.2665 71.4664 17.3778C70.1537 17.578 68.8632 17.8895 67.5949 18.29C66.9719 18.4903 66.3266 18.735 65.7259 18.9798C65.1029 19.2468 64.5021 19.5138 63.9014 19.8253C64.1906 19.6473 64.4799 19.4693 64.7691 19.3135C64.9249 19.2245 65.0584 19.1355 65.2141 19.0688L65.6591 18.8463C66.2599 18.5348 66.8829 18.2455 67.5059 18.0008C68.1289 17.756 68.7742 17.5335 69.4194 17.3333C70.0647 17.1553 70.7322 16.9773 71.3774 16.8438C72.0449 16.7103 72.6902 16.599 73.3577 16.4878C73.6915 16.4433 74.0252 16.3988 74.359 16.3543C74.6927 16.3098 75.0265 16.2875 75.3602 16.243C75.694 16.2208 76.0277 16.1985 76.3615 16.1763C76.6952 16.1763 77.029 16.154 77.3627 16.1318C78.0303 16.1318 78.72 16.1318 79.3875 16.1318C79.8325 16.1318 80.2998 16.1763 80.7448 16.2208C80.9673 16.2208 81.1898 16.2653 81.4123 16.2875C82.0798 16.3765 82.7473 16.4655 83.4148 16.599C83.8153 16.6658 84.2381 16.7548 84.6386 16.8438C85.5508 17.044 86.4408 17.2443 87.3308 17.4C92.0034 18.29 93.8279 16.9105 94.6289 16.0205L94.5622 16.0873Z" fill="#725054"/>
</g>
<defs>
<clipPath id="clip0_227_46">
<rect width="318" height="52.2212" fill="white"/>
</clipPath>
</defs>
</svg>
